<?xml version="1.0" standalone="no"?>
<!DOCTYPE svg PUBLIC "-//W3C//DTD SVG 1.1//EN" "http://www.w3.org/Graphics/SVG/1.1/DTD/svg11.dtd" >
<svg xmlns="http://www.w3.org/2000/svg" xmlns:xlink="http://www.w3.org/1999/xlink" version="1.1">
<metadata>
Created by FontForge 20170731 at Mon Jul 15 15:19:30 2019
 By Aleksey,,,
Copyright (c) 2019 by Somfy S.A. All rights reserved.
</metadata>
<defs>
<font id="SomfySans-Light" horiz-adv-x="500" >
  <font-face 
    font-family="Somfy Sans Light"
    font-weight="300"
    font-stretch="normal"
    units-per-em="1000"
    panose-1="0 0 4 0 0 0 0 0 0 0"
    ascent="800"
    descent="-200"
    x-height="475"
    cap-height="676"
    bbox="-754 -213 1143 1074"
    underline-thickness="50"
    underline-position="-150"
    unicode-range="U+000D-FB02"
  />
<missing-glyph horiz-adv-x="537" 
d="M446 676v-676h-355v676h355zM153 636l114 -252l115 252h-229zM290 340l115 -253v505zM131 588v-498l114 250zM267 295l-116 -255h233z" />
    <glyph glyph-name="fi" unicode="fi" horiz-adv-x="461" 
d="M385 0h-45v431h-183v-431h-45v431h-98v44h98v53q0 75 37.5 111.5t101.5 36.5h105v-43h-104q-95 0 -95 -105v-53h228v-475z" />
    <glyph glyph-name="fl" unicode="fl" horiz-adv-x="463" 
d="M14 432v43h98v54q0 74 37 110.5t100 36.5h38v-43h-38q-42 0 -67 -24.5t-25 -79.5v-54h117v-43h-117v-432h-45v432h-98zM387 676v-676h-45v676h45z" />
    <glyph glyph-name="f_f" unicode="ff" horiz-adv-x="545" 
d="M410 642q-25 -25 -25 -80v-87h126v-43h-126v-432h-45v432h-183v-432h-45v432h-98v43h98v53q0 75 37 111.5t100 36.5h46v-43h-45q-43 0 -68 -25t-25 -80v-53h183v87q0 75 37 111.5t100 36.5h48v-43h-47q-43 0 -68 -25z" />
    <glyph glyph-name="f_f_i" unicode="ffi" horiz-adv-x="676" 
d="M14 432v43h98v53q0 75 37 111.5t100 36.5h46v-43h-45q-43 0 -68 -25t-25 -80v-53h183v87q0 75 37 111.5t100 36.5h91v-43h-90q-43 0 -68 -25t-25 -80v-87h228v-475h-45v432h-183v-432h-45v432h-183v-432h-45v432h-98z" />
    <glyph glyph-name="f_f_l" unicode="ffl" horiz-adv-x="691" 
d="M14 432v43h98v53q0 75 37 111.5t100 36.5h46v-43h-45q-43 0 -68 -25t-25 -80v-53h183v88q0 75 37 111t100 36h38v-43h-38q-42 0 -67 -24.5t-25 -79.5v-88h116v-43h-116v-432h-45v432h-183v-432h-45v432h-98zM615 676v-676h-45v676h45z" />
    <glyph glyph-name=".notdef" horiz-adv-x="537" 
d="M446 676v-676h-355v676h355zM153 636l114 -252l115 252h-229zM290 340l115 -253v505zM131 588v-498l114 250zM267 295l-116 -255h233z" />
    <glyph glyph-name=".null" horiz-adv-x="108" 
 />
    <glyph glyph-name="nonmarkingreturn" unicode="&#xd;" horiz-adv-x="305" 
 />
    <glyph glyph-name="space" unicode=" " horiz-adv-x="207" 
 />
    <glyph glyph-name="exclam" unicode="!" horiz-adv-x="253" 
d="M151 676l-3 -535h-43l-3 535h49zM101.5 3q-10.5 10 -10.5 25t10.5 25t24.5 10q15 0 25.5 -10t10.5 -25t-10.5 -25t-25.5 -10q-14 0 -24.5 10z" />
    <glyph glyph-name="quotedbl" unicode="&#x22;" horiz-adv-x="333" 
d="M134 676v-211h-43v211h43zM242 676v-211h-43v211h43z" />
    <glyph glyph-name="numbersign" unicode="#" horiz-adv-x="648" 
d="M497 446l-32 -214h99l-4 -39h-101l-29 -192h-40l29 192h-236l-29 -192h-41l29 192h-94l4 39h96l32 214h-94l3 39h97l29 192h40l-29 -192h236l29 192h41l-29 -192h97l-4 -39h-99zM456 446h-236l-31 -214h236z" />
    <glyph glyph-name="dollar" unicode="$" 
d="M399.5 48q-46.5 -47 -128.5 -57v-111h-40v108h-4q-53 0 -105 14.5t-85 36.5v46q40 -26 89 -40t98 -14h7v289q-64 23 -101.5 42.5t-64 54.5t-26.5 91q0 81 54 127.5t138 51.5v88h40v-88q72 -5 144 -40v-46q-72 38 -144 43v-290q55 -20 91 -40t60 -54.5t24 -87.5
q0 -77 -46.5 -124zM125 424.5q36 -29.5 106 -55.5v275q-63 -5 -102.5 -39.5t-39.5 -94.5q0 -56 36 -85.5zM363.5 79q32.5 35 32.5 91q0 53 -32 82.5t-93 53.5v-271q60 9 92.5 44z" />
    <glyph glyph-name="percent" unicode="%" horiz-adv-x="798" 
d="M132 386.5q-36 21.5 -56.5 58t-20.5 81.5t20.5 81.5t56.5 58t81 21.5q44 0 80 -21.5t56.5 -58.5t20.5 -81t-20.5 -81t-56.5 -58.5t-80 -21.5q-45 0 -81 21.5zM298 437.5q34 35.5 34 88.5t-34 88.5t-85 35.5t-85.5 -35.5t-34.5 -88.5t34.5 -88.5t85.5 -35.5t85 35.5z
M635 575l24 -27l-496 -448l-24 27zM505 8.5q-36 21.5 -57 58.5t-21 81t21 81t57 58.5t81 21.5q44 0 80 -21.5t56.5 -58.5t20.5 -81t-20.5 -81t-56.5 -58.5t-80 -21.5q-45 0 -81 21.5zM670.5 60q34.5 36 34.5 88t-34.5 88t-84.5 36q-51 0 -86 -36t-35 -88t35 -88t86 -36
q50 0 84.5 36z" />
    <glyph glyph-name="ampersand" unicode="&#x26;" horiz-adv-x="667" 
d="M559 0l-66 69q-41 -38 -96 -59.5t-120 -21.5q-75 0 -127.5 25t-78 67t-25.5 92q0 59 37 114t114 93l-2 2q-47 49 -68 86t-21 79q0 67 44.5 104t105.5 37q38 0 72.5 -16t55.5 -48t21 -77q0 -99 -139 -175l224 -234q34 53 34 120q0 55 -23 105h49q22 -57 22 -108
q0 -84 -50 -151l99 -103h-62zM169.5 482q17.5 -29 55.5 -69l12 -13q123 63 123 145q0 47 -31 73.5t-73 26.5t-73 -26.5t-31 -73.5q0 -34 17.5 -63zM382 49.5q47 18.5 80 51.5l-236 248q-64 -30 -98 -77.5t-34 -97.5q0 -39 21 -71.5t63 -52t101 -19.5q56 0 103 18.5z" />
    <glyph glyph-name="quotesingle" unicode="'" horiz-adv-x="225" 
d="M134 676v-211h-43v211h43z" />
    <glyph glyph-name="parenleft" unicode="(" horiz-adv-x="270" 
d="M102 39q-37 133 -37 261t37 261t104 214h49q-68 -79 -105 -212.5t-37 -262.5q0 -130 37.5 -263t105.5 -212h-50q-67 81 -104 214z" />
    <glyph glyph-name="parenright" unicode=")" horiz-adv-x="270" 
d="M120 37q37 133 37 263q0 129 -37 262.5t-105 212.5h49q67 -82 104.5 -214.5t37.5 -260.5t-37.5 -260.5t-104.5 -214.5h-49q68 79 105 212z" />
    <glyph glyph-name="asterisk" unicode="*" horiz-adv-x="362" 
d="M110 424q-9 0 -15.5 6t-6.5 15q0 6 5 13q22 28 66 78l-47 12q-28 5 -53 13q-7 2 -11 8t-4 12q0 9 5.5 15.5t14.5 6.5l8 -2l44 -17l51 -20l-3 44q-4 44 -4 58q0 11 6.5 16.5t14.5 5.5q9 0 15 -5.5t6 -16.5q0 -14 -4 -58l-3 -44l57 22l38 15l8 2q9 0 14.5 -6.5t5.5 -15.5
q0 -6 -4 -12t-11 -8q-13 -4 -28 -7.5t-29 -7.5q-27 -5 -43 -10q53 -60 66 -78q5 -8 5 -13q0 -9 -6.5 -15t-15.5 -6q-11 0 -17 9q-13 17 -31 50l-23 37l-23 -37q-18 -32 -31 -50q-6 -9 -17 -9z" />
    <glyph glyph-name="plus" unicode="+" 
d="M462 311h-192v-192h-40v192h-192v40h192v193h40v-193h192v-40z" />
    <glyph glyph-name="comma" unicode="," horiz-adv-x="250" 
d="M84.5 -104.5q15.5 38.5 15.5 81.5q0 36 -10 67h45q10 -31 10 -68q0 -49 -18.5 -92.5t-51.5 -69.5l-36 14q30 29 45.5 67.5z" />
    <glyph glyph-name="hyphen" unicode="-" 
d="M400 344v-44h-300v44h300z" />
    <glyph glyph-name="period" unicode="." horiz-adv-x="250" 
d="M100 3q-10 10 -10 25t10 25t25 10t25 -10t10 -25t-10 -25t-25 -10t-25 10z" />
    <glyph glyph-name="slash" unicode="/" horiz-adv-x="449" 
d="M427 800l-357 -880h-48l357 880h48z" />
    <glyph glyph-name="zero" unicode="0" 
d="M97.5 76q-52.5 88 -52.5 263q0 174 52.5 261.5t152.5 87.5t152.5 -87.5t52.5 -261.5q0 -175 -52.5 -263t-152.5 -88t-152.5 88zM407 339q0 303 -157 303t-157 -303q0 -305 157 -305t157 305z" />
    <glyph glyph-name="one" unicode="1" 
d="M421 44v-44h-319v44h138v579l-155 -45v45l169 53h31v-632h136z" />
    <glyph glyph-name="two" unicode="2" 
d="M143 126q72 82 114.5 137.5t72.5 119.5t30 128q0 62 -37 96.5t-99 34.5q-40 0 -78.5 -13.5t-71.5 -39.5v52q34 23 74 35t79 12q81 0 131 -46.5t50 -129.5q0 -69 -28.5 -135t-70 -121.5t-106.5 -130.5q-26 -29 -67 -80h292v-45h-356v43z" />
    <glyph glyph-name="three" unicode="3" 
d="M145 -2q-41 10 -82 32v47q85 -44 172 -44q45 0 80.5 19.5t55.5 54t20 77.5q0 68 -43 109t-113 41h-98v44h98q60 0 99.5 38.5t39.5 95.5q0 62 -42.5 96t-106.5 34q-77 0 -146 -42v48q69 40 148 40q84 0 139 -46.5t55 -128.5q0 -55 -26 -93.5t-79 -62.5q59 -19 90.5 -64.5
t31.5 -109.5q0 -57 -25.5 -101.5t-71.5 -69t-105 -24.5q-50 0 -91 10z" />
    <glyph glyph-name="four" unicode="4" 
d="M39 159v40l211 477h50l-211 -474h232v219h44v-219h87v-43h-87v-159h-44v159h-282z" />
    <glyph glyph-name="five" unicode="5" 
d="M76 10v48q63 -25 119 -25q58 0 99 23.5t62 62t21 84.5t-20 85.5t-61 63.5t-102 24h-92v300h294v-45h-247v-214h53q73 0 123.5 -29.5t75 -78.5t24.5 -106q0 -58 -27 -107.5t-78.5 -78.5t-122.5 -29q-60 0 -121 22z" />
    <glyph glyph-name="six" unicode="6" 
d="M355 402.5q41 -27.5 64 -76.5t23 -112q0 -100 -50 -162t-137 -62q-91 0 -144 85.5t-53 241.5q0 187 63 279t180 92q49 0 93 -16v-47q-54 18 -93 18q-94 0 -142.5 -72.5t-53.5 -225.5q26 39 67.5 62t89.5 23q52 0 93 -27.5zM358.5 83q37.5 49 37.5 131q0 78 -38 126.5
t-101 48.5q-44 0 -85 -26t-68 -72q3 -121 44 -189t109 -68q64 0 101.5 49z" />
    <glyph glyph-name="seven" unicode="7" 
d="M221 324q59 152 166 306h-328v46h382v-43q-78 -116 -126.5 -210t-75.5 -197.5t-27 -225.5h-50q0 172 59 324z" />
    <glyph glyph-name="eight" unicode="8" 
d="M145.5 12.5q-45.5 24.5 -70.5 69t-25 101.5q0 64 31 108.5t90 65.5q-53 24 -79 62.5t-26 93.5q0 78 51.5 126.5t132.5 48.5t132.5 -48.5t51.5 -126.5q0 -109 -105 -156q59 -21 90.5 -66t31.5 -108q0 -57 -25.5 -101.5t-71 -69t-104.5 -24.5t-104.5 24.5zM348 416.5
q39 38.5 39 95.5q0 56 -39 94t-98 38t-98 -38t-39 -94q0 -57 39 -95.5t98 -38.5t98 38.5zM329 52q35 20 54.5 54.5t19.5 77.5q0 69 -41 109.5t-112 40.5t-112 -40.5t-41 -109.5q0 -43 19.5 -77.5t54.5 -54.5t79 -20t79 20z" />
    <glyph glyph-name="nine" unicode="9" 
d="M389 599.5q53 -85.5 53 -241.5q0 -187 -63 -279t-180 -92q-49 0 -93 16v47q54 -18 93 -18q94 0 142.5 72.5t53.5 225.5q-26 -39 -67.5 -62t-89.5 -23q-52 0 -93 27.5t-64 76.5t-23 112q0 100 50 162t137 62q91 0 144 -85.5zM328 312q41 26 68 72q-3 121 -44 189t-109 68
q-64 0 -101.5 -49t-37.5 -131q0 -78 38 -126.5t101 -48.5q44 0 85 26z" />
    <glyph glyph-name="colon" unicode=":" horiz-adv-x="250" 
d="M100 3q-10 10 -10 25t10 25t25 10t25 -10t10 -25t-10 -25t-25 -10t-25 10zM100 430q-10 10 -10 25t10 25t25 10t25 -10t10 -25t-10 -25t-25 -10t-25 10z" />
    <glyph glyph-name="semicolon" unicode=";" horiz-adv-x="250" 
d="M85 427q-10 10 -10 25t10 25t25 10t25 -10t10 -25t-10 -25t-25 -10t-25 10zM84.5 -104.5q15.5 38.5 15.5 81.5q0 36 -10 67h45q10 -31 10 -68q0 -49 -18.5 -92.5t-51.5 -69.5l-36 14q30 29 45.5 67.5z" />
    <glyph glyph-name="less" unicode="&#x3c;" 
d="M62 335l376 219v-46l-332 -194l332 -193v-47l-376 219v42z" />
    <glyph glyph-name="equal" unicode="=" 
d="M462 463v-40h-424v40h424zM462 239v-40h-424v40h424z" />
    <glyph glyph-name="greater" unicode="&#x3e;" 
d="M394 314l-332 194v46l376 -219v-42l-376 -219v47z" />
    <glyph glyph-name="question" unicode="?" horiz-adv-x="394" 
d="M129 324q84 0 125.5 46t41.5 114q0 75 -47.5 116.5t-119.5 41.5q-44 0 -88 -15v45q48 16 96 16q59 0 106.5 -24.5t75 -70.5t27.5 -108q0 -52 -22 -97t-66 -72.5t-107 -27.5h-14v-147h-46v183h38zM89.5 3q-10.5 10 -10.5 25t10.5 25t24.5 10q15 0 25 -10t10 -25t-10 -25
t-25 -10q-14 0 -24.5 10z" />
    <glyph glyph-name="at" unicode="@" horiz-adv-x="787" 
d="M220.5 -128.5q-72.5 46.5 -108.5 122t-36 162.5q0 89 36 164.5t108.5 121t176.5 45.5q103 0 173.5 -41.5t105 -108t34.5 -142.5q0 -52 -17 -97t-49 -71.5t-75 -26.5q-34 0 -58.5 16.5t-30.5 52.5q-18 -32 -47 -51t-60 -19q-37 0 -66.5 21.5t-46 58t-16.5 79.5
q0 72 38 117t107 45q68 0 120 -37v-162q0 -45 15 -64t46 -19q45 0 73 45t28 111q0 62 -29 121t-90.5 97t-154.5 38q-90 0 -153.5 -41.5t-95.5 -108.5t-32 -144q0 -76 32 -143.5t96 -109t154 -41.5v-37q-105 0 -177.5 46.5zM472 118v140q-16 12 -40 19.5t-43 7.5
q-48 0 -77 -35t-29 -91q0 -52 27 -88.5t67 -36.5q61 0 95 84z" />
    <glyph glyph-name="A" unicode="A" horiz-adv-x="595" 
d="M449 213h-306l-79 -213h-47l252 676h58l251 -676h-51zM433 258l-135 371l-138 -371h273z" />
    <glyph glyph-name="B" unicode="B" horiz-adv-x="553" 
d="M257 676q98 0 157.5 -45t59.5 -124q0 -61 -37.5 -104.5t-96.5 -57.5q69 -14 111 -57t42 -106q0 -86 -66 -134t-172 -48h-164v676h166zM375.5 403.5q49.5 38.5 49.5 101.5q0 61 -44.5 94t-121.5 33h-121v-267h108q80 0 129.5 38.5zM392.5 81.5q50.5 37.5 50.5 102.5
q0 63 -53.5 100t-141.5 37h-110v-277h123q81 0 131.5 37.5z" />
    <glyph glyph-name="C" unicode="C" horiz-adv-x="596" 
d="M197.5 31q-75.5 43 -117 122.5t-41.5 184.5t41.5 184.5t117 122.5t174.5 43q91 0 159 -33v-47q-69 34 -157 34q-83 0 -147.5 -37.5t-101 -106.5t-36.5 -160t36.5 -160t101 -106.5t147.5 -37.5q92 0 166 41v-47q-75 -40 -168 -40q-99 0 -174.5 43z" />
    <glyph glyph-name="D" unicode="D" horiz-adv-x="652" 
d="M245 676q114 0 196.5 -40t126.5 -116t44 -182t-44 -182t-126.5 -116t-196.5 -40h-154v676h154zM479 121q84 76 84 217t-84 217t-234 76h-107v-586h107q150 0 234 76z" />
    <glyph glyph-name="E" unicode="E" horiz-adv-x="522" 
d="M429 676v-45h-291v-255h285v-45h-285v-286h297v-45h-344v676h338z" />
    <glyph glyph-name="F" unicode="F" horiz-adv-x="520" 
d="M423 676v-45h-285v-267h274v-45h-274v-319h-47v676h332z" />
    <glyph glyph-name="G" unicode="G" horiz-adv-x="765" 
d="M688 0h-43v154q-16 -43 -57 -81.5t-97 -61.5t-115 -23q-95 0 -172 44.5t-121 124t-44 181.5q0 101 44 180.5t122 124.5t177 45q91 0 159 -33v-47q-69 34 -157 34q-84 0 -151.5 -38.5t-105.5 -108t-38 -157.5q0 -89 37.5 -158.5t103.5 -107.5t148 -38q57 0 118.5 28
t103 84.5t41.5 137.5v20h-243v46h290v-350z" />
    <glyph glyph-name="H" unicode="H" horiz-adv-x="726" 
d="M138 676v-309h451v309h47v-676h-47v322h-451v-322h-47v676h47z" />
    <glyph glyph-name="I" unicode="I" horiz-adv-x="228" 
d="M138 676v-676h-47v676h47z" />
    <glyph glyph-name="J" unicode="J" horiz-adv-x="339" 
d="M48 45h59q54 0 80.5 33t26.5 94v504h47v-505q0 -88 -41.5 -129.5t-107.5 -41.5h-64v45z" />
    <glyph glyph-name="K" unicode="K" horiz-adv-x="611" 
d="M572 45v-45h-28q-49 0 -86.5 25.5t-73.5 83.5l-139 230h-107v-339h-47v676h47v-292h105l209 292h57l-225 -310l142 -232q29 -47 57.5 -68t62.5 -21h26z" />
    <glyph glyph-name="L" unicode="L" horiz-adv-x="479" 
d="M138 676v-631h293v-45h-340v676h47z" />
    <glyph glyph-name="M" unicode="M" horiz-adv-x="835" 
d="M146 676l271 -512l272 512h55v-676h-47v596l-257 -485h-46l-256 485v-596h-47v676h55z" />
    <glyph glyph-name="N" unicode="N" horiz-adv-x="712" 
d="M138 676l438 -605v605h46v-676h-48l-437 605v-605h-46v676h47z" />
    <glyph glyph-name="O" unicode="O" horiz-adv-x="756" 
d="M203.5 33q-77.5 45 -121 125t-43.5 180t43.5 180t121 125t174.5 45t174 -45t121 -125t44 -180t-44 -180t-121 -125t-174 -45t-174.5 45zM527 73q66 39 103 108.5t37 156.5t-37 156.5t-103 108.5t-149 39q-84 0 -149.5 -39t-102.5 -108t-37 -157t37 -157t102.5 -108
t149.5 -39q83 0 149 39z" />
    <glyph glyph-name="P" unicode="P" horiz-adv-x="539" 
d="M235 676q116 0 179 -53.5t63 -148.5q0 -97 -63.5 -149.5t-178.5 -52.5h-97v-272h-47v676h144zM377.5 357.5q49.5 40.5 49.5 116.5t-49.5 116.5t-140.5 40.5h-99v-314h99q91 0 140.5 40.5z" />
    <glyph glyph-name="Q" unicode="Q" horiz-adv-x="756" 
d="M680.5 172.5q-36.5 -74.5 -101.5 -122t-149 -58.5q13 -59 62.5 -91.5t120.5 -32.5v-45q-84 0 -148.5 40.5t-84.5 124.5h-2q-97 0 -174.5 45t-121 125t-43.5 180t43.5 180t121 125t174.5 45t174 -45t121 -125t44 -180q0 -91 -36.5 -165.5zM527 73q66 39 103 108.5
t37 156.5t-37 156.5t-103 108.5t-149 39q-84 0 -149.5 -39t-102.5 -108t-37 -157t37 -157t102.5 -108t149.5 -39q83 0 149 39z" />
    <glyph glyph-name="R" unicode="R" horiz-adv-x="597" 
d="M575 45v-45h-28q-48 0 -85 25.5t-73 83.5l-110 183q-24 -2 -36 -2h-105v-290h-47v676h154q109 0 172.5 -51.5t63.5 -141.5q0 -71 -40 -119t-113 -65l101 -165q29 -47 56.5 -68t61.5 -21h28zM245 335q88 0 137 39t49 109t-49.5 109t-136.5 39h-107v-296h107z" />
    <glyph glyph-name="S" unicode="S" horiz-adv-x="509" 
d="M136.5 2q-51.5 14 -85.5 37v46q41 -26 90 -40t98 -14q81 0 126.5 36.5t45.5 102.5q0 43 -22.5 71t-55.5 44t-89 36q-63 22 -100.5 41.5t-63.5 54.5t-26 91q0 86 59.5 133t150.5 47q84 0 165 -41v-46q-38 21 -81 32.5t-82 11.5q-71 0 -117 -35t-46 -100q0 -42 22 -69.5
t54.5 -43.5t89.5 -37q62 -22 100 -41.5t64.5 -55.5t26.5 -91q0 -88 -58.5 -136t-160.5 -48q-53 0 -104.5 14z" />
    <glyph glyph-name="T" unicode="T" horiz-adv-x="569" 
d="M36 631v45h497v-45h-225v-631h-47v631h-225z" />
    <glyph glyph-name="U" unicode="U" horiz-adv-x="648" 
d="M201 15.5q-55 27.5 -87.5 84t-32.5 141.5v435h47v-435q0 -101 54 -154t142 -53t142 53t54 154v435h47v-435q0 -85 -32.5 -141.5t-87.5 -84t-123 -27.5t-123 27.5z" />
    <glyph glyph-name="V" unicode="V" horiz-adv-x="641" 
d="M78 676l242 -631l243 631h52l-262 -676h-65l-262 676h52z" />
    <glyph glyph-name="W" unicode="W" horiz-adv-x="984" 
d="M69 676l186 -625l203 625h68l203 -625l187 625h48l-201 -676h-64l-207 624l-207 -624h-64l-201 676h49z" />
    <glyph glyph-name="X" unicode="X" horiz-adv-x="633" 
d="M528 0l-213 299l-213 -299h-55l239 340l-239 336h59l210 -295l211 295h55l-237 -336l241 -340h-58z" />
    <glyph glyph-name="Y" unicode="Y" horiz-adv-x="619" 
d="M51 676h53l206 -355l206 355h52l-235 -404v-272h-47v272z" />
    <glyph glyph-name="Z" unicode="Z" horiz-adv-x="617" 
d="M476 631h-409v45h467v-43l-411 -588h429v-45h-487v43z" />
    <glyph glyph-name="bracketleft" unicode="[" horiz-adv-x="273" 
d="M235 775v-42h-100v-865h100v-43h-144v950h144z" />
    <glyph glyph-name="backslash" unicode="\" horiz-adv-x="449" 
d="M379 -80l-357 880h48l357 -880h-48z" />
    <glyph glyph-name="bracketright" unicode="]" horiz-adv-x="273" 
d="M38 -175v43h100v865h-100v42h144v-950h-144z" />
    <glyph glyph-name="asciicircum" unicode="^" horiz-adv-x="583" 
d="M312 676l218 -427h-52l-187 367l-186 -367h-52l218 427h41z" />
    <glyph glyph-name="underscore" unicode="_" horiz-adv-x="695" 
d="M675 0v-40h-655v40h655z" />
    <glyph glyph-name="grave" unicode="`" horiz-adv-x="600" 
d="M222 672l45 14l111 -155h-46z" />
    <glyph glyph-name="a" unicode="a" horiz-adv-x="472" 
d="M346 447.5q49 -39.5 49 -115.5v-332h-43v77q-27 -37 -74 -63t-101 -26q-57 0 -94 35.5t-37 93.5q0 73 53 115t154 46l97 4v50q0 56 -36.5 84t-94.5 28q-34 0 -67.5 -10t-60.5 -28l-1 47q62 34 134 34q73 0 122 -39.5zM350 244l-96 -4q-87 -4 -124 -36.5t-37 -82.5
q0 -41 25.5 -67t68.5 -26q48 0 90 26.5t73 67.5v122z" />
    <glyph glyph-name="b" unicode="b" horiz-adv-x="509" 
d="M187 1.5q-37 13.5 -66 37.5v-39h-45v676h45v-239q30 24 66.5 37t73.5 13q57 0 105 -27t76.5 -83t28.5 -139q0 -84 -28 -140t-75.5 -83t-104.5 -27q-39 0 -76 13.5zM376 83.5q48 53.5 48 154.5t-48 154.5t-121 53.5q-38 0 -74.5 -14t-59.5 -40v-310q23 -25 59.5 -38.5
t74.5 -13.5q73 0 121 53.5z" />
    <glyph glyph-name="c" unicode="c" horiz-adv-x="460" 
d="M145 19q-52 31 -79.5 87.5t-27.5 131.5q0 78 31 134.5t83.5 85.5t117.5 29q64 0 119 -27v-46q-57 30 -117 30q-52 0 -94.5 -24.5t-67.5 -71t-25 -110.5q0 -94 50 -150.5t134 -56.5q40 0 71 10t62 33v-49q-58 -37 -135 -37q-70 0 -122 31z" />
    <glyph glyph-name="d" unicode="d" horiz-adv-x="509" 
d="M141.5 15q-47.5 27 -75.5 83t-28 140q0 85 28.5 141t76 82t105.5 26q37 0 74 -13t66 -36v238h45v-676h-45v39q-28 -25 -65 -38t-77 -13q-57 0 -104.5 27zM328.5 43q36.5 14 59.5 39v310q-23 24 -60 38.5t-73 14.5q-74 0 -122 -53t-48 -154t48 -155t122 -54q37 0 73.5 14z
" />
    <glyph glyph-name="e" unicode="e" horiz-adv-x="488" 
d="M86 263q-1 -8 -1 -25q0 -96 49.5 -151.5t133.5 -55.5q77 0 150 45v-46q-72 -42 -152 -42q-64 0 -116 28t-82 84.5t-30 137.5q0 116 54 182.5t148 66.5q56 0 99.5 -24t67.5 -67.5t24 -99.5v-33h-345zM141 407.5q-39 -38.5 -51 -106.5h296q0 62 -39.5 103.5t-106.5 41.5
q-60 0 -99 -38.5z" />
    <glyph glyph-name="f" unicode="f" horiz-adv-x="317" 
d="M14 432v43h98v53q0 75 37 111.5t100 36.5h48v-43h-47q-43 0 -68 -25t-25 -80v-53h127v-43h-127v-432h-45v432h-98z" />
    <glyph glyph-name="g" unicode="g" horiz-adv-x="484" 
d="M431 478q-26 0 -44.5 -9t-36.5 -26q26 -23 40 -55t14 -70q0 -48 -22.5 -85.5t-62.5 -59t-89 -21.5q-35 0 -66 11q-14 -17 -14 -34q0 -19 23.5 -31t65.5 -17q100 -12 157 -42t57 -93t-65 -98t-157 -35q-95 0 -159 34t-64 94q0 50 45 82.5t125 39.5q-35 8 -51.5 25
t-16.5 38q0 27 24 51q-37 21 -58 58t-21 83q0 49 22.5 87.5t62.5 60t90 21.5q51 0 92 -23q45 54 109 54h23v-40h-23zM323.5 411q-36.5 37 -93.5 37t-94 -36.5t-37 -93.5q0 -55 37 -91t94 -36q56 0 93 36t37 91q0 56 -36.5 93zM357.5 14.5q-49.5 23.5 -126.5 23.5
q-71 0 -124 -23t-53 -70q0 -44 53 -68.5t126 -24.5q70 0 122 24.5t52 68.5q0 46 -49.5 69.5z" />
    <glyph glyph-name="h" unicode="h" horiz-adv-x="527" 
d="M365 468.5q39 -18.5 62.5 -56.5t23.5 -92v-320h-45v316q0 60 -39.5 94t-95.5 34q-43 0 -83.5 -21t-66.5 -60v-363h-45v676h45v-263q28 36 71 55t88 19q46 0 85 -18.5z" />
    <glyph glyph-name="i" unicode="i" horiz-adv-x="198" 
d="M121 475v-475h-45v475h45zM74 582q-10 10 -10 25t10 25t25 10t25 -10t10 -25t-10 -25t-25 -10t-25 10z" />
    <glyph glyph-name="j" unicode="j" horiz-adv-x="198" 
d="M-20 -131q44 0 70 26t26 84v496h45v-496q0 -79 -38.5 -116.5t-102.5 -37.5h-23v44h23zM74 582q-10 10 -10 25t10 25t25 10t25 -10t10 -25t-10 -25t-25 -10t-25 10z" />
    <glyph glyph-name="k" unicode="k" horiz-adv-x="476" 
d="M121 676v-376h81l149 175h53l-168 -197l89 -180q15 -29 33 -42.5t47 -13.5h41v-42h-45q-41 0 -68 17t-46 57l-91 183h-75v-257h-45v676h45z" />
    <glyph glyph-name="l" unicode="l" horiz-adv-x="198" 
d="M121 676v-676h-45v676h45z" />
    <glyph glyph-name="m" unicode="m" horiz-adv-x="834" 
d="M672 468q38 -19 61.5 -56.5t23.5 -89.5v-322h-45v316q0 60 -37.5 94t-90.5 34q-43 0 -83 -23.5t-64 -67.5q2 -20 2 -31v-322h-45v316q0 60 -37 94t-89 34q-42 0 -81.5 -20.5t-65.5 -58.5v-365h-45v475h43l1 -62q27 36 69 55t86 19q50 0 90.5 -23.5t59.5 -68.5
q27 45 71.5 68.5t93.5 23.5q44 0 82 -19z" />
    <glyph glyph-name="n" unicode="n" horiz-adv-x="527" 
d="M365.5 468.5q38.5 -18.5 62 -56t23.5 -91.5v-321h-45v316q0 60 -39 94t-95 34q-44 0 -84.5 -21t-66.5 -60v-363h-45v475h44v-63q28 36 71 55.5t90 19.5q46 0 84.5 -18.5z" />
    <glyph glyph-name="o" unicode="o" horiz-adv-x="577" 
d="M158 19.5q-57 31.5 -88.5 88.5t-31.5 129t31.5 129t88.5 89t130 32t130 -32t88.5 -89t31.5 -129t-31.5 -129t-88.5 -88.5t-130 -31.5t-130 31.5zM394.5 57.5q46.5 26.5 72.5 73.5t26 106t-26 106t-72.5 74t-106.5 27t-106 -27t-72 -74t-26 -106t25.5 -106t72 -73.5
t106.5 -26.5t106.5 26.5z" />
    <glyph glyph-name="p" unicode="p" horiz-adv-x="509" 
d="M120 475v-40q29 25 66 38.5t75 13.5q57 0 105 -27t76.5 -83t28.5 -139q0 -84 -28 -140t-75.5 -83t-104.5 -27q-39 0 -76 13t-66 37v-213h-45v650h44zM376.5 83q47.5 53 47.5 155t-47.5 155t-121.5 53q-38 0 -74.5 -14t-59.5 -40v-310q23 -25 59.5 -38.5t74.5 -13.5
q74 0 121.5 53z" />
    <glyph glyph-name="q" unicode="q" horiz-adv-x="509" 
d="M323 1q-37 -13 -77 -13q-57 0 -104.5 27t-75.5 83t-28 140t28 140t75.5 82.5t104.5 26.5q38 0 75 -13.5t67 -38.5v40h45v-650h-45v214q-28 -25 -65 -38zM328.5 43q36.5 14 59.5 39v310q-23 24 -60 38.5t-73 14.5q-74 0 -122 -53t-48 -154t48 -155t122 -54q37 0 73.5 14z
" />
    <glyph glyph-name="r" unicode="r" horiz-adv-x="367" 
d="M121 475v-92q39 48 90 71t116 23v-44q-63 0 -113.5 -24.5t-92.5 -79.5v-329h-45v475h45z" />
    <glyph glyph-name="s" unicode="s" horiz-adv-x="402" 
d="M120 1q-39 12 -70 34v43q31 -23 71 -36t77 -13q49 0 79 22t30 63q0 29 -15.5 48t-38.5 31t-62 26q-46 17 -73.5 31.5t-47 41t-19.5 68.5q0 61 43 93.5t112 32.5q35 0 68 -9t57 -26v-43q-25 18 -57.5 28t-64.5 10q-49 0 -80.5 -22t-31.5 -64q0 -28 15 -46t37.5 -29
t61.5 -26q46 -17 74.5 -32t48.5 -42t20 -70q0 -61 -43.5 -93.5t-111.5 -32.5q-40 0 -79 12z" />
    <glyph glyph-name="t" unicode="t" horiz-adv-x="333" 
d="M149 36q-37 36 -37 110v286h-98v43h98v131h45v-131h127v-43h-127v-284q0 -55 24.5 -80t66.5 -25h33v-43h-33q-62 0 -99 36z" />
    <glyph glyph-name="u" unicode="u" horiz-adv-x="517" 
d="M117 35.5q-41 47.5 -41 136.5v303h45v-301q0 -69 31 -106t94 -37q39 0 78 20.5t72 54.5v369h45v-475h-43v59q-39 -35 -78 -53t-82 -18q-80 0 -121 47.5z" />
    <glyph glyph-name="v" unicode="v" horiz-adv-x="484" 
d="M77 475l166 -428l165 428h48l-186 -475h-57l-185 475h49z" />
    <glyph glyph-name="w" unicode="w" horiz-adv-x="732" 
d="M77 475l127 -424l134 424h56l135 -424l126 424h48l-144 -475h-59l-134 418l-133 -418h-59l-145 475h48z" />
    <glyph glyph-name="x" unicode="x" horiz-adv-x="439" 
d="M358 0l-143 206l-139 -206h-51l164 243l-160 232h56l134 -194l138 194h51l-163 -232l169 -243h-56z" />
    <glyph glyph-name="y" unicode="y" horiz-adv-x="453" 
d="M427 475l-176 -469q-37 -97 -84 -139t-123 -42h-31v44h31q58 0 95 32.5t66 109.5l-181 464h50l155 -401l149 401h49z" />
    <glyph glyph-name="z" unicode="z" horiz-adv-x="467" 
d="M344 431h-286v44h344v-42l-282 -389h288v-44h-346v39z" />
    <glyph glyph-name="braceleft" unicode="{" horiz-adv-x="310" 
d="M155 -139q-35 36 -35 102q0 17 3 35l20 142q3 20 3 37q0 49 -23 72.5t-67 30.5v40q44 7 67 30.5t23 72.5q0 18 -3 37l-20 142q-3 18 -3 35q0 66 35 102t86 36h41v-43h-40q-33 0 -56 -25t-23 -72q0 -18 2 -28l20 -144q3 -22 3 -42q0 -107 -90 -121q90 -14 90 -121
q0 -19 -3 -42l-20 -144q-2 -10 -2 -28q0 -47 23 -72t56 -25h40v-43h-41q-51 0 -86 36z" />
    <glyph glyph-name="bar" unicode="|" horiz-adv-x="227" 
d="M137 800v-1000h-46v1000h46z" />
    <glyph glyph-name="braceright" unicode="}" horiz-adv-x="316" 
d="M34 -132h40q33 0 56 25t23 72q0 18 -2 28l-20 144q-3 23 -3 42q0 107 90 121q-90 14 -90 121q0 20 3 42l20 144q2 10 2 28q0 47 -23 72t-56 25h-40v43h41q51 0 86 -36t35 -102q0 -17 -3 -35l-20 -142q-3 -19 -3 -37q0 -49 23 -72.5t67 -30.5v-40q-44 -7 -67 -30.5
t-23 -72.5q0 -17 3 -37l20 -142q3 -18 3 -35q0 -66 -35 -102t-86 -36h-41v43z" />
    <glyph glyph-name="asciitilde" unicode="~" horiz-adv-x="578" 
d="M86.5 331.5q25.5 32.5 71.5 32.5q24 0 57 -9.5t79 -26.5q49 -17 74.5 -24.5t43.5 -7.5q29 0 48 21t19 56h37q0 -54 -28.5 -86t-75.5 -32q-23 0 -55 9.5t-79 26.5q-44 16 -72 24.5t-48 8.5q-28 0 -43.5 -21t-15.5 -58h-38q0 54 25.5 86.5z" />
    <glyph glyph-name="exclamdown" unicode="&#xa1;" horiz-adv-x="253" 
d="M151.5 476.5q10.5 -10.5 10.5 -24.5q0 -15 -10.5 -25t-25.5 -10q-14 0 -24.5 10t-10.5 25q0 14 10.5 24.5t24.5 10.5q15 0 25.5 -10.5zM148 339l3 -535h-49l3 535h43z" />
    <glyph glyph-name="cent" unicode="&#xa2;" 
d="M409 126q-53 -34 -123 -37v-119h-41v120q-93 10 -146.5 77t-53.5 172q0 72 26 125.5t71.5 84t102.5 37.5v120h41v-118q55 -1 109 -27v-46q-51 28 -109 30v-413q35 2 65 12t58 31v-49zM133 199.5q41 -54.5 112 -65.5v408q-68 -11 -110.5 -64.5t-42.5 -138.5t41 -139.5z
" />
    <glyph glyph-name="sterling" unicode="&#xa3;" 
d="M407 45v-45h-319v38q70 78 70 187q0 41 -22 105h-85v37h73q-15 42 -23 74.5t-8 65.5q0 86 52.5 133.5t131.5 47.5q31 0 64.5 -8t58.5 -21v-50q-59 33 -120 33t-100 -36t-39 -102q0 -33 8 -62.5t24 -74.5h205v-37h-192q20 -58 20 -104q0 -56 -17 -102.5t-46 -78.5h264z
" />
    <glyph glyph-name="currency" unicode="&#xa4;" 
d="M359 212l49 -59l-28 -25l-49 57q-42 -31 -101 -31q-60 0 -102 31l-49 -57l-28 25l50 59q-37 46 -37 120q0 71 36 120l-49 58l28 25l48 -57q41 32 103 32q60 0 102 -31l48 56l28 -25l-49 -58q37 -46 37 -120t-37 -120zM318 234.5q32 36.5 32 97.5t-32 97.5t-88 36.5
t-88 -36.5t-32 -97.5t32 -97.5t88 -36.5t88 36.5z" />
    <glyph glyph-name="yen" unicode="&#xa5;" 
d="M261 322h134v-37h-144v-79h144v-37h-144v-169h-47v169h-143v37h143v79h-143v37h133l-161 354h48l147 -328l146 328h48z" />
    <glyph glyph-name="brokenbar" unicode="&#xa6;" horiz-adv-x="227" 
d="M137 800v-400h-46v400h46zM137 200v-400h-46v400h46z" />
    <glyph glyph-name="section" unicode="&#xa7;" horiz-adv-x="485" 
d="M151 -178.5q-31 8.5 -54 24.5v49q52 -37 107 -37q39 0 58 17t19 49q0 37 -14.5 74.5t-35.5 70t-61 90.5q-42 61 -66 99.5t-41 88t-17 103.5q0 66 29 120.5t79 86t110 31.5q30 0 59 -7.5t52 -20.5v-50q-50 33 -102 33q-34 0 -55 -19t-21 -49q0 -37 25 -81.5t77 -119.5
q47 -68 73.5 -111.5t46.5 -96.5t20 -108q0 -62 -31.5 -118.5t-83.5 -91.5t-111 -35q-31 0 -62 8.5zM369.5 -45.5q26.5 47.5 26.5 98.5q0 47 -18.5 94.5t-44.5 89.5t-73 111q-55 81 -80 129t-25 94q0 22 16 52q-31 -17 -56.5 -68.5t-25.5 -102.5q0 -47 16 -91.5t39.5 -83
t63.5 -93.5q52 -75 83.5 -136.5t31.5 -112.5q0 -26 -9 -47q29 19 55.5 66.5z" />
    <glyph glyph-name="dieresis" unicode="&#xa8;" horiz-adv-x="600" 
d="M205 584q-10 10 -10 25q0 14 10 24t25 10q14 0 24 -10t10 -24q0 -15 -10 -25t-24 -10q-15 0 -25 10zM347 584q-10 10 -10 25q0 14 10 24t24 10q15 0 25 -10t10 -24q0 -15 -10 -25t-25 -10q-14 0 -24 10z" />
    <glyph glyph-name="copyright" unicode="&#xa9;" horiz-adv-x="819" 
d="M229 31q-79 44 -122.5 123.5t-43.5 183.5q0 103 43.5 183t122.5 124t181 44t181 -44t122.5 -124t43.5 -183q0 -104 -43.5 -183.5t-122.5 -123.5t-181 -44t-181 44zM574 61.5q71 39.5 110 111t39 165.5t-39 165.5t-110 111t-164 39.5t-164 -39.5t-110 -111t-39 -165.5
t39 -165.5t110 -111t164 -39.5t164 39.5zM276.5 192.5q-54.5 50.5 -54.5 145.5t56 146t141 51q64 0 111 -25v-39q-28 14 -53.5 20.5t-54.5 6.5q-75 0 -117 -42.5t-42 -117.5t41 -116.5t116 -41.5q32 0 59 8.5t57 28.5v-41q-53 -34 -117 -34q-88 0 -142.5 50.5z" />
    <glyph glyph-name="ordfeminine" unicode="&#xaa;" horiz-adv-x="342" 
d="M244 661q33 -26 33 -78v-213h-34v46q-18 -23 -47.5 -38.5t-63.5 -15.5q-37 0 -61.5 23.5t-24.5 61.5q0 47 34.5 74t99.5 30l62 3v29q0 35 -23.5 52.5t-60.5 17.5q-21 0 -43 -6t-39 -18l-1 36q41 22 88 22q48 0 81 -26zM242 525l-61 -3q-52 -2 -75 -22t-23 -50
q0 -25 15.5 -41t41.5 -16q56 0 102 58v74z" />
    <glyph glyph-name="guillemotleft" unicode="&#xab;" horiz-adv-x="374" 
d="M82.5 158.5q-24.5 52.5 -24.5 111.5q0 58 24.5 110.5t72.5 94.5h50q-47 -40 -75 -94t-28 -111t28 -111t75 -94h-50q-48 41 -72.5 93.5zM204.5 158.5q-24.5 52.5 -24.5 111.5q0 58 24.5 110.5t72.5 94.5h50q-47 -40 -75 -94t-28 -111t28 -111t75 -94h-50
q-48 41 -72.5 93.5z" />
    <glyph glyph-name="logicalnot" unicode="&#xac;" 
d="M38 311v40h424v-232h-39v192h-385z" />
    <glyph glyph-name="uni00AD" unicode="&#xad;" 
d="M400 344v-44h-300v44h300z" />
    <glyph glyph-name="registered" unicode="&#xae;" horiz-adv-x="512" 
d="M148 291q-48 27 -75 75t-27 110q0 61 27 109.5t75 75.5t108 27q59 0 107 -27t75 -75.5t27 -109.5t-27 -109.5t-75 -75.5t-107 -27q-60 0 -108 27zM348 317q41 23 64 64.5t23 94.5q0 52 -23 93.5t-64 65t-92 23.5q-52 0 -92.5 -23.5t-63.5 -65t-23 -93.5q0 -53 23 -94.5
t63.5 -64.5t92.5 -23q51 0 92 23zM263 586q35 0 55 -19.5t20 -46.5q0 -21 -12 -37.5t-36 -24.5l57 -87h-36l-53 82h-47v-82h-32v215h84zM293.5 492.5q12.5 10.5 12.5 27.5q0 16 -12.5 26t-32.5 10h-50v-74h50q20 0 32.5 10.5z" />
    <glyph glyph-name="macron" unicode="&#xaf;" horiz-adv-x="600" 
d="M425 613v-37h-250v37h250z" />
    <glyph glyph-name="degree" unicode="&#xb0;" horiz-adv-x="354" 
d="M82.5 464.5q-37.5 36.5 -36.5 93.5q2 57 38.5 93.5t92.5 36.5t92.5 -36.5t37.5 -93.5t-36 -93.5t-94 -36.5t-94.5 36.5zM244 491.5q26 26.5 26 66.5q0 41 -26 67t-67 26t-67 -26t-26 -67t26 -67t67 -26t67 26.5z" />
    <glyph glyph-name="plusminus" unicode="&#xb1;" 
d="M38 311v40h192v196h39l-1 -196h194v-40h-194v-195h-38v195h-192zM462 0h-424v40h424v-40z" />
    <glyph glyph-name="uni00B2" unicode="&#xb2;" horiz-adv-x="283" 
d="M50 329q11 11 21 23q66 69 100 118t34 101q0 34 -24 53.5t-60 19.5q-24 0 -49 -7.5t-44 -21.5v41q22 13 48.5 20t50.5 7q51 0 84.5 -29.5t33.5 -81.5q0 -39 -17.5 -76.5t-41.5 -68.5t-64 -75q-16 -17 -39 -44h173v-38h-227v36q10 12 21 23z" />
    <glyph glyph-name="uni00B3" unicode="&#xb3;" horiz-adv-x="276" 
d="M18 288v39q50 -26 102 -26q38 0 62.5 23t24.5 60t-24.5 59.5t-64.5 22.5h-55v34h56q34 0 56 21t22 52q0 34 -24 53t-60 19q-44 0 -84 -24v39q42 23 89 23q52 0 86 -28t34 -78q0 -64 -61 -92q34 -11 52.5 -38t18.5 -64q0 -53 -35 -86.5t-90 -33.5q-58 0 -105 25z" />
    <glyph glyph-name="acute" unicode="&#xb4;" horiz-adv-x="600" 
d="M378 672l-110 -141h-46l111 155z" />
    <glyph glyph-name="uni00B5" unicode="&#xb5;" horiz-adv-x="555" 
d="M464 0h-43v59q-30 -33 -72.5 -51.5t-86.5 -18.5q-38 0 -69.5 15.5t-50.5 46.5l2 -226h-45v650h45v-301q0 -69 31 -106t93 -37q40 0 79 20.5t72 54.5v369h45v-475z" />
    <glyph glyph-name="paragraph" unicode="&#xb6;" horiz-adv-x="766" 
d="M211 40.5q-78 40.5 -119.5 116.5t-41.5 181t41.5 181t119.5 116.5t187 40.5h347v-44h-80v-588h80v-44h-347q-109 0 -187 40.5zM620 632h-131v-588h131v588z" />
    <glyph glyph-name="periodcentered" unicode="&#xb7;" 
d="M225 322q-10 10 -10 25t10 25t25 10t25 -10t10 -25t-10 -25t-25 -10t-25 10z" />
    <glyph glyph-name="cedilla" unicode="&#xb8;" horiz-adv-x="600" 
d="M224 -173v31q33 -15 59 -15q25 0 40.5 11t15.5 29t-13 28.5t-35 10.5q-20 0 -35 -5l8 28q20 5 34 5q36 0 57 -18t21 -49q0 -32 -25 -51t-62 -19q-35 0 -65 14z" />
    <glyph glyph-name="uni00B9" unicode="&#xb9;" horiz-adv-x="192" 
d="M12 604v37l107 35h25v-406h-38v361z" />
    <glyph glyph-name="ordmasculine" unicode="&#xba;" horiz-adv-x="436" 
d="M100.5 407.5q-45.5 45.5 -45.5 116.5t45.5 117t117.5 46q48 0 85 -21t58 -58t21 -84q0 -71 -46 -116.5t-118 -45.5t-117.5 45.5zM309.5 432q35.5 36 35.5 92t-35.5 92.5t-91.5 36.5t-92 -36.5t-36 -92.5t35.5 -92t92.5 -36q56 0 91.5 36z" />
    <glyph glyph-name="guillemotright" unicode="&#xbb;" horiz-adv-x="374" 
d="M122 159q28 54 28 111t-28 111t-76 94h51q47 -42 71.5 -94.5t24.5 -110.5q0 -59 -24.5 -111.5t-71.5 -93.5h-51q48 40 76 94zM244 159q28 54 28 111t-28 111t-76 94h51q48 -42 72.5 -94.5t24.5 -110.5q0 -59 -24.5 -111.5t-72.5 -93.5h-51q48 40 76 94z" />
    <glyph glyph-name="onequarter" unicode="&#xbc;" horiz-adv-x="725" 
d="M12 604v37l107 35h25v-406h-38v361zM577 575l23 -27l-496 -448l-23 27zM434 95v33l159 278h43l-159 -274h140v105h36v-105h52v-37h-52v-95h-36v95h-183z" />
    <glyph glyph-name="onehalf" unicode="&#xbd;" horiz-adv-x="773" 
d="M12 604v37l107 35h25v-406h-38v361zM577 575l23 -27l-496 -448l-23 27zM540 59q11 11 21 23q66 69 100 118t34 101q0 34 -24 53.5t-60 19.5q-24 0 -49 -7.5t-44 -21.5v41q22 13 48.5 20t50.5 7q51 0 84.5 -29.5t33.5 -81.5q0 -39 -17.5 -76.5t-41.5 -68.5t-64 -75
q-16 -17 -39 -44h173v-38h-227v36q10 12 21 23z" />
    <glyph glyph-name="threequarters" unicode="&#xbe;" horiz-adv-x="805" 
d="M18 288v39q50 -26 102 -26q38 0 62.5 23t24.5 60t-24.5 59.5t-64.5 22.5h-55v34h56q34 0 56 21t22 52q0 34 -24 53t-60 19q-44 0 -84 -24v39q42 23 89 23q52 0 86 -28t34 -78q0 -64 -61 -92q34 -11 52.5 -38t18.5 -64q0 -53 -35 -86.5t-90 -33.5q-58 0 -105 25zM657 575
l23 -27l-496 -448l-23 27zM514 95v33l159 278h43l-159 -274h140v105h36v-105h52v-37h-52v-95h-36v95h-183z" />
    <glyph glyph-name="questiondown" unicode="&#xbf;" horiz-adv-x="387" 
d="M291 472q10 -10 10 -25t-10 -25t-25 -10t-25 10t-10 25t10 25t25 10t25 -10zM125.5 105q-41.5 -46 -41.5 -114q0 -75 48 -116.5t119 -41.5q44 0 89 15v-45q-49 -16 -96 -16q-60 0 -107.5 24.5t-74.5 70.5t-27 108q0 52 21.5 97t65.5 72.5t107 27.5h14v147h46v-183h-38
q-84 0 -125.5 -46z" />
    <glyph glyph-name="Agrave" unicode="&#xc0;" horiz-adv-x="595" 
d="M449 213h-306l-79 -213h-47l252 676h58l251 -676h-51zM433 258l-135 371l-138 -371h273zM152 831l43 18l128 -128h-52z" />
    <glyph glyph-name="Aacute" unicode="&#xc1;" horiz-adv-x="595" 
d="M449 213h-306l-79 -213h-47l252 676h58l251 -676h-51zM433 258l-135 371l-138 -371h273zM443 831l-119 -110h-52l128 128z" />
    <glyph glyph-name="Acircumflex" unicode="&#xc2;" horiz-adv-x="595" 
d="M449 213h-306l-79 -213h-47l252 676h58l251 -676h-51zM433 258l-135 371l-138 -371h273zM320 850l98 -130h-49l-72 98l-72 -98h-49l98 130h46z" />
    <glyph glyph-name="Atilde" unicode="&#xc3;" horiz-adv-x="595" 
d="M449 213h-306l-79 -213h-47l252 676h58l251 -676h-51zM433 258l-135 371l-138 -371h273zM178 780q20 21 56 21q23 0 44 -6t24 -7q36 -12 56 -12t30.5 11t10.5 31h37q0 -37 -20 -58.5t-56 -21.5q-28 0 -72 14q-33 11 -52 11t-30 -10t-11 -28h-37q0 34 20 55z" />
    <glyph glyph-name="Adieresis" unicode="&#xc4;" horiz-adv-x="595" 
d="M449 213h-306l-79 -213h-47l252 676h58l251 -676h-51zM433 258l-135 371l-138 -371h273zM201 783q-10 10 -10 25q0 14 10 24t25 10q14 0 24 -10t10 -24q0 -15 -10 -25t-24 -10q-15 0 -25 10zM343 783q-10 10 -10 25q0 14 10 24t24 10q15 0 25 -10t10 -24q0 -15 -10 -25
t-25 -10q-14 0 -24 10z" />
    <glyph glyph-name="Aring" unicode="&#xc5;" horiz-adv-x="595" 
d="M449 213h-306l-79 -213h-47l252 676h58l251 -676h-51zM433 258l-135 371l-138 -371h273zM234.5 751q-24.5 25 -24.5 64q0 38 24.5 62t62.5 24t62.5 -24t24.5 -62q0 -39 -24.5 -64t-62.5 -25t-62.5 25zM336 775q15 15 15 40q0 23 -15 38t-39 15t-39 -15t-15 -38
q0 -25 15 -40t39 -15t39 15z" />
    <glyph glyph-name="AE" unicode="&#xc6;" horiz-adv-x="879" 
d="M792 45v-45h-344v213h-265l-88 -213h-49l277 676h463v-45h-291v-255h285v-45h-285v-286h297zM448 258v373h-93l-154 -373h247z" />
    <glyph glyph-name="Ccedilla" unicode="&#xc7;" horiz-adv-x="596" 
d="M197.5 31q-75.5 43 -117 122.5t-41.5 184.5t41.5 184.5t117 122.5t174.5 43q91 0 159 -33v-47q-69 34 -157 34q-83 0 -147.5 -37.5t-101 -106.5t-36.5 -160t36.5 -160t101 -106.5t147.5 -37.5q92 0 166 41v-47q-75 -40 -168 -40q-99 0 -174.5 43zM271 -173v31
q33 -15 59 -15q25 0 40.5 11t15.5 29t-13 28.5t-35 10.5q-20 0 -35 -5l8 28q20 5 34 5q36 0 57 -18t21 -49q0 -32 -25 -51t-62 -19q-35 0 -65 14z" />
    <glyph glyph-name="Egrave" unicode="&#xc8;" horiz-adv-x="522" 
d="M429 676v-45h-291v-255h285v-45h-285v-286h297v-45h-344v676h338zM115 831l43 18l128 -128h-52z" />
    <glyph glyph-name="Eacute" unicode="&#xc9;" horiz-adv-x="522" 
d="M429 676v-45h-291v-255h285v-45h-285v-286h297v-45h-344v676h338zM405 831l-119 -110h-52l128 128z" />
    <glyph glyph-name="Ecircumflex" unicode="&#xca;" horiz-adv-x="522" 
d="M429 676v-45h-291v-255h285v-45h-285v-286h297v-45h-344v676h338zM283 850l98 -130h-49l-72 98l-72 -98h-49l98 130h46z" />
    <glyph glyph-name="Edieresis" unicode="&#xcb;" horiz-adv-x="522" 
d="M429 676v-45h-291v-255h285v-45h-285v-286h297v-45h-344v676h338zM164 783q-10 10 -10 25q0 14 10 24t25 10q14 0 24 -10t10 -24q0 -15 -10 -25t-24 -10q-15 0 -25 10zM306 783q-10 10 -10 25q0 14 10 24t24 10q15 0 25 -10t10 -24q0 -15 -10 -25t-25 -10q-14 0 -24 10z
" />
    <glyph glyph-name="Igrave" unicode="&#xcc;" horiz-adv-x="228" 
d="M138 676v-676h-47v676h47zM-31 831l43 18l128 -128h-52z" />
    <glyph glyph-name="Iacute" unicode="&#xcd;" horiz-adv-x="228" 
d="M138 676v-676h-47v676h47zM260 831l-119 -110h-52l128 128z" />
    <glyph glyph-name="Icircumflex" unicode="&#xce;" horiz-adv-x="228" 
d="M138 676v-676h-47v676h47zM138 850l98 -130h-49l-72 98l-72 -98h-49l98 130h46z" />
    <glyph glyph-name="Idieresis" unicode="&#xcf;" horiz-adv-x="228" 
d="M138 676v-676h-47v676h47zM19 783q-10 10 -10 25q0 14 10 24t25 10q14 0 24 -10t10 -24q0 -15 -10 -25t-24 -10q-15 0 -25 10zM161 783q-10 10 -10 25q0 14 10 24t24 10q15 0 25 -10t10 -24q0 -15 -10 -25t-25 -10q-14 0 -24 10z" />
    <glyph glyph-name="Eth" unicode="&#xd0;" horiz-adv-x="652" 
d="M441.5 636q82.5 -40 126.5 -116t44 -182t-44 -182t-126.5 -116t-196.5 -40h-154v316h-73v44h73v316h154q114 0 196.5 -40zM479 121q84 76 84 217t-84 217t-234 76h-107v-271h264v-44h-264v-271h107q150 0 234 76z" />
    <glyph glyph-name="Ntilde" unicode="&#xd1;" horiz-adv-x="712" 
d="M138 676l438 -605v605h46v-676h-48l-437 605v-605h-46v676h47zM237 780q20 21 56 21q23 0 44 -6t24 -7q36 -12 56 -12t30.5 11t10.5 31h37q0 -37 -20 -58.5t-56 -21.5q-28 0 -72 14q-33 11 -52 11t-30 -10t-11 -28h-37q0 34 20 55z" />
    <glyph glyph-name="Ograve" unicode="&#xd2;" horiz-adv-x="756" 
d="M203.5 33q-77.5 45 -121 125t-43.5 180t43.5 180t121 125t174.5 45t174 -45t121 -125t44 -180t-44 -180t-121 -125t-174 -45t-174.5 45zM527 73q66 39 103 108.5t37 156.5t-37 156.5t-103 108.5t-149 39q-84 0 -149.5 -39t-102.5 -108t-37 -157t37 -157t102.5 -108
t149.5 -39q83 0 149 39zM233 831l43 18l128 -128h-52z" />
    <glyph glyph-name="Oacute" unicode="&#xd3;" horiz-adv-x="756" 
d="M203.5 33q-77.5 45 -121 125t-43.5 180t43.5 180t121 125t174.5 45t174 -45t121 -125t44 -180t-44 -180t-121 -125t-174 -45t-174.5 45zM527 73q66 39 103 108.5t37 156.5t-37 156.5t-103 108.5t-149 39q-84 0 -149.5 -39t-102.5 -108t-37 -157t37 -157t102.5 -108
t149.5 -39q83 0 149 39zM524 831l-119 -110h-52l128 128z" />
    <glyph glyph-name="Ocircumflex" unicode="&#xd4;" horiz-adv-x="756" 
d="M203.5 33q-77.5 45 -121 125t-43.5 180t43.5 180t121 125t174.5 45t174 -45t121 -125t44 -180t-44 -180t-121 -125t-174 -45t-174.5 45zM527 73q66 39 103 108.5t37 156.5t-37 156.5t-103 108.5t-149 39q-84 0 -149.5 -39t-102.5 -108t-37 -157t37 -157t102.5 -108
t149.5 -39q83 0 149 39zM401 850l98 -130h-49l-72 98l-72 -98h-49l98 130h46z" />
    <glyph glyph-name="Otilde" unicode="&#xd5;" horiz-adv-x="756" 
d="M203.5 33q-77.5 45 -121 125t-43.5 180t43.5 180t121 125t174.5 45t174 -45t121 -125t44 -180t-44 -180t-121 -125t-174 -45t-174.5 45zM527 73q66 39 103 108.5t37 156.5t-37 156.5t-103 108.5t-149 39q-84 0 -149.5 -39t-102.5 -108t-37 -157t37 -157t102.5 -108
t149.5 -39q83 0 149 39zM259 780q20 21 56 21q23 0 44 -6t24 -7q36 -12 56 -12t30.5 11t10.5 31h37q0 -37 -20 -58.5t-56 -21.5q-28 0 -72 14q-33 11 -52 11t-30 -10t-11 -28h-37q0 34 20 55z" />
    <glyph glyph-name="Odieresis" unicode="&#xd6;" horiz-adv-x="756" 
d="M203.5 33q-77.5 45 -121 125t-43.5 180t43.5 180t121 125t174.5 45t174 -45t121 -125t44 -180t-44 -180t-121 -125t-174 -45t-174.5 45zM527 73q66 39 103 108.5t37 156.5t-37 156.5t-103 108.5t-149 39q-84 0 -149.5 -39t-102.5 -108t-37 -157t37 -157t102.5 -108
t149.5 -39q83 0 149 39zM282 783q-10 10 -10 25q0 14 10 24t25 10q14 0 24 -10t10 -24q0 -15 -10 -25t-24 -10q-15 0 -25 10zM424 783q-10 10 -10 25q0 14 10 24t24 10q15 0 25 -10t10 -24q0 -15 -10 -25t-25 -10q-14 0 -24 10z" />
    <glyph glyph-name="multiply" unicode="&#xd7;" 
d="M278 332l157 -157l-28 -28l-157 157l-157 -157l-28 28l157 157l-157 156l28 28l157 -157l157 157l28 -28z" />
    <glyph glyph-name="Oslash" unicode="&#xd8;" horiz-adv-x="756" 
d="M688.5 486q28.5 -68 28.5 -148q0 -100 -44 -180t-121 -125t-174 -45q-113 0 -198 60l-75 -96l-32 24l75 98q-52 47 -80.5 115t-28.5 149q0 100 43.5 180t121 125t174.5 45q111 0 198 -60l76 98l33 -24l-77 -100q52 -48 80.5 -116zM112 211q23 -58 66 -99l369 478
q-72 52 -169 52q-84 0 -149.5 -39t-102.5 -108t-37 -157q0 -69 23 -127zM527 73q66 39 103 108.5t37 156.5q0 69 -23 127t-66 99l-369 -478q72 -52 169 -52q83 0 149 39z" />
    <glyph glyph-name="Ugrave" unicode="&#xd9;" horiz-adv-x="648" 
d="M201 15.5q-55 27.5 -87.5 84t-32.5 141.5v435h47v-435q0 -101 54 -154t142 -53t142 53t54 154v435h47v-435q0 -85 -32.5 -141.5t-87.5 -84t-123 -27.5t-123 27.5zM179 831l43 18l128 -128h-52z" />
    <glyph glyph-name="Uacute" unicode="&#xda;" horiz-adv-x="648" 
d="M201 15.5q-55 27.5 -87.5 84t-32.5 141.5v435h47v-435q0 -101 54 -154t142 -53t142 53t54 154v435h47v-435q0 -85 -32.5 -141.5t-87.5 -84t-123 -27.5t-123 27.5zM469 831l-119 -110h-52l128 128z" />
    <glyph glyph-name="Ucircumflex" unicode="&#xdb;" horiz-adv-x="648" 
d="M201 15.5q-55 27.5 -87.5 84t-32.5 141.5v435h47v-435q0 -101 54 -154t142 -53t142 53t54 154v435h47v-435q0 -85 -32.5 -141.5t-87.5 -84t-123 -27.5t-123 27.5zM347 850l98 -130h-49l-72 98l-72 -98h-49l98 130h46z" />
    <glyph glyph-name="Udieresis" unicode="&#xdc;" horiz-adv-x="648" 
d="M201 15.5q-55 27.5 -87.5 84t-32.5 141.5v435h47v-435q0 -101 54 -154t142 -53t142 53t54 154v435h47v-435q0 -85 -32.5 -141.5t-87.5 -84t-123 -27.5t-123 27.5zM228 783q-10 10 -10 25q0 14 10 24t25 10q14 0 24 -10t10 -24q0 -15 -10 -25t-24 -10q-15 0 -25 10z
M370 783q-10 10 -10 25q0 14 10 24t24 10q15 0 25 -10t10 -24q0 -15 -10 -25t-25 -10q-14 0 -24 10z" />
    <glyph glyph-name="Yacute" unicode="&#xdd;" horiz-adv-x="619" 
d="M51 676h53l206 -355l206 355h52l-235 -404v-272h-47v272zM455 831l-119 -110h-52l128 128z" />
    <glyph glyph-name="Thorn" unicode="&#xde;" horiz-adv-x="543" 
d="M138 676v-135h97q116 0 179 -54t63 -148q0 -97 -63.5 -150t-178.5 -53h-97v-136h-47v676h47zM377 222q50 41 50 117t-49.5 116.5t-140.5 40.5h-99v-315h99q90 0 140 41z" />
    <glyph glyph-name="germandbls" unicode="&#xdf;" horiz-adv-x="532" 
d="M186 22v45q61 -37 116 -37q63 0 104.5 43.5t41.5 115.5q0 65 -42.5 107t-132.5 42h-34v40h31q34 0 61 20t41.5 52t14.5 67q0 52 -34 90t-98 38q-55 0 -94.5 -35t-39.5 -98v-512h-45v512q0 56 25 95.5t66 60t88 20.5q56 0 96.5 -23.5t61 -61.5t20.5 -80q0 -47 -24 -89
t-66 -65q64 -12 107.5 -58.5t43.5 -120.5q0 -90 -52.5 -143.5t-138.5 -53.5q-56 0 -117 29z" />
    <glyph glyph-name="agrave" unicode="&#xe0;" horiz-adv-x="472" 
d="M346 447.5q49 -39.5 49 -115.5v-332h-43v77q-27 -37 -74 -63t-101 -26q-57 0 -94 35.5t-37 93.5q0 73 53 115t154 46l97 4v50q0 56 -36.5 84t-94.5 28q-34 0 -67.5 -10t-60.5 -28l-1 47q62 34 134 34q73 0 122 -39.5zM350 244l-96 -4q-87 -4 -124 -36.5t-37 -82.5
q0 -41 25.5 -67t68.5 -26q48 0 90 26.5t73 67.5v122zM109 672l45 14l111 -155h-46z" />
    <glyph glyph-name="aacute" unicode="&#xe1;" horiz-adv-x="472" 
d="M346 447.5q49 -39.5 49 -115.5v-332h-43v77q-27 -37 -74 -63t-101 -26q-57 0 -94 35.5t-37 93.5q0 73 53 115t154 46l97 4v50q0 56 -36.5 84t-94.5 28q-34 0 -67.5 -10t-60.5 -28l-1 47q62 34 134 34q73 0 122 -39.5zM350 244l-96 -4q-87 -4 -124 -36.5t-37 -82.5
q0 -41 25.5 -67t68.5 -26q48 0 90 26.5t73 67.5v122zM377 672l-110 -141h-46l111 155z" />
    <glyph glyph-name="acircumflex" unicode="&#xe2;" horiz-adv-x="472" 
d="M346 447.5q49 -39.5 49 -115.5v-332h-43v77q-27 -37 -74 -63t-101 -26q-57 0 -94 35.5t-37 93.5q0 73 53 115t154 46l97 4v50q0 56 -36.5 84t-94.5 28q-34 0 -67.5 -10t-60.5 -28l-1 47q62 34 134 34q73 0 122 -39.5zM350 244l-96 -4q-87 -4 -124 -36.5t-37 -82.5
q0 -41 25.5 -67t68.5 -26q48 0 90 26.5t73 67.5v122zM268 687l116 -157h-50l-90 126l-90 -126h-50l116 157h48z" />
    <glyph glyph-name="atilde" unicode="&#xe3;" horiz-adv-x="472" 
d="M346 447.5q49 -39.5 49 -115.5v-332h-43v77q-27 -37 -74 -63t-101 -26q-57 0 -94 35.5t-37 93.5q0 73 53 115t154 46l97 4v50q0 56 -36.5 84t-94.5 28q-34 0 -67.5 -10t-60.5 -28l-1 47q62 34 134 34q73 0 122 -39.5zM350 244l-96 -4q-87 -4 -124 -36.5t-37 -82.5
q0 -41 25.5 -67t68.5 -26q48 0 90 26.5t73 67.5v122zM123 608.5q20 21.5 56 21.5q17 0 32 -3.5t36 -10.5q36 -12 56 -12t30.5 11t10.5 31h37q0 -37 -20 -58.5t-56 -21.5q-22 0 -44.5 6.5t-27.5 7.5q-13 5 -27 8.5t-25 3.5q-19 0 -30 -10.5t-11 -28.5h-37q0 34 20 55.5z" />
    <glyph glyph-name="adieresis" unicode="&#xe4;" horiz-adv-x="472" 
d="M346 447.5q49 -39.5 49 -115.5v-332h-43v77q-27 -37 -74 -63t-101 -26q-57 0 -94 35.5t-37 93.5q0 73 53 115t154 46l97 4v50q0 56 -36.5 84t-94.5 28q-34 0 -67.5 -10t-60.5 -28l-1 47q62 34 134 34q73 0 122 -39.5zM350 244l-96 -4q-87 -4 -124 -36.5t-37 -82.5
q0 -41 25.5 -67t68.5 -26q48 0 90 26.5t73 67.5v122zM148 584q-10 10 -10 25q0 14 10 24t25 10q14 0 24 -10t10 -24q0 -15 -10 -25t-24 -10q-15 0 -25 10zM290 584q-10 10 -10 25q0 14 10 24t24 10q15 0 25 -10t10 -24q0 -15 -10 -25t-25 -10q-14 0 -24 10z" />
    <glyph glyph-name="aring" unicode="&#xe5;" horiz-adv-x="472" 
d="M346 447.5q49 -39.5 49 -115.5v-332h-43v77q-27 -37 -74 -63t-101 -26q-57 0 -94 35.5t-37 93.5q0 73 53 115t154 46l97 4v50q0 56 -36.5 84t-94.5 28q-34 0 -67.5 -10t-60.5 -28l-1 47q62 34 134 34q73 0 122 -39.5zM350 244l-96 -4q-87 -4 -124 -36.5t-37 -82.5
q0 -41 25.5 -67t68.5 -26q48 0 90 26.5t73 67.5v122zM181.5 551q-24.5 25 -24.5 64q0 38 24.5 62t62.5 24t62.5 -24t24.5 -62q0 -39 -24.5 -64t-62.5 -25t-62.5 25zM283 575q15 15 15 40q0 23 -15 38t-39 15t-39 -15t-15 -38q0 -25 15 -40t39 -15t39 15z" />
    <glyph glyph-name="ae" unicode="&#xe6;" horiz-adv-x="789" 
d="M83 23q-37 35 -37 94q0 75 54.5 121t155.5 46h84v47q0 56 -36 84.5t-93 28.5q-34 0 -67.5 -10t-60.5 -28l-1 47q62 34 134 34q60 0 103 -28.5t54 -84.5q25 55 68 84t103 29q56 0 99 -28t66.5 -76t23.5 -105v-31h-346v-52q0 -43 22.5 -81t64 -60.5t95.5 -22.5q78 0 151 45
v-46q-34 -20 -74 -31t-79 -11q-77 0 -131 37t-72 90q-21 -52 -73 -89.5t-111 -37.5q-60 0 -97 35zM671 364q-18 37 -51.5 59.5t-77.5 22.5q-41 0 -76.5 -23.5t-57 -61t-21.5 -77.5h301q1 43 -17 80zM257.5 52q36.5 22 59.5 58.5t23 77.5v59h-84q-87 0 -125.5 -36t-38.5 -88
q0 -41 25 -67t68 -26q36 0 72.5 22z" />
    <glyph glyph-name="ccedilla" unicode="&#xe7;" horiz-adv-x="460" 
d="M145 19q-52 31 -79.5 87.5t-27.5 131.5q0 78 31 134.5t83.5 85.5t117.5 29q64 0 119 -27v-46q-57 30 -117 30q-52 0 -94.5 -24.5t-67.5 -71t-25 -110.5q0 -94 50 -150.5t134 -56.5q40 0 71 10t62 33v-49q-58 -37 -135 -37q-70 0 -122 31zM165 -173v31q33 -15 59 -15
q25 0 40.5 11t15.5 29t-13 28.5t-35 10.5q-20 0 -35 -5l8 28q20 5 34 5q36 0 57 -18t21 -49q0 -32 -25 -51t-62 -19q-35 0 -65 14z" />
    <glyph glyph-name="egrave" unicode="&#xe8;" horiz-adv-x="488" 
d="M86 263q-1 -8 -1 -25q0 -96 49.5 -151.5t133.5 -55.5q77 0 150 45v-46q-72 -42 -152 -42q-64 0 -116 28t-82 84.5t-30 137.5q0 116 54 182.5t148 66.5q56 0 99.5 -24t67.5 -67.5t24 -99.5v-33h-345zM141 407.5q-39 -38.5 -51 -106.5h296q0 62 -39.5 103.5t-106.5 41.5
q-60 0 -99 -38.5zM107 672l45 14l111 -155h-46z" />
    <glyph glyph-name="eacute" unicode="&#xe9;" horiz-adv-x="488" 
d="M86 263q-1 -8 -1 -25q0 -96 49.5 -151.5t133.5 -55.5q77 0 150 45v-46q-72 -42 -152 -42q-64 0 -116 28t-82 84.5t-30 137.5q0 116 54 182.5t148 66.5q56 0 99.5 -24t67.5 -67.5t24 -99.5v-33h-345zM141 407.5q-39 -38.5 -51 -106.5h296q0 62 -39.5 103.5t-106.5 41.5
q-60 0 -99 -38.5zM375 672l-110 -141h-46l111 155z" />
    <glyph glyph-name="ecircumflex" unicode="&#xea;" horiz-adv-x="488" 
d="M86 263q-1 -8 -1 -25q0 -96 49.5 -151.5t133.5 -55.5q77 0 150 45v-46q-72 -42 -152 -42q-64 0 -116 28t-82 84.5t-30 137.5q0 116 54 182.5t148 66.5q56 0 99.5 -24t67.5 -67.5t24 -99.5v-33h-345zM141 407.5q-39 -38.5 -51 -106.5h296q0 62 -39.5 103.5t-106.5 41.5
q-60 0 -99 -38.5zM267 687l116 -157h-50l-90 126l-90 -126h-50l116 157h48z" />
    <glyph glyph-name="edieresis" unicode="&#xeb;" horiz-adv-x="488" 
d="M86 263q-1 -8 -1 -25q0 -96 49.5 -151.5t133.5 -55.5q77 0 150 45v-46q-72 -42 -152 -42q-64 0 -116 28t-82 84.5t-30 137.5q0 116 54 182.5t148 66.5q56 0 99.5 -24t67.5 -67.5t24 -99.5v-33h-345zM141 407.5q-39 -38.5 -51 -106.5h296q0 62 -39.5 103.5t-106.5 41.5
q-60 0 -99 -38.5zM147 584q-10 10 -10 25q0 14 10 24t25 10q14 0 24 -10t10 -24q0 -15 -10 -25t-24 -10q-15 0 -25 10zM289 584q-10 10 -10 25q0 14 10 24t24 10q15 0 25 -10t10 -24q0 -15 -10 -25t-25 -10q-14 0 -24 10z" />
    <glyph glyph-name="igrave" unicode="&#xec;" horiz-adv-x="198" 
d="M121 475v-475h-45v475h45zM-36 672l45 14l111 -155h-46z" />
    <glyph glyph-name="iacute" unicode="&#xed;" horiz-adv-x="198" 
d="M121 475v-475h-45v475h45zM232 672l-110 -141h-46l111 155z" />
    <glyph glyph-name="icircumflex" unicode="&#xee;" horiz-adv-x="198" 
d="M121 475v-475h-45v475h45zM123 687l116 -157h-50l-90 126l-90 -126h-50l116 157h48z" />
    <glyph glyph-name="idieresis" unicode="&#xef;" horiz-adv-x="198" 
d="M121 475v-475h-45v475h45zM3 584q-10 10 -10 25q0 14 10 24t25 10q14 0 24 -10t10 -24q0 -15 -10 -25t-24 -10q-15 0 -25 10zM145 584q-10 10 -10 25q0 14 10 24t24 10q15 0 25 -10t10 -24q0 -15 -10 -25t-25 -10q-14 0 -24 10z" />
    <glyph glyph-name="eth" unicode="&#xf0;" horiz-adv-x="504" 
d="M427.5 440.5q38.5 -93.5 38.5 -200.5q0 -114 -53 -183t-162 -69q-94 0 -153.5 62t-59.5 184q0 82 28 136.5t75 81t105 26.5q48 0 85 -17.5t59 -45.5q-40 101 -118 161l-156 -73v34l126 59q-58 36 -136 48v43q102 -13 182 -69l127 59v-34l-99 -46q73 -63 111.5 -156.5z
M378.5 84.5q41.5 54.5 41.5 148.5q0 93 -42 148t-127 55q-74 0 -121.5 -52t-47.5 -151q0 -98 47.5 -150.5t121.5 -52.5q86 0 127.5 54.5z" />
    <glyph glyph-name="ntilde" unicode="&#xf1;" horiz-adv-x="527" 
d="M365.5 468.5q38.5 -18.5 62 -56t23.5 -91.5v-321h-45v316q0 60 -39 94t-95 34q-44 0 -84.5 -21t-66.5 -60v-363h-45v475h44v-63q28 36 71 55.5t90 19.5q46 0 84.5 -18.5zM143 608.5q20 21.5 56 21.5q17 0 32 -3.5t36 -10.5q36 -12 56 -12t30.5 11t10.5 31h37
q0 -37 -20 -58.5t-56 -21.5q-22 0 -44.5 6.5t-27.5 7.5q-13 5 -27 8.5t-25 3.5q-19 0 -30 -10.5t-11 -28.5h-37q0 34 20 55.5z" />
    <glyph glyph-name="ograve" unicode="&#xf2;" horiz-adv-x="577" 
d="M158 19.5q-57 31.5 -88.5 88.5t-31.5 129t31.5 129t88.5 89t130 32t130 -32t88.5 -89t31.5 -129t-31.5 -129t-88.5 -88.5t-130 -31.5t-130 31.5zM394.5 57.5q46.5 26.5 72.5 73.5t26 106t-26 106t-72.5 74t-106.5 27t-106 -27t-72 -74t-26 -106t25.5 -106t72 -73.5
t106.5 -26.5t106.5 26.5zM152 672l45 14l111 -155h-46z" />
    <glyph glyph-name="oacute" unicode="&#xf3;" horiz-adv-x="577" 
d="M158 19.5q-57 31.5 -88.5 88.5t-31.5 129t31.5 129t88.5 89t130 32t130 -32t88.5 -89t31.5 -129t-31.5 -129t-88.5 -88.5t-130 -31.5t-130 31.5zM394.5 57.5q46.5 26.5 72.5 73.5t26 106t-26 106t-72.5 74t-106.5 27t-106 -27t-72 -74t-26 -106t25.5 -106t72 -73.5
t106.5 -26.5t106.5 26.5zM421 672l-110 -141h-46l111 155z" />
    <glyph glyph-name="ocircumflex" unicode="&#xf4;" horiz-adv-x="577" 
d="M158 19.5q-57 31.5 -88.5 88.5t-31.5 129t31.5 129t88.5 89t130 32t130 -32t88.5 -89t31.5 -129t-31.5 -129t-88.5 -88.5t-130 -31.5t-130 31.5zM394.5 57.5q46.5 26.5 72.5 73.5t26 106t-26 106t-72.5 74t-106.5 27t-106 -27t-72 -74t-26 -106t25.5 -106t72 -73.5
t106.5 -26.5t106.5 26.5zM312 687l116 -157h-50l-90 126l-90 -126h-50l116 157h48z" />
    <glyph glyph-name="otilde" unicode="&#xf5;" horiz-adv-x="577" 
d="M158 19.5q-57 31.5 -88.5 88.5t-31.5 129t31.5 129t88.5 89t130 32t130 -32t88.5 -89t31.5 -129t-31.5 -129t-88.5 -88.5t-130 -31.5t-130 31.5zM394.5 57.5q46.5 26.5 72.5 73.5t26 106t-26 106t-72.5 74t-106.5 27t-106 -27t-72 -74t-26 -106t25.5 -106t72 -73.5
t106.5 -26.5t106.5 26.5zM167 608.5q20 21.5 56 21.5q17 0 32 -3.5t36 -10.5q36 -12 56 -12t30.5 11t10.5 31h37q0 -37 -20 -58.5t-56 -21.5q-22 0 -44.5 6.5t-27.5 7.5q-13 5 -27 8.5t-25 3.5q-19 0 -30 -10.5t-11 -28.5h-37q0 34 20 55.5z" />
    <glyph glyph-name="odieresis" unicode="&#xf6;" horiz-adv-x="577" 
d="M158 19.5q-57 31.5 -88.5 88.5t-31.5 129t31.5 129t88.5 89t130 32t130 -32t88.5 -89t31.5 -129t-31.5 -129t-88.5 -88.5t-130 -31.5t-130 31.5zM394.5 57.5q46.5 26.5 72.5 73.5t26 106t-26 106t-72.5 74t-106.5 27t-106 -27t-72 -74t-26 -106t25.5 -106t72 -73.5
t106.5 -26.5t106.5 26.5zM192 584q-10 10 -10 25q0 14 10 24t25 10q14 0 24 -10t10 -24q0 -15 -10 -25t-24 -10q-15 0 -25 10zM334 584q-10 10 -10 25q0 14 10 24t24 10q15 0 25 -10t10 -24q0 -15 -10 -25t-25 -10q-14 0 -24 10z" />
    <glyph glyph-name="divide" unicode="&#xf7;" 
d="M462 351v-40h-424v40h424zM225 144q-10 10 -10 25t10 25t25 10t25 -10t10 -25t-10 -25t-25 -10t-25 10zM225 469q-10 10 -10 25t10 25t25 10t25 -10t10 -25t-10 -25t-25 -10t-25 10z" />
    <glyph glyph-name="oslash" unicode="&#xf8;" horiz-adv-x="577" 
d="M515.5 348.5q22.5 -50.5 22.5 -111.5q0 -72 -31.5 -129t-88.5 -88.5t-130 -31.5q-77 0 -135 35l-52 -72l-30 21l52 72q-40 34 -62.5 83.5t-22.5 109.5q0 72 31.5 129t88.5 89t130 32q76 0 133 -34l52 71l30 -21l-52 -71q42 -33 64.5 -83.5zM101 148.5q17 -40.5 49 -68.5
l245 337q-48 27 -107 27q-60 0 -106 -27t-72 -74t-26 -106q0 -48 17 -88.5zM394.5 57.5q46.5 26.5 72.5 73.5t26 106q0 48 -18 89.5t-50 69.5l-246 -337q48 -28 109 -28q60 0 106.5 26.5z" />
    <glyph glyph-name="ugrave" unicode="&#xf9;" horiz-adv-x="517" 
d="M117 35.5q-41 47.5 -41 136.5v303h45v-301q0 -69 31 -106t94 -37q39 0 78 20.5t72 54.5v369h45v-475h-43v59q-39 -35 -78 -53t-82 -18q-80 0 -121 47.5zM123 672l45 14l111 -155h-46z" />
    <glyph glyph-name="uacute" unicode="&#xfa;" horiz-adv-x="517" 
d="M117 35.5q-41 47.5 -41 136.5v303h45v-301q0 -69 31 -106t94 -37q39 0 78 20.5t72 54.5v369h45v-475h-43v59q-39 -35 -78 -53t-82 -18q-80 0 -121 47.5zM391 672l-110 -141h-46l111 155z" />
    <glyph glyph-name="ucircumflex" unicode="&#xfb;" horiz-adv-x="517" 
d="M117 35.5q-41 47.5 -41 136.5v303h45v-301q0 -69 31 -106t94 -37q39 0 78 20.5t72 54.5v369h45v-475h-43v59q-39 -35 -78 -53t-82 -18q-80 0 -121 47.5zM283 687l116 -157h-50l-90 126l-90 -126h-50l116 157h48z" />
    <glyph glyph-name="udieresis" unicode="&#xfc;" horiz-adv-x="517" 
d="M117 35.5q-41 47.5 -41 136.5v303h45v-301q0 -69 31 -106t94 -37q39 0 78 20.5t72 54.5v369h45v-475h-43v59q-39 -35 -78 -53t-82 -18q-80 0 -121 47.5zM163 584q-10 10 -10 25q0 14 10 24t25 10q14 0 24 -10t10 -24q0 -15 -10 -25t-24 -10q-15 0 -25 10zM305 584
q-10 10 -10 25q0 14 10 24t24 10q15 0 25 -10t10 -24q0 -15 -10 -25t-25 -10q-14 0 -24 10z" />
    <glyph glyph-name="yacute" unicode="&#xfd;" horiz-adv-x="453" 
d="M427 475l-176 -469q-37 -97 -84 -139t-123 -42h-31v44h31q58 0 95 32.5t66 109.5l-181 464h50l155 -401l149 401h49zM359 672l-110 -141h-46l111 155z" />
    <glyph glyph-name="thorn" unicode="&#xfe;" horiz-adv-x="509" 
d="M120 676v-241q29 25 66 38.5t75 13.5q57 0 105 -27t76.5 -83t28.5 -139q0 -84 -28 -140t-75.5 -83t-104.5 -27q-39 0 -76 13t-66 37v-213h-45v851h44zM376.5 83q47.5 53 47.5 155t-47.5 154.5t-121.5 52.5q-39 0 -75 -13.5t-59 -39.5v-310q23 -25 59.5 -38.5t74.5 -13.5
q74 0 121.5 53z" />
    <glyph glyph-name="ydieresis" unicode="&#xff;" horiz-adv-x="453" 
d="M427 475l-176 -469q-37 -97 -84 -139t-123 -42h-31v44h31q58 0 95 32.5t66 109.5l-181 464h50l155 -401l149 401h49zM130 584q-10 10 -10 25q0 14 10 24t25 10q14 0 24 -10t10 -24q0 -15 -10 -25t-24 -10q-15 0 -25 10zM272 584q-10 10 -10 25q0 14 10 24t24 10
q15 0 25 -10t10 -24q0 -15 -10 -25t-25 -10q-14 0 -24 10z" />
    <glyph glyph-name="Amacron" unicode="&#x100;" horiz-adv-x="595" 
d="M449 213h-306l-79 -213h-47l252 676h58l251 -676h-51zM433 258l-135 371l-138 -371h273zM422 814v-37h-250v37h250z" />
    <glyph glyph-name="amacron" unicode="&#x101;" horiz-adv-x="472" 
d="M346 447.5q49 -39.5 49 -115.5v-332h-43v77q-27 -37 -74 -63t-101 -26q-57 0 -94 35.5t-37 93.5q0 73 53 115t154 46l97 4v50q0 56 -36.5 84t-94.5 28q-34 0 -67.5 -10t-60.5 -28l-1 47q62 34 134 34q73 0 122 -39.5zM350 244l-96 -4q-87 -4 -124 -36.5t-37 -82.5
q0 -41 25.5 -67t68.5 -26q48 0 90 26.5t73 67.5v122zM369 613v-37h-250v37h250z" />
    <glyph glyph-name="Abreve" unicode="&#x102;" horiz-adv-x="595" 
d="M449 213h-306l-79 -213h-47l252 676h58l251 -676h-51zM433 258l-135 371l-138 -371h273zM213.5 746.5q-32.5 31.5 -32.5 82.5h32q0 -37 23.5 -59.5t60.5 -22.5t60.5 22.5t23.5 59.5h32q0 -51 -32.5 -82.5t-83.5 -31.5t-83.5 31.5z" />
    <glyph glyph-name="abreve" unicode="&#x103;" horiz-adv-x="472" 
d="M346 447.5q49 -39.5 49 -115.5v-332h-43v77q-27 -37 -74 -63t-101 -26q-57 0 -94 35.5t-37 93.5q0 73 53 115t154 46l97 4v50q0 56 -36.5 84t-94.5 28q-34 0 -67.5 -10t-60.5 -28l-1 47q62 34 134 34q73 0 122 -39.5zM350 244l-96 -4q-87 -4 -124 -36.5t-37 -82.5
q0 -41 25.5 -67t68.5 -26q48 0 90 26.5t73 67.5v122zM152 558.5q-35 31.5 -35 92.5h35q0 -42 25 -65.5t67 -23.5t67 23.5t25 65.5h35q0 -61 -35 -92.5t-92 -31.5t-92 31.5z" />
    <glyph glyph-name="Aogonek" unicode="&#x104;" horiz-adv-x="595" 
d="M449 213h-306l-79 -213h-47l252 676h58l251 -676h-51zM433 258l-135 371l-138 -371h273zM492.5 -161.5q-22.5 20.5 -22.5 56.5q0 28 15 56.5t42 48.5h37q-25 -18 -39 -44.5t-14 -52.5q0 -23 13.5 -35t33.5 -12q28 0 53 15v-38q-27 -15 -60 -15q-36 0 -58.5 20.5z" />
    <glyph glyph-name="aogonek" unicode="&#x105;" horiz-adv-x="472" 
d="M437 -129v-38q-27 -15 -60 -15q-36 0 -58.5 20.5t-22.5 56.5q0 28 15 56.5t42 48.5h-1v77q-27 -37 -74 -63t-101 -26q-57 0 -94 35.5t-37 93.5q0 73 53 115t154 46l97 4v50q0 56 -36.5 84t-94.5 28q-34 0 -67.5 -10t-60.5 -28l-1 47q62 34 134 34q73 0 122 -39.5
t49 -115.5v-332h-5q-25 -18 -39 -44.5t-14 -52.5q0 -23 13.5 -35t33.5 -12q28 0 53 15zM350 244l-96 -4q-87 -4 -124 -36.5t-37 -82.5q0 -41 25.5 -67t68.5 -26q48 0 90 26.5t73 67.5v122z" />
    <glyph glyph-name="Cacute" unicode="&#x106;" horiz-adv-x="596" 
d="M197.5 31q-75.5 43 -117 122.5t-41.5 184.5t41.5 184.5t117 122.5t174.5 43q91 0 159 -33v-47q-69 34 -157 34q-83 0 -147.5 -37.5t-101 -106.5t-36.5 -160t36.5 -160t101 -106.5t147.5 -37.5q92 0 166 41v-47q-75 -40 -168 -40q-99 0 -174.5 43zM501 831l-119 -110h-52
l128 128z" />
    <glyph glyph-name="cacute" unicode="&#x107;" horiz-adv-x="460" 
d="M145 19q-52 31 -79.5 87.5t-27.5 131.5q0 78 31 134.5t83.5 85.5t117.5 29q64 0 119 -27v-46q-57 30 -117 30q-52 0 -94.5 -24.5t-67.5 -71t-25 -110.5q0 -94 50 -150.5t134 -56.5q40 0 71 10t62 33v-49q-58 -37 -135 -37q-70 0 -122 31zM399 672l-110 -141h-46l111 155z
" />
    <glyph glyph-name="Ccircumflex" unicode="&#x108;" horiz-adv-x="596" 
d="M197.5 31q-75.5 43 -117 122.5t-41.5 184.5t41.5 184.5t117 122.5t174.5 43q91 0 159 -33v-47q-69 34 -157 34q-83 0 -147.5 -37.5t-101 -106.5t-36.5 -160t36.5 -160t101 -106.5t147.5 -37.5q92 0 166 41v-47q-75 -40 -168 -40q-99 0 -174.5 43zM378 850l98 -130h-49
l-72 98l-72 -98h-49l98 130h46z" />
    <glyph glyph-name="ccircumflex" unicode="&#x109;" horiz-adv-x="460" 
d="M145 19q-52 31 -79.5 87.5t-27.5 131.5q0 78 31 134.5t83.5 85.5t117.5 29q64 0 119 -27v-46q-57 30 -117 30q-52 0 -94.5 -24.5t-67.5 -71t-25 -110.5q0 -94 50 -150.5t134 -56.5q40 0 71 10t62 33v-49q-58 -37 -135 -37q-70 0 -122 31zM291 687l116 -157h-50l-90 126
l-90 -126h-50l116 157h48z" />
    <glyph glyph-name="Cdotaccent" unicode="&#x10a;" horiz-adv-x="596" 
d="M197.5 31q-75.5 43 -117 122.5t-41.5 184.5t41.5 184.5t117 122.5t174.5 43q91 0 159 -33v-47q-69 34 -157 34q-83 0 -147.5 -37.5t-101 -106.5t-36.5 -160t36.5 -160t101 -106.5t147.5 -37.5q92 0 166 41v-47q-75 -40 -168 -40q-99 0 -174.5 43zM330 783q-10 10 -10 25
t10 25t25 10t25 -10t10 -25t-10 -25t-25 -10t-25 10z" />
    <glyph glyph-name="cdotaccent" unicode="&#x10b;" horiz-adv-x="460" 
d="M145 19q-52 31 -79.5 87.5t-27.5 131.5q0 78 31 134.5t83.5 85.5t117.5 29q64 0 119 -27v-46q-57 30 -117 30q-52 0 -94.5 -24.5t-67.5 -71t-25 -110.5q0 -94 50 -150.5t134 -56.5q40 0 71 10t62 33v-49q-58 -37 -135 -37q-70 0 -122 31zM242 582q-10 10 -10 25t10 25
t25 10t25 -10t10 -25t-10 -25t-25 -10t-25 10z" />
    <glyph glyph-name="Ccaron" unicode="&#x10c;" horiz-adv-x="596" 
d="M197.5 31q-75.5 43 -117 122.5t-41.5 184.5t41.5 184.5t117 122.5t174.5 43q91 0 159 -33v-47q-69 34 -157 34q-83 0 -147.5 -37.5t-101 -106.5t-36.5 -160t36.5 -160t101 -106.5t147.5 -37.5q92 0 166 41v-47q-75 -40 -168 -40q-99 0 -174.5 43zM284 847l71 -96l71 96
h48l-98 -129h-42l-98 129h48z" />
    <glyph glyph-name="ccaron" unicode="&#x10d;" horiz-adv-x="460" 
d="M145 19q-52 31 -79.5 87.5t-27.5 131.5q0 78 31 134.5t83.5 85.5t117.5 29q64 0 119 -27v-46q-57 30 -117 30q-52 0 -94.5 -24.5t-67.5 -71t-25 -110.5q0 -94 50 -150.5t134 -56.5q40 0 71 10t62 33v-49q-58 -37 -135 -37q-70 0 -122 31zM195 668l72 -112l72 112h47
l-98 -145h-42l-98 145h47z" />
    <glyph glyph-name="Dcaron" unicode="&#x10e;" horiz-adv-x="652" 
d="M245 676q114 0 196.5 -40t126.5 -116t44 -182t-44 -182t-126.5 -116t-196.5 -40h-154v676h154zM479 121q84 76 84 217t-84 217t-234 76h-107v-586h107q150 0 234 76zM225 847l71 -96l71 96h48l-98 -129h-42l-98 129h48z" />
    <glyph glyph-name="dcaron" unicode="&#x10f;" horiz-adv-x="539" 
d="M141.5 15q-47.5 27 -75.5 83t-28 140q0 85 28.5 141t76 82t105.5 26q37 0 74 -13t66 -36v238h45v-676h-45v39q-28 -25 -65 -38t-77 -13q-57 0 -104.5 27zM328.5 43q36.5 14 59.5 39v310q-23 24 -60 38.5t-73 14.5q-74 0 -122 -53t-48 -154t48 -155t122 -54q37 0 73.5 14z
M499 539q11 32 11 65q0 41 -11 72h44q9 -38 9 -70q0 -75 -49 -136l-34 14q19 23 30 55z" />
    <glyph glyph-name="Dcroat" unicode="&#x110;" horiz-adv-x="652" 
d="M441.5 636q82.5 -40 126.5 -116t44 -182t-44 -182t-126.5 -116t-196.5 -40h-154v316h-73v44h73v316h154q114 0 196.5 -40zM479 121q84 76 84 217t-84 217t-234 76h-107v-271h264v-44h-264v-271h107q150 0 234 76z" />
    <glyph glyph-name="dcroat" unicode="&#x111;" horiz-adv-x="509" 
d="M524 558h-91v-558h-45v39q-28 -25 -65 -38t-77 -13q-57 0 -104.5 27t-75.5 83t-28 140q0 85 28.5 141t76 82t105.5 26q37 0 74 -13t66 -36v120h-206v38h206v80h45v-80h91v-38zM388 392q-23 24 -60 38.5t-73 14.5q-74 0 -122 -53t-48 -154t48 -155t122 -54q37 0 73.5 14
t59.5 39v310z" />
    <glyph glyph-name="Emacron" unicode="&#x112;" horiz-adv-x="522" 
d="M429 676v-45h-291v-255h285v-45h-285v-286h297v-45h-344v676h338zM385 814v-37h-250v37h250z" />
    <glyph glyph-name="emacron" unicode="&#x113;" horiz-adv-x="488" 
d="M86 263q-1 -8 -1 -25q0 -96 49.5 -151.5t133.5 -55.5q77 0 150 45v-46q-72 -42 -152 -42q-64 0 -116 28t-82 84.5t-30 137.5q0 116 54 182.5t148 66.5q56 0 99.5 -24t67.5 -67.5t24 -99.5v-33h-345zM141 407.5q-39 -38.5 -51 -106.5h296q0 62 -39.5 103.5t-106.5 41.5
q-60 0 -99 -38.5zM368 613v-37h-250v37h250z" />
    <glyph glyph-name="Ebreve" unicode="&#x114;" horiz-adv-x="522" 
d="M429 676v-45h-291v-255h285v-45h-285v-286h297v-45h-344v676h338zM176.5 746.5q-32.5 31.5 -32.5 82.5h32q0 -37 23.5 -59.5t60.5 -22.5t60.5 22.5t23.5 59.5h32q0 -51 -32.5 -82.5t-83.5 -31.5t-83.5 31.5z" />
    <glyph glyph-name="ebreve" unicode="&#x115;" horiz-adv-x="488" 
d="M86 263q-1 -8 -1 -25q0 -96 49.5 -151.5t133.5 -55.5q77 0 150 45v-46q-72 -42 -152 -42q-64 0 -116 28t-82 84.5t-30 137.5q0 116 54 182.5t148 66.5q56 0 99.5 -24t67.5 -67.5t24 -99.5v-33h-345zM141 407.5q-39 -38.5 -51 -106.5h296q0 62 -39.5 103.5t-106.5 41.5
q-60 0 -99 -38.5zM151 558.5q-35 31.5 -35 92.5h35q0 -42 25 -65.5t67 -23.5t67 23.5t25 65.5h35q0 -61 -35 -92.5t-92 -31.5t-92 31.5z" />
    <glyph glyph-name="Edotaccent" unicode="&#x116;" horiz-adv-x="522" 
d="M429 676v-45h-291v-255h285v-45h-285v-286h297v-45h-344v676h338zM235 783q-10 10 -10 25t10 25t25 10t25 -10t10 -25t-10 -25t-25 -10t-25 10z" />
    <glyph glyph-name="edotaccent" unicode="&#x117;" horiz-adv-x="488" 
d="M86 263q-1 -8 -1 -25q0 -96 49.5 -151.5t133.5 -55.5q77 0 150 45v-46q-72 -42 -152 -42q-64 0 -116 28t-82 84.5t-30 137.5q0 116 54 182.5t148 66.5q56 0 99.5 -24t67.5 -67.5t24 -99.5v-33h-345zM141 407.5q-39 -38.5 -51 -106.5h296q0 62 -39.5 103.5t-106.5 41.5
q-60 0 -99 -38.5zM218 582q-10 10 -10 25t10 25t25 10t25 -10t10 -25t-10 -25t-25 -10t-25 10z" />
    <glyph glyph-name="Eogonek" unicode="&#x118;" horiz-adv-x="522" 
d="M429 676v-45h-291v-255h285v-45h-285v-286h297v-45h-344v676h338zM363.5 -161.5q-22.5 20.5 -22.5 56.5q0 28 15 56.5t42 48.5h37q-25 -18 -39 -44.5t-14 -52.5q0 -23 13.5 -35t33.5 -12q28 0 53 15v-38q-27 -15 -60 -15q-36 0 -58.5 20.5z" />
    <glyph glyph-name="eogonek" unicode="&#x119;" horiz-adv-x="488" 
d="M86 263q-1 -8 -1 -25q0 -96 49.5 -151.5t133.5 -55.5q77 0 150 45v-46q-25 -15 -53 -25q-22 -18 -34.5 -43t-12.5 -49q0 -23 13.5 -35t33.5 -12q28 0 53 15v-38q-27 -15 -60 -15q-36 0 -58.5 20.5t-22.5 56.5q0 22 9.5 45t27.5 42q-21 -4 -48 -4q-64 0 -116 28t-82 84.5
t-30 137.5q0 116 54 182.5t148 66.5q56 0 99.5 -24t67.5 -67.5t24 -99.5v-33h-345zM141 407.5q-39 -38.5 -51 -106.5h296q0 62 -39.5 103.5t-106.5 41.5q-60 0 -99 -38.5z" />
    <glyph glyph-name="Ecaron" unicode="&#x11a;" horiz-adv-x="522" 
d="M429 676v-45h-291v-255h285v-45h-285v-286h297v-45h-344v676h338zM189 847l71 -96l71 96h48l-98 -129h-42l-98 129h48z" />
    <glyph glyph-name="ecaron" unicode="&#x11b;" horiz-adv-x="488" 
d="M86 263q-1 -8 -1 -25q0 -96 49.5 -151.5t133.5 -55.5q77 0 150 45v-46q-72 -42 -152 -42q-64 0 -116 28t-82 84.5t-30 137.5q0 116 54 182.5t148 66.5q56 0 99.5 -24t67.5 -67.5t24 -99.5v-33h-345zM141 407.5q-39 -38.5 -51 -106.5h296q0 62 -39.5 103.5t-106.5 41.5
q-60 0 -99 -38.5zM171 668l72 -112l72 112h47l-98 -145h-42l-98 145h47z" />
    <glyph glyph-name="Gcircumflex" unicode="&#x11c;" horiz-adv-x="765" 
d="M688 0h-43v154q-16 -43 -57 -81.5t-97 -61.5t-115 -23q-95 0 -172 44.5t-121 124t-44 181.5q0 101 44 180.5t122 124.5t177 45q91 0 159 -33v-47q-69 34 -157 34q-84 0 -151.5 -38.5t-105.5 -108t-38 -157.5q0 -89 37.5 -158.5t103.5 -107.5t148 -38q57 0 118.5 28
t103 84.5t41.5 137.5v20h-243v46h290v-350zM390 850l98 -130h-49l-72 98l-72 -98h-49l98 130h46z" />
    <glyph glyph-name="gcircumflex" unicode="&#x11d;" horiz-adv-x="484" 
d="M431 478q-26 0 -44.5 -9t-36.5 -26q26 -23 40 -55t14 -70q0 -48 -22.5 -85.5t-62.5 -59t-89 -21.5q-35 0 -66 11q-14 -17 -14 -34q0 -19 23.5 -31t65.5 -17q100 -12 157 -42t57 -93t-65 -98t-157 -35q-95 0 -159 34t-64 94q0 50 45 82.5t125 39.5q-35 8 -51.5 25
t-16.5 38q0 27 24 51q-37 21 -58 58t-21 83q0 49 22.5 87.5t62.5 60t90 21.5q51 0 92 -23q45 54 109 54h23v-40h-23zM323.5 411q-36.5 37 -93.5 37t-94 -36.5t-37 -93.5q0 -55 37 -91t94 -36q56 0 93 36t37 91q0 56 -36.5 93zM357.5 14.5q-49.5 23.5 -126.5 23.5
q-71 0 -124 -23t-53 -70q0 -44 53 -68.5t126 -24.5q70 0 122 24.5t52 68.5q0 46 -49.5 69.5zM254 687l116 -157h-50l-90 126l-90 -126h-50l116 157h48z" />
    <glyph glyph-name="Gbreve" unicode="&#x11e;" horiz-adv-x="765" 
d="M688 0h-43v154q-16 -43 -57 -81.5t-97 -61.5t-115 -23q-95 0 -172 44.5t-121 124t-44 181.5q0 101 44 180.5t122 124.5t177 45q91 0 159 -33v-47q-69 34 -157 34q-84 0 -151.5 -38.5t-105.5 -108t-38 -157.5q0 -89 37.5 -158.5t103.5 -107.5t148 -38q57 0 118.5 28
t103 84.5t41.5 137.5v20h-243v46h290v-350zM283.5 746.5q-32.5 31.5 -32.5 82.5h32q0 -37 23.5 -59.5t60.5 -22.5t60.5 22.5t23.5 59.5h32q0 -51 -32.5 -82.5t-83.5 -31.5t-83.5 31.5z" />
    <glyph glyph-name="gbreve" unicode="&#x11f;" horiz-adv-x="484" 
d="M431 478q-26 0 -44.5 -9t-36.5 -26q26 -23 40 -55t14 -70q0 -48 -22.5 -85.5t-62.5 -59t-89 -21.5q-35 0 -66 11q-14 -17 -14 -34q0 -19 23.5 -31t65.5 -17q100 -12 157 -42t57 -93t-65 -98t-157 -35q-95 0 -159 34t-64 94q0 50 45 82.5t125 39.5q-35 8 -51.5 25
t-16.5 38q0 27 24 51q-37 21 -58 58t-21 83q0 49 22.5 87.5t62.5 60t90 21.5q51 0 92 -23q45 54 109 54h23v-40h-23zM323.5 411q-36.5 37 -93.5 37t-94 -36.5t-37 -93.5q0 -55 37 -91t94 -36q56 0 93 36t37 91q0 56 -36.5 93zM357.5 14.5q-49.5 23.5 -126.5 23.5
q-71 0 -124 -23t-53 -70q0 -44 53 -68.5t126 -24.5q70 0 122 24.5t52 68.5q0 46 -49.5 69.5zM138 558.5q-35 31.5 -35 92.5h35q0 -42 25 -65.5t67 -23.5t67 23.5t25 65.5h35q0 -61 -35 -92.5t-92 -31.5t-92 31.5z" />
    <glyph glyph-name="Gdotaccent" unicode="&#x120;" horiz-adv-x="765" 
d="M688 0h-43v154q-16 -43 -57 -81.5t-97 -61.5t-115 -23q-95 0 -172 44.5t-121 124t-44 181.5q0 101 44 180.5t122 124.5t177 45q91 0 159 -33v-47q-69 34 -157 34q-84 0 -151.5 -38.5t-105.5 -108t-38 -157.5q0 -89 37.5 -158.5t103.5 -107.5t148 -38q57 0 118.5 28
t103 84.5t41.5 137.5v20h-243v46h290v-350zM342 783q-10 10 -10 25t10 25t25 10t25 -10t10 -25t-10 -25t-25 -10t-25 10z" />
    <glyph glyph-name="gdotaccent" unicode="&#x121;" horiz-adv-x="484" 
d="M431 478q-26 0 -44.5 -9t-36.5 -26q26 -23 40 -55t14 -70q0 -48 -22.5 -85.5t-62.5 -59t-89 -21.5q-35 0 -66 11q-14 -17 -14 -34q0 -19 23.5 -31t65.5 -17q100 -12 157 -42t57 -93t-65 -98t-157 -35q-95 0 -159 34t-64 94q0 50 45 82.5t125 39.5q-35 8 -51.5 25
t-16.5 38q0 27 24 51q-37 21 -58 58t-21 83q0 49 22.5 87.5t62.5 60t90 21.5q51 0 92 -23q45 54 109 54h23v-40h-23zM323.5 411q-36.5 37 -93.5 37t-94 -36.5t-37 -93.5q0 -55 37 -91t94 -36q56 0 93 36t37 91q0 56 -36.5 93zM357.5 14.5q-49.5 23.5 -126.5 23.5
q-71 0 -124 -23t-53 -70q0 -44 53 -68.5t126 -24.5q70 0 122 24.5t52 68.5q0 46 -49.5 69.5zM205 582q-10 10 -10 25t10 25t25 10t25 -10t10 -25t-10 -25t-25 -10t-25 10z" />
    <glyph glyph-name="uni0122" unicode="&#x122;" horiz-adv-x="765" 
d="M688 0h-43v154q-16 -43 -57 -81.5t-97 -61.5t-115 -23q-95 0 -172 44.5t-121 124t-44 181.5q0 101 44 180.5t122 124.5t177 45q91 0 159 -33v-47q-69 34 -157 34q-84 0 -151.5 -38.5t-105.5 -108t-38 -157.5q0 -89 37.5 -158.5t103.5 -107.5t148 -38q57 0 118.5 28
t103 84.5t41.5 137.5v20h-243v46h290v-350zM343.5 -142q13.5 20 13.5 43t-11 53h40q9 -26 9 -51q0 -31 -14.5 -56.5t-43.5 -42.5l-31 21q24 13 37.5 33z" />
    <glyph glyph-name="uni0123" unicode="&#x123;" horiz-adv-x="484" 
d="M210 521q-9 26 -9 51q0 31 14.5 56.5t43.5 42.5l31 -21q-24 -13 -37.5 -33t-13.5 -43t11 -53h-40zM431 478q-26 0 -44.5 -9t-36.5 -26q26 -23 40 -55t14 -70q0 -48 -22.5 -85.5t-62.5 -59t-89 -21.5q-35 0 -66 11q-14 -17 -14 -34q0 -19 23.5 -31t65.5 -17
q100 -12 157 -42t57 -93t-65 -98t-157 -35q-95 0 -159 34t-64 94q0 50 45 82.5t125 39.5q-35 8 -51.5 25t-16.5 38q0 27 24 51q-37 21 -58 58t-21 83q0 49 22.5 87.5t62.5 60t90 21.5q51 0 92 -23q45 54 109 54h23v-40h-23zM323.5 411q-36.5 37 -93.5 37t-94 -36.5
t-37 -93.5q0 -55 37 -91t94 -36q56 0 93 36t37 91q0 56 -36.5 93zM357.5 14.5q-49.5 23.5 -126.5 23.5q-71 0 -124 -23t-53 -70q0 -44 53 -68.5t126 -24.5q70 0 122 24.5t52 68.5q0 46 -49.5 69.5z" />
    <glyph glyph-name="Hcircumflex" unicode="&#x124;" horiz-adv-x="726" 
d="M138 676v-309h451v309h47v-676h-47v322h-451v-322h-47v676h47zM387 850l98 -130h-49l-72 98l-72 -98h-49l98 130h46z" />
    <glyph glyph-name="hcircumflex" unicode="&#x125;" horiz-adv-x="527" 
d="M365 468.5q39 -18.5 62.5 -56.5t23.5 -92v-320h-45v316q0 60 -39.5 94t-95.5 34q-43 0 -83.5 -21t-66.5 -60v-363h-45v676h45v-263q28 36 71 55t88 19q46 0 85 -18.5zM123 888l116 -157h-50l-90 126l-90 -126h-50l116 157h48z" />
    <glyph glyph-name="Hbar" unicode="&#x126;" horiz-adv-x="726" 
d="M727 498h-91v-498h-47v322h-451v-322h-47v498h-90v42h90v136h47v-136h451v136h47v-136h91v-42zM589 498h-451v-131h451v131z" />
    <glyph glyph-name="hbar" unicode="&#x127;" horiz-adv-x="527" 
d="M365 468.5q39 -18.5 62.5 -56.5t23.5 -92v-320h-45v316q0 60 -39.5 94t-95.5 34q-43 0 -83.5 -21t-66.5 -60v-363h-45v546h-67v38h67v92h45v-92h230v-38h-230v-133q28 36 71 55t88 19q46 0 85 -18.5z" />
    <glyph glyph-name="Itilde" unicode="&#x128;" horiz-adv-x="228" 
d="M138 676v-676h-47v676h47zM-5 780q20 21 56 21q23 0 44 -6t24 -7q36 -12 56 -12t30.5 11t10.5 31h37q0 -37 -20 -58.5t-56 -21.5q-28 0 -72 14q-33 11 -52 11t-30 -10t-11 -28h-37q0 34 20 55z" />
    <glyph glyph-name="itilde" unicode="&#x129;" horiz-adv-x="198" 
d="M121 475v-475h-45v475h45zM-22 608.5q20 21.5 56 21.5q17 0 32 -3.5t36 -10.5q36 -12 56 -12t30.5 11t10.5 31h37q0 -37 -20 -58.5t-56 -21.5q-22 0 -44.5 6.5t-27.5 7.5q-13 5 -27 8.5t-25 3.5q-19 0 -30 -10.5t-11 -28.5h-37q0 34 20 55.5z" />
    <glyph glyph-name="Imacron" unicode="&#x12a;" horiz-adv-x="228" 
d="M138 676v-676h-47v676h47zM240 814v-37h-250v37h250z" />
    <glyph glyph-name="imacron" unicode="&#x12b;" horiz-adv-x="198" 
d="M121 475v-475h-45v475h45zM224 613v-37h-250v37h250z" />
    <glyph glyph-name="Ibreve" unicode="&#x12c;" horiz-adv-x="228" 
d="M138 676v-676h-47v676h47zM31.5 746.5q-32.5 31.5 -32.5 82.5h32q0 -37 23.5 -59.5t60.5 -22.5t60.5 22.5t23.5 59.5h32q0 -51 -32.5 -82.5t-83.5 -31.5t-83.5 31.5z" />
    <glyph glyph-name="ibreve" unicode="&#x12d;" horiz-adv-x="198" 
d="M121 475v-475h-45v475h45zM7 558.5q-35 31.5 -35 92.5h35q0 -42 25 -65.5t67 -23.5t67 23.5t25 65.5h35q0 -61 -35 -92.5t-92 -31.5t-92 31.5z" />
    <glyph glyph-name="Iogonek" unicode="&#x12e;" horiz-adv-x="228" 
d="M138 676v-676h-47v676h47zM61.5 -161.5q-22.5 20.5 -22.5 56.5q0 28 15 56.5t42 48.5h37q-25 -18 -39 -44.5t-14 -52.5q0 -23 13.5 -35t33.5 -12q28 0 53 15v-38q-27 -15 -60 -15q-36 0 -58.5 20.5z" />
    <glyph glyph-name="iogonek" unicode="&#x12f;" horiz-adv-x="198" 
d="M121 475v-475h-45v475h45zM74 582q-10 10 -10 25t10 25t25 10t25 -10t10 -25t-10 -25t-25 -10t-25 10zM46.5 -161.5q-22.5 20.5 -22.5 56.5q0 28 15 56.5t42 48.5h37q-25 -18 -39 -44.5t-14 -52.5q0 -23 13.5 -35t33.5 -12q28 0 53 15v-38q-27 -15 -60 -15
q-36 0 -58.5 20.5z" />
    <glyph glyph-name="Idotaccent" unicode="&#x130;" horiz-adv-x="228" 
d="M138 676v-676h-47v676h47zM90 783q-10 10 -10 25t10 25t25 10t25 -10t10 -25t-10 -25t-25 -10t-25 10z" />
    <glyph glyph-name="dotlessi" unicode="&#x131;" horiz-adv-x="198" 
d="M121 475v-475h-45v475h45z" />
    <glyph glyph-name="IJ" unicode="&#x132;" horiz-adv-x="567" 
d="M138 676v-676h-47v676h47zM276 45h59q54 0 80.5 33t26.5 94v504h47v-505q0 -88 -41.5 -129.5t-107.5 -41.5h-64v45z" />
    <glyph glyph-name="ij" unicode="&#x133;" horiz-adv-x="396" 
d="M121 475v-475h-45v475h45zM74 582q-10 10 -10 25t10 25t25 10t25 -10t10 -25t-10 -25t-25 -10t-25 10zM178 -131q44 0 70 26t26 84v496h45v-496q0 -79 -38.5 -116.5t-102.5 -37.5h-23v44h23zM272 582q-10 10 -10 25t10 25t25 10t25 -10t10 -25t-10 -25t-25 -10t-25 10z
" />
    <glyph glyph-name="Jcircumflex" unicode="&#x134;" horiz-adv-x="339" 
d="M48 45h59q54 0 80.5 33t26.5 94v504h47v-505q0 -88 -41.5 -129.5t-107.5 -41.5h-64v45zM261 850l98 -130h-49l-72 98l-72 -98h-49l98 130h46z" />
    <glyph glyph-name="jcircumflex" unicode="&#x135;" horiz-adv-x="198" 
d="M-20 -131q44 0 70 26t26 84v496h45v-496q0 -79 -38.5 -116.5t-102.5 -37.5h-23v44h23zM123 687l116 -157h-50l-90 126l-90 -126h-50l116 157h48z" />
    <glyph glyph-name="uni0136" unicode="&#x136;" horiz-adv-x="611" 
d="M572 45v-45h-28q-49 0 -86.5 25.5t-73.5 83.5l-139 230h-107v-339h-47v676h47v-292h105l209 292h57l-225 -310l142 -232q29 -47 57.5 -68t62.5 -21h26zM268.5 -142q13.5 20 13.5 43t-11 53h40q9 -26 9 -51q0 -31 -14.5 -56.5t-43.5 -42.5l-31 21q24 13 37.5 33z" />
    <glyph glyph-name="uni0137" unicode="&#x137;" horiz-adv-x="476" 
d="M121 676v-376h81l149 175h53l-168 -197l89 -180q15 -29 33 -42.5t47 -13.5h41v-42h-45q-41 0 -68 17t-46 57l-91 183h-75v-257h-45v676h45zM225.5 -142q13.5 20 13.5 43t-11 53h40q9 -26 9 -51q0 -31 -14.5 -56.5t-43.5 -42.5l-31 21q24 13 37.5 33z" />
    <glyph glyph-name="kgreenlandic" unicode="&#x138;" horiz-adv-x="464" 
d="M121 475v-205h69l171 205h53l-186 -224l202 -251h-56l-184 227h-69v-227h-45v475h45z" />
    <glyph glyph-name="Lacute" unicode="&#x139;" horiz-adv-x="479" 
d="M138 676v-631h293v-45h-340v676h47zM260 831l-119 -110h-52l128 128z" />
    <glyph glyph-name="lacute" unicode="&#x13a;" horiz-adv-x="198" 
d="M121 676v-676h-45v676h45zM232 873l-110 -141h-46l111 155z" />
    <glyph glyph-name="uni013B" unicode="&#x13b;" horiz-adv-x="479" 
d="M138 676v-631h293v-45h-340v676h47zM231.5 -142q13.5 20 13.5 43t-11 53h40q9 -26 9 -51q0 -31 -14.5 -56.5t-43.5 -42.5l-31 21q24 13 37.5 33z" />
    <glyph glyph-name="uni013C" unicode="&#x13c;" horiz-adv-x="198" 
d="M121 676v-676h-45v676h45zM76.5 -142q13.5 20 13.5 43t-11 53h40q9 -26 9 -51q0 -31 -14.5 -56.5t-43.5 -42.5l-31 21q24 13 37.5 33z" />
    <glyph glyph-name="Lcaron" unicode="&#x13d;" horiz-adv-x="479" 
d="M138 676v-631h293v-45h-340v676h47zM323 539q11 32 11 65q0 41 -11 72h44q9 -38 9 -70q0 -75 -49 -136l-34 14q19 23 30 55z" />
    <glyph glyph-name="lcaron" unicode="&#x13e;" horiz-adv-x="228" 
d="M121 676v-676h-45v676h45zM188 539q11 32 11 65q0 41 -11 72h44q9 -38 9 -70q0 -75 -49 -136l-34 14q19 23 30 55z" />
    <glyph glyph-name="Ldot" unicode="&#x13f;" horiz-adv-x="479" 
d="M138 676v-631h293v-45h-340v676h47zM238 310q-10 10 -10 25t10 25t25 10t25 -10t10 -25t-10 -25t-25 -10t-25 10z" />
    <glyph glyph-name="ldot" unicode="&#x140;" horiz-adv-x="262" 
d="M121 676v-676h-45v676h45zM180 310q-10 10 -10 25t10 25t25 10t25 -10t10 -25t-10 -25t-25 -10t-25 10z" />
    <glyph glyph-name="Lslash" unicode="&#x141;" horiz-adv-x="479" 
d="M431 45v-45h-340v282l-94 -32v45l94 32v349h47v-332l193 66v-45l-193 -66v-254h293z" />
    <glyph glyph-name="lslash" unicode="&#x142;" horiz-adv-x="198" 
d="M216 344l-95 -29v-315h-45v301l-81 -25v44l81 25v331h45v-317l95 29v-44z" />
    <glyph glyph-name="Nacute" unicode="&#x143;" horiz-adv-x="712" 
d="M138 676l438 -605v605h46v-676h-48l-437 605v-605h-46v676h47zM501 831l-119 -110h-52l128 128z" />
    <glyph glyph-name="nacute" unicode="&#x144;" horiz-adv-x="527" 
d="M365.5 468.5q38.5 -18.5 62 -56t23.5 -91.5v-321h-45v316q0 60 -39 94t-95 34q-44 0 -84.5 -21t-66.5 -60v-363h-45v475h44v-63q28 36 71 55.5t90 19.5q46 0 84.5 -18.5zM396 672l-110 -141h-46l111 155z" />
    <glyph glyph-name="uni0145" unicode="&#x145;" horiz-adv-x="712" 
d="M138 676l438 -605v605h46v-676h-48l-437 605v-605h-46v676h47zM333.5 -142q13.5 20 13.5 43t-11 53h40q9 -26 9 -51q0 -31 -14.5 -56.5t-43.5 -42.5l-31 21q24 13 37.5 33z" />
    <glyph glyph-name="uni0146" unicode="&#x146;" horiz-adv-x="527" 
d="M365.5 468.5q38.5 -18.5 62 -56t23.5 -91.5v-321h-45v316q0 60 -39 94t-95 34q-44 0 -84.5 -21t-66.5 -60v-363h-45v475h44v-63q28 36 71 55.5t90 19.5q46 0 84.5 -18.5zM241.5 -142q13.5 20 13.5 43t-11 53h40q9 -26 9 -51q0 -31 -14.5 -56.5t-43.5 -42.5l-31 21
q24 13 37.5 33z" />
    <glyph glyph-name="Ncaron" unicode="&#x147;" horiz-adv-x="712" 
d="M138 676l438 -605v605h46v-676h-48l-437 605v-605h-46v676h47zM285 847l71 -96l71 96h48l-98 -129h-42l-98 129h48z" />
    <glyph glyph-name="ncaron" unicode="&#x148;" horiz-adv-x="527" 
d="M365.5 468.5q38.5 -18.5 62 -56t23.5 -91.5v-321h-45v316q0 60 -39 94t-95 34q-44 0 -84.5 -21t-66.5 -60v-363h-45v475h44v-63q28 36 71 55.5t90 19.5q46 0 84.5 -18.5zM192 668l72 -112l72 112h47l-98 -145h-42l-98 145h47z" />
    <glyph glyph-name="Eng" unicode="&#x14a;" horiz-adv-x="700" 
d="M479 -131q45 0 71 26t26 83v30l-439 597v-605h-46v676h47l438 -593v593h46v-697q0 -79 -39 -116.5t-104 -37.5h-23v44h23z" />
    <glyph glyph-name="eng" unicode="&#x14b;" horiz-adv-x="514" 
d="M310 -131q44 0 70 26t26 84v337q0 60 -39 94t-95 34q-44 0 -84.5 -21t-66.5 -60v-363h-45v475h44v-62q28 36 71.5 55t89.5 19t84.5 -18.5t62 -56t23.5 -91.5v-342q0 -79 -38.5 -116.5t-102.5 -37.5h-24v44h24z" />
    <glyph glyph-name="Omacron" unicode="&#x14c;" horiz-adv-x="756" 
d="M203.5 33q-77.5 45 -121 125t-43.5 180t43.5 180t121 125t174.5 45t174 -45t121 -125t44 -180t-44 -180t-121 -125t-174 -45t-174.5 45zM527 73q66 39 103 108.5t37 156.5t-37 156.5t-103 108.5t-149 39q-84 0 -149.5 -39t-102.5 -108t-37 -157t37 -157t102.5 -108
t149.5 -39q83 0 149 39zM503 814v-37h-250v37h250z" />
    <glyph glyph-name="omacron" unicode="&#x14d;" horiz-adv-x="577" 
d="M158 19.5q-57 31.5 -88.5 88.5t-31.5 129t31.5 129t88.5 89t130 32t130 -32t88.5 -89t31.5 -129t-31.5 -129t-88.5 -88.5t-130 -31.5t-130 31.5zM394.5 57.5q46.5 26.5 72.5 73.5t26 106t-26 106t-72.5 74t-106.5 27t-106 -27t-72 -74t-26 -106t25.5 -106t72 -73.5
t106.5 -26.5t106.5 26.5zM413 613v-37h-250v37h250z" />
    <glyph glyph-name="Obreve" unicode="&#x14e;" horiz-adv-x="756" 
d="M203.5 33q-77.5 45 -121 125t-43.5 180t43.5 180t121 125t174.5 45t174 -45t121 -125t44 -180t-44 -180t-121 -125t-174 -45t-174.5 45zM527 73q66 39 103 108.5t37 156.5t-37 156.5t-103 108.5t-149 39q-84 0 -149.5 -39t-102.5 -108t-37 -157t37 -157t102.5 -108
t149.5 -39q83 0 149 39zM294.5 746.5q-32.5 31.5 -32.5 82.5h32q0 -37 23.5 -59.5t60.5 -22.5t60.5 22.5t23.5 59.5h32q0 -51 -32.5 -82.5t-83.5 -31.5t-83.5 31.5z" />
    <glyph glyph-name="obreve" unicode="&#x14f;" horiz-adv-x="577" 
d="M158 19.5q-57 31.5 -88.5 88.5t-31.5 129t31.5 129t88.5 89t130 32t130 -32t88.5 -89t31.5 -129t-31.5 -129t-88.5 -88.5t-130 -31.5t-130 31.5zM394.5 57.5q46.5 26.5 72.5 73.5t26 106t-26 106t-72.5 74t-106.5 27t-106 -27t-72 -74t-26 -106t25.5 -106t72 -73.5
t106.5 -26.5t106.5 26.5zM196 558.5q-35 31.5 -35 92.5h35q0 -42 25 -65.5t67 -23.5t67 23.5t25 65.5h35q0 -61 -35 -92.5t-92 -31.5t-92 31.5z" />
    <glyph glyph-name="Ohungarumlaut" unicode="&#x150;" horiz-adv-x="756" 
d="M203.5 33q-77.5 45 -121 125t-43.5 180t43.5 180t121 125t174.5 45t174 -45t121 -125t44 -180t-44 -180t-121 -125t-174 -45t-174.5 45zM527 73q66 39 103 108.5t37 156.5t-37 156.5t-103 108.5t-149 39q-84 0 -149.5 -39t-102.5 -108t-37 -157t37 -157t102.5 -108
t149.5 -39q83 0 149 39zM451 877l-104 -151h-38l98 151h44zM566 877l-116 -151h-39l110 151h45z" />
    <glyph glyph-name="ohungarumlaut" unicode="&#x151;" horiz-adv-x="577" 
d="M158 19.5q-57 31.5 -88.5 88.5t-31.5 129t31.5 129t88.5 89t130 32t130 -32t88.5 -89t31.5 -129t-31.5 -129t-88.5 -88.5t-130 -31.5t-130 31.5zM394.5 57.5q46.5 26.5 72.5 73.5t26 106t-26 106t-72.5 74t-106.5 27t-106 -27t-72 -74t-26 -106t25.5 -106t72 -73.5
t106.5 -26.5t106.5 26.5zM361 676l-104 -151h-38l98 151h44zM476 676l-116 -151h-39l110 151h45z" />
    <glyph glyph-name="OE" unicode="&#x152;" horiz-adv-x="1100" 
d="M1013 45v-45h-344v151q-44 -76 -120 -119.5t-171 -43.5q-97 0 -174.5 45t-121 125t-43.5 180t43.5 180t121 125t174.5 45q95 0 171 -43.5t120 -119.5v151h338v-45h-291v-255h285v-45h-284q0 -15 -1 -22v-264h297zM527 73q66 39 103 108.5t37 156.5t-37 156.5t-103 108.5
t-149 39q-84 0 -149.5 -39t-102.5 -108t-37 -157t37 -157t102.5 -108t149.5 -39q83 0 149 39z" />
    <glyph glyph-name="oe" unicode="&#x153;" horiz-adv-x="944" 
d="M543 263q-1 -8 -1 -25q0 -96 49 -151.5t133 -55.5q78 0 151 45v-46q-34 -20 -74 -31t-79 -11q-71 0 -126 35t-81 101q-30 -63 -89 -99.5t-138 -36.5q-73 0 -130 31.5t-88.5 88.5t-31.5 129t31.5 129t88.5 89t130 32q77 0 136 -35.5t89 -97.5q22 64 69.5 98.5t114.5 34.5
q56 0 99.5 -24t67.5 -67.5t24 -99.5v-33h-345zM598 407.5q-39 -38.5 -51 -106.5h296q0 62 -39.5 103.5t-106.5 41.5q-60 0 -99 -38.5zM394.5 57.5q46.5 26.5 72.5 73.5t26 106t-26 106t-72.5 74t-106.5 27t-106 -27t-72 -74t-26 -106t25.5 -106t72 -73.5t106.5 -26.5
t106.5 26.5z" />
    <glyph glyph-name="Racute" unicode="&#x154;" horiz-adv-x="597" 
d="M575 45v-45h-28q-48 0 -85 25.5t-73 83.5l-110 183q-24 -2 -36 -2h-105v-290h-47v676h154q109 0 172.5 -51.5t63.5 -141.5q0 -71 -40 -119t-113 -65l101 -165q29 -47 56.5 -68t61.5 -21h28zM245 335q88 0 137 39t49 109t-49.5 109t-136.5 39h-107v-296h107zM394 831
l-119 -110h-52l128 128z" />
    <glyph glyph-name="racute" unicode="&#x155;" horiz-adv-x="367" 
d="M121 475v-92q39 48 90 71t116 23v-44q-63 0 -113.5 -24.5t-92.5 -79.5v-329h-45v475h45zM316 672l-110 -141h-46l111 155z" />
    <glyph glyph-name="uni0156" unicode="&#x156;" horiz-adv-x="597" 
d="M575 45v-45h-28q-48 0 -85 25.5t-73 83.5l-110 183q-24 -2 -36 -2h-105v-290h-47v676h154q109 0 172.5 -51.5t63.5 -141.5q0 -71 -40 -119t-113 -65l101 -165q29 -47 56.5 -68t61.5 -21h28zM245 335q88 0 137 39t49 109t-49.5 109t-136.5 39h-107v-296h107zM276.5 -142
q13.5 20 13.5 43t-11 53h40q9 -26 9 -51q0 -31 -14.5 -56.5t-43.5 -42.5l-31 21q24 13 37.5 33z" />
    <glyph glyph-name="uni0157" unicode="&#x157;" horiz-adv-x="367" 
d="M121 475v-92q39 48 90 71t116 23v-44q-63 0 -113.5 -24.5t-92.5 -79.5v-329h-45v475h45zM76.5 -142q13.5 20 13.5 43t-11 53h40q9 -26 9 -51q0 -31 -14.5 -56.5t-43.5 -42.5l-31 21q24 13 37.5 33z" />
    <glyph glyph-name="Rcaron" unicode="&#x158;" horiz-adv-x="597" 
d="M575 45v-45h-28q-48 0 -85 25.5t-73 83.5l-110 183q-24 -2 -36 -2h-105v-290h-47v676h154q109 0 172.5 -51.5t63.5 -141.5q0 -71 -40 -119t-113 -65l101 -165q29 -47 56.5 -68t61.5 -21h28zM245 335q88 0 137 39t49 109t-49.5 109t-136.5 39h-107v-296h107zM178 847
l71 -96l71 96h48l-98 -129h-42l-98 129h48z" />
    <glyph glyph-name="rcaron" unicode="&#x159;" horiz-adv-x="367" 
d="M121 475v-92q39 48 90 71t116 23v-44q-63 0 -113.5 -24.5t-92.5 -79.5v-329h-45v475h45zM112 668l72 -112l72 112h47l-98 -145h-42l-98 145h47z" />
    <glyph glyph-name="Sacute" unicode="&#x15a;" horiz-adv-x="509" 
d="M136.5 2q-51.5 14 -85.5 37v46q41 -26 90 -40t98 -14q81 0 126.5 36.5t45.5 102.5q0 43 -22.5 71t-55.5 44t-89 36q-63 22 -100.5 41.5t-63.5 54.5t-26 91q0 86 59.5 133t150.5 47q84 0 165 -41v-46q-38 21 -81 32.5t-82 11.5q-71 0 -117 -35t-46 -100q0 -42 22 -69.5
t54.5 -43.5t89.5 -37q62 -22 100 -41.5t64.5 -55.5t26.5 -91q0 -88 -58.5 -136t-160.5 -48q-53 0 -104.5 14zM401 831l-119 -110h-52l128 128z" />
    <glyph glyph-name="sacute" unicode="&#x15b;" horiz-adv-x="402" 
d="M120 1q-39 12 -70 34v43q31 -23 71 -36t77 -13q49 0 79 22t30 63q0 29 -15.5 48t-38.5 31t-62 26q-46 17 -73.5 31.5t-47 41t-19.5 68.5q0 61 43 93.5t112 32.5q35 0 68 -9t57 -26v-43q-25 18 -57.5 28t-64.5 10q-49 0 -80.5 -22t-31.5 -64q0 -28 15 -46t37.5 -29
t61.5 -26q46 -17 74.5 -32t48.5 -42t20 -70q0 -61 -43.5 -93.5t-111.5 -32.5q-40 0 -79 12zM334 672l-110 -141h-46l111 155z" />
    <glyph glyph-name="Scircumflex" unicode="&#x15c;" horiz-adv-x="509" 
d="M136.5 2q-51.5 14 -85.5 37v46q41 -26 90 -40t98 -14q81 0 126.5 36.5t45.5 102.5q0 43 -22.5 71t-55.5 44t-89 36q-63 22 -100.5 41.5t-63.5 54.5t-26 91q0 86 59.5 133t150.5 47q84 0 165 -41v-46q-38 21 -81 32.5t-82 11.5q-71 0 -117 -35t-46 -100q0 -42 22 -69.5
t54.5 -43.5t89.5 -37q62 -22 100 -41.5t64.5 -55.5t26.5 -91q0 -88 -58.5 -136t-160.5 -48q-53 0 -104.5 14zM279 850l98 -130h-49l-72 98l-72 -98h-49l98 130h46z" />
    <glyph glyph-name="scircumflex" unicode="&#x15d;" horiz-adv-x="402" 
d="M120 1q-39 12 -70 34v43q31 -23 71 -36t77 -13q49 0 79 22t30 63q0 29 -15.5 48t-38.5 31t-62 26q-46 17 -73.5 31.5t-47 41t-19.5 68.5q0 61 43 93.5t112 32.5q35 0 68 -9t57 -26v-43q-25 18 -57.5 28t-64.5 10q-49 0 -80.5 -22t-31.5 -64q0 -28 15 -46t37.5 -29
t61.5 -26q46 -17 74.5 -32t48.5 -42t20 -70q0 -61 -43.5 -93.5t-111.5 -32.5q-40 0 -79 12zM226 687l116 -157h-50l-90 126l-90 -126h-50l116 157h48z" />
    <glyph glyph-name="Scedilla" unicode="&#x15e;" horiz-adv-x="509" 
d="M136.5 2q-51.5 14 -85.5 37v46q41 -26 90 -40t98 -14q81 0 126.5 36.5t45.5 102.5q0 43 -22.5 71t-55.5 44t-89 36q-63 22 -100.5 41.5t-63.5 54.5t-26 91q0 86 59.5 133t150.5 47q84 0 165 -41v-46q-38 21 -81 32.5t-82 11.5q-71 0 -117 -35t-46 -100q0 -42 22 -69.5
t54.5 -43.5t89.5 -37q62 -22 100 -41.5t64.5 -55.5t26.5 -91q0 -88 -58.5 -136t-160.5 -48q-53 0 -104.5 14zM172 -173v31q33 -15 59 -15q25 0 40.5 11t15.5 29t-13 28.5t-35 10.5q-20 0 -35 -5l8 28q20 5 34 5q36 0 57 -18t21 -49q0 -32 -25 -51t-62 -19q-35 0 -65 14z" />
    <glyph glyph-name="scedilla" unicode="&#x15f;" horiz-adv-x="402" 
d="M120 1q-39 12 -70 34v43q31 -23 71 -36t77 -13q49 0 79 22t30 63q0 29 -15.5 48t-38.5 31t-62 26q-46 17 -73.5 31.5t-47 41t-19.5 68.5q0 61 43 93.5t112 32.5q35 0 68 -9t57 -26v-43q-25 18 -57.5 28t-64.5 10q-49 0 -80.5 -22t-31.5 -64q0 -28 15 -46t37.5 -29
t61.5 -26q46 -17 74.5 -32t48.5 -42t20 -70q0 -61 -43.5 -93.5t-111.5 -32.5q-40 0 -79 12zM118 -173v31q33 -15 59 -15q25 0 40.5 11t15.5 29t-13 28.5t-35 10.5q-20 0 -35 -5l8 28q20 5 34 5q36 0 57 -18t21 -49q0 -32 -25 -51t-62 -19q-35 0 -65 14z" />
    <glyph glyph-name="Scaron" unicode="&#x160;" horiz-adv-x="509" 
d="M136.5 2q-51.5 14 -85.5 37v46q41 -26 90 -40t98 -14q81 0 126.5 36.5t45.5 102.5q0 43 -22.5 71t-55.5 44t-89 36q-63 22 -100.5 41.5t-63.5 54.5t-26 91q0 86 59.5 133t150.5 47q84 0 165 -41v-46q-38 21 -81 32.5t-82 11.5q-71 0 -117 -35t-46 -100q0 -42 22 -69.5
t54.5 -43.5t89.5 -37q62 -22 100 -41.5t64.5 -55.5t26.5 -91q0 -88 -58.5 -136t-160.5 -48q-53 0 -104.5 14zM185 847l71 -96l71 96h48l-98 -129h-42l-98 129h48z" />
    <glyph glyph-name="scaron" unicode="&#x161;" horiz-adv-x="402" 
d="M120 1q-39 12 -70 34v43q31 -23 71 -36t77 -13q49 0 79 22t30 63q0 29 -15.5 48t-38.5 31t-62 26q-46 17 -73.5 31.5t-47 41t-19.5 68.5q0 61 43 93.5t112 32.5q35 0 68 -9t57 -26v-43q-25 18 -57.5 28t-64.5 10q-49 0 -80.5 -22t-31.5 -64q0 -28 15 -46t37.5 -29
t61.5 -26q46 -17 74.5 -32t48.5 -42t20 -70q0 -61 -43.5 -93.5t-111.5 -32.5q-40 0 -79 12zM130 668l72 -112l72 112h47l-98 -145h-42l-98 145h47z" />
    <glyph glyph-name="uni0162" unicode="&#x162;" horiz-adv-x="569" 
d="M36 631v45h497v-45h-225v-631h-47v631h-225zM201 -173v31q33 -15 59 -15q25 0 40.5 11t15.5 29t-13 28.5t-35 10.5q-20 0 -35 -5l8 28q20 5 34 5q36 0 57 -18t21 -49q0 -32 -25 -51t-62 -19q-35 0 -65 14z" />
    <glyph glyph-name="uni0163" unicode="&#x163;" horiz-adv-x="333" 
d="M149 36q-37 36 -37 110v286h-98v43h98v131h45v-131h127v-43h-127v-284q0 -55 24.5 -80t66.5 -25h33v-43h-33q-62 0 -99 36zM140 -173v31q33 -15 59 -15q25 0 40.5 11t15.5 29t-13 28.5t-35 10.5q-20 0 -35 -5l8 28q20 5 34 5q36 0 57 -18t21 -49q0 -32 -25 -51t-62 -19
q-35 0 -65 14z" />
    <glyph glyph-name="Tcaron" unicode="&#x164;" horiz-adv-x="569" 
d="M36 631v45h497v-45h-225v-631h-47v631h-225zM214 847l71 -96l71 96h48l-98 -129h-42l-98 129h48z" />
    <glyph glyph-name="tcaron" unicode="&#x165;" horiz-adv-x="333" 
d="M149 36q-37 36 -37 110v286h-98v43h98v131h45v-131h127v-43h-127v-284q0 -55 24.5 -80t66.5 -25h33v-43h-33q-62 0 -99 36zM243 595q11 32 11 65q0 41 -11 72h44q9 -38 9 -70q0 -75 -49 -136l-34 14q19 23 30 55z" />
    <glyph glyph-name="Tbar" unicode="&#x166;" horiz-adv-x="569" 
d="M308 631v-246h169v-44h-169v-341h-47v341h-168v44h168v246h-225v45h497v-45h-225z" />
    <glyph glyph-name="tbar" unicode="&#x167;" horiz-adv-x="333" 
d="M157 432v-125h123v-37h-123v-122q0 -55 24.5 -80t66.5 -25h33v-43h-33q-62 0 -99 36t-37 110v124h-97v37h97v125h-98v43h98v131h45v-131h127v-43h-127z" />
    <glyph glyph-name="Utilde" unicode="&#x168;" horiz-adv-x="648" 
d="M201 15.5q-55 27.5 -87.5 84t-32.5 141.5v435h47v-435q0 -101 54 -154t142 -53t142 53t54 154v435h47v-435q0 -85 -32.5 -141.5t-87.5 -84t-123 -27.5t-123 27.5zM205 780q20 21 56 21q23 0 44 -6t24 -7q36 -12 56 -12t30.5 11t10.5 31h37q0 -37 -20 -58.5t-56 -21.5
q-28 0 -72 14q-33 11 -52 11t-30 -10t-11 -28h-37q0 34 20 55z" />
    <glyph glyph-name="utilde" unicode="&#x169;" horiz-adv-x="517" 
d="M117 35.5q-41 47.5 -41 136.5v303h45v-301q0 -69 31 -106t94 -37q39 0 78 20.5t72 54.5v369h45v-475h-43v59q-39 -35 -78 -53t-82 -18q-80 0 -121 47.5zM138 608.5q20 21.5 56 21.5q17 0 32 -3.5t36 -10.5q36 -12 56 -12t30.5 11t10.5 31h37q0 -37 -20 -58.5t-56 -21.5
q-22 0 -44.5 6.5t-27.5 7.5q-13 5 -27 8.5t-25 3.5q-19 0 -30 -10.5t-11 -28.5h-37q0 34 20 55.5z" />
    <glyph glyph-name="Umacron" unicode="&#x16a;" horiz-adv-x="648" 
d="M201 15.5q-55 27.5 -87.5 84t-32.5 141.5v435h47v-435q0 -101 54 -154t142 -53t142 53t54 154v435h47v-435q0 -85 -32.5 -141.5t-87.5 -84t-123 -27.5t-123 27.5zM449 814v-37h-250v37h250z" />
    <glyph glyph-name="umacron" unicode="&#x16b;" horiz-adv-x="517" 
d="M117 35.5q-41 47.5 -41 136.5v303h45v-301q0 -69 31 -106t94 -37q39 0 78 20.5t72 54.5v369h45v-475h-43v59q-39 -35 -78 -53t-82 -18q-80 0 -121 47.5zM384 613v-37h-250v37h250z" />
    <glyph glyph-name="Ubreve" unicode="&#x16c;" horiz-adv-x="648" 
d="M201 15.5q-55 27.5 -87.5 84t-32.5 141.5v435h47v-435q0 -101 54 -154t142 -53t142 53t54 154v435h47v-435q0 -85 -32.5 -141.5t-87.5 -84t-123 -27.5t-123 27.5zM240.5 746.5q-32.5 31.5 -32.5 82.5h32q0 -37 23.5 -59.5t60.5 -22.5t60.5 22.5t23.5 59.5h32
q0 -51 -32.5 -82.5t-83.5 -31.5t-83.5 31.5z" />
    <glyph glyph-name="ubreve" unicode="&#x16d;" horiz-adv-x="517" 
d="M117 35.5q-41 47.5 -41 136.5v303h45v-301q0 -69 31 -106t94 -37q39 0 78 20.5t72 54.5v369h45v-475h-43v59q-39 -35 -78 -53t-82 -18q-80 0 -121 47.5zM167 558.5q-35 31.5 -35 92.5h35q0 -42 25 -65.5t67 -23.5t67 23.5t25 65.5h35q0 -61 -35 -92.5t-92 -31.5t-92 31.5
z" />
    <glyph glyph-name="Uring" unicode="&#x16e;" horiz-adv-x="648" 
d="M201 15.5q-55 27.5 -87.5 84t-32.5 141.5v435h47v-435q0 -101 54 -154t142 -53t142 53t54 154v435h47v-435q0 -85 -32.5 -141.5t-87.5 -84t-123 -27.5t-123 27.5zM261.5 751q-24.5 25 -24.5 64q0 38 24.5 62t62.5 24t62.5 -24t24.5 -62q0 -39 -24.5 -64t-62.5 -25
t-62.5 25zM363 775q15 15 15 40q0 23 -15 38t-39 15t-39 -15t-15 -38q0 -25 15 -40t39 -15t39 15z" />
    <glyph glyph-name="uring" unicode="&#x16f;" horiz-adv-x="517" 
d="M117 35.5q-41 47.5 -41 136.5v303h45v-301q0 -69 31 -106t94 -37q39 0 78 20.5t72 54.5v369h45v-475h-43v59q-39 -35 -78 -53t-82 -18q-80 0 -121 47.5zM196.5 551q-24.5 25 -24.5 64q0 38 24.5 62t62.5 24t62.5 -24t24.5 -62q0 -39 -24.5 -64t-62.5 -25t-62.5 25z
M298 575q15 15 15 40q0 23 -15 38t-39 15t-39 -15t-15 -38q0 -25 15 -40t39 -15t39 15z" />
    <glyph glyph-name="Uhungarumlaut" unicode="&#x170;" horiz-adv-x="648" 
d="M201 15.5q-55 27.5 -87.5 84t-32.5 141.5v435h47v-435q0 -101 54 -154t142 -53t142 53t54 154v435h47v-435q0 -85 -32.5 -141.5t-87.5 -84t-123 -27.5t-123 27.5zM397 877l-104 -151h-38l98 151h44zM512 877l-116 -151h-39l110 151h45z" />
    <glyph glyph-name="uhungarumlaut" unicode="&#x171;" horiz-adv-x="517" 
d="M117 35.5q-41 47.5 -41 136.5v303h45v-301q0 -69 31 -106t94 -37q39 0 78 20.5t72 54.5v369h45v-475h-43v59q-39 -35 -78 -53t-82 -18q-80 0 -121 47.5zM331 676l-104 -151h-38l98 151h44zM446 676l-116 -151h-39l110 151h45z" />
    <glyph glyph-name="Uogonek" unicode="&#x172;" horiz-adv-x="648" 
d="M567 676v-435q0 -119 -63 -182.5t-161 -69.5q-19 -19 -29 -41.5t-10 -44.5q0 -23 13.5 -35t33.5 -12q28 0 53 15v-38q-27 -15 -60 -15q-36 0 -58.5 20.5t-22.5 56.5q0 24 11 48.5t32 44.5q-98 6 -161.5 69.5t-63.5 183.5v435h47v-435q0 -101 54 -154t142 -53t142 53
t54 154v435h47z" />
    <glyph glyph-name="uogonek" unicode="&#x173;" horiz-adv-x="517" 
d="M482 -129v-38q-27 -15 -60 -15q-36 0 -58.5 20.5t-22.5 56.5q0 28 15 56.5t42 48.5v59q-39 -35 -78 -53t-82 -18q-80 0 -121 47.5t-41 136.5v303h45v-301q0 -69 31 -106t94 -37q39 0 78 20.5t72 54.5v369h45v-475h-6q-25 -18 -39 -44.5t-14 -52.5q0 -23 13.5 -35
t33.5 -12q28 0 53 15z" />
    <glyph glyph-name="Wcircumflex" unicode="&#x174;" horiz-adv-x="984" 
d="M69 676l186 -625l203 625h68l203 -625l187 625h48l-201 -676h-64l-207 624l-207 -624h-64l-201 676h49zM515 850l98 -130h-49l-72 98l-72 -98h-49l98 130h46z" />
    <glyph glyph-name="wcircumflex" unicode="&#x175;" horiz-adv-x="732" 
d="M77 475l127 -424l134 424h56l135 -424l126 424h48l-144 -475h-59l-134 418l-133 -418h-59l-145 475h48zM390 687l116 -157h-50l-90 126l-90 -126h-50l116 157h48z" />
    <glyph glyph-name="Ycircumflex" unicode="&#x176;" horiz-adv-x="619" 
d="M51 676h53l206 -355l206 355h52l-235 -404v-272h-47v272zM333 850l98 -130h-49l-72 98l-72 -98h-49l98 130h46z" />
    <glyph glyph-name="ycircumflex" unicode="&#x177;" horiz-adv-x="453" 
d="M427 475l-176 -469q-37 -97 -84 -139t-123 -42h-31v44h31q58 0 95 32.5t66 109.5l-181 464h50l155 -401l149 401h49zM250 687l116 -157h-50l-90 126l-90 -126h-50l116 157h48z" />
    <glyph glyph-name="Ydieresis" unicode="&#x178;" horiz-adv-x="619" 
d="M51 676h53l206 -355l206 355h52l-235 -404v-272h-47v272zM214 783q-10 10 -10 25q0 14 10 24t25 10q14 0 24 -10t10 -24q0 -15 -10 -25t-24 -10q-15 0 -25 10zM356 783q-10 10 -10 25q0 14 10 24t24 10q15 0 25 -10t10 -24q0 -15 -10 -25t-25 -10q-14 0 -24 10z" />
    <glyph glyph-name="Zacute" unicode="&#x179;" horiz-adv-x="617" 
d="M476 631h-409v45h467v-43l-411 -588h429v-45h-487v43zM454 831l-119 -110h-52l128 128z" />
    <glyph glyph-name="zacute" unicode="&#x17a;" horiz-adv-x="467" 
d="M344 431h-286v44h344v-42l-282 -389h288v-44h-346v39zM366 672l-110 -141h-46l111 155z" />
    <glyph glyph-name="Zdotaccent" unicode="&#x17b;" horiz-adv-x="617" 
d="M476 631h-409v45h467v-43l-411 -588h429v-45h-487v43zM284 783q-10 10 -10 25t10 25t25 10t25 -10t10 -25t-10 -25t-25 -10t-25 10z" />
    <glyph glyph-name="zdotaccent" unicode="&#x17c;" horiz-adv-x="467" 
d="M344 431h-286v44h344v-42l-282 -389h288v-44h-346v39zM208 582q-10 10 -10 25t10 25t25 10t25 -10t10 -25t-10 -25t-25 -10t-25 10z" />
    <glyph glyph-name="Zcaron" unicode="&#x17d;" horiz-adv-x="617" 
d="M476 631h-409v45h467v-43l-411 -588h429v-45h-487v43zM238 847l71 -96l71 96h48l-98 -129h-42l-98 129h48z" />
    <glyph glyph-name="zcaron" unicode="&#x17e;" horiz-adv-x="467" 
d="M344 431h-286v44h344v-42l-282 -389h288v-44h-346v39zM161 668l72 -112l72 112h47l-98 -145h-42l-98 145h47z" />
    <glyph glyph-name="longs" unicode="&#x17f;" horiz-adv-x="313" 
d="M13 432v43h98v53q0 75 37 111.5t100 36.5h48v-43h-47q-43 0 -68 -25t-25 -80v-528h-45v432h-98z" />
    <glyph glyph-name="uni018F" unicode="&#x18f;" horiz-adv-x="624" 
d="M431 646q72 -41 113 -121t41 -193q0 -107 -34 -184.5t-97 -118.5t-149 -41q-78 0 -137.5 36.5t-92.5 106t-33 164.5v41h494q-1 98 -37 166.5t-97 103.5t-135 35q-105 0 -203 -54v48q100 52 204 52q91 0 163 -41zM466 103q60 69 68 188h-442q0 -115 56.5 -186t156.5 -71
q101 0 161 69z" />
    <glyph glyph-name="florin" unicode="&#x192;" 
d="M306 608.5q-29 -24.5 -36 -80.5l-12 -95h142v-37h-146l-52 -415q-10 -83 -50.5 -119.5t-106.5 -36.5h-31v43h32q46 0 73.5 26t35.5 87l52 415h-124v37h128l12 95q19 148 166 148h55v-43h-57q-52 0 -81 -24.5z" />
    <glyph glyph-name="uni019D" unicode="&#x19d;" horiz-adv-x="712" 
d="M-6 -131q45 0 71 26t26 84v697h47l438 -605v605h46v-676h-48l-437 605v-626q0 -79 -39 -116.5t-104 -37.5h-23v44h23z" />
    <glyph glyph-name="Gcaron" unicode="&#x1e6;" horiz-adv-x="765" 
d="M688 0h-43v154q-16 -43 -57 -81.5t-97 -61.5t-115 -23q-95 0 -172 44.5t-121 124t-44 181.5q0 101 44 180.5t122 124.5t177 45q91 0 159 -33v-47q-69 34 -157 34q-84 0 -151.5 -38.5t-105.5 -108t-38 -157.5q0 -89 37.5 -158.5t103.5 -107.5t148 -38q57 0 118.5 28
t103 84.5t41.5 137.5v20h-243v46h290v-350zM296 847l71 -96l71 96h48l-98 -129h-42l-98 129h48z" />
    <glyph glyph-name="gcaron" unicode="&#x1e7;" horiz-adv-x="484" 
d="M431 478q-26 0 -44.5 -9t-36.5 -26q26 -23 40 -55t14 -70q0 -48 -22.5 -85.5t-62.5 -59t-89 -21.5q-35 0 -66 11q-14 -17 -14 -34q0 -19 23.5 -31t65.5 -17q100 -12 157 -42t57 -93t-65 -98t-157 -35q-95 0 -159 34t-64 94q0 50 45 82.5t125 39.5q-35 8 -51.5 25
t-16.5 38q0 27 24 51q-37 21 -58 58t-21 83q0 49 22.5 87.5t62.5 60t90 21.5q51 0 92 -23q45 54 109 54h23v-40h-23zM323.5 411q-36.5 37 -93.5 37t-94 -36.5t-37 -93.5q0 -55 37 -91t94 -36q56 0 93 36t37 91q0 56 -36.5 93zM357.5 14.5q-49.5 23.5 -126.5 23.5
q-71 0 -124 -23t-53 -70q0 -44 53 -68.5t126 -24.5q70 0 122 24.5t52 68.5q0 46 -49.5 69.5zM158 668l72 -112l72 112h47l-98 -145h-42l-98 145h47z" />
    <glyph glyph-name="uni01EA" unicode="&#x1ea;" horiz-adv-x="756" 
d="M358 -52.5q-10 -22.5 -10 -44.5q0 -23 13.5 -35t33.5 -12q28 0 53 15v-38q-27 -15 -60 -15q-36 0 -58.5 20.5t-22.5 56.5q0 25 11.5 49.5t32.5 44.5q-91 6 -162 52.5t-110.5 123.5t-39.5 173q0 100 43.5 180t121 125t174.5 45t174 -45t121 -125t44 -180q0 -99 -42.5 -178
t-118 -124.5t-169.5 -47.5q-19 -18 -29 -40.5zM126 181q37 -69 102.5 -108t149.5 -39q83 0 149 39t103 108.5t37 156.5t-37 156.5t-103 108.5t-149 39q-84 0 -149.5 -39t-102.5 -108t-37 -157t37 -157z" />
    <glyph glyph-name="uni01EB" unicode="&#x1eb;" horiz-adv-x="577" 
d="M277 -52.5q-10 -22.5 -10 -44.5q0 -23 13.5 -35t33.5 -12q28 0 53 15v-38q-27 -15 -60 -15q-36 0 -58.5 20.5t-22.5 56.5q0 24 11.5 48.5t32.5 45.5q-68 4 -121 36.5t-82 87.5t-29 124q0 72 31.5 129t88.5 89t130 32t130 -32t88.5 -89t31.5 -129q0 -69 -29 -124
t-81.5 -87.5t-121.5 -36.5q-19 -19 -29 -41.5zM109.5 131q25.5 -47 72 -73.5t106.5 -26.5t106.5 26.5t72.5 73.5t26 106t-26 106t-72.5 74t-106.5 27t-106 -27t-72 -74t-26 -106t25.5 -106z" />
    <glyph glyph-name="Aringacute" unicode="&#x1fa;" horiz-adv-x="595" 
d="M449 213h-306l-79 -213h-47l252 676h58l251 -676h-51zM433 258l-135 371l-138 -371h273zM234.5 751q-24.5 25 -24.5 64q0 38 24.5 62t62.5 24t62.5 -24t24.5 -62q0 -39 -24.5 -64t-62.5 -25t-62.5 25zM336 775q15 15 15 40q0 23 -15 38t-39 15t-39 -15t-15 -38
q0 -25 15 -40t39 -15t39 15zM443 1056l-119 -110h-52l128 128z" />
    <glyph glyph-name="aringacute" unicode="&#x1fb;" horiz-adv-x="472" 
d="M346 447.5q49 -39.5 49 -115.5v-332h-43v77q-27 -37 -74 -63t-101 -26q-57 0 -94 35.5t-37 93.5q0 73 53 115t154 46l97 4v50q0 56 -36.5 84t-94.5 28q-34 0 -67.5 -10t-60.5 -28l-1 47q62 34 134 34q73 0 122 -39.5zM350 244l-96 -4q-87 -4 -124 -36.5t-37 -82.5
q0 -41 25.5 -67t68.5 -26q48 0 90 26.5t73 67.5v122zM181.5 551q-24.5 25 -24.5 64q0 38 24.5 62t62.5 24t62.5 -24t24.5 -62q0 -39 -24.5 -64t-62.5 -25t-62.5 25zM283 575q15 15 15 40q0 23 -15 38t-39 15t-39 -15t-15 -38q0 -25 15 -40t39 -15t39 15zM377 855l-110 -141
h-46l111 155z" />
    <glyph glyph-name="AEacute" unicode="&#x1fc;" horiz-adv-x="879" 
d="M792 45v-45h-344v213h-265l-88 -213h-49l277 676h463v-45h-291v-255h285v-45h-285v-286h297zM448 258v373h-93l-154 -373h247zM720 831l-119 -110h-52l128 128z" />
    <glyph glyph-name="aeacute" unicode="&#x1fd;" horiz-adv-x="789" 
d="M83 23q-37 35 -37 94q0 75 54.5 121t155.5 46h84v47q0 56 -36 84.5t-93 28.5q-34 0 -67.5 -10t-60.5 -28l-1 47q62 34 134 34q60 0 103 -28.5t54 -84.5q25 55 68 84t103 29q56 0 99 -28t66.5 -76t23.5 -105v-31h-346v-52q0 -43 22.5 -81t64 -60.5t95.5 -22.5q78 0 151 45
v-46q-34 -20 -74 -31t-79 -11q-77 0 -131 37t-72 90q-21 -52 -73 -89.5t-111 -37.5q-60 0 -97 35zM671 364q-18 37 -51.5 59.5t-77.5 22.5q-41 0 -76.5 -23.5t-57 -61t-21.5 -77.5h301q1 43 -17 80zM257.5 52q36.5 22 59.5 58.5t23 77.5v59h-84q-87 0 -125.5 -36t-38.5 -88
q0 -41 25 -67t68 -26q36 0 72.5 22zM510 672l-110 -141h-46l111 155z" />
    <glyph glyph-name="Oslashacute" unicode="&#x1fe;" horiz-adv-x="756" 
d="M688.5 486q28.5 -68 28.5 -148q0 -100 -44 -180t-121 -125t-174 -45q-113 0 -198 60l-75 -96l-32 24l75 98q-52 47 -80.5 115t-28.5 149q0 100 43.5 180t121 125t174.5 45q111 0 198 -60l76 98l33 -24l-77 -100q52 -48 80.5 -116zM112 211q23 -58 66 -99l369 478
q-72 52 -169 52q-84 0 -149.5 -39t-102.5 -108t-37 -157q0 -69 23 -127zM527 73q66 39 103 108.5t37 156.5q0 69 -23 127t-66 99l-369 -478q72 -52 169 -52q83 0 149 39zM524 831l-119 -110h-52l128 128z" />
    <glyph glyph-name="oslashacute" unicode="&#x1ff;" horiz-adv-x="577" 
d="M515.5 348.5q22.5 -50.5 22.5 -111.5q0 -72 -31.5 -129t-88.5 -88.5t-130 -31.5q-77 0 -135 35l-52 -72l-30 21l52 72q-40 34 -62.5 83.5t-22.5 109.5q0 72 31.5 129t88.5 89t130 32q76 0 133 -34l52 71l30 -21l-52 -71q42 -33 64.5 -83.5zM101 148.5q17 -40.5 49 -68.5
l245 337q-48 27 -107 27q-60 0 -106 -27t-72 -74t-26 -106q0 -48 17 -88.5zM394.5 57.5q46.5 26.5 72.5 73.5t26 106q0 48 -18 89.5t-50 69.5l-246 -337q48 -28 109 -28q60 0 106.5 26.5zM421 672l-110 -141h-46l111 155z" />
    <glyph glyph-name="uni0218" unicode="&#x218;" horiz-adv-x="509" 
d="M136.5 2q-51.5 14 -85.5 37v46q41 -26 90 -40t98 -14q81 0 126.5 36.5t45.5 102.5q0 43 -22.5 71t-55.5 44t-89 36q-63 22 -100.5 41.5t-63.5 54.5t-26 91q0 86 59.5 133t150.5 47q84 0 165 -41v-46q-38 21 -81 32.5t-82 11.5q-71 0 -117 -35t-46 -100q0 -42 22 -69.5
t54.5 -43.5t89.5 -37q62 -22 100 -41.5t64.5 -55.5t26.5 -91q0 -88 -58.5 -136t-160.5 -48q-53 0 -104.5 14zM233.5 -142q13.5 20 13.5 43t-11 53h40q9 -26 9 -51q0 -31 -14.5 -56.5t-43.5 -42.5l-31 21q24 13 37.5 33z" />
    <glyph glyph-name="uni0219" unicode="&#x219;" horiz-adv-x="402" 
d="M120 1q-39 12 -70 34v43q31 -23 71 -36t77 -13q49 0 79 22t30 63q0 29 -15.5 48t-38.5 31t-62 26q-46 17 -73.5 31.5t-47 41t-19.5 68.5q0 61 43 93.5t112 32.5q35 0 68 -9t57 -26v-43q-25 18 -57.5 28t-64.5 10q-49 0 -80.5 -22t-31.5 -64q0 -28 15 -46t37.5 -29
t61.5 -26q46 -17 74.5 -32t48.5 -42t20 -70q0 -61 -43.5 -93.5t-111.5 -32.5q-40 0 -79 12zM179.5 -142q13.5 20 13.5 43t-11 53h40q9 -26 9 -51q0 -31 -14.5 -56.5t-43.5 -42.5l-31 21q24 13 37.5 33z" />
    <glyph glyph-name="uni021A" unicode="&#x21a;" horiz-adv-x="569" 
d="M36 631v45h497v-45h-225v-631h-47v631h-225zM262.5 -142q13.5 20 13.5 43t-11 53h40q9 -26 9 -51q0 -31 -14.5 -56.5t-43.5 -42.5l-31 21q24 13 37.5 33z" />
    <glyph glyph-name="uni021B" unicode="&#x21b;" horiz-adv-x="333" 
d="M149 36q-37 36 -37 110v286h-98v43h98v131h45v-131h127v-43h-127v-284q0 -55 24.5 -80t66.5 -25h33v-43h-33q-62 0 -99 36zM201.5 -142q13.5 20 13.5 43t-11 53h40q9 -26 9 -51q0 -31 -14.5 -56.5t-43.5 -42.5l-31 21q24 13 37.5 33z" />
    <glyph glyph-name="uni0232" unicode="&#x232;" horiz-adv-x="619" 
d="M51 676h53l206 -355l206 355h52l-235 -404v-272h-47v272zM435 814v-37h-250v37h250z" />
    <glyph glyph-name="uni0233" unicode="&#x233;" horiz-adv-x="453" 
d="M427 475l-176 -469q-37 -97 -84 -139t-123 -42h-31v44h31q58 0 95 32.5t66 109.5l-181 464h50l155 -401l149 401h49zM351 613v-37h-250v37h250z" />
    <glyph glyph-name="uni0237" unicode="&#x237;" horiz-adv-x="198" 
d="M-20 -131q44 0 70 26t26 84v496h45v-496q0 -79 -38.5 -116.5t-102.5 -37.5h-23v44h23z" />
    <glyph glyph-name="uni0259" unicode="&#x259;" horiz-adv-x="469" 
d="M325 459q49 -28 77.5 -84t28.5 -138q0 -76 -25.5 -132.5t-71.5 -86.5t-107 -30q-56 0 -99 25t-66.5 67t-23.5 89v31h344q2 24 2 37q0 97 -46.5 152t-130.5 55q-76 0 -147 -45v46q78 42 154 42q62 0 111 -28zM324.5 64q38.5 35 52.5 99h-294q0 -33 17.5 -64t51 -50.5
t76.5 -19.5q58 0 96.5 35z" />
    <glyph glyph-name="uni0272" unicode="&#x272;" horiz-adv-x="527" 
d="M50 -105q26 26 26 84v496h45v-60q29 35 72 53.5t88 18.5q46 0 84.5 -18.5t62 -56t23.5 -91.5v-321h-45v316q0 60 -39 94t-95 34q-44 0 -84.5 -21t-66.5 -60v-384q0 -79 -38.5 -116.5t-102.5 -37.5v44q44 0 70 26z" />
    <glyph glyph-name="circumflex" unicode="&#x2c6;" horiz-adv-x="600" 
d="M324 687l116 -157h-50l-90 126l-90 -126h-50l116 157h48z" />
    <glyph glyph-name="caron" unicode="&#x2c7;" horiz-adv-x="600" 
d="M228 668l72 -112l72 112h47l-98 -145h-42l-98 145h47z" />
    <glyph glyph-name="breve" unicode="&#x2d8;" horiz-adv-x="600" 
d="M208 558.5q-35 31.5 -35 92.5h35q0 -42 25 -65.5t67 -23.5t67 23.5t25 65.5h35q0 -61 -35 -92.5t-92 -31.5t-92 31.5z" />
    <glyph glyph-name="dotaccent" unicode="&#x2d9;" horiz-adv-x="600" 
d="M275 582q-10 10 -10 25t10 25t25 10t25 -10t10 -25t-10 -25t-25 -10t-25 10z" />
    <glyph glyph-name="ring" unicode="&#x2da;" horiz-adv-x="600" 
d="M237.5 551q-24.5 25 -24.5 64q0 38 24.5 62t62.5 24t62.5 -24t24.5 -62q0 -39 -24.5 -64t-62.5 -25t-62.5 25zM339 575q15 15 15 40q0 23 -15 38t-39 15t-39 -15t-15 -38q0 -25 15 -40t39 -15t39 15z" />
    <glyph glyph-name="ogonek" unicode="&#x2db;" horiz-adv-x="600" 
d="M252.5 -161.5q-22.5 20.5 -22.5 56.5q0 28 15 56.5t42 48.5h37q-25 -18 -39 -44.5t-14 -52.5q0 -23 13.5 -35t33.5 -12q28 0 53 15v-38q-27 -15 -60 -15q-36 0 -58.5 20.5z" />
    <glyph glyph-name="tilde" unicode="&#x2dc;" horiz-adv-x="600" 
d="M181 608.5q20 21.5 56 21.5q17 0 32 -3.5t36 -10.5q36 -12 56 -12t30.5 11t10.5 31h37q0 -37 -20 -58.5t-56 -21.5q-22 0 -44.5 6.5t-27.5 7.5q-13 5 -27 8.5t-25 3.5q-19 0 -30 -10.5t-11 -28.5h-37q0 34 20 55.5z" />
    <glyph glyph-name="hungarumlaut" unicode="&#x2dd;" horiz-adv-x="600" 
d="M314 676l-104 -151h-38l98 151h44zM429 676l-116 -151h-39l110 151h45z" />
    <glyph glyph-name="gravecomb" unicode="&#x300;" horiz-adv-x="0" 
d="M-330 672l45 14l111 -155h-46z" />
    <glyph glyph-name="acutecomb" unicode="&#x301;" horiz-adv-x="0" 
d="M-176 672l-110 -141h-46l111 155z" />
    <glyph glyph-name="uni0302" unicode="&#x302;" horiz-adv-x="0" 
d="M-226 687l116 -157h-50l-90 126l-90 -126h-50l116 157h48z" />
    <glyph glyph-name="tildecomb" unicode="&#x303;" horiz-adv-x="0" 
d="M-376 608.5q20 21.5 56 21.5q17 0 32 -3.5t36 -10.5q36 -12 56 -12t30.5 11t10.5 31h37q0 -37 -20 -58.5t-56 -21.5q-22 0 -44.5 6.5t-27.5 7.5q-13 5 -27 8.5t-25 3.5q-19 0 -30 -10.5t-11 -28.5h-37q0 34 20 55.5z" />
    <glyph glyph-name="uni0304" unicode="&#x304;" horiz-adv-x="0" 
d="M-130 613v-37h-250v37h250z" />
    <glyph glyph-name="uni0306" unicode="&#x306;" horiz-adv-x="0" 
d="M-342 558.5q-35 31.5 -35 92.5h35q0 -42 25 -65.5t67 -23.5t67 23.5t25 65.5h35q0 -61 -35 -92.5t-92 -31.5t-92 31.5z" />
    <glyph glyph-name="uni0307" unicode="&#x307;" horiz-adv-x="0" 
d="M-275 582q-10 10 -10 25t10 25t25 10t25 -10t10 -25t-10 -25t-25 -10t-25 10z" />
    <glyph glyph-name="uni0308" unicode="&#x308;" horiz-adv-x="0" 
d="M-346 584q-10 10 -10 25q0 14 10 24t25 10q14 0 24 -10t10 -24q0 -15 -10 -25t-24 -10q-15 0 -25 10zM-204 584q-10 10 -10 25q0 14 10 24t24 10q15 0 25 -10t10 -24q0 -15 -10 -25t-25 -10q-14 0 -24 10z" />
    <glyph glyph-name="uni030A" unicode="&#x30a;" horiz-adv-x="0" 
d="M-317.5 551q-24.5 25 -24.5 64q0 38 24.5 62t62.5 24t62.5 -24t24.5 -62q0 -39 -24.5 -64t-62.5 -25t-62.5 25zM-216 575q15 15 15 40q0 23 -15 38t-39 15t-39 -15t-15 -38q0 -25 15 -40t39 -15t39 15z" />
    <glyph glyph-name="uni030B" unicode="&#x30b;" horiz-adv-x="0" 
d="M-225 676l-104 -151h-38l98 151h44zM-110 676l-116 -151h-39l110 151h45z" />
    <glyph glyph-name="uni030C" unicode="&#x30c;" horiz-adv-x="0" 
d="M-327 668l72 -112l72 112h47l-98 -145h-42l-98 145h47z" />
    <glyph glyph-name="dotbelowcomb" unicode="&#x323;" horiz-adv-x="0" 
d="M-283.5 -142.5q-10.5 10.5 -10.5 24.5t10.5 24.5t24.5 10.5t24 -10.5t10 -24.5t-10 -24.5t-24 -10.5t-24.5 10.5z" />
    <glyph glyph-name="uni0326" unicode="&#x326;" horiz-adv-x="0" 
d="M-261.5 -142q13.5 20 13.5 43t-11 53h40q9 -26 9 -51q0 -31 -14.5 -56.5t-43.5 -42.5l-31 21q24 13 37.5 33z" />
    <glyph glyph-name="uni0327" unicode="&#x327;" horiz-adv-x="0" 
d="M-344 -173v31q33 -15 59 -15q25 0 40.5 11t15.5 29t-13 28.5t-35 10.5q-20 0 -35 -5l8 28q20 5 34 5q36 0 57 -18t21 -49q0 -32 -25 -51t-62 -19q-35 0 -65 14z" />
    <glyph glyph-name="uni0328" unicode="&#x328;" horiz-adv-x="0" 
d="M-306.5 -161.5q-22.5 20.5 -22.5 56.5q0 28 15 56.5t42 48.5h37q-25 -18 -39 -44.5t-14 -52.5q0 -23 13.5 -35t33.5 -12q28 0 53 15v-38q-27 -15 -60 -15q-36 0 -58.5 20.5z" />
    <glyph glyph-name="uni0335" unicode="&#x335;" horiz-adv-x="0" 
d="M-117 277v-37h-265v37h265z" />
    <glyph glyph-name="uni0336" unicode="&#x336;" horiz-adv-x="0" 
d="M-79 625v-38h-342v38h342z" />
    <glyph glyph-name="uni0337" unicode="&#x337;" horiz-adv-x="0" 
d="M-139 466v-44l-221 -68v44z" />
    <glyph glyph-name="uni0338" unicode="&#x338;" horiz-adv-x="0" 
d="M-64 520l30 -21l-402 -552l-30 21z" />
    <glyph glyph-name="uni0374" unicode="&#x374;" horiz-adv-x="261" 
d="M195 676l-80 -239h-39l75 239h44z" />
    <glyph glyph-name="uni0375" unicode="&#x375;" horiz-adv-x="261" 
d="M185 101l-80 -239h-39l75 239h44z" />
    <glyph glyph-name="uni037E" unicode="&#x37e;" horiz-adv-x="250" 
d="M85 427q-10 10 -10 25t10 25t25 10t25 -10t10 -25t-10 -25t-25 -10t-25 10zM84.5 -104.5q15.5 38.5 15.5 81.5q0 36 -10 67h45q10 -31 10 -68q0 -49 -18.5 -92.5t-51.5 -69.5l-36 14q30 29 45.5 67.5z" />
    <glyph glyph-name="tonos" unicode="&#x384;" horiz-adv-x="547" 
d="M319 676l-49 -145h-42l43 145h48z" />
    <glyph glyph-name="dieresistonos" unicode="&#x385;" horiz-adv-x="515" 
d="M307 676l-54 -146h-39l47 146h46zM135 531q-10 10 -10 25q0 14 10 24t25 10q14 0 24 -10t10 -24q0 -15 -10 -25t-24 -10q-15 0 -25 10zM331 531q-10 10 -10 25q0 14 10 24t24 10t24.5 -10t10.5 -24q0 -15 -10.5 -25t-24.5 -10t-24 10z" />
    <glyph glyph-name="Alphatonos" unicode="&#x386;" horiz-adv-x="595" 
d="M449 213h-306l-79 -213h-47l252 676h58l251 -676h-51zM433 258l-135 371l-138 -371h273zM135 676l-29 -163h-36l22 163h43z" />
    <glyph glyph-name="anoteleia" unicode="&#x387;" horiz-adv-x="250" 
d="M100 427q-10 10 -10 25t10 25t25 10t25 -10t10 -25t-10 -25t-25 -10t-25 10z" />
    <glyph glyph-name="Epsilontonos" unicode="&#x388;" horiz-adv-x="568" 
d="M475 676v-45h-291v-255h285v-45h-285v-286h297v-45h-344v676h338zM98 676l-29 -163h-36l22 163h43z" />
    <glyph glyph-name="Etatonos" unicode="&#x389;" horiz-adv-x="772" 
d="M184 676v-309h451v309h47v-676h-47v322h-451v-322h-47v676h47zM98 676l-29 -163h-36l22 163h43z" />
    <glyph glyph-name="Iotatonos" unicode="&#x38a;" horiz-adv-x="274" 
d="M184 676v-676h-47v676h47zM98 676l-29 -163h-36l22 163h43z" />
    <glyph glyph-name="Omicrontonos" unicode="&#x38c;" horiz-adv-x="789" 
d="M236.5 33q-77.5 45 -121 125t-43.5 180t43.5 180t121 125t174.5 45t174 -45t121 -125t44 -180t-44 -180t-121 -125t-174 -45t-174.5 45zM560 73q66 39 103 108.5t37 156.5t-37 156.5t-103 108.5t-149 39q-84 0 -149.5 -39t-102.5 -108t-37 -157t37 -157t102.5 -108
t149.5 -39q83 0 149 39zM77 676l-29 -163h-36l22 163h43z" />
    <glyph glyph-name="Upsilontonos" unicode="&#x38e;" horiz-adv-x="676" 
d="M108 676h53l206 -355l206 355h52l-235 -404v-272h-47v272zM87 676l-29 -163h-36l22 163h43z" />
    <glyph glyph-name="Omegatonos" unicode="&#x38f;" horiz-adv-x="820" 
d="M309 45q-100 47 -154.5 131.5t-54.5 193.5q0 91 42 163.5t115.5 113.5t165.5 41t166 -41t115.5 -113.5t41.5 -163.5q0 -109 -54.5 -193.5t-154.5 -131.5h214v-45h-297v44q120 50 181 131.5t61 192.5q0 79 -35 141.5t-97 97.5t-141 35t-141 -35t-97 -97.5t-35 -141.5
q0 -111 61 -192.5t181 -131.5v-44h-297v45h214zM85 676l-29 -163h-36l22 163h43z" />
    <glyph glyph-name="iotadieresistonos" unicode="&#x390;" horiz-adv-x="253" 
d="M113 36q-37 36 -37 110v329h45v-327q0 -55 25 -80t67 -25h18v-43h-19q-62 0 -99 36zM172 676l-54 -146h-39l47 146h46zM0 531q-10 10 -10 25q0 14 10 24t25 10q14 0 24 -10t10 -24q0 -15 -10 -25t-24 -10q-15 0 -25 10zM196 531q-10 10 -10 25q0 14 10 24t24 10t24.5 -10
t10.5 -24q0 -15 -10.5 -25t-24.5 -10t-24 10z" />
    <glyph glyph-name="Alpha" unicode="&#x391;" horiz-adv-x="595" 
d="M449 213h-306l-79 -213h-47l252 676h58l251 -676h-51zM433 258l-135 371l-138 -371h273z" />
    <glyph glyph-name="Beta" unicode="&#x392;" horiz-adv-x="553" 
d="M257 676q98 0 157.5 -45t59.5 -124q0 -61 -37.5 -104.5t-96.5 -57.5q69 -14 111 -57t42 -106q0 -86 -66 -134t-172 -48h-164v676h166zM375.5 403.5q49.5 38.5 49.5 101.5q0 61 -44.5 94t-121.5 33h-121v-267h108q80 0 129.5 38.5zM392.5 81.5q50.5 37.5 50.5 102.5
q0 63 -53.5 100t-141.5 37h-110v-277h123q81 0 131.5 37.5z" />
    <glyph glyph-name="Gamma" unicode="&#x393;" horiz-adv-x="489" 
d="M459 676v-45h-321v-631h-47v676h368z" />
    <glyph glyph-name="uni0394" unicode="&#x394;" horiz-adv-x="633" 
d="M293 676h47l262 -636v-40h-571v40zM317 619l-235 -574h469z" />
    <glyph glyph-name="Epsilon" unicode="&#x395;" horiz-adv-x="522" 
d="M429 676v-45h-291v-255h285v-45h-285v-286h297v-45h-344v676h338z" />
    <glyph glyph-name="Zeta" unicode="&#x396;" horiz-adv-x="617" 
d="M476 631h-409v45h467v-43l-411 -588h429v-45h-487v43z" />
    <glyph glyph-name="Eta" unicode="&#x397;" horiz-adv-x="726" 
d="M138 676v-309h451v309h47v-676h-47v322h-451v-322h-47v676h47z" />
    <glyph glyph-name="Theta" unicode="&#x398;" horiz-adv-x="756" 
d="M203.5 33q-77.5 45 -121 125t-43.5 180t43.5 180t121 125t174.5 45t174 -45t121 -125t44 -180t-44 -180t-121 -125t-174 -45t-174.5 45zM527 73q66 39 103 108.5t37 156.5t-37 156.5t-103 108.5t-149 39q-84 0 -149.5 -39t-102.5 -108t-37 -157t37 -157t102.5 -108
t149.5 -39q83 0 149 39zM565 363v-45h-373v45h373z" />
    <glyph glyph-name="Iota" unicode="&#x399;" horiz-adv-x="228" 
d="M138 676v-676h-47v676h47z" />
    <glyph glyph-name="Kappa" unicode="&#x39a;" horiz-adv-x="611" 
d="M572 45v-45h-28q-49 0 -86.5 25.5t-73.5 83.5l-139 230h-107v-339h-47v676h47v-292h105l209 292h57l-225 -310l142 -232q29 -47 57.5 -68t62.5 -21h26z" />
    <glyph glyph-name="Lambda" unicode="&#x39b;" horiz-adv-x="595" 
d="M327 676l251 -676h-50l-230 631l-235 -631h-46l252 676h58z" />
    <glyph glyph-name="Mu" unicode="&#x39c;" horiz-adv-x="835" 
d="M146 676l271 -512l272 512h55v-676h-47v596l-257 -485h-46l-256 485v-596h-47v676h55z" />
    <glyph glyph-name="Nu" unicode="&#x39d;" horiz-adv-x="712" 
d="M138 676l438 -605v605h46v-676h-48l-437 605v-605h-46v676h47z" />
    <glyph glyph-name="Xi" unicode="&#x39e;" horiz-adv-x="690" 
d="M590 676v-45h-490v45h490zM563 369v-45h-436v45h436zM599 45v-45h-508v45h508z" />
    <glyph glyph-name="Omicron" unicode="&#x39f;" horiz-adv-x="756" 
d="M203.5 33q-77.5 45 -121 125t-43.5 180t43.5 180t121 125t174.5 45t174 -45t121 -125t44 -180t-44 -180t-121 -125t-174 -45t-174.5 45zM527 73q66 39 103 108.5t37 156.5t-37 156.5t-103 108.5t-149 39q-84 0 -149.5 -39t-102.5 -108t-37 -157t37 -157t102.5 -108
t149.5 -39q83 0 149 39z" />
    <glyph glyph-name="Pi" unicode="&#x3a0;" horiz-adv-x="685" 
d="M594 676v-676h-47v631h-409v-631h-47v676h503z" />
    <glyph glyph-name="Rho" unicode="&#x3a1;" horiz-adv-x="539" 
d="M235 676q116 0 179 -53.5t63 -148.5q0 -97 -63.5 -149.5t-178.5 -52.5h-97v-272h-47v676h144zM377.5 357.5q49.5 40.5 49.5 116.5t-49.5 116.5t-140.5 40.5h-99v-314h99q91 0 140.5 40.5z" />
    <glyph glyph-name="Sigma" unicode="&#x3a3;" horiz-adv-x="582" 
d="M269 338l-191 296v42h430v-45h-373l188 -293l-188 -293h378v-45h-435v42z" />
    <glyph glyph-name="Tau" unicode="&#x3a4;" horiz-adv-x="569" 
d="M36 631v45h497v-45h-225v-631h-47v631h-225z" />
    <glyph glyph-name="Upsilon" unicode="&#x3a5;" horiz-adv-x="619" 
d="M51 676h53l206 -355l206 355h52l-235 -404v-272h-47v272z" />
    <glyph glyph-name="Phi" unicode="&#x3a6;" horiz-adv-x="747" 
d="M121.5 126q-82.5 78 -82.5 212q0 133 83 211t228 86v75h47v-75q145 -8 228 -86t83 -211q0 -134 -82.5 -212t-228.5 -86v-74h-47v74q-146 8 -228.5 86zM157 517.5q-70 -67.5 -70 -179.5t70 -180t193 -75v509q-123 -7 -193 -74.5zM590.5 158q69.5 68 69.5 180t-69.5 179.5
t-193.5 74.5v-509q124 7 193.5 75z" />
    <glyph glyph-name="Chi" unicode="&#x3a7;" horiz-adv-x="633" 
d="M528 0l-213 299l-213 -299h-55l239 340l-239 336h59l210 -295l211 295h55l-237 -336l241 -340h-58z" />
    <glyph glyph-name="Psi" unicode="&#x3a8;" horiz-adv-x="760" 
d="M150 287.5q-74 71.5 -74 192.5v196h47v-198q0 -102 61 -161t172 -67v426h47v-426q111 8 172.5 67t61.5 161v198h47v-196q0 -121 -74.5 -192.5t-206.5 -82.5v-205h-47v205q-132 11 -206 82.5z" />
    <glyph glyph-name="uni03A9" unicode="&#x3a9;" horiz-adv-x="794" 
d="M283 45q-100 47 -154.5 131.5t-54.5 193.5q0 91 42 163.5t115.5 113.5t165.5 41t166 -41t115.5 -113.5t41.5 -163.5q0 -109 -54.5 -193.5t-154.5 -131.5h214v-45h-297v44q120 50 181 131.5t61 192.5q0 79 -35 141.5t-97 97.5t-141 35t-141 -35t-97 -97.5t-35 -141.5
q0 -111 61 -192.5t181 -131.5v-44h-297v45h214z" />
    <glyph glyph-name="Iotadieresis" unicode="&#x3aa;" horiz-adv-x="228" 
d="M138 676v-676h-47v676h47zM19 783q-10 10 -10 25q0 14 10 24t25 10q14 0 24 -10t10 -24q0 -15 -10 -25t-24 -10q-15 0 -25 10zM161 783q-10 10 -10 25q0 14 10 24t24 10q15 0 25 -10t10 -24q0 -15 -10 -25t-25 -10q-14 0 -24 10z" />
    <glyph glyph-name="Upsilondieresis" unicode="&#x3ab;" horiz-adv-x="619" 
d="M51 676h53l206 -355l206 355h52l-235 -404v-272h-47v272zM214 783q-10 10 -10 25q0 14 10 24t25 10q14 0 24 -10t10 -24q0 -15 -10 -25t-24 -10q-15 0 -25 10zM356 783q-10 10 -10 25q0 14 10 24t24 10q15 0 25 -10t10 -24q0 -15 -10 -25t-25 -10q-14 0 -24 10z" />
    <glyph glyph-name="alphatonos" unicode="&#x3ac;" horiz-adv-x="541" 
d="M93.5 55q-55.5 67 -55.5 184t55 182.5t149 65.5q58 0 99.5 -27.5t60.5 -71.5v87h45v-367q0 -32 15.5 -50t46.5 -18h14v-40h-24q-45 0 -67.5 24.5t-24.5 60.5l-1 5q-23 -49 -64.5 -75.5t-97.5 -26.5q-95 0 -150.5 67zM363.5 85q40.5 56 40.5 154q0 96 -41.5 151.5
t-114.5 55.5q-77 0 -120 -55t-43 -152q0 -98 43.5 -154t121.5 -56q73 0 113.5 56zM351 676l-49 -145h-42l43 145h48z" />
    <glyph glyph-name="epsilontonos" unicode="&#x3ad;" horiz-adv-x="469" 
d="M108 27q-52 39 -52 104q0 47 29 77.5t76 40.5q-44 10 -69.5 38.5t-25.5 69.5q0 59 48.5 94.5t133.5 35.5q76 0 136 -27v-44q-60 30 -134 30q-63 0 -100 -25t-37 -67q0 -40 37 -64.5t97 -24.5h86v-38h-85q-72 0 -108.5 -23.5t-36.5 -69.5q0 -48 40.5 -76.5t107.5 -28.5
q44 0 87.5 11.5t72.5 29.5v-45q-27 -16 -74 -26.5t-91 -10.5q-86 0 -138 39zM307 676l-49 -145h-42l43 145h48z" />
    <glyph glyph-name="etatonos" unicode="&#x3ae;" horiz-adv-x="527" 
d="M365.5 468.5q38.5 -18.5 62 -56t23.5 -91.5v-496h-45v491q0 60 -39 94t-95 34q-44 0 -84.5 -21t-66.5 -60v-363h-45v475h44v-63q28 36 71 55.5t90 19.5q46 0 84.5 -18.5zM333 676l-49 -145h-42l43 145h48z" />
    <glyph glyph-name="iotatonos" unicode="&#x3af;" horiz-adv-x="253" 
d="M113 36q-37 36 -37 110v329h45v-327q0 -55 25 -80t67 -25h18v-43h-19q-62 0 -99 36zM169 676l-49 -145h-42l43 145h48z" />
    <glyph glyph-name="upsilondieresistonos" unicode="&#x3b0;" horiz-adv-x="549" 
d="M131 49q-55 61 -55 165v261h45v-261q0 -85 43 -134t120 -49t119 54t42 150q0 71 -24.5 134.5t-67.5 105.5h52q37 -39 61 -102.5t24 -136.5q0 -116 -55.5 -182t-150.5 -66q-98 0 -153 61zM309 676l-54 -146h-39l47 146h46zM137 531q-10 10 -10 25q0 14 10 24t25 10
q14 0 24 -10t10 -24q0 -15 -10 -25t-24 -10q-15 0 -25 10zM333 531q-10 10 -10 25q0 14 10 24t24 10t24.5 -10t10.5 -24q0 -15 -10.5 -25t-24.5 -10t-24 10z" />
    <glyph glyph-name="alpha" unicode="&#x3b1;" horiz-adv-x="541" 
d="M93.5 55q-55.5 67 -55.5 184t55 182.5t149 65.5q58 0 99.5 -27.5t60.5 -71.5v87h45v-367q0 -32 15.5 -50t46.5 -18h14v-40h-24q-45 0 -67.5 24.5t-24.5 60.5l-1 5q-23 -49 -64.5 -75.5t-97.5 -26.5q-95 0 -150.5 67zM363.5 85q40.5 56 40.5 154q0 96 -41.5 151.5
t-114.5 55.5q-77 0 -120 -55t-43 -152q0 -98 43.5 -154t121.5 -56q73 0 113.5 56z" />
    <glyph glyph-name="beta" unicode="&#x3b2;" horiz-adv-x="524" 
d="M437.5 302.5q40.5 -50.5 40.5 -122.5q0 -89 -54.5 -140.5t-146.5 -51.5q-45 0 -86 15.5t-70 42.5v-221h-45v663q0 100 51 150t136 50q80 0 132.5 -44.5t52.5 -122.5q0 -61 -32.5 -99.5t-78.5 -51.5q60 -17 100.5 -67.5zM389 71q42 40 42 110q0 47 -22.5 83.5t-60 57
t-81.5 20.5h-44v42h43q54 0 94.5 34.5t40.5 97.5q0 61 -39 95t-99 34q-65 0 -103.5 -38.5t-38.5 -117.5v-395q27 -30 66.5 -46.5t85.5 -16.5q74 0 116 40z" />
    <glyph glyph-name="gamma" unicode="&#x3b3;" horiz-adv-x="469" 
d="M18 475h48l166 -391q59 85 107.5 191.5t58.5 199.5h45q-19 -185 -194 -441v-209h-44v209z" />
    <glyph glyph-name="delta" unicode="&#x3b4;" horiz-adv-x="571" 
d="M212.5 498q33.5 -26 103.5 -58q65 -31 105.5 -56.5t69.5 -67.5t29 -101q0 -68 -29 -119t-82 -79.5t-124 -28.5t-124 28.5t-81.5 79.5t-28.5 119q0 80 47.5 136t126.5 86q-44 25 -68.5 55t-24.5 72q0 55 45 89.5t114 34.5q59 0 120 -23v-41q-63 24 -116 24
q-49 0 -82.5 -23t-33.5 -63q0 -38 33.5 -64zM422.5 81.5q50.5 50.5 50.5 133.5q0 48 -24.5 82t-60 56t-94.5 50l-25 12q-75 -22 -123 -73t-48 -127q0 -83 50.5 -133.5t136.5 -50.5q87 0 137.5 50.5z" />
    <glyph glyph-name="epsilon" unicode="&#x3b5;" horiz-adv-x="469" 
d="M108 27q-52 39 -52 104q0 47 29 77.5t76 40.5q-44 10 -69.5 38.5t-25.5 69.5q0 59 48.5 94.5t133.5 35.5q76 0 136 -27v-44q-60 30 -134 30q-63 0 -100 -25t-37 -67q0 -40 37 -64.5t97 -24.5h86v-38h-85q-72 0 -108.5 -23.5t-36.5 -69.5q0 -48 40.5 -76.5t107.5 -28.5
q44 0 87.5 11.5t72.5 29.5v-45q-27 -16 -74 -26.5t-91 -10.5q-86 0 -138 39z" />
    <glyph glyph-name="zeta" unicode="&#x3b6;" horiz-adv-x="415" 
d="M328.5 -116.5q17.5 29.5 17.5 52.5q0 27 -15.5 44t-39.5 27.5t-65 23.5q-57 19 -92 36t-60 52t-25 92q0 96 79 200.5t210 221.5h-254v43h327v-40q-148 -124 -232 -225.5t-84 -196.5q0 -45 21.5 -73t53 -43t83.5 -32q48 -16 75 -29t46 -35.5t19 -58.5q0 -30 -17.5 -60.5
t-46.5 -57.5h-46q28 29 45.5 58.5z" />
    <glyph glyph-name="eta" unicode="&#x3b7;" horiz-adv-x="527" 
d="M365.5 468.5q38.5 -18.5 62 -56t23.5 -91.5v-496h-45v491q0 60 -39 94t-95 34q-44 0 -84.5 -21t-66.5 -60v-363h-45v475h44v-63q28 36 71 55.5t90 19.5q46 0 84.5 -18.5z" />
    <glyph glyph-name="theta" unicode="&#x3b8;" horiz-adv-x="556" 
d="M444.5 600.5q54.5 -87.5 54.5 -262.5q0 -179 -54 -264.5t-167 -85.5t-167.5 86t-54.5 265q0 175 54.5 262t167.5 87q112 0 166.5 -87.5zM148.5 576.5q-42.5 -68.5 -45.5 -216.5h350q-3 147 -46 216t-129 69q-87 0 -129.5 -68.5zM407.5 98.5q42.5 67.5 45.5 218.5h-350
q3 -151 45.5 -218.5t129.5 -67.5t129.5 67.5z" />
    <glyph glyph-name="iota" unicode="&#x3b9;" horiz-adv-x="253" 
d="M113 36q-37 36 -37 110v329h45v-327q0 -55 25 -80t67 -25h18v-43h-19q-62 0 -99 36z" />
    <glyph glyph-name="kappa" unicode="&#x3ba;" horiz-adv-x="473" 
d="M121 475v-205h69l121 161q16 22 34 33t47 11h37v-41h-32q-16 0 -26.5 -5t-22.5 -21l-120 -159l202 -249h-57l-185 227h-67v-227h-45v475h45z" />
    <glyph glyph-name="lambda" unicode="&#x3bb;" horiz-adv-x="511" 
d="M422 0l-173 401l-162 -401h-49l185 459l-43 100q-17 40 -37 57t-57 17h-19v43h19q49 0 82 -22.5t56 -76.5l248 -577h-50z" />
    <glyph glyph-name="uni03BC" unicode="&#x3bc;" horiz-adv-x="562" 
d="M464 0h-43v59q-30 -33 -72.5 -51.5t-86.5 -18.5q-38 0 -69.5 15.5t-50.5 46.5l2 -226h-45v650h45v-301q0 -69 31 -106t93 -37q40 0 79 20.5t72 54.5v369h45v-475z" />
    <glyph glyph-name="nu" unicode="&#x3bd;" horiz-adv-x="469" 
d="M59 475l162 -425q71 123 119.5 230t56.5 195h45q-11 -102 -65.5 -219t-138.5 -256h-44l-184 475h49z" />
    <glyph glyph-name="xi" unicode="&#x3be;" horiz-adv-x="432" 
d="M364.5 -117q14.5 25 14.5 48q0 28 -17 46t-43 28.5t-72 25.5q-63 20 -103 39t-68.5 57.5t-28.5 101.5q0 68 42 116.5t106 66.5q-115 30 -115 132q0 64 51.5 104t133.5 40q85 0 140 -30v-46q-52 33 -137 33q-65 0 -103 -29.5t-38 -76.5q0 -50 43 -80t125 -30h60v-41h-64
q-54 0 -99 -19.5t-71.5 -55t-26.5 -82.5q0 -48 24 -78t58.5 -46.5t92.5 -36.5q53 -17 83.5 -31t51.5 -39t21 -63q0 -59 -57 -112h-47q29 33 43.5 58z" />
    <glyph glyph-name="omicron" unicode="&#x3bf;" horiz-adv-x="577" 
d="M158 19.5q-57 31.5 -88.5 88.5t-31.5 129t31.5 129t88.5 89t130 32t130 -32t88.5 -89t31.5 -129t-31.5 -129t-88.5 -88.5t-130 -31.5t-130 31.5zM394.5 57.5q46.5 26.5 72.5 73.5t26 106t-26 106t-72.5 74t-106.5 27t-106 -27t-72 -74t-26 -106t25.5 -106t72 -73.5
t106.5 -26.5t106.5 26.5z" />
    <glyph glyph-name="pi" unicode="&#x3c0;" horiz-adv-x="537" 
d="M14 432v43h509v-43h-104v-432h-45v432h-211v-432h-45v432h-104z" />
    <glyph glyph-name="rho" unicode="&#x3c1;" horiz-adv-x="514" 
d="M421.5 423q54.5 -64 54.5 -187q0 -81 -25.5 -136.5t-69.5 -83.5t-100 -28q-93 0 -160 60v-223h-45v440q0 222 196 222q95 0 149.5 -64zM386.5 80.5q42.5 50.5 42.5 155.5q0 101 -42 154.5t-115 53.5q-74 0 -112.5 -42.5t-38.5 -136.5v-175q34 -30 68.5 -45t83.5 -15
q71 0 113.5 50.5z" />
    <glyph glyph-name="uni03C2" unicode="&#x3c2;" horiz-adv-x="443" 
d="M353 -61q0 50 -61 64q-86 19 -138 41.5t-84 68t-32 125.5q0 78 31 134.5t84 86t119 29.5q65 0 120 -27v-44q-57 30 -118 30q-53 0 -96.5 -25t-68.5 -72t-25 -112q0 -68 30.5 -106t72 -54t114.5 -33q44 -12 69 -33.5t25 -66.5q0 -35 -21.5 -66t-57.5 -64l-28 25
q65 61 65 99z" />
    <glyph glyph-name="sigma" unicode="&#x3c3;" horiz-adv-x="599" 
d="M581 432l-133 3q43 -33 66.5 -84.5t23.5 -113.5q0 -72 -31.5 -129t-88.5 -88.5t-130 -31.5t-130 31.5t-88.5 88.5t-31.5 129t31.5 129t88.5 89t130 32q44 0 83 -12h210v-43zM467 343q-26 47 -72.5 74t-106.5 27t-106 -27t-72 -74t-26 -106t25.5 -106t72 -73.5
t106.5 -26.5t106.5 26.5t72.5 73.5t26 106t-26 106z" />
    <glyph glyph-name="tau" unicode="&#x3c4;" horiz-adv-x="434" 
d="M217.5 35.5q-36.5 35.5 -36.5 110.5v286h-176v43h397v-43h-176v-284q0 -105 91 -105h33v-43h-34q-62 0 -98.5 35.5z" />
    <glyph glyph-name="upsilon" unicode="&#x3c5;" horiz-adv-x="549" 
d="M131 49q-55 61 -55 165v261h45v-261q0 -85 43 -134t120 -49t119 54t42 150q0 71 -24.5 134.5t-67.5 105.5h52q37 -39 61 -102.5t24 -136.5q0 -116 -55.5 -182t-150.5 -66q-98 0 -153 61z" />
    <glyph glyph-name="phi" unicode="&#x3c6;" horiz-adv-x="712" 
d="M124.5 62q-66.5 66 -66.5 196q0 142 97 217h54q-105 -79 -105 -215q0 -216 219 -228v279q0 89 41 132.5t115 43.5q84 0 129.5 -57.5t45.5 -173.5q0 -127 -72.5 -194t-213.5 -73v-164h-45v164q-132 7 -198.5 73zM548.5 91q59.5 56 59.5 165q0 95 -32 141.5t-97 46.5
q-111 0 -111 -135v-277q121 3 180.5 59z" />
    <glyph glyph-name="chi" unicode="&#x3c7;" horiz-adv-x="452" 
d="M397 -175l-172 299l-172 -299h-49l196 343l-176 307h51l153 -267l148 267h50l-173 -310l195 -340h-51z" />
    <glyph glyph-name="psi" unicode="&#x3c8;" horiz-adv-x="713" 
d="M131 68.5q-74 73.5 -74 199.5q0 55 14.5 108.5t40.5 98.5h45q-26 -47 -40 -101.5t-14 -105.5q0 -107 61 -169t171 -68v592h45v-592q109 6 170 68.5t61 168.5q0 50 -14.5 104.5t-40.5 102.5h46q26 -46 40.5 -99.5t14.5 -107.5q0 -126 -74.5 -199.5t-202.5 -80.5v-163h-45
v163q-130 7 -204 80.5z" />
    <glyph glyph-name="omega" unicode="&#x3c9;" horiz-adv-x="772" 
d="M83 50.5q-47 62.5 -47 167.5q0 142 91 257h50q-47 -64 -71 -124.5t-24 -132.5q0 -88 36 -137.5t100 -49.5q70 0 107.5 55t37.5 136v163h45v-163q0 -81 37.5 -136t108.5 -55q64 0 99.5 49.5t35.5 137.5q0 72 -24 133t-71 124h50q91 -113 91 -257q0 -105 -46.5 -167.5
t-132.5 -62.5q-64 0 -108.5 39t-61.5 98q-17 -59 -61.5 -98t-109.5 -39q-85 0 -132 62.5z" />
    <glyph glyph-name="iotadieresis" unicode="&#x3ca;" horiz-adv-x="253" 
d="M113 36q-37 36 -37 110v329h45v-327q0 -55 25 -80t67 -25h18v-43h-19q-62 0 -99 36zM3 584q-10 10 -10 25q0 14 10 24t25 10q14 0 24 -10t10 -24q0 -15 -10 -25t-24 -10q-15 0 -25 10zM145 584q-10 10 -10 25q0 14 10 24t24 10q15 0 25 -10t10 -24q0 -15 -10 -25t-25 -10
q-14 0 -24 10z" />
    <glyph glyph-name="upsilondieresis" unicode="&#x3cb;" horiz-adv-x="549" 
d="M131 49q-55 61 -55 165v261h45v-261q0 -85 43 -134t120 -49t119 54t42 150q0 71 -24.5 134.5t-67.5 105.5h52q37 -39 61 -102.5t24 -136.5q0 -116 -55.5 -182t-150.5 -66q-98 0 -153 61zM140 584q-10 10 -10 25q0 14 10 24t25 10q14 0 24 -10t10 -24q0 -15 -10 -25
t-24 -10q-15 0 -25 10zM282 584q-10 10 -10 25q0 14 10 24t24 10q15 0 25 -10t10 -24q0 -15 -10 -25t-25 -10q-14 0 -24 10z" />
    <glyph glyph-name="omicrontonos" unicode="&#x3cc;" horiz-adv-x="577" 
d="M158 19.5q-57 31.5 -88.5 88.5t-31.5 129t31.5 129t88.5 89t130 32t130 -32t88.5 -89t31.5 -129t-31.5 -129t-88.5 -88.5t-130 -31.5t-130 31.5zM394.5 57.5q46.5 26.5 72.5 73.5t26 106t-26 106t-72.5 74t-106.5 27t-106 -27t-72 -74t-26 -106t25.5 -106t72 -73.5
t106.5 -26.5t106.5 26.5zM358 676l-49 -145h-42l43 145h48z" />
    <glyph glyph-name="upsilontonos" unicode="&#x3cd;" horiz-adv-x="549" 
d="M131 49q-55 61 -55 165v261h45v-261q0 -85 43 -134t120 -49t119 54t42 150q0 71 -24.5 134.5t-67.5 105.5h52q37 -39 61 -102.5t24 -136.5q0 -116 -55.5 -182t-150.5 -66q-98 0 -153 61zM306 676l-49 -145h-42l43 145h48z" />
    <glyph glyph-name="omegatonos" unicode="&#x3ce;" horiz-adv-x="772" 
d="M83 50.5q-47 62.5 -47 167.5q0 142 91 257h50q-47 -64 -71 -124.5t-24 -132.5q0 -88 36 -137.5t100 -49.5q70 0 107.5 55t37.5 136v163h45v-163q0 -81 37.5 -136t108.5 -55q64 0 99.5 49.5t35.5 137.5q0 72 -24 133t-71 124h50q91 -113 91 -257q0 -105 -46.5 -167.5
t-132.5 -62.5q-64 0 -108.5 39t-61.5 98q-17 -59 -61.5 -98t-109.5 -39q-85 0 -132 62.5zM456 676l-49 -145h-42l43 145h48z" />
    <glyph glyph-name="uni03CF" unicode="&#x3cf;" horiz-adv-x="464" 
d="M190 227h-69v-227h-45v475h45v-205h69l171 205h53l-186 -224l202 -251l-105 -125h-51l100 125z" />
    <glyph glyph-name="uni03D0" unicode="&#x3d0;" horiz-adv-x="564" 
d="M461.5 295.5q38.5 -48.5 38.5 -118.5q0 -89 -50 -139t-138 -50q-118 0 -182.5 95t-64.5 265q0 112 31 188t85.5 114t124.5 38q73 0 122.5 -42t49.5 -112q0 -58 -32 -102t-93 -71q70 -17 108.5 -65.5zM169 573.5q-53 -71.5 -57 -208.5q12 -1 36 -1q133 0 208 43t75 125
q0 53 -36.5 83t-89.5 30q-83 0 -136 -71.5zM416.5 69.5q37.5 38.5 37.5 106.5q0 67 -43 110.5t-121 53.5q-77 -20 -178 -17q5 -140 57 -216t143 -76q67 0 104.5 38.5z" />
    <glyph glyph-name="uni03D1" unicode="&#x3d1;" horiz-adv-x="556" 
d="M565 382q-46 -24 -86 -38q-1 -166 -54 -261t-165 -95q-88 0 -140 52t-52 149q0 24 5 59h45q-6 -31 -6 -59q0 -74 39.5 -116t109.5 -42q82 0 125.5 77.5t46.5 221.5q-72 -20 -135 -20q-104 0 -168.5 50.5t-64.5 143.5q0 87 55 135.5t141 48.5q101 0 156 -71.5t61 -226.5
q51 19 87 40v-48zM164 394q53 -38 140 -38q63 0 129 19q-4 137 -45.5 203.5t-127.5 66.5q-71 0 -110 -39t-39 -100q0 -74 53 -112z" />
    <glyph glyph-name="uni03D7" unicode="&#x3d7;" horiz-adv-x="585" 
d="M539 43v-57q0 -44 -23 -67t-67 -23h-33v40h29q27 0 39.5 12t12.5 40v12q-42 1 -63.5 24t-21.5 66v258l-288 -348h-54l58 70v310q0 27 -12.5 39.5t-39.5 12.5h-30v43h37q44 0 67 -23t23 -67v-260l289 350h55l-60 -73v-307q0 -27 12.5 -39.5t39.5 -12.5h30z" />
    <glyph glyph-name="uni0400" unicode="&#x400;" horiz-adv-x="522" 
d="M429 676v-45h-291v-255h285v-45h-285v-286h297v-45h-344v676h338zM116 831l43 18l128 -128h-52z" />
    <glyph glyph-name="uni0401" unicode="&#x401;" horiz-adv-x="522" 
d="M429 676v-45h-291v-255h285v-45h-285v-286h297v-45h-344v676h338zM165 783q-10 10 -10 25q0 14 10 24t25 10q14 0 24 -10t10 -24q0 -15 -10 -25t-24 -10q-15 0 -25 10zM307 783q-10 10 -10 25q0 14 10 24t24 10q15 0 25 -10t10 -24q0 -15 -10 -25t-25 -10q-14 0 -24 10z
" />
    <glyph glyph-name="uni0402" unicode="&#x402;" horiz-adv-x="770" 
d="M36 631v45h497v-45h-225v-241q39 36 89 55t101 19q53 0 98 -20.5t71.5 -60.5t26.5 -96v-110q0 -56 -27 -96t-72 -60.5t-98 -20.5h-37v43h35q66 0 110 36t44 101v102q0 66 -45.5 101.5t-112.5 35.5q-51 0 -99.5 -19.5t-83.5 -57.5v-342h-47v631h-225z" />
    <glyph glyph-name="uni0403" unicode="&#x403;" horiz-adv-x="489" 
d="M459 676v-45h-321v-631h-47v676h368zM411 831l-119 -110h-52l128 128z" />
    <glyph glyph-name="uni0404" unicode="&#x404;" horiz-adv-x="615" 
d="M471.5 43.5q45.5 10.5 79.5 29.5v-48q-72 -37 -178 -37q-103 0 -178 42t-115.5 120.5t-40.5 187.5t40 187.5t115.5 120.5t178.5 42q46 0 91 -9t79 -24v-48q-35 17 -79 26.5t-89 9.5q-127 0 -203 -73.5t-82 -208.5h373v-45h-374q7 -135 83 -209t203 -74q51 0 96.5 10.5z
" />
    <glyph glyph-name="uni0405" unicode="&#x405;" horiz-adv-x="509" 
d="M136.5 2q-51.5 14 -85.5 37v46q41 -26 90 -40t98 -14q81 0 126.5 36.5t45.5 102.5q0 43 -22.5 71t-55.5 44t-89 36q-63 22 -100.5 41.5t-63.5 54.5t-26 91q0 86 59.5 133t150.5 47q84 0 165 -41v-46q-38 21 -81 32.5t-82 11.5q-71 0 -117 -35t-46 -100q0 -42 22 -69.5
t54.5 -43.5t89.5 -37q62 -22 100 -41.5t64.5 -55.5t26.5 -91q0 -88 -58.5 -136t-160.5 -48q-53 0 -104.5 14z" />
    <glyph glyph-name="uni0406" unicode="&#x406;" horiz-adv-x="228" 
d="M138 676v-676h-47v676h47z" />
    <glyph glyph-name="uni0407" unicode="&#x407;" horiz-adv-x="228" 
d="M138 676v-676h-47v676h47zM19 783q-10 10 -10 25q0 14 10 24t25 10q14 0 24 -10t10 -24q0 -15 -10 -25t-24 -10q-15 0 -25 10zM161 783q-10 10 -10 25q0 14 10 24t24 10q15 0 25 -10t10 -24q0 -15 -10 -25t-25 -10q-14 0 -24 10z" />
    <glyph glyph-name="uni0408" unicode="&#x408;" horiz-adv-x="379" 
d="M37 46l77 -1q49 -1 78 34t29 94v503h47v-503q0 -89 -42.5 -131t-107.5 -42h-81v46z" />
    <glyph glyph-name="uni0409" unicode="&#x409;" horiz-adv-x="1078" 
d="M56 45q41 0 59.5 28.5t20.5 80.5l24 522h450v-272h169q117 0 180 -54.5t63 -147.5t-63 -147.5t-180 -54.5h-216v631h-359l-22 -478q-4 -76 -34.5 -114.5t-90.5 -38.5h-29v45h28zM922.5 86.5q50.5 41.5 50.5 115.5t-50.5 115.5t-143.5 41.5h-169v-314h169q93 0 143.5 41.5
z" />
    <glyph glyph-name="uni040A" unicode="&#x40a;" horiz-adv-x="1104" 
d="M138 676v-296h451v296h47v-296h173q116 0 177.5 -49.5t61.5 -140.5q0 -92 -61.5 -141t-177.5 -49h-220v335h-451v-335h-47v676h47zM950 81.5q49 36.5 49 108.5t-49 108.5t-141 36.5h-173v-290h173q92 0 141 36.5z" />
    <glyph glyph-name="uni040B" unicode="&#x40b;" horiz-adv-x="792" 
d="M36 631v45h497v-45h-225v-241q39 36 89 55t101 19q53 0 98 -20.5t71.5 -60.5t26.5 -96v-287h-45v282q0 66 -45.5 101.5t-112.5 35.5q-51 0 -99.5 -19.5t-83.5 -57.5v-342h-47v631h-225z" />
    <glyph glyph-name="uni040C" unicode="&#x40c;" horiz-adv-x="611" 
d="M572 45v-45h-28q-49 0 -86.5 25.5t-73.5 83.5l-139 230h-107v-339h-47v676h47v-292h105l209 292h57l-225 -310l142 -232q29 -47 57.5 -68t62.5 -21h26zM421 831l-119 -110h-52l128 128z" />
    <glyph glyph-name="uni040D" unicode="&#x40d;" horiz-adv-x="726" 
d="M138 676v-598l452 598h46v-676h-47v598l-453 -598h-45v676h47zM218 831l43 18l128 -128h-52z" />
    <glyph glyph-name="uni040E" unicode="&#x40e;" horiz-adv-x="564" 
d="M556 676l-224 -451q-39 -78 -70.5 -125t-71.5 -73.5t-93 -26.5h-49v45h50q40 0 68.5 19t51 52t52.5 91l-242 469h52l216 -418l209 418h51zM200 759.5q-35 31.5 -35 92.5h35q0 -42 25 -65.5t67 -23.5t67 23.5t25 65.5h35q0 -61 -35 -92.5t-92 -31.5t-92 31.5z" />
    <glyph glyph-name="uni040F" unicode="&#x40f;" horiz-adv-x="707" 
d="M91 0v676h47v-631h430v631h48v-676h-241l-1 -139h-42l-1 139h-240z" />
    <glyph glyph-name="uni0410" unicode="&#x410;" horiz-adv-x="595" 
d="M449 213h-306l-79 -213h-47l252 676h58l251 -676h-51zM433 258l-135 371l-138 -371h273z" />
    <glyph glyph-name="uni0411" unicode="&#x411;" horiz-adv-x="587" 
d="M453 676v-45h-315v-227h139q114 0 176 -54t62 -148q0 -92 -61 -147t-177 -55h-186v676h362zM417.5 86.5q48.5 41.5 48.5 115.5t-48.5 115.5t-140.5 41.5h-139v-314h139q92 0 140.5 41.5z" />
    <glyph glyph-name="uni0412" unicode="&#x412;" horiz-adv-x="553" 
d="M257 676q98 0 157.5 -45t59.5 -124q0 -61 -37.5 -104.5t-96.5 -57.5q69 -14 111 -57t42 -106q0 -86 -66 -134t-172 -48h-164v676h166zM375.5 403.5q49.5 38.5 49.5 101.5q0 61 -44.5 94t-121.5 33h-121v-267h108q80 0 129.5 38.5zM392.5 81.5q50.5 37.5 50.5 102.5
q0 63 -53.5 100t-141.5 37h-110v-277h123q81 0 131.5 37.5z" />
    <glyph glyph-name="uni0413" unicode="&#x413;" horiz-adv-x="489" 
d="M459 676v-45h-321v-631h-47v676h368z" />
    <glyph glyph-name="uni0414" unicode="&#x414;" horiz-adv-x="701" 
d="M41 42q32 46 47.5 87.5t20.5 86t5 113.5v347h496v-634h34v-181h-43v139h-548l-1 -139h-42v181h31zM563 633h-404v-304q0 -99 -13.5 -160t-53.5 -127h471v591z" />
    <glyph glyph-name="uni0415" unicode="&#x415;" horiz-adv-x="522" 
d="M429 676v-45h-291v-255h285v-45h-285v-286h297v-45h-344v676h338z" />
    <glyph glyph-name="uni0416" unicode="&#x416;" horiz-adv-x="983" 
d="M55 45q35 0 63 21t56 68l143 232l-225 310h57l209 -292h105v292h47v-292h105l209 292h57l-225 -310l143 -232q28 -47 56 -68t63 -21h27v-45h-29q-49 0 -86.5 25.5t-72.5 83.5l-140 230h-107v-339h-47v339h-107l-140 -230q-35 -58 -72.5 -83.5t-86.5 -25.5h-29v45h27z" />
    <glyph glyph-name="uni0417" unicode="&#x417;" horiz-adv-x="535" 
d="M139 0.5q-47 10.5 -81 28.5v49q38 -21 83 -31.5t89 -10.5q86 0 136.5 40t50.5 109q0 64 -55 99.5t-151 35.5h-60v45h60q94 0 146 37t52 103q0 62 -45 99.5t-121 37.5q-53 0 -93.5 -13t-77.5 -41v51q37 25 79 37t95 12q62 0 110.5 -22t75.5 -62.5t27 -94.5
q0 -60 -40.5 -105.5t-104.5 -59.5q70 -14 111.5 -57.5t41.5 -105.5q0 -88 -64.5 -139.5t-170.5 -51.5q-46 0 -93 10.5z" />
    <glyph glyph-name="uni0418" unicode="&#x418;" horiz-adv-x="726" 
d="M138 676v-598l452 598h46v-676h-47v598l-453 -598h-45v676h47z" />
    <glyph glyph-name="uni0419" unicode="&#x419;" horiz-adv-x="726" 
d="M138 676v-598l452 598h46v-676h-47v598l-453 -598h-45v676h47zM272 759.5q-35 31.5 -35 92.5h35q0 -42 25 -65.5t67 -23.5t67 23.5t25 65.5h35q0 -61 -35 -92.5t-92 -31.5t-92 31.5z" />
    <glyph glyph-name="uni041A" unicode="&#x41a;" horiz-adv-x="611" 
d="M572 45v-45h-28q-49 0 -86.5 25.5t-73.5 83.5l-139 230h-107v-339h-47v676h47v-292h105l209 292h57l-225 -310l142 -232q29 -47 57.5 -68t62.5 -21h26z" />
    <glyph glyph-name="uni041B" unicode="&#x41b;" horiz-adv-x="733" 
d="M56 45q41 0 59.5 28.5t20.5 80.5l24 522h483v-676h-47v631h-392l-22 -478q-4 -76 -34.5 -114.5t-90.5 -38.5h-29v45h28z" />
    <glyph glyph-name="uni041C" unicode="&#x41c;" horiz-adv-x="835" 
d="M146 676l271 -512l272 512h55v-676h-47v596l-257 -485h-46l-256 485v-596h-47v676h55z" />
    <glyph glyph-name="uni041D" unicode="&#x41d;" horiz-adv-x="726" 
d="M138 676v-309h451v309h47v-676h-47v322h-451v-322h-47v676h47z" />
    <glyph glyph-name="uni041E" unicode="&#x41e;" horiz-adv-x="756" 
d="M203.5 33q-77.5 45 -121 125t-43.5 180t43.5 180t121 125t174.5 45t174 -45t121 -125t44 -180t-44 -180t-121 -125t-174 -45t-174.5 45zM527 73q66 39 103 108.5t37 156.5t-37 156.5t-103 108.5t-149 39q-84 0 -149.5 -39t-102.5 -108t-37 -157t37 -157t102.5 -108
t149.5 -39q83 0 149 39z" />
    <glyph glyph-name="uni041F" unicode="&#x41f;" horiz-adv-x="685" 
d="M594 676v-676h-47v631h-409v-631h-47v676h503z" />
    <glyph glyph-name="uni0420" unicode="&#x420;" horiz-adv-x="539" 
d="M235 676q116 0 179 -53.5t63 -148.5q0 -97 -63.5 -149.5t-178.5 -52.5h-97v-272h-47v676h144zM377.5 357.5q49.5 40.5 49.5 116.5t-49.5 116.5t-140.5 40.5h-99v-314h99q91 0 140.5 40.5z" />
    <glyph glyph-name="uni0421" unicode="&#x421;" horiz-adv-x="596" 
d="M197.5 31q-75.5 43 -117 122.5t-41.5 184.5t41.5 184.5t117 122.5t174.5 43q91 0 159 -33v-47q-69 34 -157 34q-83 0 -147.5 -37.5t-101 -106.5t-36.5 -160t36.5 -160t101 -106.5t147.5 -37.5q92 0 166 41v-47q-75 -40 -168 -40q-99 0 -174.5 43z" />
    <glyph glyph-name="uni0422" unicode="&#x422;" horiz-adv-x="569" 
d="M36 631v45h497v-45h-225v-631h-47v631h-225z" />
    <glyph glyph-name="uni0423" unicode="&#x423;" horiz-adv-x="564" 
d="M556 676l-224 -451q-39 -78 -70.5 -125t-71.5 -73.5t-93 -26.5h-49v45h50q40 0 68.5 19t51 52t52.5 91l-242 469h52l216 -418l209 418h51z" />
    <glyph glyph-name="uni0424" unicode="&#x424;" horiz-adv-x="747" 
d="M121.5 126q-82.5 78 -82.5 212q0 133 83 211t228 86v75h47v-75q145 -8 228 -86t83 -211q0 -134 -82.5 -212t-228.5 -86v-74h-47v74q-146 8 -228.5 86zM157 517.5q-70 -67.5 -70 -179.5t70 -180t193 -75v509q-123 -7 -193 -74.5zM590.5 158q69.5 68 69.5 180t-69.5 179.5
t-193.5 74.5v-509q124 7 193.5 75z" />
    <glyph glyph-name="uni0425" unicode="&#x425;" horiz-adv-x="633" 
d="M528 0l-213 299l-213 -299h-55l239 340l-239 336h59l210 -295l211 295h55l-237 -336l241 -340h-58z" />
    <glyph glyph-name="uni0426" unicode="&#x426;" horiz-adv-x="707" 
d="M91 0v676h47v-634h432v634h47v-634h33v-182h-42l-1 140h-516z" />
    <glyph glyph-name="uni0427" unicode="&#x427;" horiz-adv-x="632" 
d="M401 259.5q-53 -21.5 -108 -21.5q-105 0 -166 65.5t-61 179.5v193h47v-193q0 -96 49 -148t137 -52q56 0 108 23.5t88 64.5v305h47v-676h-47v321q-41 -40 -94 -61.5z" />
    <glyph glyph-name="uni0428" unicode="&#x428;" horiz-adv-x="950" 
d="M138 676v-631h314v631h47v-631h314v631h47v-676h-769v676h47z" />
    <glyph glyph-name="uni0429" unicode="&#x429;" horiz-adv-x="950" 
d="M91 0v676h47v-631h314v631h47v-631h314v631h47v-631h33v-184h-42l-1 139h-759z" />
    <glyph glyph-name="uni042A" unicode="&#x42a;" horiz-adv-x="728" 
d="M608 349.5q63 -54.5 63 -147.5t-63 -147.5t-180 -54.5h-216v631h-192v45h239v-272h169q117 0 180 -54.5zM572 86.5q51 41.5 51 115.5q0 73 -51 115t-144 42h-169v-314h169q93 0 144 41.5z" />
    <glyph glyph-name="uni042B" unicode="&#x42b;" horiz-adv-x="834" 
d="M138 676v-272h169q117 0 180 -54.5t63 -147.5t-63 -147.5t-180 -54.5h-216v676h47zM450.5 86.5q50.5 41.5 50.5 115.5t-50.5 115.5t-143.5 41.5h-169v-314h169q93 0 143.5 41.5zM744 676v-676h-47v676h47z" />
    <glyph glyph-name="uni042C" unicode="&#x42c;" horiz-adv-x="606" 
d="M138 676v-272h169q117 0 180 -54.5t63 -147.5t-63 -147.5t-180 -54.5h-216v676h47zM450.5 86.5q50.5 41.5 50.5 115.5t-50.5 115.5t-143.5 41.5h-169v-314h169q93 0 143.5 41.5z" />
    <glyph glyph-name="uni042D" unicode="&#x42d;" horiz-adv-x="615" 
d="M420.5 646q75.5 -42 115.5 -120.5t40 -187.5t-40.5 -187.5t-115.5 -120.5t-178 -42q-106 0 -178 37v48q34 -19 79.5 -29.5t96.5 -10.5q127 0 203 74t83 209h-374v45h373q-6 135 -82 208.5t-203 73.5q-45 0 -89 -9.5t-79 -26.5v48q34 15 79 24t91 9q103 0 178.5 -42z" />
    <glyph glyph-name="uni042E" unicode="&#x42e;" horiz-adv-x="1019" 
d="M815.5 643q77.5 -45 121 -125t43.5 -180t-43.5 -180t-121 -125t-174.5 -45q-94 0 -170 42.5t-120.5 119t-48.5 172.5h-164v-322h-47v676h47v-309h165q6 93 51 166t120 114t167 41q97 0 174.5 -45zM790 73q66 39 103 108.5t37 156.5t-37 156.5t-103 108.5t-149 39
t-149 -39t-103 -108.5t-37 -156.5t37 -156.5t103 -108.5t149 -39t149 39z" />
    <glyph glyph-name="uni042F" unicode="&#x42f;" horiz-adv-x="598" 
d="M507 676v-676h-47v290h-106q-12 0 -36 2l-110 -183q-36 -58 -73 -83.5t-85 -25.5h-28v45h28q34 0 61.5 21t56.5 68l101 165q-73 17 -113 65t-40 119q0 90 64 141.5t172 51.5h155zM460 631h-108q-87 0 -136.5 -39.5t-49.5 -108.5q0 -70 49 -109t137 -39h108v296z" />
    <glyph glyph-name="uni0430" unicode="&#x430;" horiz-adv-x="472" 
d="M346 447.5q49 -39.5 49 -115.5v-332h-43v77q-27 -37 -74 -63t-101 -26q-57 0 -94 35.5t-37 93.5q0 73 53 115t154 46l97 4v50q0 56 -36.5 84t-94.5 28q-34 0 -67.5 -10t-60.5 -28l-1 47q62 34 134 34q73 0 122 -39.5zM350 244l-96 -4q-87 -4 -124 -36.5t-37 -82.5
q0 -41 25.5 -67t68.5 -26q48 0 90 26.5t73 67.5v122z" />
    <glyph glyph-name="uni0431" unicode="&#x431;" horiz-adv-x="520" 
d="M423 385.5q59 -56.5 59 -165.5q0 -111 -56.5 -171.5t-159.5 -60.5q-110 0 -169 75t-59 209t30 217t110 119q34 15 102 33q42 11 73.5 22.5t65.5 28.5v-45q-31 -16 -59.5 -25.5t-70.5 -20.5q-68 -18 -102 -34q-55 -26 -76.5 -83t-24.5 -150q30 46 77 77t105 31
q96 0 155 -56.5zM391.5 80q43.5 49 43.5 140q0 89 -45 134t-124 45q-111 0 -181 -130q1 -112 48 -175t133 -63q82 0 125.5 49z" />
    <glyph glyph-name="uni0432" unicode="&#x432;" horiz-adv-x="529" 
d="M295 475q79 0 125 -32t46 -92q0 -42 -23.5 -70t-64.5 -38q46 -12 74.5 -41.5t28.5 -71.5q0 -63 -50.5 -96.5t-135.5 -33.5h-208v475h208zM387 284.5q33 22.5 33 62.5q0 41 -33 64.5t-93 23.5h-162v-173h164q58 0 91 22.5zM397.5 65q37.5 25 37.5 68q0 41 -38.5 65.5
t-98.5 24.5h-166v-183h164q64 0 101.5 25z" />
    <glyph glyph-name="uni0433" unicode="&#x433;" horiz-adv-x="418" 
d="M378 475v-43h-246v-432h-45v475h291z" />
    <glyph glyph-name="uni0434" unicode="&#x434;" horiz-adv-x="529" 
d="M44 43q27 30 39.5 52t15.5 60l24 320h324v-432h27v-183h-39l-3 140h-372l-3 -140h-39v183h26zM402 432h-237l-22 -278q-4 -44 -16.5 -65.5t-34.5 -45.5h310v389z" />
    <glyph glyph-name="uni0435" unicode="&#x435;" horiz-adv-x="488" 
d="M86 263q-1 -8 -1 -25q0 -96 49.5 -151.5t133.5 -55.5q77 0 150 45v-46q-72 -42 -152 -42q-64 0 -116 28t-82 84.5t-30 137.5q0 116 54 182.5t148 66.5q56 0 99.5 -24t67.5 -67.5t24 -99.5v-33h-345zM141 407.5q-39 -38.5 -51 -106.5h296q0 62 -39.5 103.5t-106.5 41.5
q-60 0 -99 -38.5z" />
    <glyph glyph-name="uni0436" unicode="&#x436;" horiz-adv-x="718" 
d="M72 42q29 0 46.5 13t34.5 43l88 162l-166 215h54l148 -195h60v195h45v-195h59l148 195h54l-166 -215l88 -162q17 -30 34.5 -43t46.5 -13h40v-42h-45q-39 0 -65 17t-48 57l-90 163h-56v-237h-45v237h-57l-90 -163q-22 -40 -48 -57t-65 -17h-45v42h40z" />
    <glyph glyph-name="uni0437" unicode="&#x437;" horiz-adv-x="469" 
d="M132 -1.5q-47 10.5 -74 26.5v45q29 -18 72.5 -29.5t87.5 -11.5q67 0 107.5 28.5t40.5 76.5q0 46 -36.5 69.5t-108.5 23.5h-85v38h87q60 0 96.5 24.5t36.5 64.5q0 42 -37 67t-100 25q-74 0 -134 -30v44q60 27 136 27q85 0 133.5 -35.5t48.5 -94.5q0 -41 -25.5 -69.5
t-69.5 -38.5q47 -10 76 -40.5t29 -77.5q0 -65 -52 -104t-138 -39q-44 0 -91 10.5z" />
    <glyph glyph-name="uni0438" unicode="&#x438;" horiz-adv-x="580" 
d="M132 475v-409l316 409h45v-475h-45v409l-316 -409h-45v475h45z" />
    <glyph glyph-name="uni0439" unicode="&#x439;" horiz-adv-x="580" 
d="M132 475v-409l316 409h45v-475h-45v409l-316 -409h-45v475h45zM199 558.5q-35 31.5 -35 92.5h35q0 -42 25 -65.5t67 -23.5t67 23.5t25 65.5h35q0 -61 -35 -92.5t-92 -31.5t-92 31.5z" />
    <glyph glyph-name="uni043A" unicode="&#x43a;" horiz-adv-x="485" 
d="M132 475v-195h61l165 195h54l-185 -218l105 -159q21 -30 37 -43t43 -13h41v-42h-45q-38 0 -63 17t-51 57l-107 163h-55v-237h-45v475h45z" />
    <glyph glyph-name="uni043B" unicode="&#x43b;" horiz-adv-x="533" 
d="M25 43q40 0 55.5 29.5t19.5 89.5l19 313h327v-475h-45v432h-240l-18 -270q-5 -84 -30.5 -123t-87.5 -39h-17v43h17z" />
    <glyph glyph-name="uni043C" unicode="&#x43c;" horiz-adv-x="685" 
d="M140 475l203 -338l202 338h53v-475h-45v398l-190 -313h-41l-190 313v-398h-45v475h53z" />
    <glyph glyph-name="uni043D" unicode="&#x43d;" horiz-adv-x="562" 
d="M132 475v-214h298v214h45v-475h-45v218h-298v-218h-45v475h45z" />
    <glyph glyph-name="uni043E" unicode="&#x43e;" horiz-adv-x="577" 
d="M158 19.5q-57 31.5 -88.5 88.5t-31.5 129t31.5 129t88.5 89t130 32t130 -32t88.5 -89t31.5 -129t-31.5 -129t-88.5 -88.5t-130 -31.5t-130 31.5zM394.5 57.5q46.5 26.5 72.5 73.5t26 106t-26 106t-72.5 74t-106.5 27t-106 -27t-72 -74t-26 -106t25.5 -106t72 -73.5
t106.5 -26.5t106.5 26.5z" />
    <glyph glyph-name="uni043F" unicode="&#x43f;" horiz-adv-x="563" 
d="M476 475v-475h-44v432h-300v-432h-45v475h389z" />
    <glyph glyph-name="uni0440" unicode="&#x440;" horiz-adv-x="509" 
d="M120 475v-40q29 25 66 38.5t75 13.5q57 0 105 -27t76.5 -83t28.5 -139q0 -84 -28 -140t-75.5 -83t-104.5 -27q-39 0 -76 13t-66 37v-213h-45v650h44zM376.5 83q47.5 53 47.5 155t-47.5 155t-121.5 53q-38 0 -74.5 -14t-59.5 -40v-310q23 -25 59.5 -38.5t74.5 -13.5
q74 0 121.5 53z" />
    <glyph glyph-name="uni0441" unicode="&#x441;" horiz-adv-x="460" 
d="M145 19q-52 31 -79.5 87.5t-27.5 131.5q0 78 31 134.5t83.5 85.5t117.5 29q64 0 119 -27v-46q-57 30 -117 30q-52 0 -94.5 -24.5t-67.5 -71t-25 -110.5q0 -94 50 -150.5t134 -56.5q40 0 71 10t62 33v-49q-58 -37 -135 -37q-70 0 -122 31z" />
    <glyph glyph-name="uni0442" unicode="&#x442;" horiz-adv-x="422" 
d="M12 432v43h399v-43h-177v-432h-45v432h-177z" />
    <glyph glyph-name="uni0443" unicode="&#x443;" horiz-adv-x="453" 
d="M427 475l-176 -469q-37 -97 -84 -139t-123 -42h-31v44h31q58 0 95 32.5t66 109.5l-181 464h50l155 -401l149 401h49z" />
    <glyph glyph-name="uni0444" unicode="&#x444;" horiz-adv-x="820" 
d="M676.5 460q47.5 -27 76 -83t28.5 -139q0 -84 -28 -140t-75 -83t-105 -27q-38 0 -75 13t-67 37v-213h-42v213q-30 -24 -67 -37t-76 -13q-57 0 -104.5 27t-75.5 83t-28 140q0 83 28.5 139t76.5 83t105 27q38 0 75 -13.5t66 -38.5v241h42v-241q29 25 66 38.5t74 13.5
q58 0 105.5 -27zM389 392q-24 26 -60 40t-74 14q-74 0 -122 -53t-48 -155t48 -155t122 -53q37 0 73.5 13.5t60.5 38.5v310zM687 83q48 53 48 155t-48 155t-122 53q-38 0 -74 -14t-60 -40v-310q24 -25 60 -38.5t74 -13.5q74 0 122 53z" />
    <glyph glyph-name="uni0445" unicode="&#x445;" horiz-adv-x="439" 
d="M358 0l-143 206l-139 -206h-51l164 243l-160 232h56l134 -194l138 194h51l-163 -232l169 -243h-56z" />
    <glyph glyph-name="uni0446" unicode="&#x446;" horiz-adv-x="553" 
d="M87 0v475h45v-432h295v432h45v-432h27v-183h-39l-4 140h-369z" />
    <glyph glyph-name="uni0447" unicode="&#x447;" horiz-adv-x="526" 
d="M233 144q-80 0 -123.5 48t-43.5 142v141h45v-139q0 -74 31 -111t98 -37q44 0 83.5 22t71.5 62v203h45v-475h-45v221q-75 -77 -162 -77z" />
    <glyph glyph-name="uni0448" unicode="&#x448;" horiz-adv-x="758" 
d="M132 475v-432h225v432h45v-432h224v432h45v-475h-584v475h45z" />
    <glyph glyph-name="uni0449" unicode="&#x449;" horiz-adv-x="753" 
d="M87 0v475h45v-432h225v432h45v-432h224v432h45v-432h27v-183h-39l-3 140h-569z" />
    <glyph glyph-name="uni044A" unicode="&#x44a;" horiz-adv-x="625" 
d="M12 432v43h222v-174h156q86 0 132 -39t46 -111t-46 -111.5t-132 -39.5h-201v432h-177zM487 70.5q34 27.5 34 80.5q0 52 -34 79.5t-97 27.5h-156v-215h156q63 0 97 27.5z" />
    <glyph glyph-name="uni044B" unicode="&#x44b;" horiz-adv-x="721" 
d="M132 475v-174h156q86 0 132 -39t46 -111t-46 -111.5t-132 -39.5h-201v475h45zM385.5 70.5q34.5 27.5 34.5 80.5q0 52 -34.5 79.5t-97.5 27.5h-156v-215h156q63 0 97.5 27.5zM644 475v-475h-45v475h45z" />
    <glyph glyph-name="uni044C" unicode="&#x44c;" horiz-adv-x="523" 
d="M132 475v-174h156q86 0 132 -39t46 -111t-46 -111.5t-132 -39.5h-201v475h45zM385.5 70.5q34.5 27.5 34.5 80.5q0 52 -34.5 79.5t-97.5 27.5h-156v-215h156q63 0 97.5 27.5z" />
    <glyph glyph-name="uni044D" unicode="&#x44d;" horiz-adv-x="471" 
d="M370 420.5q63 -66.5 63 -183.5q0 -116 -63 -182.5t-175 -66.5q-37 0 -73 9t-64 26v46q30 -18 65 -28t69 -10q86 0 137 48t56 137h-253v43h253q-5 89 -56 137t-137 48q-74 0 -127 -28v46q52 25 130 25q112 0 175 -66.5z" />
    <glyph glyph-name="uni044E" unicode="&#x44e;" horiz-adv-x="772" 
d="M614 455q57 -32 88.5 -89t31.5 -129t-31.5 -129t-88.5 -88.5t-130 -31.5q-70 0 -125 29t-87.5 81.5t-36.5 119.5h-103v-218h-45v475h45v-214h103q5 66 37.5 117t87.5 80t124 29q73 0 130 -32zM590.5 57.5q46.5 26.5 72.5 73.5t26 106t-26 106t-72.5 74t-106.5 27
t-106.5 -27t-72.5 -74t-26 -106t26 -106t72.5 -73.5t106.5 -26.5t106.5 26.5z" />
    <glyph glyph-name="uni044F" unicode="&#x44f;" horiz-adv-x="533" 
d="M446 475v-475h-45v193h-132l-157 -193h-56l162 195q-76 7 -115 43.5t-39 94.5q0 66 47 104t138 38h197zM401 432h-152q-69 0 -103.5 -26t-34.5 -73q0 -46 34.5 -71.5t103.5 -25.5h152v196z" />
    <glyph glyph-name="uni0450" unicode="&#x450;" horiz-adv-x="488" 
d="M86 263q-1 -8 -1 -25q0 -96 49.5 -151.5t133.5 -55.5q77 0 150 45v-46q-72 -42 -152 -42q-64 0 -116 28t-82 84.5t-30 137.5q0 116 54 182.5t148 66.5q56 0 99.5 -24t67.5 -67.5t24 -99.5v-33h-345zM141 407.5q-39 -38.5 -51 -106.5h296q0 62 -39.5 103.5t-106.5 41.5
q-60 0 -99 -38.5zM107 672l45 14l111 -155h-46z" />
    <glyph glyph-name="uni0451" unicode="&#x451;" horiz-adv-x="488" 
d="M86 263q-1 -8 -1 -25q0 -96 49.5 -151.5t133.5 -55.5q77 0 150 45v-46q-72 -42 -152 -42q-64 0 -116 28t-82 84.5t-30 137.5q0 116 54 182.5t148 66.5q56 0 99.5 -24t67.5 -67.5t24 -99.5v-33h-345zM141 407.5q-39 -38.5 -51 -106.5h296q0 62 -39.5 103.5t-106.5 41.5
q-60 0 -99 -38.5zM147 584q-10 10 -10 25q0 14 10 24t25 10q14 0 24 -10t10 -24q0 -15 -10 -25t-24 -10q-15 0 -25 10zM289 584q-10 10 -10 25q0 14 10 24t24 10q15 0 25 -10t10 -24q0 -15 -10 -25t-25 -10q-14 0 -24 10z" />
    <glyph glyph-name="uni0452" unicode="&#x452;" horiz-adv-x="539" 
d="M321 -131q44 0 70 26t26 84v330q0 61 -39.5 96.5t-96.5 35.5q-42 0 -82 -19.5t-67 -55.5v-366h-45v562h-77v41h77v73h45v-73h205v-41h-205v-146q28 34 70 51.5t86 17.5q46 0 86 -19t64 -58t24 -95v-334q0 -79 -38.5 -116.5t-102.5 -37.5h-23v44h23z" />
    <glyph glyph-name="uni0453" unicode="&#x453;" horiz-adv-x="418" 
d="M378 475v-43h-246v-432h-45v475h291zM340 672l-110 -141h-46l111 155z" />
    <glyph glyph-name="uni0454" unicode="&#x454;" horiz-adv-x="471" 
d="M348 41q35 10 65 28v-46q-28 -17 -64 -26t-73 -9q-112 0 -175 66.5t-63 182.5q0 117 63 183.5t175 66.5q78 0 130 -25v-46q-53 28 -127 28q-86 0 -137 -48t-56 -137h253v-43h-253q5 -89 56 -137t137 -48q34 0 69 10z" />
    <glyph glyph-name="uni0455" unicode="&#x455;" horiz-adv-x="402" 
d="M120 1q-39 12 -70 34v43q31 -23 71 -36t77 -13q49 0 79 22t30 63q0 29 -15.5 48t-38.5 31t-62 26q-46 17 -73.5 31.5t-47 41t-19.5 68.5q0 61 43 93.5t112 32.5q35 0 68 -9t57 -26v-43q-25 18 -57.5 28t-64.5 10q-49 0 -80.5 -22t-31.5 -64q0 -28 15 -46t37.5 -29
t61.5 -26q46 -17 74.5 -32t48.5 -42t20 -70q0 -61 -43.5 -93.5t-111.5 -32.5q-40 0 -79 12z" />
    <glyph glyph-name="uni0456" unicode="&#x456;" horiz-adv-x="198" 
d="M121 475v-475h-45v475h45zM74 582q-10 10 -10 25t10 25t25 10t25 -10t10 -25t-10 -25t-25 -10t-25 10z" />
    <glyph glyph-name="uni0457" unicode="&#x457;" horiz-adv-x="198" 
d="M121 475v-475h-45v475h45zM3 584q-10 10 -10 25q0 14 10 24t25 10q14 0 24 -10t10 -24q0 -15 -10 -25t-24 -10q-15 0 -25 10zM145 584q-10 10 -10 25q0 14 10 24t24 10q15 0 25 -10t10 -24q0 -15 -10 -25t-25 -10q-14 0 -24 10z" />
    <glyph glyph-name="uni0458" unicode="&#x458;" horiz-adv-x="198" 
d="M-20 -131q44 0 70 26t26 84v496h45v-496q0 -79 -38.5 -116.5t-102.5 -37.5h-23v44h23zM74 582q-10 10 -10 25t10 25t25 10t25 -10t10 -25t-10 -25t-25 -10t-25 10z" />
    <glyph glyph-name="uni0459" unicode="&#x459;" horiz-adv-x="837" 
d="M735 262q46 -39 46 -111t-46.5 -111.5t-132.5 -39.5h-201v432h-240l-18 -270q-5 -84 -30.5 -123t-87.5 -39h-17v43h17q40 0 55.5 29.5t19.5 89.5l19 313h327v-174h156q87 0 133 -39zM699.5 70.5q34.5 27.5 34.5 80.5q0 52 -34.5 79.5t-97.5 27.5h-156v-215h156
q63 0 97.5 27.5z" />
    <glyph glyph-name="uni045A" unicode="&#x45a;" horiz-adv-x="866" 
d="M132 475v-197h298v197h45v-197h158q177 0 177 -139t-177 -139h-203v235h-298v-235h-45v475h45zM730 66q33 23 33 73t-33 73t-97 23h-158v-192h158q64 0 97 23z" />
    <glyph glyph-name="uni045B" unicode="&#x45b;" horiz-adv-x="527" 
d="M365 468.5q39 -18.5 62.5 -56.5t23.5 -92v-320h-45v316q0 60 -39.5 94t-95.5 34q-43 0 -83.5 -21t-66.5 -60v-363h-45v546h-67v38h67v92h45v-92h230v-38h-230v-133q28 36 71 55t88 19q46 0 85 -18.5z" />
    <glyph glyph-name="uni045C" unicode="&#x45c;" horiz-adv-x="485" 
d="M132 475v-195h61l165 195h54l-185 -218l105 -159q21 -30 37 -43t43 -13h41v-42h-45q-38 0 -63 17t-51 57l-107 163h-55v-237h-45v475h45zM355 672l-110 -141h-46l111 155z" />
    <glyph glyph-name="uni045D" unicode="&#x45d;" horiz-adv-x="580" 
d="M132 475v-409l316 409h45v-475h-45v409l-316 -409h-45v475h45zM155 672l45 14l111 -155h-46z" />
    <glyph glyph-name="uni045E" unicode="&#x45e;" horiz-adv-x="453" 
d="M427 475l-176 -469q-37 -97 -84 -139t-123 -42h-31v44h31q58 0 95 32.5t66 109.5l-181 464h50l155 -401l149 401h49zM134 558.5q-35 31.5 -35 92.5h35q0 -42 25 -65.5t67 -23.5t67 23.5t25 65.5h35q0 -61 -35 -92.5t-92 -31.5t-92 31.5z" />
    <glyph glyph-name="uni045F" unicode="&#x45f;" horiz-adv-x="547" 
d="M87 0v475h45v-432h284v432h45v-475h-166l-1 -139h-41v139h-166z" />
    <glyph glyph-name="uni0462" unicode="&#x462;" horiz-adv-x="693" 
d="M573 346.5q63 -53.5 63 -146.5t-62.5 -146.5t-179.5 -53.5h-217v547h-142v44h142v85h47v-85h180v-44h-180v-147h170q116 0 179 -53.5zM537.5 86q50.5 41 50.5 114t-50.5 114t-143.5 41h-170v-310h170q93 0 143.5 41z" />
    <glyph glyph-name="uni0463" unicode="&#x463;" horiz-adv-x="523" 
d="M421 255.5q46 -38.5 46 -108.5t-46 -108.5t-130 -38.5h-204v435h-112v40h112v201h45v-201h130v-40h-130v-141h159q84 0 130 -38.5zM385.5 69.5q33.5 26.5 33.5 77.5t-33.5 77.5t-94.5 26.5h-159v-208h159q61 0 94.5 26.5z" />
    <glyph glyph-name="uni0472" unicode="&#x472;" horiz-adv-x="756" 
d="M552 643q77 -45 121 -125t44 -180t-44 -180t-121 -125t-174 -45t-174.5 45t-121 125t-43.5 180t43.5 180t121 125t174.5 45t174 -45zM233 605.5q-64 -36.5 -102 -101t-42 -147.5q38 35 98 35q39 0 82 -8t110 -24q61 -15 102 -23t76 -8q41 0 71 18t35 44q-10 74 -49 131
t-100 88.5t-136 31.5q-81 0 -145 -36.5zM525 72q65 38 102.5 105t39.5 152q-19 -20 -48.5 -31.5t-63.5 -11.5q-38 0 -81.5 8t-108.5 24q-61 15 -102.5 23t-76.5 8t-60.5 -13.5t-34.5 -35.5q8 -78 46.5 -138.5t101 -94t139.5 -33.5q82 0 147 38z" />
    <glyph glyph-name="uni0473" unicode="&#x473;" horiz-adv-x="577" 
d="M418 455q57 -32 88.5 -89t31.5 -129t-31.5 -129t-88.5 -88.5t-130 -31.5t-130 31.5t-88.5 88.5t-31.5 129t31.5 129t88.5 89t130 32t130 -32zM183 418q-46 -26 -72 -72t-27 -104q15 16 38 25t50 9q25 0 53 -5t69 -15q30 -7 60 -12.5t52 -5.5q30 0 52.5 11t31.5 29
q-13 74 -68 120t-134 46q-59 0 -105 -26zM394 57.5q46 26.5 72.5 72.5t26.5 105q-15 -16 -38 -24.5t-50 -8.5q-24 0 -49 4.5t-71 14.5q-38 9 -64.5 14t-49.5 5q-31 -1 -53.5 -12.5t-30.5 -29.5q12 -75 66.5 -121t134.5 -46q60 0 106 26.5z" />
    <glyph glyph-name="uni0474" unicode="&#x474;" horiz-adv-x="689" 
d="M77 676l245 -616l217 542q16 40 36.5 57t57.5 17h20v-45h-15q-24 0 -35 -11.5t-20 -34.5l-236 -585h-52l-269 676h51z" />
    <glyph glyph-name="uni0475" unicode="&#x475;" horiz-adv-x="545" 
d="M75 475l172 -421l152 347q17 40 36.5 57t55.5 17h18v-43h-16q-23 0 -33 -10.5t-21 -34.5l-169 -387h-47l-197 475h49z" />
    <glyph glyph-name="uni0490" unicode="&#x490;" horiz-adv-x="490" 
d="M416 676l1 140h43v-185h-322v-631h-47v676h325z" />
    <glyph glyph-name="uni0491" unicode="&#x491;" horiz-adv-x="421" 
d="M339 475l4 140h38v-183h-249v-432h-45v475h252z" />
    <glyph glyph-name="Wgrave" unicode="&#x1e80;" horiz-adv-x="984" 
d="M69 676l186 -625l203 625h68l203 -625l187 625h48l-201 -676h-64l-207 624l-207 -624h-64l-201 676h49zM347 831l43 18l128 -128h-52z" />
    <glyph glyph-name="wgrave" unicode="&#x1e81;" horiz-adv-x="732" 
d="M77 475l127 -424l134 424h56l135 -424l126 424h48l-144 -475h-59l-134 418l-133 -418h-59l-145 475h48zM230 672l45 14l111 -155h-46z" />
    <glyph glyph-name="Wacute" unicode="&#x1e82;" horiz-adv-x="984" 
d="M69 676l186 -625l203 625h68l203 -625l187 625h48l-201 -676h-64l-207 624l-207 -624h-64l-201 676h49zM637 831l-119 -110h-52l128 128z" />
    <glyph glyph-name="wacute" unicode="&#x1e83;" horiz-adv-x="732" 
d="M77 475l127 -424l134 424h56l135 -424l126 424h48l-144 -475h-59l-134 418l-133 -418h-59l-145 475h48zM499 672l-110 -141h-46l111 155z" />
    <glyph glyph-name="Wdieresis" unicode="&#x1e84;" horiz-adv-x="984" 
d="M69 676l186 -625l203 625h68l203 -625l187 625h48l-201 -676h-64l-207 624l-207 -624h-64l-201 676h49zM396 783q-10 10 -10 25q0 14 10 24t25 10q14 0 24 -10t10 -24q0 -15 -10 -25t-24 -10q-15 0 -25 10zM538 783q-10 10 -10 25q0 14 10 24t24 10q15 0 25 -10t10 -24
q0 -15 -10 -25t-25 -10q-14 0 -24 10z" />
    <glyph glyph-name="wdieresis" unicode="&#x1e85;" horiz-adv-x="732" 
d="M77 475l127 -424l134 424h56l135 -424l126 424h48l-144 -475h-59l-134 418l-133 -418h-59l-145 475h48zM270 584q-10 10 -10 25q0 14 10 24t25 10q14 0 24 -10t10 -24q0 -15 -10 -25t-24 -10q-15 0 -25 10zM412 584q-10 10 -10 25q0 14 10 24t24 10q15 0 25 -10t10 -24
q0 -15 -10 -25t-25 -10q-14 0 -24 10z" />
    <glyph glyph-name="uni1E9E" unicode="&#x1e9e;" horiz-adv-x="629" 
d="M537.5 322q45.5 -52 45.5 -129q0 -64 -28.5 -110t-77 -70t-108.5 -24q-75 0 -148 35v46q76 -35 141 -35q76 0 124 41.5t48 116.5q0 65 -47 112t-153 98l125 190q-22 20 -59 34t-78 14q-47 0 -89 -18t-68.5 -58t-26.5 -101v-464h-47v463q0 71 30 121.5t82.5 76.5t118.5 26
q53 0 105.5 -19.5t94.5 -56.5l-127 -190q97 -47 142.5 -99z" />
    <glyph glyph-name="uni1EA0" unicode="&#x1ea0;" horiz-adv-x="595" 
d="M449 213h-306l-79 -213h-47l252 676h58l251 -676h-51zM433 258l-135 371l-138 -371h273zM272.5 -142.5q-10.5 10.5 -10.5 24.5t10.5 24.5t24.5 10.5t24 -10.5t10 -24.5t-10 -24.5t-24 -10.5t-24.5 10.5z" />
    <glyph glyph-name="uni1EA1" unicode="&#x1ea1;" horiz-adv-x="472" 
d="M346 447.5q49 -39.5 49 -115.5v-332h-43v77q-27 -37 -74 -63t-101 -26q-57 0 -94 35.5t-37 93.5q0 73 53 115t154 46l97 4v50q0 56 -36.5 84t-94.5 28q-34 0 -67.5 -10t-60.5 -28l-1 47q62 34 134 34q73 0 122 -39.5zM350 244l-96 -4q-87 -4 -124 -36.5t-37 -82.5
q0 -41 25.5 -67t68.5 -26q48 0 90 26.5t73 67.5v122zM205.5 -142.5q-10.5 10.5 -10.5 24.5t10.5 24.5t24.5 10.5t24 -10.5t10 -24.5t-10 -24.5t-24 -10.5t-24.5 10.5z" />
    <glyph glyph-name="uni1EB8" unicode="&#x1eb8;" horiz-adv-x="522" 
d="M429 676v-45h-291v-255h285v-45h-285v-286h297v-45h-344v676h338zM240.5 -142.5q-10.5 10.5 -10.5 24.5t10.5 24.5t24.5 10.5t24 -10.5t10 -24.5t-10 -24.5t-24 -10.5t-24.5 10.5z" />
    <glyph glyph-name="uni1EB9" unicode="&#x1eb9;" horiz-adv-x="488" 
d="M86 263q-1 -8 -1 -25q0 -96 49.5 -151.5t133.5 -55.5q77 0 150 45v-46q-72 -42 -152 -42q-64 0 -116 28t-82 84.5t-30 137.5q0 116 54 182.5t148 66.5q56 0 99.5 -24t67.5 -67.5t24 -99.5v-33h-345zM141 407.5q-39 -38.5 -51 -106.5h296q0 62 -39.5 103.5t-106.5 41.5
q-60 0 -99 -38.5zM221.5 -142.5q-10.5 10.5 -10.5 24.5t10.5 24.5t24.5 10.5t24 -10.5t10 -24.5t-10 -24.5t-24 -10.5t-24.5 10.5z" />
    <glyph glyph-name="uni1EBC" unicode="&#x1ebc;" horiz-adv-x="522" 
d="M429 676v-45h-291v-255h285v-45h-285v-286h297v-45h-344v676h338zM141 780q20 21 56 21q23 0 44 -6t24 -7q36 -12 56 -12t30.5 11t10.5 31h37q0 -37 -20 -58.5t-56 -21.5q-28 0 -72 14q-33 11 -52 11t-30 -10t-11 -28h-37q0 34 20 55z" />
    <glyph glyph-name="uni1EBD" unicode="&#x1ebd;" horiz-adv-x="488" 
d="M86 263q-1 -8 -1 -25q0 -96 49.5 -151.5t133.5 -55.5q77 0 150 45v-46q-72 -42 -152 -42q-64 0 -116 28t-82 84.5t-30 137.5q0 116 54 182.5t148 66.5q56 0 99.5 -24t67.5 -67.5t24 -99.5v-33h-345zM141 407.5q-39 -38.5 -51 -106.5h296q0 62 -39.5 103.5t-106.5 41.5
q-60 0 -99 -38.5zM122 608.5q20 21.5 56 21.5q17 0 32 -3.5t36 -10.5q36 -12 56 -12t30.5 11t10.5 31h37q0 -37 -20 -58.5t-56 -21.5q-22 0 -44.5 6.5t-27.5 7.5q-13 5 -27 8.5t-25 3.5q-19 0 -30 -10.5t-11 -28.5h-37q0 34 20 55.5z" />
    <glyph glyph-name="uni1ECA" unicode="&#x1eca;" horiz-adv-x="228" 
d="M138 676v-676h-47v676h47zM90.5 -142.5q-10.5 10.5 -10.5 24.5t10.5 24.5t24.5 10.5t24 -10.5t10 -24.5t-10 -24.5t-24 -10.5t-24.5 10.5z" />
    <glyph glyph-name="uni1ECB" unicode="&#x1ecb;" horiz-adv-x="198" 
d="M121 475v-475h-45v475h45zM74 582q-10 10 -10 25t10 25t25 10t25 -10t10 -25t-10 -25t-25 -10t-25 10zM76.5 -142.5q-10.5 10.5 -10.5 24.5t10.5 24.5t24.5 10.5t24 -10.5t10 -24.5t-10 -24.5t-24 -10.5t-24.5 10.5z" />
    <glyph glyph-name="uni1ECC" unicode="&#x1ecc;" horiz-adv-x="756" 
d="M203.5 33q-77.5 45 -121 125t-43.5 180t43.5 180t121 125t174.5 45t174 -45t121 -125t44 -180t-44 -180t-121 -125t-174 -45t-174.5 45zM527 73q66 39 103 108.5t37 156.5t-37 156.5t-103 108.5t-149 39q-84 0 -149.5 -39t-102.5 -108t-37 -157t37 -157t102.5 -108
t149.5 -39q83 0 149 39zM353.5 -142.5q-10.5 10.5 -10.5 24.5t10.5 24.5t24.5 10.5t24 -10.5t10 -24.5t-10 -24.5t-24 -10.5t-24.5 10.5z" />
    <glyph glyph-name="uni1ECD" unicode="&#x1ecd;" horiz-adv-x="577" 
d="M158 19.5q-57 31.5 -88.5 88.5t-31.5 129t31.5 129t88.5 89t130 32t130 -32t88.5 -89t31.5 -129t-31.5 -129t-88.5 -88.5t-130 -31.5t-130 31.5zM394.5 57.5q46.5 26.5 72.5 73.5t26 106t-26 106t-72.5 74t-106.5 27t-106 -27t-72 -74t-26 -106t25.5 -106t72 -73.5
t106.5 -26.5t106.5 26.5zM263.5 -142.5q-10.5 10.5 -10.5 24.5t10.5 24.5t24.5 10.5t24 -10.5t10 -24.5t-10 -24.5t-24 -10.5t-24.5 10.5z" />
    <glyph glyph-name="uni1EE4" unicode="&#x1ee4;" horiz-adv-x="648" 
d="M201 15.5q-55 27.5 -87.5 84t-32.5 141.5v435h47v-435q0 -101 54 -154t142 -53t142 53t54 154v435h47v-435q0 -85 -32.5 -141.5t-87.5 -84t-123 -27.5t-123 27.5zM299.5 -142.5q-10.5 10.5 -10.5 24.5t10.5 24.5t24.5 10.5t24 -10.5t10 -24.5t-10 -24.5t-24 -10.5
t-24.5 10.5z" />
    <glyph glyph-name="uni1EE5" unicode="&#x1ee5;" horiz-adv-x="517" 
d="M117 35.5q-41 47.5 -41 136.5v303h45v-301q0 -69 31 -106t94 -37q39 0 78 20.5t72 54.5v369h45v-475h-43v59q-39 -35 -78 -53t-82 -18q-80 0 -121 47.5zM234.5 -142.5q-10.5 10.5 -10.5 24.5t10.5 24.5t24.5 10.5t24 -10.5t10 -24.5t-10 -24.5t-24 -10.5t-24.5 10.5z" />
    <glyph glyph-name="Ygrave" unicode="&#x1ef2;" horiz-adv-x="619" 
d="M51 676h53l206 -355l206 355h52l-235 -404v-272h-47v272zM164 831l43 18l128 -128h-52z" />
    <glyph glyph-name="ygrave" unicode="&#x1ef3;" horiz-adv-x="453" 
d="M427 475l-176 -469q-37 -97 -84 -139t-123 -42h-31v44h31q58 0 95 32.5t66 109.5l-181 464h50l155 -401l149 401h49zM91 672l45 14l111 -155h-46z" />
    <glyph glyph-name="uni1EF8" unicode="&#x1ef8;" horiz-adv-x="619" 
d="M51 676h53l206 -355l206 355h52l-235 -404v-272h-47v272zM190 780q20 21 56 21q23 0 44 -6t24 -7q36 -12 56 -12t30.5 11t10.5 31h37q0 -37 -20 -58.5t-56 -21.5q-28 0 -72 14q-33 11 -52 11t-30 -10t-11 -28h-37q0 34 20 55z" />
    <glyph glyph-name="uni1EF9" unicode="&#x1ef9;" horiz-adv-x="453" 
d="M427 475l-176 -469q-37 -97 -84 -139t-123 -42h-31v44h31q58 0 95 32.5t66 109.5l-181 464h50l155 -401l149 401h49zM105 608.5q20 21.5 56 21.5q17 0 32 -3.5t36 -10.5q36 -12 56 -12t30.5 11t10.5 31h37q0 -37 -20 -58.5t-56 -21.5q-22 0 -44.5 6.5t-27.5 7.5
q-13 5 -27 8.5t-25 3.5q-19 0 -30 -10.5t-11 -28.5h-37q0 34 20 55.5z" />
    <glyph glyph-name="uni2002" unicode="&#x2002;" 
 />
    <glyph glyph-name="uni2003" unicode="&#x2003;" horiz-adv-x="1000" 
 />
    <glyph glyph-name="uni2007" unicode="&#x2007;" 
 />
    <glyph glyph-name="uni2008" unicode="&#x2008;" horiz-adv-x="250" 
 />
    <glyph glyph-name="uni2009" unicode="&#x2009;" horiz-adv-x="125" 
 />
    <glyph glyph-name="endash" unicode="&#x2013;" horiz-adv-x="800" 
d="M700 344v-43h-600v43h600z" />
    <glyph glyph-name="emdash" unicode="&#x2014;" horiz-adv-x="1000" 
d="M947 344v-43h-894v43h894z" />
    <glyph glyph-name="quoteleft" unicode="&#x2018;" horiz-adv-x="207" 
d="M126.5 597q-14.5 -34 -14.5 -78q0 -22 5 -55h-44q-5 33 -5 56q0 49 16.5 88t46.5 74l38 -14q-28 -37 -42.5 -71z" />
    <glyph glyph-name="quoteright" unicode="&#x2019;" horiz-adv-x="207" 
d="M81.5 543q14.5 34 14.5 79q0 21 -5 54h43q5 -25 5 -57q0 -49 -16 -88t-46 -73l-39 14q29 37 43.5 71z" />
    <glyph glyph-name="quotesinglbase" unicode="&#x201a;" horiz-adv-x="207" 
d="M81.5 -22q14.5 34 14.5 79q0 21 -5 54h43q5 -25 5 -57q0 -49 -16 -88t-46 -73l-39 14q29 37 43.5 71z" />
    <glyph glyph-name="quotedblleft" unicode="&#x201c;" horiz-adv-x="314" 
d="M126.5 597q-14.5 -34 -14.5 -78q0 -22 5 -55h-44q-5 33 -5 56q0 49 16.5 88t46.5 74l38 -14q-28 -37 -42.5 -71zM232.5 597q-14.5 -34 -14.5 -79q0 -21 5 -54h-43q-5 25 -5 57q0 49 16 88t46 73l39 -14q-29 -37 -43.5 -71z" />
    <glyph glyph-name="quotedblright" unicode="&#x201d;" horiz-adv-x="314" 
d="M81.5 543q14.5 34 14.5 79q0 21 -5 54h43q5 -25 5 -57q0 -49 -16 -88t-46 -73l-39 14q29 37 43.5 71zM187.5 543q14.5 34 14.5 79q0 21 -5 54h43q5 -25 5 -57q0 -49 -16 -88t-46 -73l-39 14q29 37 43.5 71z" />
    <glyph glyph-name="quotedblbase" unicode="&#x201e;" horiz-adv-x="314" 
d="M81.5 -22q14.5 34 14.5 79q0 21 -5 54h43q5 -25 5 -57q0 -49 -16 -88t-46 -73l-39 14q29 37 43.5 71zM187.5 -22q14.5 34 14.5 79q0 21 -5 54h43q5 -25 5 -57q0 -49 -16 -88t-46 -73l-39 14q29 37 43.5 71z" />
    <glyph glyph-name="dagger" unicode="&#x2020;" horiz-adv-x="451" 
d="M198 248q-1 43 2 84t10 100q-14 0 -50 -2q-14 -1 -36.5 -2t-53.5 -1q-11 0 -17 6.5t-6 16.5q0 9 6 15.5t17 6.5q42 0 110 -4q22 -2 30 -2l-4 83q-5 65 -5 115q0 11 7.5 17.5t17.5 6.5t17 -6.5t7 -17.5q0 -50 -5 -115l-4 -83q93 6 140 6q11 0 17 -6.5t6 -15.5
q0 -10 -6 -16.5t-17 -6.5q-7 0 -103 3q-28 2 -37 2q13 -111 12 -184l-13 -417l-15 -16l-15 16z" />
    <glyph glyph-name="daggerdbl" unicode="&#x2021;" horiz-adv-x="448" 
d="M206 -33q0 21 2 65q-20 0 -56 -2q-56 -2 -84 -2q-10 0 -16 6.5t-6 14.5q0 9 6 15t16 6q35 0 60.5 -1t43.5 -2l36 -2q-12 122 -12 185q0 42 3.5 90.5t8.5 94.5q-17 0 -53 -2q-11 0 -38 -1.5t-49 -0.5q-10 0 -16 6t-6 15q0 8 6 14t16 6q22 1 49 -0.5t38 -1.5q36 -2 53 -2
q-2 44 -2 65q-4 88 -4 131q0 11 6.5 16.5t15.5 5.5t15.5 -5.5t6.5 -16.5q0 -39 -2 -88.5t-3 -69.5l-2 -38q20 0 56 2q56 2 84 2q11 0 16.5 -6t5.5 -14q0 -9 -5.5 -15t-16.5 -6q-28 0 -84 2q-36 2 -56 2q5 -46 8.5 -94.5t3.5 -90.5q0 -63 -12 -185l36 2q18 1 43.5 2t60.5 1
q11 0 16.5 -6t5.5 -15q0 -8 -5.5 -14.5t-16.5 -6.5q-28 0 -84 2q-36 2 -56 2l2 -38q1 -20 3 -69.5t2 -88.5q0 -10 -6.5 -15.5t-15.5 -5.5t-15.5 5.5t-6.5 15.5q0 43 4 131z" />
    <glyph glyph-name="bullet" unicode="&#x2022;" horiz-adv-x="572" 
d="M165.5 97.5q-55.5 32.5 -87.5 87.5t-32 120q0 66 32 121t87.5 87.5t121.5 32.5t120.5 -32.5t86.5 -87.5t32 -121q0 -65 -31.5 -120t-86.5 -87.5t-121 -32.5t-121.5 32.5zM346.5 244q24.5 26 26.5 61q0 36 -25 62t-61 26q-35 0 -61 -26.5t-26 -61.5t26 -61t61 -26t59.5 26
z" />
    <glyph glyph-name="ellipsis" unicode="&#x2026;" horiz-adv-x="595" 
d="M273 3q-10 10 -10 25t10 25t25 10t25 -10t10 -25t-10 -25t-25 -10t-25 10zM445 3q-10 10 -10 25t10 25t25 10t25 -10t10 -25t-10 -25t-25 -10t-25 10zM100 3q-10 10 -10 25t10 25t25 10t25 -10t10 -25t-10 -25t-25 -10t-25 10z" />
    <glyph glyph-name="perthousand" unicode="&#x2030;" horiz-adv-x="1198" 
d="M132 386.5q-36 21.5 -56.5 58t-20.5 81.5t20.5 81.5t56.5 58t81 21.5q44 0 80 -21.5t56.5 -58.5t20.5 -81t-20.5 -81t-56.5 -58.5t-80 -21.5q-45 0 -81 21.5zM298 437.5q34 35.5 34 88.5t-34 88.5t-85 35.5t-85.5 -35.5t-34.5 -88.5t34.5 -88.5t85.5 -35.5t85 35.5z
M635 575l24 -27l-496 -448l-24 27zM505 8.5q-36 21.5 -57 58.5t-21 81t21 81t57 58.5t81 21.5q44 0 80 -21.5t56.5 -58.5t20.5 -81t-20.5 -81t-56.5 -58.5t-80 -21.5q-45 0 -81 21.5zM905 8.5q-36 21.5 -57 58.5t-21 81t21 81t57 58.5t81 21.5q44 0 80 -21.5t56.5 -58.5
t20.5 -81t-20.5 -81t-56.5 -58.5t-80 -21.5q-45 0 -81 21.5zM670.5 60q34.5 36 34.5 88t-34.5 88t-84.5 36q-51 0 -86 -36t-35 -88t35 -88t86 -36q50 0 84.5 36zM1070.5 60q34.5 36 34.5 88t-34.5 88t-84.5 36q-51 0 -86 -36t-35 -88t35 -88t86 -36q50 0 84.5 36z" />
    <glyph glyph-name="guilsinglleft" unicode="&#x2039;" horiz-adv-x="252" 
d="M82.5 158.5q-24.5 52.5 -24.5 111.5q0 58 24.5 110.5t72.5 94.5h50q-47 -40 -75 -94t-28 -111t28 -111t75 -94h-50q-48 41 -72.5 93.5z" />
    <glyph glyph-name="guilsinglright" unicode="&#x203a;" horiz-adv-x="252" 
d="M122 159q28 54 28 111t-28 111t-76 94h51q47 -42 71.5 -94.5t24.5 -110.5q0 -59 -24.5 -111.5t-71.5 -93.5h-51q48 40 76 94z" />
    <glyph glyph-name="fraction" unicode="&#x2044;" horiz-adv-x="289" 
d="M381 575l23 -27l-496 -448l-23 27z" />
    <glyph glyph-name="Euro" unicode="&#x20ac;" 
d="M172 433h236v-37h-239q-1 -16 -1 -51q0 -37 1 -54h239v-37h-236q19 -214 148 -214q69 0 115 31v-49q-49 -27 -117 -27q-86 0 -134.5 64.5t-59.5 194.5h-73v37h70q-1 17 -1 54q0 35 1 51h-70v37h72q11 132 59.5 197t135.5 65q66 0 117 -28v-49q-47 32 -115 32
q-129 0 -148 -217z" />
    <glyph glyph-name="uni20BD" unicode="&#x20bd;" 
d="M158 320v-118h141v-43h-141v-159h-47v159h-91v43h91v118h-91v43h91v313h146q64 0 108 -24t65.5 -64.5t21.5 -89.5q0 -48 -21.5 -88.5t-65.5 -65t-108 -24.5h-99zM158 363h98q71 0 109 38.5t38 96.5t-38 96.5t-109 38.5h-98v-270z" />
    <glyph glyph-name="uni2113" unicode="&#x2113;" horiz-adv-x="318" 
d="M278 56v-39q-20 -12 -45 -19t-50 -7q-46 0 -75.5 25.5t-29.5 77.5v190q-30 -25 -60 -48v41q28 20 60 47v274q0 43 27 66.5t64 23.5t63.5 -25t26.5 -73q0 -77 -36 -142t-100 -129v-220q0 -36 20 -52.5t52 -16.5q45 0 83 26zM138 638.5q-15 -14.5 -15 -40.5v-237
q50 54 76.5 109.5t26.5 119.5q0 32 -15 47.5t-37 15.5q-21 0 -36 -14.5z" />
    <glyph glyph-name="uni2116" unicode="&#x2116;" horiz-adv-x="1088" 
d="M793 386.5q-36 21.5 -56.5 58t-20.5 81.5t20.5 81.5t56.5 58t81 21.5q44 0 80 -21.5t56.5 -58.5t20.5 -81t-20.5 -81t-56.5 -58.5t-80 -21.5q-45 0 -81 21.5zM576 71v605h46v-676h-48l-437 605v-605h-46v676h47zM958.5 438q34.5 36 34.5 88t-34.5 88t-84.5 36
q-51 0 -85.5 -35.5t-34.5 -88.5t34.5 -88.5t85.5 -35.5q50 0 84.5 36zM1017 284v-38h-288v38h288z" />
    <glyph glyph-name="trademark" unicode="&#x2122;" horiz-adv-x="544" 
d="M36 639v37h202v-37h-82v-191h-38v191h-82zM313 676l73 -126l73 126h49v-228h-39v173l-66 -115h-33l-67 115v-173h-39v228h49z" />
    <glyph glyph-name="uni2126" unicode="&#x2126;" horiz-adv-x="794" 
d="M283 45q-100 47 -154.5 131.5t-54.5 193.5q0 91 42 163.5t115.5 113.5t165.5 41t166 -41t115.5 -113.5t41.5 -163.5q0 -109 -54.5 -193.5t-154.5 -131.5h214v-45h-297v44q120 50 181 131.5t61 192.5q0 79 -35 141.5t-97 97.5t-141 35t-141 -35t-97 -97.5t-35 -141.5
q0 -111 61 -192.5t181 -131.5v-44h-297v45h214z" />
    <glyph glyph-name="estimated" unicode="&#x212e;" horiz-adv-x="743" 
d="M518.5 48q64.5 33 106.5 92l22 -16q-47 -64 -117 -100t-154 -36q-95 0 -171.5 45.5t-120.5 125.5t-44 179t44 179t120.5 125.5t171.5 45.5q92 0 164.5 -40.5t115.5 -113.5t47 -167h-546v-262q42 -43 98 -66.5t121 -23.5q78 0 142.5 33zM255 637.5q-56 -23.5 -98 -66.5
v-177h429v186q-40 38 -93.5 59.5t-116.5 21.5q-65 0 -121 -23.5z" />
    <glyph glyph-name="oneeighth" unicode="&#x215b;" horiz-adv-x="788" 
d="M12 604v37l107 35h25v-406h-38v361zM577 575l23 -27l-496 -448l-23 27zM547 25.5q-34 32.5 -34 85.5q0 36 18.5 63t51.5 39q-61 29 -61 93q0 48 32 77.5t82 29.5t82 -29.5t32 -77.5q0 -63 -60 -93q33 -12 51.5 -38.5t18.5 -63.5q0 -53 -34.5 -85.5t-89.5 -32.5t-89 32.5z
M689.5 252q21.5 21 21.5 52t-21.5 52t-53.5 21t-53.5 -21t-21.5 -52t21.5 -52t53.5 -21t53.5 21zM696.5 53.5q24.5 23.5 24.5 59.5q0 38 -22.5 59.5t-62.5 21.5q-39 0 -61.5 -21.5t-22.5 -59.5q0 -37 23.5 -60t60.5 -23q36 0 60.5 23.5z" />
    <glyph glyph-name="threeeighths" unicode="&#x215c;" horiz-adv-x="868" 
d="M18 288v39q50 -26 102 -26q38 0 62.5 23t24.5 60t-24.5 59.5t-64.5 22.5h-55v34h56q34 0 56 21t22 52q0 34 -24 53t-60 19q-44 0 -84 -24v39q42 23 89 23q52 0 86 -28t34 -78q0 -64 -61 -92q34 -11 52.5 -38t18.5 -64q0 -53 -35 -86.5t-90 -33.5q-58 0 -105 25zM657 575
l23 -27l-496 -448l-23 27zM627 25.5q-34 32.5 -34 85.5q0 36 18.5 63t51.5 39q-61 29 -61 93q0 48 32 77.5t82 29.5t82 -29.5t32 -77.5q0 -63 -60 -93q33 -12 51.5 -38.5t18.5 -63.5q0 -53 -34.5 -85.5t-89.5 -32.5t-89 32.5zM769.5 252q21.5 21 21.5 52t-21.5 52t-53.5 21
t-53.5 -21t-21.5 -52t21.5 -52t53.5 -21t53.5 21zM776.5 53.5q24.5 23.5 24.5 59.5q0 38 -22.5 59.5t-62.5 21.5q-39 0 -61.5 -21.5t-22.5 -59.5q0 -37 23.5 -60t60.5 -23q36 0 60.5 23.5z" />
    <glyph glyph-name="fiveeighths" unicode="&#x215d;" horiz-adv-x="864" 
d="M28 277v39q40 -15 74 -15q48 0 75 26t27 65q0 40 -26.5 67.5t-75.5 27.5h-59v189h184v-38h-144v-116h27q64 0 99 -37.5t35 -92.5t-38 -92t-101 -37q-40 0 -77 14zM653 575l23 -27l-496 -448l-23 27zM623 25.5q-34 32.5 -34 85.5q0 36 18.5 63t51.5 39q-61 29 -61 93
q0 48 32 77.5t82 29.5t82 -29.5t32 -77.5q0 -63 -60 -93q33 -12 51.5 -38.5t18.5 -63.5q0 -53 -34.5 -85.5t-89.5 -32.5t-89 32.5zM765.5 252q21.5 21 21.5 52t-21.5 52t-53.5 21t-53.5 -21t-21.5 -52t21.5 -52t53.5 -21t53.5 21zM772.5 53.5q24.5 23.5 24.5 59.5
q0 38 -22.5 59.5t-62.5 21.5q-39 0 -61.5 -21.5t-22.5 -59.5q0 -37 23.5 -60t60.5 -23q36 0 60.5 23.5z" />
    <glyph glyph-name="seveneighths" unicode="&#x215e;" horiz-adv-x="766" 
d="M206 637h-190v39h236v-36q-69 -98 -103.5 -182.5t-34.5 -187.5h-41q0 187 133 367zM555 575l23 -27l-496 -448l-23 27zM525 25.5q-34 32.5 -34 85.5q0 36 18.5 63t51.5 39q-61 29 -61 93q0 48 32 77.5t82 29.5t82 -29.5t32 -77.5q0 -63 -60 -93q33 -12 51.5 -38.5
t18.5 -63.5q0 -53 -34.5 -85.5t-89.5 -32.5t-89 32.5zM667.5 252q21.5 21 21.5 52t-21.5 52t-53.5 21t-53.5 -21t-21.5 -52t21.5 -52t53.5 -21t53.5 21zM674.5 53.5q24.5 23.5 24.5 59.5q0 38 -22.5 59.5t-62.5 21.5q-39 0 -61.5 -21.5t-22.5 -59.5q0 -37 23.5 -60t60.5 -23
q36 0 60.5 23.5z" />
    <glyph glyph-name="arrowleft" unicode="&#x2190;" horiz-adv-x="669" 
d="M240 101l-164 200l164 200h58l-146 -178h441v-44h-441l146 -178h-58z" />
    <glyph glyph-name="arrowup" unicode="&#x2191;" horiz-adv-x="553" 
d="M276 574l200 -164v-57l-177 145v-441h-45v441l-178 -145v57z" />
    <glyph glyph-name="arrowright" unicode="&#x2192;" horiz-adv-x="669" 
d="M76 280v44h441l-145 178h57l164 -200l-164 -200h-57l145 178h-441z" />
    <glyph glyph-name="arrowdown" unicode="&#x2193;" horiz-adv-x="553" 
d="M299 493v-440l177 145v-58l-200 -163l-200 163v58l178 -145v440h45z" />
    <glyph glyph-name="arrowboth" unicode="&#x2194;" horiz-adv-x="871" 
d="M794 301l-163 -200h-58l145 178h-566l146 -178h-58l-164 200l164 200h58l-146 -178h566l-145 178h58z" />
    <glyph glyph-name="arrowupdn" unicode="&#x2195;" horiz-adv-x="553" 
d="M476 159v-58l-200 -163l-200 163v58l178 -145v631l-178 -145v58l200 163l200 -163v-58l-177 145v-631z" />
    <glyph glyph-name="uni2196" unicode="&#x2196;" horiz-adv-x="568" 
d="M492 49l-33 -33l-339 339v-224h-44v298h299v-43h-225z" />
    <glyph glyph-name="uni2197" unicode="&#x2197;" horiz-adv-x="568" 
d="M492 131h-44v224l-339 -339l-33 33l342 337h-225v43h299v-298z" />
    <glyph glyph-name="uni2198" unicode="&#x2198;" horiz-adv-x="568" 
d="M418 43l-342 338l33 32l339 -339v225h44v-299h-299v43h225z" />
    <glyph glyph-name="uni2199" unicode="&#x2199;" horiz-adv-x="568" 
d="M76 0v299h44v-225l339 339l33 -32l-342 -338h225v-43h-299z" />
    <glyph glyph-name="partialdiff" unicode="&#x2202;" horiz-adv-x="576" 
d="M438 609q71 -79 71 -255q0 -112 -33.5 -194.5t-93.5 -127t-138 -44.5q-56 0 -100.5 26t-70 73.5t-25.5 108.5q0 68 26.5 119t75 78.5t111.5 27.5q58 0 112.5 -25.5t89.5 -65.5v24q0 150 -58 220.5t-160 70.5q-36 0 -73 -10.5t-62 -26.5v48q28 15 65 23.5t74 8.5
q118 0 189 -79zM387.5 97.5q57.5 66.5 71.5 185.5q-38 46 -89.5 70.5t-104.5 24.5q-79 0 -124.5 -48.5t-45.5 -133.5q0 -75 41.5 -120t108.5 -45q85 0 142.5 66.5z" />
    <glyph glyph-name="emptyset" unicode="&#x2205;" horiz-adv-x="782" 
d="M717 467q24 -61 24 -129q0 -95 -47 -175.5t-127.5 -127.5t-175.5 -47q-68 0 -129 24t-109 68l-79 -79l-30 31l80 80q-40 47 -61.5 104.5t-21.5 121.5q0 95 47 175.5t127.5 127.5t175.5 47q64 0 121.5 -21.5t104.5 -61.5l86 86l30 -31l-84 -84q44 -48 68 -109zM107 235
q18 -49 51 -89l425 425q-40 33 -89 51t-103 18q-82 0 -151.5 -40.5t-110 -110t-40.5 -151.5q0 -54 18 -103zM543 76.5q69 40.5 109.5 110t40.5 151.5q0 57 -20.5 110t-57.5 94l-427 -427q40 -37 92.5 -58t110.5 -21q83 0 152 40.5z" />
    <glyph glyph-name="uni2206" unicode="&#x2206;" horiz-adv-x="712" 
d="M385 676l299 -676h-656l299 676h58zM356 628l-257 -583h514z" />
    <glyph glyph-name="product" unicode="&#x220f;" horiz-adv-x="685" 
d="M594 676v-776h-47v731h-409v-731h-47v776h503z" />
    <glyph glyph-name="summation" unicode="&#x2211;" horiz-adv-x="587" 
d="M293 288l-225 346v42h455v-45h-398l222 -343l-222 -343h404v-45h-461v42z" />
    <glyph glyph-name="minus" unicode="&#x2212;" 
d="M462 351v-40h-424v40h424z" />
    <glyph glyph-name="uni2219" unicode="&#x2219;" 
d="M209 294.5q-16 16.5 -16 40.5q0 25 16 41.5t41 16.5t41 -16.5t16 -41.5q0 -24 -16 -40.5t-41 -16.5t-41 16.5z" />
    <glyph glyph-name="radical" unicode="&#x221a;" horiz-adv-x="630" 
d="M25 273l-15 42l124 50l195 -484l239 795h52l-257 -851h-62l-194 482z" />
    <glyph glyph-name="infinity" unicode="&#x221e;" horiz-adv-x="745" 
d="M661.5 412q36.5 -41 36.5 -98t-36.5 -98.5t-103.5 -41.5q-48 0 -91 28.5t-95 80.5q-54 -53 -96.5 -81t-90.5 -28q-44 0 -75.5 20t-47.5 52t-16 68t16 68t47.5 51.5t75.5 19.5q48 0 90.5 -28t96.5 -81q52 52 95 80.5t91 28.5q67 0 103.5 -41zM258.5 243q35.5 24 82.5 71
q-47 46 -82.5 70t-72.5 24q-44 0 -69.5 -28t-25.5 -66q0 -39 25.5 -67t69.5 -28q37 0 72.5 24zM627.5 247q25.5 28 25.5 67q0 38 -25.5 66t-70.5 28q-37 0 -72.5 -24t-82.5 -70q47 -47 82.5 -71t72.5 -24q45 0 70.5 28z" />
    <glyph glyph-name="integral" unicode="&#x222b;" horiz-adv-x="232" 
d="M-10 -176.5q-11 10.5 -11 24.5q0 10 6.5 17.5t17.5 7.5q8 0 12.5 -4t9 -12.5t9.5 -8.5q16 0 17 26l50 829q3 43 26 63.5t52 20.5q21 0 32.5 -10.5t11.5 -24.5q0 -10 -7 -17.5t-19 -7.5q-8 0 -12.5 4t-9 12.5t-9.5 8.5q-16 0 -17 -26l-50 -829q-3 -44 -26 -64t-52 -20
q-20 0 -31 10.5z" />
    <glyph glyph-name="approxequal" unicode="&#x2248;" 
d="M311 400.5q-24 5.5 -63 17.5q-71 23 -104 23q-28 0 -44 -10.5t-31 -31.5l-31 17q35 66 105 66q22 0 47.5 -6t62.5 -18q35 -11 58.5 -17t43.5 -6q29 0 46.5 10.5t29.5 31.5l31 -20q-33 -62 -106 -62q-21 0 -45 5.5zM309 188.5q-26 6.5 -61 17.5q-71 23 -104 23
q-28 0 -44 -10.5t-31 -31.5l-31 16q35 66 105 66q22 0 47.5 -6t62.5 -18q38 -11 60.5 -16.5t41.5 -5.5q29 0 46 10.5t30 30.5l31 -19q-33 -63 -106 -63q-21 0 -47 6.5z" />
    <glyph glyph-name="notequal" unicode="&#x2260;" 
d="M315 423l-89 -183h236v-40h-255l-50 -104h-41l50 104h-128v40h147l89 183h-236v40h255l50 104h41l-50 -104h128v-40h-147z" />
    <glyph glyph-name="lessequal" unicode="&#x2264;" 
d="M38 360l424 196v-43l-380 -175l380 -176v-42l-424 196v44zM462 0h-424v40h424v-40z" />
    <glyph glyph-name="greaterequal" unicode="&#x2265;" 
d="M418 338l-380 175v43l424 -196v-44l-424 -196v42zM38 0v40h424v-40h-424z" />
    <glyph glyph-name="lozenge" unicode="&#x25ca;" horiz-adv-x="532" 
d="M245 676h42l210 -343l-210 -333h-42l-210 333zM266 634l-185 -301l185 -291l185 291z" />
    <glyph glyph-name="i.loclTRK" horiz-adv-x="198" 
d="M121 475v-475h-45v475h45zM74 582q-10 10 -10 25t10 25t25 10t25 -10t10 -25t-10 -25t-25 -10t-25 10z" />
    <glyph glyph-name="germandbls.calt" horiz-adv-x="629" 
d="M537.5 322q45.5 -52 45.5 -129q0 -64 -28.5 -110t-77 -70t-108.5 -24q-75 0 -148 35v46q76 -35 141 -35q76 0 124 41.5t48 116.5q0 65 -47 112t-153 98l125 190q-22 20 -59 34t-78 14q-47 0 -89 -18t-68.5 -58t-26.5 -101v-464h-47v463q0 71 30 121.5t82.5 76.5t118.5 26
q53 0 105.5 -19.5t94.5 -56.5l-127 -190q97 -47 142.5 -99z" />
    <glyph glyph-name="a.ital" horiz-adv-x="509" 
d="M323 1q-37 -13 -77 -13q-57 0 -104.5 27t-75.5 83t-28 140t28 140t75.5 82.5t104.5 26.5q38 0 75 -13.5t67 -38.5v40h45v-475h-45v39q-28 -25 -65 -38zM328.5 43q36.5 14 59.5 39v310q-23 24 -60 38.5t-73 14.5q-74 0 -122 -53t-48 -154t48 -155t122 -54q37 0 73.5 14z
" />
    <glyph glyph-name="f.ital" horiz-adv-x="293" 
d="M28 432v43h75v69q0 71 41 104.5t104 33.5q28 0 55 -6v-41q-23 6 -49 6q-45 0 -75.5 -23t-30.5 -75v-68h129v-43h-129v-607h-45v607h-75z" />
    <glyph glyph-name="g.ital" horiz-adv-x="509" 
d="M164.5 -131.5q37.5 -13.5 74.5 -13.5q64 0 106.5 40.5t42.5 116.5v47q-28 -25 -65 -38t-77 -13q-57 0 -104 26.5t-75.5 80.5t-28.5 133t28 133t75.5 80t104.5 26q38 0 75 -13.5t67 -38.5v40h45v-463q0 -64 -26 -108.5t-69 -67t-96 -22.5q-42 0 -84 13.5t-80 40.5l16 40
q33 -26 70.5 -39.5zM328.5 63q36.5 14 59.5 39v290q-23 24 -60 38.5t-73 14.5q-48 0 -86.5 -22.5t-61 -67t-22.5 -107.5t22.5 -108t61.5 -68t86 -23q37 0 73.5 14z" />
    <glyph glyph-name="f_f.ital" horiz-adv-x="545" 
d="M410 642q-25 -25 -25 -80v-87h126v-43h-126v-527h-45v527h-183v-607h-45v607h-98v43h98v53q0 75 37 111.5t100 36.5h46v-43h-45q-43 0 -68 -25t-25 -80v-53h183v87q0 75 37 111.5t100 36.5h48v-43h-47q-43 0 -68 -25z" />
    <glyph glyph-name="f_f_i.ital" horiz-adv-x="676" 
d="M14 432v43h98v53q0 75 37 111.5t100 36.5h46v-43h-45q-43 0 -68 -25t-25 -80v-53h183v87q0 75 37 111.5t100 36.5h91v-43h-90q-43 0 -68 -25t-25 -80v-87h228v-475h-45v432h-183v-527h-45v527h-183v-607h-45v607h-98z" />
    <glyph glyph-name="f_f_l.ital" horiz-adv-x="691" 
d="M14 432v43h98v53q0 75 37 111.5t100 36.5h46v-43h-45q-43 0 -68 -25t-25 -80v-53h183v88q0 75 37 111t100 36h38v-43h-38q-42 0 -67 -24.5t-25 -79.5v-88h116v-43h-116v-527h-45v527h-183v-607h-45v607h-98zM615 676v-676h-45v676h45z" />
    <glyph glyph-name="fi.ital" horiz-adv-x="461" 
d="M385 0h-45v431h-183v-606h-45v606h-98v44h98v53q0 75 37.5 111.5t101.5 36.5h105v-43h-104q-95 0 -95 -105v-53h228v-475z" />
    <glyph glyph-name="fl.ital" horiz-adv-x="463" 
d="M14 432v43h98v54q0 74 37 110.5t100 36.5h38v-43h-38q-42 0 -67 -24.5t-25 -79.5v-54h117v-43h-117v-607h-45v607h-98zM387 676v-676h-45v676h45z" />
    <glyph glyph-name="zero.zero" 
d="M402.5 600.5q52.5 -87.5 52.5 -261.5q0 -175 -52.5 -263t-152.5 -88t-152.5 88t-52.5 263q0 174 52.5 261.5t152.5 87.5t152.5 -87.5zM93 339q0 -121 26 -196l227 456q-37 43 -96 43q-157 0 -157 -303zM407 339q0 139 -34 216l-231 -461q39 -60 108 -60q157 0 157 305z
" />
    <glyph glyph-name="zero.osf" horiz-adv-x="546" 
d="M155.5 19q-50.5 31 -77.5 87t-27 131t27 131.5t77.5 87.5t117.5 31t117.5 -31t77.5 -87.5t27 -131.5t-27 -131t-77.5 -87t-117.5 -31t-117.5 31zM400 84.5q48 53.5 48 152.5q0 98 -48.5 152.5t-126.5 54.5q-79 0 -127 -54t-48 -153t48 -152.5t127 -53.5t127 53.5z" />
    <glyph glyph-name="one.osf" horiz-adv-x="330" 
d="M29 377v42l155 56h34v-475h-45v430z" />
    <glyph glyph-name="two.osf" horiz-adv-x="493" 
d="M275 210q67 65 67 118q0 56 -34.5 86t-96.5 30q-38 0 -71.5 -9t-68.5 -29v47q74 34 147 34q80 0 125.5 -41t45.5 -114q0 -42 -26.5 -84t-82.5 -90t-152 -115h290v-43h-367v40q157 105 224 170z" />
    <glyph glyph-name="three.osf" horiz-adv-x="469" 
d="M124.5 -180q-39.5 7 -70.5 20v42q31 -14 69 -21t76 -7q50 0 90 20t62.5 55t22.5 77q0 60 -44 99.5t-114 39.5h-78v41h79q65 0 104.5 37t39.5 99q0 55 -43 88.5t-110 33.5q-79 0 -137 -26v45q68 24 140 24q55 0 100 -20t70.5 -56.5t25.5 -83.5q0 -57 -29.5 -100.5
t-76.5 -58.5q54 -16 87 -61t33 -102q0 -54 -28.5 -98t-78.5 -69t-112 -25q-38 0 -77.5 7z" />
    <glyph glyph-name="four.osf" horiz-adv-x="492" 
d="M29 0v40l285 435h55v-432h97v-43h-97v-169h-45v169h-295zM324 413l-241 -370h241v370z" />
    <glyph glyph-name="five.osf" horiz-adv-x="485" 
d="M76 -165v46q63 -25 119 -25q58 0 99.5 24t62 63t20.5 83q0 69 -46 115.5t-137 46.5h-102v287h300v-43h-255v-201h64q74 0 124.5 -28t74.5 -74t24 -101q0 -56 -26 -105t-77 -79.5t-124 -30.5q-60 0 -121 22z" />
    <glyph glyph-name="six.osf" horiz-adv-x="567" 
d="M401 366q43 -28 65.5 -73.5t22.5 -97.5q0 -55 -23 -102t-67 -76t-104 -29q-80 0 -130 44t-71 110t-21 136q0 101 31.5 179t90.5 122t139 44q55 0 116 -21v-45q-58 23 -113 23q-65 0 -113.5 -37t-75 -103t-28.5 -149q73 103 178 103q60 0 103 -28zM373.5 54q33.5 23 51 60
t17.5 79q0 41 -17.5 77.5t-51 58.5t-80.5 22q-56 0 -98.5 -32.5t-72.5 -82.5q10 -85 53 -145t119 -60q46 0 79.5 23z" />
    <glyph glyph-name="seven.osf" horiz-adv-x="462" 
d="M370 432h-337v43h386v-38q-115 -148 -185 -293.5t-79 -318.5h-45q13 287 260 607z" />
    <glyph glyph-name="eight.osf" horiz-adv-x="530" 
d="M157 10.5q-47 22.5 -73.5 63t-26.5 91.5q0 58 29 95t88 60q-50 20 -76.5 56t-26.5 86q0 47 25 83.5t69 57t100 20.5t100 -20.5t69 -57t25 -83.5q0 -50 -26.5 -86t-76.5 -56q59 -23 88.5 -60t29.5 -95q0 -51 -26.5 -91.5t-74 -63t-108.5 -22.5t-108 22.5zM372 373
q41 34 41 86q0 54 -41 88t-107 34t-107 -34t-41 -88q0 -52 41.5 -86t106.5 -34q66 0 107 34zM382.5 69q45.5 39 45.5 99q0 57 -45.5 94.5t-117.5 37.5t-117.5 -37.5t-45.5 -94.5q0 -60 45.5 -99t117.5 -39t117.5 39z" />
    <glyph glyph-name="nine.osf" horiz-adv-x="563" 
d="M395 443q50 -44 71 -110t21 -136q0 -101 -31.5 -179t-90.5 -122t-139 -44q-55 0 -116 21v45q58 -23 113 -23q65 0 113.5 37t75 103t28.5 149q-73 -103 -178 -103q-60 0 -103 28t-65.5 73.5t-22.5 97.5q0 55 23 102t67 76t104 29q80 0 130 -44zM365.5 156.5
q42.5 32.5 72.5 82.5q-10 85 -53 145t-119 60q-46 0 -79.5 -23t-51 -60t-17.5 -79q0 -41 17.5 -77.5t51 -58.5t80.5 -22q56 0 98.5 32.5z" />
    <glyph glyph-name="zero.dnom" horiz-adv-x="323" 
d="M68.5 46q-32.5 53 -32.5 157t32.5 157t93.5 53q60 0 92.5 -53t32.5 -157t-32.5 -157t-92.5 -53q-61 0 -93.5 53zM247 203q0 171 -85 171q-86 0 -86 -171t86 -171q85 0 85 171z" />
    <glyph glyph-name="one.dnom" horiz-adv-x="192" 
d="M12 334v37l107 35h25v-406h-38v361z" />
    <glyph glyph-name="two.dnom" horiz-adv-x="283" 
d="M50 59q11 11 21 23q66 69 100 118t34 101q0 34 -24 53.5t-60 19.5q-24 0 -49 -7.5t-44 -21.5v41q22 13 48.5 20t50.5 7q51 0 84.5 -29.5t33.5 -81.5q0 -39 -17.5 -76.5t-41.5 -68.5t-64 -75q-16 -17 -39 -44h173v-38h-227v36q10 12 21 23z" />
    <glyph glyph-name="three.dnom" horiz-adv-x="276" 
d="M18 18v39q50 -26 102 -26q38 0 62.5 23t24.5 60t-24.5 59.5t-64.5 22.5h-55v34h56q34 0 56 21t22 52q0 34 -24 53t-60 19q-44 0 -84 -24v39q42 23 89 23q52 0 86 -28t34 -78q0 -64 -61 -92q34 -11 52.5 -38t18.5 -64q0 -53 -35 -86.5t-90 -33.5q-58 0 -105 25z" />
    <glyph glyph-name="four.dnom" horiz-adv-x="311" 
d="M20 95v33l159 278h43l-159 -274h140v105h36v-105h52v-37h-52v-95h-36v95h-183z" />
    <glyph glyph-name="five.dnom" horiz-adv-x="272" 
d="M28 7v39q40 -15 74 -15q48 0 75 26t27 65q0 40 -26.5 67.5t-75.5 27.5h-59v189h184v-38h-144v-116h27q64 0 99 -37.5t35 -92.5t-38 -92t-101 -37q-40 0 -77 14z" />
    <glyph glyph-name="six.dnom" horiz-adv-x="291" 
d="M242.5 221.5q30.5 -37.5 30.5 -92.5q0 -59 -31 -97t-84 -38q-57 0 -93.5 51.5t-36.5 145.5q0 112 40.5 167t110.5 55q31 0 58 -11v-39q-31 11 -57 11q-104 0 -111 -159q17 20 43 32t51 12q49 0 79.5 -37.5zM213 58.5q20 26.5 20 69.5q0 41 -20.5 67t-54.5 26
q-24 0 -48.5 -13t-41.5 -36q3 -66 28 -103t63 -37q34 0 54 26.5z" />
    <glyph glyph-name="seven.dnom" horiz-adv-x="250" 
d="M206 367h-190v39h236v-36q-69 -98 -103.5 -182.5t-34.5 -187.5h-41q0 187 133 367z" />
    <glyph glyph-name="eight.dnom" horiz-adv-x="303" 
d="M62 25.5q-34 32.5 -34 85.5q0 36 18.5 63t51.5 39q-61 29 -61 93q0 48 32 77.5t82 29.5t82 -29.5t32 -77.5q0 -63 -60 -93q33 -12 51.5 -38.5t18.5 -63.5q0 -53 -34.5 -85.5t-89.5 -32.5t-89 32.5zM204.5 252q21.5 21 21.5 52t-21.5 52t-53.5 21t-53.5 -21t-21.5 -52
t21.5 -52t53.5 -21t53.5 21zM211.5 53.5q24.5 23.5 24.5 59.5q0 38 -22.5 59.5t-62.5 21.5q-39 0 -61.5 -21.5t-22.5 -59.5q0 -37 23.5 -60t60.5 -23q36 0 60.5 23.5z" />
    <glyph glyph-name="nine.dnom" horiz-adv-x="291" 
d="M226.5 359.5q36.5 -51.5 36.5 -145.5q0 -112 -40.5 -167t-110.5 -55q-31 0 -58 11v39q31 -11 57 -11q104 0 111 159q-17 -20 -43 -32t-51 -12q-49 0 -79.5 37.5t-30.5 92.5q0 59 31 97t84 38q57 0 93.5 -51.5zM181.5 197q24.5 13 41.5 36q-3 66 -28 103t-63 37
q-34 0 -54 -26.5t-20 -69.5q0 -41 20.5 -67t54.5 -26q24 0 48.5 13z" />
    <glyph glyph-name="zero.numr" horiz-adv-x="323" 
d="M68.5 316q-32.5 53 -32.5 157t32.5 157t93.5 53q60 0 92.5 -53t32.5 -157t-32.5 -157t-92.5 -53q-61 0 -93.5 53zM247 473q0 171 -85 171q-86 0 -86 -171t86 -171q85 0 85 171z" />
    <glyph glyph-name="one.numr" horiz-adv-x="192" 
d="M12 604v37l107 35h25v-406h-38v361z" />
    <glyph glyph-name="two.numr" horiz-adv-x="283" 
d="M50 329q11 11 21 23q66 69 100 118t34 101q0 34 -24 53.5t-60 19.5q-24 0 -49 -7.5t-44 -21.5v41q22 13 48.5 20t50.5 7q51 0 84.5 -29.5t33.5 -81.5q0 -39 -17.5 -76.5t-41.5 -68.5t-64 -75q-16 -17 -39 -44h173v-38h-227v36q10 12 21 23z" />
    <glyph glyph-name="three.numr" horiz-adv-x="276" 
d="M18 288v39q50 -26 102 -26q38 0 62.5 23t24.5 60t-24.5 59.5t-64.5 22.5h-55v34h56q34 0 56 21t22 52q0 34 -24 53t-60 19q-44 0 -84 -24v39q42 23 89 23q52 0 86 -28t34 -78q0 -64 -61 -92q34 -11 52.5 -38t18.5 -64q0 -53 -35 -86.5t-90 -33.5q-58 0 -105 25z" />
    <glyph glyph-name="four.numr" horiz-adv-x="311" 
d="M20 365v33l159 278h43l-159 -274h140v105h36v-105h52v-37h-52v-95h-36v95h-183z" />
    <glyph glyph-name="five.numr" horiz-adv-x="272" 
d="M28 277v39q40 -15 74 -15q48 0 75 26t27 65q0 40 -26.5 67.5t-75.5 27.5h-59v189h184v-38h-144v-116h27q64 0 99 -37.5t35 -92.5t-38 -92t-101 -37q-40 0 -77 14z" />
    <glyph glyph-name="six.numr" horiz-adv-x="291" 
d="M242.5 491.5q30.5 -37.5 30.5 -92.5q0 -59 -31 -97t-84 -38q-57 0 -93.5 51.5t-36.5 145.5q0 112 40.5 167t110.5 55q31 0 58 -11v-39q-31 11 -57 11q-104 0 -111 -159q17 20 43 32t51 12q49 0 79.5 -37.5zM213 328.5q20 26.5 20 69.5q0 41 -20.5 67t-54.5 26
q-24 0 -48.5 -13t-41.5 -36q3 -66 28 -103t63 -37q34 0 54 26.5z" />
    <glyph glyph-name="seven.numr" horiz-adv-x="250" 
d="M206 637h-190v39h236v-36q-69 -98 -103.5 -182.5t-34.5 -187.5h-41q0 187 133 367z" />
    <glyph glyph-name="eight.numr" horiz-adv-x="303" 
d="M62 295.5q-34 32.5 -34 85.5q0 36 18.5 63t51.5 39q-61 29 -61 93q0 48 32 77.5t82 29.5t82 -29.5t32 -77.5q0 -63 -60 -93q33 -12 51.5 -38.5t18.5 -63.5q0 -53 -34.5 -85.5t-89.5 -32.5t-89 32.5zM204.5 522q21.5 21 21.5 52t-21.5 52t-53.5 21t-53.5 -21t-21.5 -52
t21.5 -52t53.5 -21t53.5 21zM211.5 323.5q24.5 23.5 24.5 59.5q0 38 -22.5 59.5t-62.5 21.5q-39 0 -61.5 -21.5t-22.5 -59.5q0 -37 23.5 -60t60.5 -23q36 0 60.5 23.5z" />
    <glyph glyph-name="nine.numr" horiz-adv-x="291" 
d="M226.5 629.5q36.5 -51.5 36.5 -145.5q0 -112 -40.5 -167t-110.5 -55q-31 0 -58 11v39q31 -11 57 -11q104 0 111 159q-17 -20 -43 -32t-51 -12q-49 0 -79.5 37.5t-30.5 92.5q0 59 31 97t84 38q57 0 93.5 -51.5zM181.5 467q24.5 13 41.5 36q-3 66 -28 103t-63 37
q-34 0 -54 -26.5t-20 -69.5q0 -41 20.5 -67t54.5 -26q24 0 48.5 13z" />
    <glyph glyph-name="uni030C.alt" horiz-adv-x="0" 
d="M-266 539q11 32 11 65q0 41 -11 72h44q9 -38 9 -70q0 -75 -49 -136l-34 14q19 23 30 55z" />
    <glyph glyph-name="uni0308.case" horiz-adv-x="0" 
d="M-346 783q-10 10 -10 25q0 14 10 24t25 10q14 0 24 -10t10 -24q0 -15 -10 -25t-24 -10q-15 0 -25 10zM-204 783q-10 10 -10 25q0 14 10 24t24 10q15 0 25 -10t10 -24q0 -15 -10 -25t-25 -10q-14 0 -24 10z" />
    <glyph glyph-name="uni0307.case" horiz-adv-x="0" 
d="M-275 783q-10 10 -10 25t10 25t25 10t25 -10t10 -25t-10 -25t-25 -10t-25 10z" />
    <glyph glyph-name="gravecomb.case" horiz-adv-x="0" 
d="M-349 831l43 18l128 -128h-52z" />
    <glyph glyph-name="acutecomb.case" horiz-adv-x="0" 
d="M-173 831l-119 -110h-52l128 128z" />
    <glyph glyph-name="uni0302.case" horiz-adv-x="0" 
d="M-227 850l98 -130h-49l-72 98l-72 -98h-49l98 130h46z" />
    <glyph glyph-name="uni030C.case" horiz-adv-x="0" 
d="M-326 847l71 -96l71 96h48l-98 -129h-42l-98 129h48z" />
    <glyph glyph-name="uni0306.case" horiz-adv-x="0" 
d="M-333.5 746.5q-32.5 31.5 -32.5 82.5h32q0 -37 23.5 -59.5t60.5 -22.5t60.5 22.5t23.5 59.5h32q0 -51 -32.5 -82.5t-83.5 -31.5t-83.5 31.5z" />
    <glyph glyph-name="uni030A.case" horiz-adv-x="0" 
d="M-317.5 751q-24.5 25 -24.5 64q0 38 24.5 62t62.5 24t62.5 -24t24.5 -62q0 -39 -24.5 -64t-62.5 -25t-62.5 25zM-216 775q15 15 15 40q0 23 -15 38t-39 15t-39 -15t-15 -38q0 -25 15 -40t39 -15t39 15z" />
    <glyph glyph-name="tildecomb.case" horiz-adv-x="0" 
d="M-376 780q20 21 56 21q23 0 44 -6t24 -7q36 -12 56 -12t30.5 11t10.5 31h37q0 -37 -20 -58.5t-56 -21.5q-28 0 -72 14q-33 11 -52 11t-30 -10t-11 -28h-37q0 34 20 55z" />
    <glyph glyph-name="uni0304.case" horiz-adv-x="0" 
d="M-130 613v-37h-250v37h250z" />
    <glyph glyph-name="uni0335.case" horiz-adv-x="0" 
d="M-482 326v44h384v-44h-384z" />
    <glyph glyph-name="uni0336.case" horiz-adv-x="0" 
d="M-28 554v-42h-726v42h726z" />
    <glyph glyph-name="uni0337.case" horiz-adv-x="0" 
d="M-89 457v-45l-334 -115v45z" />
    <glyph glyph-name="uni0338.case" horiz-adv-x="0" 
d="M-135 730l33 -24l-580 -750l-32 24z" />
    <glyph glyph-name="tonos.case" horiz-adv-x="611" 
d="M296 676l-29 -163h-36l22 163h43z" />
    <glyph glyph-name="brevecombcy" horiz-adv-x="0" 
 />
    </font>
</defs>
</svg>
