<?xml version="1.0" standalone="no"?>
<!DOCTYPE svg PUBLIC "-//W3C//DTD SVG 1.1//EN" "http://www.w3.org/Graphics/SVG/1.1/DTD/svg11.dtd" >
<svg xmlns="http://www.w3.org/2000/svg" xmlns:xlink="http://www.w3.org/1999/xlink" version="1.1">
<metadata></metadata>
<defs>
<font id="somfy_sansmedium" horiz-adv-x="1024" >
<font-face units-per-em="2048" ascent="1638" descent="-410" />
<missing-glyph horiz-adv-x="471" />
<glyph unicode="&#xfb01;" horiz-adv-x="1142" d="M23 745v228h190v57q0 178 95 266t278 88h309v-219h-301q-76 0 -110.5 -32.5t-34.5 -106.5v-53h563v-973h-236v745h-327v-745h-236v745h-190z" />
<glyph unicode="&#xfb02;" horiz-adv-x="1159" d="M23 754v219h190v63q0 174 93 261t263 87h117v-219h-117q-121 0 -120 -129v-63h215v-219h-215v-754h-236v754h-190zM791 0v1384h235v-1384h-235z" />
<glyph horiz-adv-x="0" />
<glyph unicode="&#xd;" horiz-adv-x="1046" />
<glyph unicode=" "  horiz-adv-x="471" />
<glyph unicode="&#x09;" horiz-adv-x="471" />
<glyph unicode="&#xa0;" horiz-adv-x="471" />
<glyph unicode="!" horiz-adv-x="624" d="M174 117q0 59 41 99t98 40q59 0 99.5 -40t40.5 -99q0 -57 -40 -98.5t-100 -41.5q-57 0 -98 41t-41 99zM178 1384h271l-29 -1026h-213z" />
<glyph unicode="&#x22;" horiz-adv-x="903" d="M170 887v497h223v-497h-223zM508 887v497h223v-497h-223z" />
<glyph unicode="#" horiz-adv-x="1433" d="M86 326l33 186h196l56 360h-193l31 187h188l49 325h197l-49 -325h352l49 325h197l-49 -325h203l-31 -187h-199l-55 -360h194l-30 -186h-191l-49 -326h-197l50 326h-353l-49 -326h-196l49 326h-203zM512 512h352l56 360h-353z" />
<glyph unicode="$" d="M43 1001q0 166 102.5 268.5t270.5 129.5v188h194v-182q133 -10 262 -64v-231q-106 63 -262 80v-412q102 -45 172 -91t116 -119.5t46 -182.5q0 -166 -90 -264t-244 -131v-236h-194v221q-98 6 -189.5 32t-158.5 63v223q72 -41 165 -68.5t183 -29.5v397q-117 49 -191.5 94 t-128 122t-53.5 193zM317 1018q1 -87 99 -148v297q-98 -43 -99 -149zM610 242q60 47 60 129q0 66 -60 118v-247z" />
<glyph unicode="%" horiz-adv-x="1605" d="M76 1077q0 94 44 169t121.5 118t174.5 43q96 0 174 -43t121 -118t43 -169t-43 -168.5t-121 -117.5t-174 -43q-97 0 -174.5 43t-121.5 117.5t-44 168.5zM242 295l1015 917l107 -122l-1016 -918zM258 1077q0 -66 45 -110.5t113 -44.5q67 0 111 45t44 110q0 68 -44 112 t-111 44q-68 0 -113 -44t-45 -112zM852 303q0 94 44 169t121 118t175 43q96 0 173 -43t121 -118t44 -169t-44 -169t-121 -118t-173 -43q-98 0 -175 43t-121 118t-44 169zM1034 303q0 -66 45 -111t113 -45t111 44.5t43 111.5q0 68 -43 112t-111 44t-113 -44t-45 -112z" />
<glyph unicode="&#x26;" horiz-adv-x="1480" d="M72 383q0 109 63.5 211t192.5 178q-82 84 -124 159t-42 154q0 102 51 176t135 111t180 37q94 0 178.5 -37t135.5 -109.5t51 -175.5q0 -82 -56.5 -173t-168.5 -169l313 -315q31 74 31 164q0 86 -29 170h252q31 -98 31 -195q0 -178 -101 -323l244 -246h-322l-88 88 q-176 -113 -409 -113q-172 0 -289 55.5t-173 148.5t-56 204zM332 406q0 -88 70.5 -149.5t197.5 -61.5q136 0 236 61l-363 369q-70 -41 -105.5 -99.5t-35.5 -119.5zM412 1075q0 -39 19.5 -74.5t55.5 -72.5l39 -39q135 88 136 186q0 55 -38 87t-89 32q-50 0 -86.5 -30.5 t-36.5 -88.5z" />
<glyph unicode="'" horiz-adv-x="563" d="M170 887v497h223v-497h-223z" />
<glyph unicode="(" horiz-adv-x="638" d="M96 614q0 260 83 532.5t231 440.5h229q-131 -166 -204 -438t-73 -535q0 -264 74 -535.5t209 -436.5h-233q-150 168 -233 439t-83 533z" />
<glyph unicode=")" horiz-adv-x="638" d="M-6 -358q135 165 208.5 436.5t73.5 535.5q0 262 -72.5 534.5t-203.5 438.5h229q147 -168 230.5 -440.5t83.5 -532.5q0 -262 -83 -533t-233 -439h-233z" />
<glyph unicode="*" horiz-adv-x="784" d="M57 1137q0 39 26 68.5t64 29.5q14 0 33 -6q35 -12 105 -58q14 -8 25.5 -15t19.5 -11q-8 41 -15 63q-18 66 -18 107q0 45 28.5 69.5t67.5 24.5t66.5 -24.5t27.5 -69.5q0 -41 -18 -107q-6 -23 -14 -63l49 31q45 29 75.5 44t57.5 15q41 0 66.5 -29.5t25.5 -68.5 q0 -29 -17.5 -53.5t-49.5 -34.5q-33 -12 -115 -17l-55 -4q-2 2 40 -35q61 -49 84 -82q20 -29 21 -57q0 -37 -29.5 -65.5t-66.5 -28.5q-47 0 -76 41q-20 29 -49 102l-23 55q-8 -16 -20 -49q-12 -31 -25.5 -60.5t-28.5 -47.5q-28 -41 -75 -41q-37 0 -67 27.5t-30 64.5 q0 31 21 59q18 27 51 54.5t39 31.5l37 31l-55 4q-84 4 -117 17q-33 10 -49.5 33.5t-16.5 54.5z" />
<glyph unicode="+" d="M66 582v192h350v348h192v-348h350v-192h-350v-349h-192v349h-350z" />
<glyph unicode="," horiz-adv-x="512" d="M25 -326q61 74 93 176.5t32 212.5q0 78 -17 156h242q12 -68 12 -139q0 -141 -43 -268t-117 -195z" />
<glyph unicode="-" d="M205 547v227h614v-227h-614z" />
<glyph unicode="." horiz-adv-x="512" d="M119 117q0 59 41 99t98 40t97 -41t40 -98t-40 -98.5t-97 -41.5t-98 41t-41 99z" />
<glyph unicode="/" horiz-adv-x="1105" d="M57 -164l736 1802h256l-736 -1802h-256z" />
<glyph unicode="0" d="M61 692q0 354 120 535.5t331 181.5t331 -181t120 -536q0 -354 -120 -535.5t-331 -181.5t-331 181.5t-120 535.5zM319 692q0 -248 49.5 -360.5t143.5 -112.5t143.5 112.5t49.5 360.5q0 250 -48.5 361.5t-144.5 111.5t-144.5 -111.5t-48.5 -361.5z" />
<glyph unicode="1" d="M141 1038v230l375 116h150v-1157h249v-227h-763v227h270v883z" />
<glyph unicode="2" d="M104 0v221q244 223 385.5 405.5t141.5 352.5q0 92 -55.5 139t-159.5 47q-86 0 -164 -21.5t-137 -62.5v265q160 63 334 63q209 0 324.5 -109.5t115.5 -306.5q0 -203 -127 -391t-313 -366h477v-236h-822z" />
<glyph unicode="3" d="M100 63v236q170 -88 359 -88q94 0 152.5 55.5t58.5 136.5q0 86 -56.5 142.5t-158.5 56.5h-197v232h195q90 0 141 50t51 124q0 76 -56.5 116.5t-146.5 40.5q-172 0 -292 -71v247q147 68 307 68q195 0 318.5 -103.5t123.5 -283.5q0 -98 -49 -175t-141 -124 q98 -43 156.5 -131t58.5 -201q0 -195 -123 -305.5t-338 -110.5q-199 0 -363 88z" />
<glyph unicode="4" d="M45 295v203l322 886h256l-328 -876h305v330h227v-330h142v-213h-142v-295h-227v295h-555z" />
<glyph unicode="5" d="M113 31v243q66 -29 139.5 -46t136.5 -17q123 0 194.5 57.5t71.5 159.5t-70.5 172t-189.5 70h-243v714h714v-235h-463v-275h54q139 0 242.5 -58t158.5 -159.5t55 -228.5q0 -139 -65.5 -241.5t-181 -157t-263.5 -54.5q-153 1 -290 56z" />
<glyph unicode="6" d="M70 657q0 264 77.5 432t204.5 243t281 75q119 0 219 -39v-250q-113 53 -217 53q-129 0 -213 -98t-103 -303q98 94 254 94q109 0 195 -50t136 -146.5t50 -227.5q0 -125 -49 -231.5t-146 -170t-239 -63.5q-129 0 -230.5 74t-160.5 227.5t-59 380.5zM315 561 q14 -176 71.5 -266t145.5 -90q84 0 131.5 64.5t47.5 170.5q0 100 -46.5 161t-129.5 61q-51 0 -110.5 -27t-109.5 -74z" />
<glyph unicode="7" d="M78 1141v243h868v-227q-225 -281 -343 -566.5t-118 -590.5h-274q0 291 128 601t327 540h-588z" />
<glyph unicode="8" d="M66 391q0 111 57 199t147 133q-86 43 -133 122t-47 177q0 178 118 282.5t304 104.5q188 0 305 -104.5t117 -282.5q0 -98 -47 -175t-133 -124q90 -43 147 -131t57 -201q0 -195 -118.5 -305.5t-327.5 -110.5q-207 0 -326.5 112t-119.5 304zM322 403q0 -82 52 -141t140 -59 t139.5 58t51.5 142q0 86 -50.5 142.5t-140.5 56.5t-141 -56.5t-51 -142.5zM344 1008q0 -74 46 -124t122 -50q78 0 123 50t45 124q0 76 -45 125t-123 49q-76 0 -122 -50.5t-46 -123.5z" />
<glyph unicode="9" d="M70 942q0 125 49 231.5t146 170t239 63.5q129 0 230.5 -73.5t160.5 -227.5t59 -381q0 -264 -77.5 -432t-204.5 -243t-281 -75q-119 0 -219 39v250q113 -53 217 -53q129 0 213 98.5t103 302.5q-98 -94 -254 -94q-109 0 -195 50t-136 146.5t-50 227.5zM313 942 q0 -100 46.5 -160.5t129.5 -60.5q51 0 110.5 26.5t109.5 73.5q-14 176 -71.5 266.5t-145.5 90.5q-84 0 -131.5 -64.5t-47.5 -171.5z" />
<glyph unicode=":" horiz-adv-x="512" d="M119 117q0 59 41 99t98 40t97 -41t40 -98t-40 -98.5t-97 -41.5t-98 41t-41 99zM119 860q0 59 41 99t98 40t97 -41t40 -98t-40 -98.5t-97 -41.5t-98 41t-41 99z" />
<glyph unicode=";" horiz-adv-x="512" d="M25 -326q61 74 93 176.5t32 212.5q0 78 -17 156h242q12 -68 12 -139q0 -141 -43 -268t-117 -195zM111 858q0 59 41 99t98 40t97 -41t40 -98t-40 -98.5t-97 -41.5t-98 41t-41 99z" />
<glyph unicode="&#x3c;" d="M98 543v192l828 412v-217l-609 -291l609 -291v-219z" />
<glyph unicode="=" d="M66 340v192h892v-192h-892zM66 824v192h892v-192h-892z" />
<glyph unicode="&#x3e;" d="M98 129v219l609 291l-609 291v217l828 -412v-192z" />
<glyph unicode="?" horiz-adv-x="890" d="M86 1145v229q129 35 238 35q137 0 246.5 -53t171 -154.5t61.5 -238.5q0 -102 -49 -194.5t-136.5 -149t-193.5 -56.5h-14v-205h-244v365h70q145 0 218.5 64.5t73.5 160.5q0 106 -75.5 161.5t-196.5 55.5q-86 0 -170 -20zM150 117q0 59 40.5 99t98.5 40q57 0 97 -41t40 -98 t-40 -98.5t-97 -41.5q-58 0 -98.5 41t-40.5 99z" />
<glyph unicode="@" horiz-adv-x="1646" d="M133 309q0 178 80 336t237.5 255t378.5 97q231 0 385 -84t226.5 -218t72.5 -283q0 -111 -39.5 -205t-117.5 -150.5t-189 -56.5q-135 0 -178 100q-33 -47 -86 -78.5t-119 -31.5q-88 0 -154.5 44t-102 116.5t-35.5 156.5q0 92 37.5 171t113.5 127t182 48q76 0 153 -21.5 t134 -60.5v-299q0 -98 72 -98q68 0 106.5 65.5t38.5 166.5q0 102 -50 199t-162.5 161.5t-287.5 64.5q-162 0 -277.5 -73.5t-174 -193.5t-58.5 -253t57.5 -247.5t175.5 -185.5t290 -71v-165q-234 0 -393.5 94t-237.5 245.5t-78 327.5zM678 317q0 -72 38 -123t99 -51 q49 0 83 31t52 70v221q-25 14 -57.5 22.5t-61.5 8.5q-72 0 -112.5 -51.5t-40.5 -127.5z" />
<glyph unicode="A" horiz-adv-x="1329" d="M18 0l478 1384h319l496 -1384h-277l-102 313h-563l-107 -313h-244zM449 549h405l-201 606z" />
<glyph unicode="B" horiz-adv-x="1241" d="M170 0v1384h426q223 0 361.5 -98t138.5 -270q0 -119 -64.5 -196t-161.5 -111q109 -23 184.5 -105t75.5 -213q0 -197 -152.5 -294t-402.5 -97h-405zM422 227h203q104 0 168.5 45t64.5 136q0 90 -66.5 136t-175.5 46h-194v-363zM422 817h176q102 0 162.5 45t60.5 129 q0 82 -57 124t-158 42h-184v-340z" />
<glyph unicode="C" horiz-adv-x="1234" d="M74 692q0 221 85 383t244.5 248t376.5 86q221 0 353 -74v-245q-131 75 -331 75h-5q-211 0 -330 -126t-119 -347t119 -347t330 -126q188 0 346 90v-246q-164 -88 -363 -88q-217 0 -376.5 86t-244.5 248t-85 383z" />
<glyph unicode="D" horiz-adv-x="1423" d="M170 0v1384h430q227 0 395 -77.5t260.5 -233t92.5 -381.5q0 -225 -92.5 -380.5t-260.5 -233.5t-395 -78h-430zM424 236h176q223 0 348 109.5t125 348.5q0 238 -125 346.5t-348 108.5h-176v-913z" />
<glyph unicode="E" horiz-adv-x="1153" d="M170 0v1384h817v-235h-565v-324h545v-235h-545v-354h571v-236h-823z" />
<glyph unicode="F" horiz-adv-x="1130" d="M170 0v1384h801v-235h-549v-363h520v-235h-520v-551h-252z" />
<glyph unicode="G" horiz-adv-x="1576" d="M74 692q0 219 94 381t263 249t388 87q221 0 352 -74v-245q-131 75 -330 75h-5q-141 0 -252 -55t-173.5 -161.5t-62.5 -256.5q0 -238 124 -355.5t314 -117.5q106 0 199.5 39t150 110.5t56.5 163.5v23h-375v244h627v-799h-221v170q-68 -88 -189 -141.5t-262 -53.5 q-193 0 -351.5 80t-252.5 242t-94 395z" />
<glyph unicode="H" horiz-adv-x="1523" d="M170 0v1384h252v-569h678v569h252v-1384h-252v580h-678v-580h-252z" />
<glyph unicode="I" horiz-adv-x="593" d="M170 0v1384h252v-1384h-252z" />
<glyph unicode="J" horiz-adv-x="784" d="M86 0v233h135q80 0 121 41t41 134v976h254v-978q0 -215 -105.5 -310.5t-273.5 -95.5h-172z" />
<glyph unicode="K" horiz-adv-x="1417" d="M170 0v1384h252v-555h149l373 555h301l-442 -636l235 -365q55 -84 104.5 -115.5t125.5 -31.5h84v-236h-101q-154 0 -254 54.5t-188 195.5l-219 344h-168v-594h-252z" />
<glyph unicode="L" horiz-adv-x="1081" d="M170 0v1384h252v-1148h573v-236h-825z" />
<glyph unicode="M" horiz-adv-x="1826" d="M170 0v1384h281l462 -897l461 897h281v-1384h-252v926l-381 -727h-217l-383 727v-926h-252z" />
<glyph unicode="N" horiz-adv-x="1513" d="M170 0v1384h221l707 -970v970h245v-1384h-219l-708 971v-971h-246z" />
<glyph unicode="O" horiz-adv-x="1570" d="M74 692q0 219 87 381t247.5 249t377.5 87t377 -87t247 -249t87 -381t-87 -380.5t-246.5 -249t-377.5 -87.5q-217 0 -377.5 87.5t-247.5 249t-87 380.5zM348 692q0 -219 116 -346t322 -127q205 0 321 127t116 346t-116 346t-321 127q-207 0 -322.5 -127t-115.5 -346z" />
<glyph unicode="P" horiz-adv-x="1212" d="M170 0v1384h387q264 0 411.5 -115.5t147.5 -334.5q0 -221 -148.5 -337t-410.5 -116h-135v-481h-252zM422 717h151q123 0 197 52t74 165t-74 164t-197 51h-151v-432z" />
<glyph unicode="Q" horiz-adv-x="1570" d="M74 692q0 219 87 381t247.5 249t377.5 87t377 -87t247 -249t87 -381q0 -266 -128 -447.5t-355 -240.5q35 -76 119 -110.5t198 -34.5v-236q-227 0 -374.5 89t-211.5 263q-205 8 -356 98.5t-233 249t-82 369.5zM348 692q0 -219 116 -346t322 -127q205 0 321 127t116 346 t-116 346t-321 127q-207 0 -322.5 -127t-115.5 -346z" />
<glyph unicode="R" horiz-adv-x="1349" d="M170 0v1384h436q154 0 276 -53t190.5 -152.5t68.5 -234.5q0 -137 -65.5 -238.5t-186.5 -154.5l108 -168q55 -86 97.5 -116.5t115.5 -30.5h99v-236h-99q-150 0 -240.5 54.5t-185.5 197.5l-155 244h-37h-170v-496h-252zM422 731h188q131 0 193.5 53.5t62.5 159.5 q0 100 -67.5 152.5t-188.5 52.5h-188v-418z" />
<glyph unicode="S" horiz-adv-x="1077" d="M90 1001q0 131 65.5 223.5t177 138.5t249.5 46q176 0 338 -68v-231q-68 39 -154 60.5t-166 21.5q-106 0 -170.5 -44t-64.5 -130q0 -53 32.5 -91t81.5 -65.5t137 -64.5q121 -51 195 -96.5t127 -122t53 -193.5q0 -207 -136 -308.5t-353 -101.5q-107 0 -209.5 26t-177.5 69 v223q76 -45 174 -71.5t192 -26.5q109 0 172.5 44t63.5 132q0 53 -33 91t-82 65.5t-137 64.5q-119 49 -193.5 94t-128 122t-53.5 193z" />
<glyph unicode="T" horiz-adv-x="1204" d="M51 1149v235h1102v-235h-424v-1149h-254v1149h-424z" />
<glyph unicode="U" horiz-adv-x="1404" d="M150 528v856h251v-856q0 -154 83 -231.5t218 -77.5t217 78t82 231v856h254v-856q0 -174 -71.5 -299t-196.5 -189.5t-285 -64.5q-159 0 -285 64.5t-196.5 189.5t-70.5 299z" />
<glyph unicode="V" horiz-adv-x="1396" d="M31 1384h276l391 -1138l392 1138h276l-489 -1384h-357z" />
<glyph unicode="W" horiz-adv-x="2084" d="M41 1384h260l274 -1114l289 1114h357l288 -1114l275 1114h260l-344 -1384h-350l-308 1108l-307 -1108h-350z" />
<glyph unicode="X" horiz-adv-x="1327" d="M72 1384h311l289 -456l286 456h289l-430 -688l438 -696h-311l-289 459l-290 -459h-291l436 690z" />
<glyph unicode="Y" horiz-adv-x="1329" d="M45 1384h285l336 -591l335 591h283l-493 -835v-549h-252v549z" />
<glyph unicode="Z" horiz-adv-x="1277" d="M98 0v219l723 930h-710v235h1032v-219l-721 -929h758v-236h-1082z" />
<glyph unicode="[" horiz-adv-x="669" d="M170 -358v1945h432v-213h-205v-1517h205v-215h-432z" />
<glyph unicode="\" horiz-adv-x="1105" d="M57 1638h256l736 -1802h-256z" />
<glyph unicode="]" horiz-adv-x="669" d="M66 -143h204v1517h-204v213h434v-1945h-434v215z" />
<glyph unicode="^" horiz-adv-x="1263" d="M61 487l451 897h240l450 -897h-274l-295 594l-297 -594h-275z" />
<glyph unicode="_" horiz-adv-x="1583" d="M41 0h1501v-197h-1501v197z" />
<glyph unicode="`" horiz-adv-x="1228" d="M381 1382l252 45l215 -342h-211z" />
<glyph unicode="a" horiz-adv-x="1011" d="M72 250q0 152 105.5 240t307.5 98l158 8v41q0 72 -62.5 107.5t-162.5 35.5q-63 0 -129 -14t-119 -41l-2 219q59 25 137 39t156 14q174 0 296 -89t122 -271v-637h-222v98q-51 -57 -128.5 -90t-176.5 -33q-117 0 -198.5 76t-81.5 199zM322 281q0 -47 29.5 -75t80.5 -28 q57 0 113.5 30t97.5 77v133l-147 -8q-88 -4 -131 -39t-43 -90z" />
<glyph unicode="b" horiz-adv-x="1101" d="M133 0v1384h236v-473q43 43 104.5 64.5t128.5 21.5q111 0 209 -55t160.5 -170t62.5 -285q0 -174 -58 -288.5t-151.5 -168t-201.5 -53.5q-76 0 -144.5 27t-109.5 72v-76h-236zM369 248q33 -31 82 -48.5t100 -17.5q106 0 169.5 76t63.5 229q0 154 -63.5 230t-169.5 76 q-51 0 -100.5 -17.5t-81.5 -48.5v-479z" />
<glyph unicode="c" horiz-adv-x="937" d="M66 487q0 244 134 377t357 133q76 0 134.5 -12t115.5 -39v-229q-61 33 -115.5 47t-118.5 14q-117 0 -186.5 -80t-69.5 -213q0 -131 67 -210.5t187 -79.5q139 0 260 73v-229q-117 -63 -282 -64q-227 0 -355 138.5t-128 373.5z" />
<glyph unicode="d" horiz-adv-x="1101" d="M66 485q0 182 62 297t158.5 165t207.5 50q72 0 137 -21.5t102 -55.5v464h236v-1384h-236v76q-45 -45 -111.5 -73t-142.5 -28q-110 0 -203.5 53.5t-151.5 168t-58 288.5zM317 485q0 -154 63.5 -229.5t170.5 -75.5q51 0 100 17.5t82 48.5v479q-33 31 -82 48.5t-100 17.5 q-106 0 -170 -76t-64 -230z" />
<glyph unicode="e" horiz-adv-x="1034" d="M66 487q0 238 122.5 374t329.5 136q129 0 224.5 -56t147.5 -154.5t52 -221.5v-131h-623q14 -121 89 -180t196 -59q76 0 158 20.5t153 54.5v-221q-63 -35 -148 -54.5t-179 -19.5q-240 0 -381 132.5t-141 379.5zM328 606h379q0 74 -53.5 130.5t-135.5 56.5 q-74 0 -123 -46.5t-67 -140.5z" />
<glyph unicode="f" horiz-adv-x="747" d="M23 754v219h190v57q0 176 92 265t264 89h138v-219h-129q-66 0 -97.5 -32.5t-31.5 -106.5v-53h235v-219h-235v-754h-236v754h-190z" />
<glyph unicode="g" horiz-adv-x="1040" d="M4 -119q0 94 67.5 158.5t170.5 87.5q-51 23 -78 57.5t-27 75.5q0 37 23.5 74t66.5 63q-57 47 -87.5 112.5t-30.5 143.5q0 98 48 177t134 123t196 44q106 0 193 -43q51 51 115.5 83t136.5 32h61v-195h-61q-76 0 -125 -30q55 -84 55 -191q0 -96 -47 -174t-132 -122 t-196 -44q-70 0 -141 21q-16 -23 -16 -43q0 -41 49 -58.5t153 -23.5q436 -31 437 -279q0 -147 -140.5 -230t-355.5 -83q-201 0 -335 69.5t-134 194.5zM250 -80q0 -57 68.5 -86t170.5 -29q100 0 168 29t68 86q0 59 -66.5 88t-171.5 29q-102 0 -169.5 -28.5t-67.5 -88.5z M334 653q0 -70 42 -111.5t111 -41.5q70 0 111 42t41 111q0 72 -41 115t-111 43t-111.5 -43t-41.5 -115z" />
<glyph unicode="h" horiz-adv-x="1140" d="M133 0v1384h236v-507q51 59 124.5 89.5t155.5 30.5q94 0 176 -41t132.5 -124.5t50.5 -202.5v-629h-236v592q0 86 -57.5 136t-136.5 50q-63 0 -120 -32.5t-89 -96.5v-649h-236z" />
<glyph unicode="i" horiz-adv-x="501" d="M113 1243q0 57 41 97t98 40t97 -40t40 -97t-40 -98t-97 -41q-59 0 -99 41t-40 98zM133 0v973h236v-973h-236z" />
<glyph unicode="j" horiz-adv-x="501" d="M-84 -131h57q160 0 160 182v922h236v-922q0 -211 -105.5 -310t-290.5 -99h-57v227zM113 1243q0 57 41 97t98 40t97 -40t40 -97t-40 -98t-97 -41q-59 0 -99 41t-40 98z" />
<glyph unicode="k" horiz-adv-x="1087" d="M133 0v1384h236v-725h125l247 314h258l-335 -426l112 -234q27 -55 62.5 -78.5t97.5 -23.5h86v-211h-125q-113 0 -190.5 36t-124.5 138l-125 266h-88v-440h-236z" />
<glyph unicode="l" horiz-adv-x="501" d="M133 0v1384h236v-1384h-236z" />
<glyph unicode="m" horiz-adv-x="1738" d="M133 0v973h213l6 -105q49 63 125 96t160 33q94 0 175 -41t126 -118q43 78 126 118.5t179 40.5q94 0 177 -38.5t134.5 -118.5t51.5 -197v-643h-236v588q0 92 -51 141t-125 49q-57 0 -114.5 -32.5t-92.5 -90.5v-12v-643h-235v588q0 90 -51.5 140t-125.5 50 q-59 0 -115.5 -31.5t-90.5 -87.5v-659h-236z" />
<glyph unicode="n" horiz-adv-x="1140" d="M133 0v973h219v-117q51 68 130 104.5t167 36.5q94 0 176 -41t132.5 -124.5t50.5 -202.5v-629h-236v592q0 86 -56.5 136t-135.5 50q-66 0 -122.5 -32.5t-88.5 -96.5v-649h-236z" />
<glyph unicode="o" horiz-adv-x="1198" d="M66 487q0 147 68.5 263t189 181.5t274.5 65.5t274.5 -65.5t189 -181t68.5 -263.5q0 -147 -68.5 -264t-189 -182.5t-274.5 -65.5t-274.5 65.5t-189 182.5t-68.5 264zM305 487q0 -129 82 -213t211 -84t212 84t83 213t-83 212t-212 83t-211 -83t-82 -212z" />
<glyph unicode="p" horiz-adv-x="1101" d="M133 -358v1331h219v-76q45 49 111.5 74.5t138.5 25.5q111 0 209 -55t160.5 -170t62.5 -285q0 -174 -58 -288.5t-151.5 -168t-201.5 -53.5q-74 0 -141.5 24t-112.5 60v-419h-236zM369 248q33 -31 82 -48.5t100 -17.5q233 0 233 305t-233 306q-51 0 -100.5 -17.5 t-81.5 -48.5v-479z" />
<glyph unicode="q" horiz-adv-x="1101" d="M66 485q0 174 58 289t151.5 168t203.5 53q76 0 143.5 -26.5t110.5 -73.5v78h236v-1331h-236v434q-45 -45 -111.5 -73t-142.5 -28q-111 0 -204 53.5t-151 168t-58 288.5zM317 485q0 -154 63.5 -229.5t170.5 -75.5q51 0 100 17.5t82 48.5v479q-33 31 -82 48.5t-100 17.5 q-106 0 -170 -76t-64 -230z" />
<glyph unicode="r" horiz-adv-x="819" d="M133 0v973h236v-144q59 80 153 120t215 42v-227q-252 0 -368 -164v-600h-236z" />
<glyph unicode="s" horiz-adv-x="884" d="M88 694q0 145 105.5 224t269.5 79q139 0 264 -55v-199q-55 25 -119.5 41.5t-120.5 16.5q-66 0 -106.5 -24.5t-40.5 -74.5q0 -39 37 -62.5t123 -57.5q90 -33 150.5 -67t104.5 -94.5t44 -154.5q0 -141 -107.5 -216t-269.5 -75q-177 0 -322 84v199q53 -39 141.5 -62.5 t166.5 -23.5q139 0 139 88q0 43 -40 68.5t-126 56.5q-90 35 -148.5 66.5t-101.5 91t-43 151.5z" />
<glyph unicode="t" horiz-adv-x="778" d="M23 754v219h190v284h236v-284h235v-219h-235v-398q0 -137 114 -137h139v-219h-145q-344 0 -344 340v414h-190z" />
<glyph unicode="u" horiz-adv-x="1120" d="M133 365v608h236v-594q0 -90 42 -137t121 -47q57 0 118 27.5t102 68.5v682h235v-973h-219v96q-70 -59 -139.5 -90t-159.5 -31q-164 0 -250 100.5t-86 289.5z" />
<glyph unicode="v" horiz-adv-x="1056" d="M45 973h256l231 -780l234 780h246l-320 -973h-338z" />
<glyph unicode="w" horiz-adv-x="1593" d="M53 973h252l162 -742l176 742h309l174 -742l164 742h250l-240 -973h-335l-168 713l-166 -713h-336z" />
<glyph unicode="x" horiz-adv-x="1003" d="M23 0l331 492l-325 481h293l190 -283l193 283h264l-326 -475l338 -498h-293l-203 297l-198 -297h-264z" />
<glyph unicode="y" horiz-adv-x="1011" d="M23 973h260l229 -627l217 627h252l-334 -918q-55 -152 -117.5 -240.5t-152.5 -130.5t-225 -42h-76v227h76q86 0 142 35t99 121z" />
<glyph unicode="z" horiz-adv-x="999" d="M106 745v228h775v-213l-463 -533h473v-227h-780v211l462 534h-467z" />
<glyph unicode="{" horiz-adv-x="645" d="M55 516v197q88 10 139.5 45t51.5 112q0 23 -2 35l-41 291q-6 41 -6 74q0 145 80.5 231t222.5 86h104v-215h-94q-47 0 -73.5 -28.5t-26.5 -86.5q0 -25 2 -36l41 -299q4 -41 4 -58q0 -197 -215 -250q215 -53 215 -249q0 -16 -4 -58l-41 -299q-2 -12 -2 -37 q0 -57 26.5 -85.5t73.5 -28.5h94v-215h-104q-142 0 -222.5 86t-80.5 231q0 33 6 74l41 291q2 12 2 34q0 78 -51.5 113t-139.5 45z" />
<glyph unicode="|" horiz-adv-x="583" d="M170 -410v2048h244v-2048h-244z" />
<glyph unicode="}" horiz-adv-x="692" d="M86 -143h96q45 0 73 28.5t28 83.5q0 10 -4 39l-41 299q-4 41 -5 55q0 195 216 252q-215 57 -216 252q0 14 5 56l41 299q4 29 4 39q0 55 -28 83.5t-73 28.5h-96v215h107q141 0 222 -86t81 -231q0 -33 -7 -74l-40 -291q-2 -12 -3 -35q0 -78 51.5 -112.5t137.5 -44.5v-197 q-86 -10 -137.5 -45t-51.5 -113q0 -23 3 -34l40 -291q6 -41 7 -74q0 -145 -81 -231t-222 -86h-107v215z" />
<glyph unicode="~" horiz-adv-x="1183" d="M96 471q0 147 65.5 238.5t194.5 91.5q47 0 104.5 -17.5t157.5 -56.5q74 -29 121 -44t80 -15q92 0 92 133h174q0 -147 -67.5 -238.5t-196.5 -91.5q-47 0 -109.5 19.5t-150.5 54.5q-80 31 -125 45t-78 14q-88 0 -88 -133h-174z" />
<glyph unicode="&#xa1;" horiz-adv-x="624" d="M174 858q0 59 41 99t98 40q60 0 100 -39.5t40 -99.5q0 -57 -41 -97t-99 -40q-57 0 -98 40t-41 97zM178 -410l29 1026h213l29 -1026h-271z" />
<glyph unicode="&#xa2;" d="M129 694q0 207 97.5 335t267.5 163v254h196v-244q92 -8 178 -49v-229q-59 33 -114.5 47t-118.5 14q-117 0 -185.5 -80t-68.5 -213q0 -131 66.5 -211t185.5 -80q141 0 260 74v-229q-84 -47 -203 -60v-247h-196v254q-174 35 -269.5 167t-95.5 334z" />
<glyph unicode="&#xa3;" d="M109 596v168h120q-25 84 -37 141.5t-12 104.5q0 195 125 297t324 102q141 0 280 -57v-258q-135 72 -256 71q-98 0 -152.5 -47t-54.5 -139q0 -45 12.5 -93t37.5 -122h399v-168h-350q8 -57 8 -86q0 -78 -37 -149.5t-96 -124.5h524v-236h-780v211q123 139 123 287 q0 47 -13 98h-165z" />
<glyph unicode="&#xa4;" d="M94 311l105 121q-66 96 -66 240q0 141 64 239l-103 121l129 119l105 -123q86 43 198 43q113 0 199 -43l104 123l129 -119l-102 -123q61 -96 62 -237q-1 -140 -64 -238l104 -123l-129 -118l-106 124q-82 -43 -197 -43q-113 0 -198 43l-105 -124zM379 672q0 -78 38 -123 t109 -45q72 0 111 45t39 123q0 80 -39 125t-111 45t-109.5 -45t-37.5 -125z" />
<glyph unicode="&#xa5;" d="M61 1384h261l194 -565l193 565h260l-275 -679h217v-166h-270v-113h270v-166h-270v-260h-252v260h-270v166h270v113h-270v166h217z" />
<glyph unicode="&#xa6;" horiz-adv-x="583" d="M170 -410v820h244v-820h-244zM170 819v819h244v-819h-244z" />
<glyph unicode="&#xa7;" horiz-adv-x="1087" d="M72 899q0 141 68.5 258t189.5 184.5t270 67.5q90 0 175 -17.5t147 -45.5v-242q-51 29 -118 47t-126 18q-55 0 -89 -22.5t-34 -63.5q0 -49 48 -126.5t157 -229.5q82 -117 132 -196.5t87 -181t37 -208.5q0 -139 -71 -260t-192.5 -192.5t-271.5 -71.5q-86 0 -172 18.5 t-151 47.5v241q55 -31 121.5 -49t126.5 -18q59 0 91.5 21.5t32.5 64.5q0 57 -34.5 118.5t-122.5 178.5l-78 108q-74 104 -119 180t-74.5 169.5t-29.5 201.5zM285 924q0 -94 50 -196.5t152 -254.5q2 -4 29 -41q109 -158 166 -265.5t57 -197.5q0 -25 -2 -35q25 29 44.5 74 t19.5 92q0 92 -47 184.5t-166 270.5q-10 12 -16.5 22.5t-12.5 18.5q-109 160 -164 263.5t-55 195.5q0 23 12 55q-29 -31 -48 -82t-19 -104z" />
<glyph unicode="&#xa8;" horiz-adv-x="1228" d="M301 1257q0 53 36.5 90t90.5 37q53 0 91 -36.5t38 -90.5q0 -53 -38 -91t-91 -38q-54 0 -90.5 38t-36.5 91zM671 1257q0 53 38 90t91 37t90 -36.5t37 -90.5q0 -53 -36.5 -91t-90.5 -38q-53 0 -91 38t-38 91z" />
<glyph unicode="&#xa9;" horiz-adv-x="1677" d="M121 688q0 205 92 372t256 262t369 95t369.5 -95t256.5 -262t92 -372t-92 -369.5t-257 -258t-369 -93.5q-205 0 -369 93.5t-256 258t-92 369.5zM264 688q0 -164 74 -294t205 -203.5t295 -73.5q163 0 294.5 73.5t205 204.5t73.5 293q0 164 -73.5 296t-205 208t-294.5 76 q-164 0 -295 -76t-205 -208t-74 -296zM438 692q0 137 58.5 230.5t156 138.5t211.5 45q143 0 236 -49v-176q-94 55 -213 55q-121 0 -184.5 -65.5t-63.5 -178.5q0 -111 63.5 -173t184.5 -62q63 0 116.5 17.5t110.5 53.5v-184q-109 -63 -235 -63q-209 0 -325 111.5t-116 299.5z " />
<glyph unicode="&#xaa;" horiz-adv-x="704" d="M72 922q0 96 67.5 153.5t198.5 65.5l98 6v18q0 43 -39 62.5t-102 19.5q-92 0 -160 -33v160q90 33 193 33q116 0 198 -60.5t82 -181.5v-407h-159v57q-70 -74 -193 -74q-76 0 -130 50.5t-54 130.5zM254 944q0 -25 16.5 -39t44.5 -14q33 0 65 15.5t56 41.5v70l-90 -4 q-45 -2 -68.5 -20.5t-23.5 -49.5z" />
<glyph unicode="&#xab;" horiz-adv-x="985" d="M106 545q0 125 51.5 237.5t145.5 190.5h223q-92 -88 -142 -199.5t-50 -228.5q0 -115 50 -226.5t142 -199.5h-223q-94 78 -145.5 190.5t-51.5 235.5zM493 545q0 125 51.5 237.5t145.5 190.5h223q-92 -88 -142 -199.5t-50 -228.5q0 -115 50 -226.5t142 -199.5h-223 q-94 78 -145.5 190.5t-51.5 235.5z" />
<glyph unicode="&#xac;" d="M66 582v192h892v-541h-184v349h-708z" />
<glyph unicode="&#xad;" d="M205 547v227h614v-227h-614z" />
<glyph unicode="&#xae;" horiz-adv-x="1019" d="M72 967q0 129 56 229t155.5 156.5t224.5 56.5q127 0 227.5 -56.5t156.5 -156.5t56 -229q0 -127 -56 -227.5t-156.5 -156t-227.5 -55.5q-125 0 -224.5 55.5t-155.5 156t-56 227.5zM184 967q0 -145 90.5 -239.5t233.5 -94.5q145 0 237.5 94t92.5 240q0 147 -92.5 241.5 t-237.5 94.5q-143 0 -233.5 -94.5t-90.5 -241.5zM344 760v426h201q74 0 115.5 -43t41.5 -105q0 -39 -21.5 -73.5t-59.5 -55.5l100 -149h-133l-80 127h-43v-127h-121zM465 989h59q58 0 58 47q0 20 -15.5 33.5t-42.5 13.5h-59v-94z" />
<glyph unicode="&#xaf;" horiz-adv-x="1228" d="M320 1135v165h590v-165h-590z" />
<glyph unicode="&#xb0;" horiz-adv-x="774" d="M72 1094q4 139 91 227t224 88q135 0 224 -88t91 -227t-87 -228.5t-228 -89.5t-228 89t-87 229zM248 1090q0 -61 39 -99.5t100 -38.5q62 0 100.5 39t38.5 103q-2 61 -41 100t-98 39q-63 0 -101 -40t-38 -103z" />
<glyph unicode="&#xb1;" d="M66 0v195h892v-195h-892zM66 582v192h346v307h198v-307h348v-192h-348v-308h-198v308h-346z" />
<glyph unicode="&#xb2;" horiz-adv-x="598" d="M45 1171v183q109 45 207 45q129 0 212 -73t83 -202q0 -104 -67.5 -201.5t-176.5 -195.5h264v-174h-518v162q135 104 221 208.5t86 190.5q0 51 -38.5 78t-100.5 27q-92 0 -172 -48z" />
<glyph unicode="&#xb3;" horiz-adv-x="577" d="M25 592v172q109 -51 192 -51q53 0 86 26.5t33 75.5q0 41 -34 68.5t-89 27.5h-92v142h96q51 0 78 24.5t27 61.5q0 41 -32 64.5t-81 23.5q-70 0 -152 -39v174q94 37 189 37q123 0 197.5 -59.5t74.5 -170.5q0 -53 -28.5 -100t-77.5 -70q55 -27 87.5 -77t32.5 -115 q0 -121 -76.5 -194.5t-211.5 -73.5q-119 0 -219 53z" />
<glyph unicode="&#xb4;" horiz-adv-x="1228" d="M380 1085l216 342l251 -45l-256 -297h-211z" />
<glyph unicode="&#xb5;" horiz-adv-x="1118" d="M166 -358v1331h235v-594q0 -90 42 -137t122 -47q57 0 117.5 27.5t101.5 68.5v682h236v-973h-219v96q-47 -53 -118 -84.5t-142 -31.5q-92 0 -156 57l16 -395h-235z" />
<glyph unicode="&#xb6;" horiz-adv-x="1695" d="M88 692q0 215 85 371t245 238.5t383 82.5h839v-227h-163v-930h163v-227h-839q-223 0 -383 83t-245 238.5t-85 370.5zM987 227h256v930h-256v-930z" />
<glyph unicode="&#xb7;" d="M375 711q0 59 41 99t98 40t97 -41t40 -98t-40 -98.5t-97 -41.5t-98 41t-41 99z" />
<glyph unicode="&#xb8;" horiz-adv-x="1228" d="M449 -246q45 -23 94 -22q33 0 54.5 12t21.5 33q0 23 -23 35t-53 12q-27 0 -35 -4l20 98q10 2 25.5 4t36.5 2q82 0 138 -38t56 -109q0 -76 -58 -118t-142 -42q-35 0 -73 7t-62 20v110z" />
<glyph unicode="&#xb9;" horiz-adv-x="487" d="M37 1133v168l254 83h108v-831h-178v633z" />
<glyph unicode="&#xba;" horiz-adv-x="849" d="M76 1075q0 94 45 170t125 119t178 43q100 0 180 -43t125 -119t45 -170q0 -96 -45 -172t-125 -119t-180 -43q-98 0 -178 43t-125 119t-45 172zM250 1075q0 -76 49 -126t125 -50q78 0 127 49t49 127q0 76 -50 125t-126 49t-125 -49t-49 -125z" />
<glyph unicode="&#xbb;" horiz-adv-x="985" d="M72 119q92 88 142 199.5t50 226.5t-50 227.5t-142 200.5h223q94 -76 144 -189.5t50 -238.5t-50 -237.5t-144 -188.5h-223zM459 119q92 88 142 199.5t50 226.5q0 117 -50 228.5t-142 199.5h223q94 -78 145.5 -190.5t51.5 -237.5q0 -123 -51.5 -235.5t-145.5 -190.5h-223z " />
<glyph unicode="&#xbc;" horiz-adv-x="1724" d="M37 1133v168l254 83h108v-831h-178v633zM246 295l1015 917l107 -122l-1016 -918zM1051 182v146l262 503h189l-250 -481h180v158h162v-158h90v-168h-90v-182h-162v182h-381z" />
<glyph unicode="&#xbd;" horiz-adv-x="1740" d="M37 1133v168l254 83h108v-831h-178v633zM246 295l1015 917l107 -122l-1016 -918zM1188 618v183q109 45 207 45q129 0 212 -73t83 -202q0 -104 -67.5 -201.5t-176.5 -195.5h264v-174h-518v162q135 104 221 208.5t86 190.5q0 51 -38.5 78t-100.5 27q-92 0 -172 -48z" />
<glyph unicode="&#xbe;" horiz-adv-x="1785" d="M25 592v172q109 -51 192 -51q53 0 86 26.5t33 75.5q0 41 -34 68.5t-89 27.5h-92v142h96q51 0 78 24.5t27 61.5q0 41 -32 64.5t-81 23.5q-70 0 -152 -39v174q94 37 189 37q123 0 197.5 -59.5t74.5 -170.5q0 -53 -28.5 -100t-77.5 -70q55 -27 87.5 -77t32.5 -115 q0 -121 -76.5 -194.5t-211.5 -73.5q-119 0 -219 53zM306 295l1015 917l107 -122l-1016 -918zM1112 182v146l262 503h189l-250 -481h180v158h162v-158h90v-168h-90v-182h-162v182h-381z" />
<glyph unicode="&#xbf;" horiz-adv-x="827" d="M35 10q0 102 49 194.5t136 149t194 56.5h16v204h242v-364h-70q-145 0 -219 -64.5t-74 -160.5q0 -106 77 -162t198 -56q86 0 168 21v-229q-129 -35 -236 -35q-137 0 -246.5 53t-172 154.5t-62.5 238.5zM414 856q0 59 40 99t97 40q59 0 99 -40t40 -99q0 -57 -40 -98 t-99 -41q-57 0 -97 40t-40 99z" />
<glyph unicode="&#xc0;" horiz-adv-x="1329" d="M18 0l478 1384h319l496 -1384h-277l-102 313h-563l-107 -313h-244zM276 1718l262 62l250 -299h-237zM449 549h405l-201 606z" />
<glyph unicode="&#xc1;" horiz-adv-x="1329" d="M18 0l478 1384h319l496 -1384h-277l-102 313h-563l-107 -313h-244zM449 549h405l-201 606zM547 1481l248 299l264 -62l-276 -237h-236z" />
<glyph unicode="&#xc2;" horiz-adv-x="1329" d="M18 0l478 1384h319l496 -1384h-277l-102 313h-563l-107 -313h-244zM332 1464l221 322h222l221 -322h-228l-104 172l-104 -172h-228zM449 549h405l-201 606z" />
<glyph unicode="&#xc3;" horiz-adv-x="1329" d="M18 0l478 1384h319l496 -1384h-277l-102 313h-563l-107 -313h-244zM295 1477q0 100 56.5 176t158.5 76q61 0 160 -25q16 -2 55 -10t68 -8q74 0 74 86h165q0 -117 -55 -190t-164 -73q-61 0 -176 27q-82 16 -102 16q-39 0 -56.5 -20.5t-17.5 -54.5h-166zM449 549h405 l-201 606z" />
<glyph unicode="&#xc4;" horiz-adv-x="1329" d="M18 0l478 1384h319l496 -1384h-277l-102 313h-563l-107 -313h-244zM351 1653q0 53 36.5 91t90.5 38q53 0 91 -38t38 -91t-38 -90t-91 -37q-54 0 -90.5 36.5t-36.5 90.5zM449 549h405l-201 606zM721 1653q0 53 38 91t91 38t90 -38t37 -91t-36.5 -90t-90.5 -37 q-53 0 -91 36.5t-38 90.5z" />
<glyph unicode="&#xc5;" horiz-adv-x="1329" d="M18 0l478 1384h319l496 -1384h-277l-102 313h-563l-107 -313h-244zM430 1700q0 100 65.5 164.5t168.5 64.5q102 0 167.5 -64.5t65.5 -164.5q0 -104 -65.5 -170t-167.5 -66q-103 0 -168.5 65.5t-65.5 170.5zM449 549h405l-201 606zM592 1700q0 -33 19.5 -54.5t52.5 -21.5 t52 21.5t19 54.5q0 31 -19 50t-52 19t-52.5 -19t-19.5 -50z" />
<glyph unicode="&#xc6;" horiz-adv-x="1880" d="M72 0l491 1384h1149v-235h-563v-324h543v-235h-543v-354h569v-236h-823v313h-449l-110 -313h-264zM530 549h365v600h-152z" />
<glyph unicode="&#xc7;" horiz-adv-x="1234" d="M74 692q0 221 85 383t244.5 248t376.5 86q221 0 353 -74v-245q-133 76 -336 75q-211 0 -330 -126t-119 -347t119 -347t330 -126q188 0 346 90v-246q-164 -88 -363 -88q-217 0 -376.5 86t-244.5 248t-85 383zM549 -246q45 -23 94 -22q33 0 54.5 12t21.5 33q0 23 -23 35 t-53 12q-27 0 -35 -4l20 98q10 2 25.5 4t36.5 2q82 0 138 -38t56 -109q0 -76 -58 -118t-142 -42q-35 0 -73 7t-62 20v110z" />
<glyph unicode="&#xc8;" horiz-adv-x="1153" d="M170 0v1384h817v-235h-565v-324h545v-235h-545v-354h571v-236h-823zM188 1718l262 62l250 -299h-237z" />
<glyph unicode="&#xc9;" horiz-adv-x="1153" d="M170 0v1384h817v-235h-565v-324h545v-235h-545v-354h571v-236h-823zM461 1481l248 299l264 -62l-276 -237h-236z" />
<glyph unicode="&#xca;" horiz-adv-x="1153" d="M170 0v1384h817v-235h-565v-324h545v-235h-545v-354h571v-236h-823zM246 1464l221 322h222l221 -322h-228l-104 172l-104 -172h-228z" />
<glyph unicode="&#xcb;" horiz-adv-x="1153" d="M170 0v1384h817v-235h-565v-324h545v-235h-545v-354h571v-236h-823zM265 1653q0 53 36.5 91t90.5 38q53 0 91 -38t38 -91t-38 -90t-91 -37q-54 0 -90.5 36.5t-36.5 90.5zM635 1653q0 53 38 91t91 38t90 -38t37 -91t-36.5 -90t-90.5 -37q-53 0 -91 36.5t-38 90.5z" />
<glyph unicode="&#xcc;" horiz-adv-x="593" d="M-92 1718l262 62l250 -299h-237zM170 0v1384h252v-1384h-252z" />
<glyph unicode="&#xcd;" horiz-adv-x="593" d="M170 0v1384h252v-1384h-252zM178 1481l248 299l264 -62l-276 -237h-236z" />
<glyph unicode="&#xce;" horiz-adv-x="593" d="M-35 1464l221 322h222l221 -322h-228l-104 172l-104 -172h-228zM170 0v1384h252v-1384h-252z" />
<glyph unicode="&#xcf;" horiz-adv-x="593" d="M-16 1653q0 53 36.5 91t90.5 38q53 0 91 -38t38 -91t-38 -90t-91 -37q-54 0 -90.5 36.5t-36.5 90.5zM170 0v1384h252v-1384h-252zM354 1653q0 53 38 91t91 38t90 -38t37 -91t-36.5 -90t-90.5 -37q-53 0 -91 36.5t-38 90.5z" />
<glyph unicode="&#xd0;" horiz-adv-x="1423" d="M35 578v229h135v577h430q227 0 395 -77.5t260.5 -233t92.5 -381.5q0 -225 -92.5 -380.5t-260.5 -233.5t-395 -78h-430v578h-135zM424 236h176q223 0 348 109.5t125 348.5q0 238 -125 346.5t-348 108.5h-176v-342h422v-229h-422v-342z" />
<glyph unicode="&#xd1;" horiz-adv-x="1513" d="M170 0v1384h221l707 -970v970h245v-1384h-219l-708 971v-971h-246zM389 1477q0 100 56.5 176t158.5 76q61 0 160 -25q16 -2 55 -10t68 -8q74 0 74 86h165q0 -117 -55 -190t-164 -73q-61 0 -176 27q-82 16 -102 16q-39 0 -56.5 -20.5t-17.5 -54.5h-166z" />
<glyph unicode="&#xd2;" horiz-adv-x="1570" d="M74 692q0 219 87 381t247.5 249t377.5 87t377 -87t247 -249t87 -381t-87 -380.5t-246.5 -249t-377.5 -87.5q-217 0 -377.5 87.5t-247.5 249t-87 380.5zM348 692q0 -219 116 -346t322 -127q205 0 321 127t116 346t-116 346t-321 127q-207 0 -322.5 -127t-115.5 -346z M395 1718l262 62l250 -299h-237z" />
<glyph unicode="&#xd3;" horiz-adv-x="1570" d="M74 692q0 219 87 381t247.5 249t377.5 87t377 -87t247 -249t87 -381t-87 -380.5t-246.5 -249t-377.5 -87.5q-217 0 -377.5 87.5t-247.5 249t-87 380.5zM348 692q0 -219 116 -346t322 -127q205 0 321 127t116 346t-116 346t-321 127q-207 0 -322.5 -127t-115.5 -346z M666 1481l248 299l264 -62l-276 -237h-236z" />
<glyph unicode="&#xd4;" horiz-adv-x="1570" d="M74 692q0 219 87 381t247.5 249t377.5 87t377 -87t247 -249t87 -381t-87 -380.5t-246.5 -249t-377.5 -87.5q-217 0 -377.5 87.5t-247.5 249t-87 380.5zM348 692q0 -219 116 -346t322 -127q205 0 321 127t116 346t-116 346t-321 127q-207 0 -322.5 -127t-115.5 -346z M452 1464l221 322h222l221 -322h-228l-104 172l-104 -172h-228z" />
<glyph unicode="&#xd5;" horiz-adv-x="1570" d="M74 692q0 219 87 381t247.5 249t377.5 87t377 -87t247 -249t87 -381t-87 -380.5t-246.5 -249t-377.5 -87.5q-217 0 -377.5 87.5t-247.5 249t-87 380.5zM348 692q0 -219 116 -346t322 -127q205 0 321 127t116 346t-116 346t-321 127q-207 0 -322.5 -127t-115.5 -346z M416 1477q0 100 56.5 176t158.5 76q61 0 160 -25q16 -2 55 -10t68 -8q74 0 74 86h165q0 -117 -55 -190t-164 -73q-61 0 -176 27q-82 16 -102 16q-39 0 -56.5 -20.5t-17.5 -54.5h-166z" />
<glyph unicode="&#xd6;" horiz-adv-x="1570" d="M74 692q0 219 87 381t247.5 249t377.5 87t377 -87t247 -249t87 -381t-87 -380.5t-246.5 -249t-377.5 -87.5q-217 0 -377.5 87.5t-247.5 249t-87 380.5zM348 692q0 -219 116 -346t322 -127q205 0 321 127t116 346t-116 346t-321 127q-207 0 -322.5 -127t-115.5 -346z M471 1653q0 53 36.5 91t90.5 38q53 0 91 -38t38 -91t-38 -90t-91 -37q-54 0 -90.5 36.5t-36.5 90.5zM841 1653q0 53 38 91t91 38t90 -38t37 -91t-36.5 -90t-90.5 -37q-53 0 -91 36.5t-38 90.5z" />
<glyph unicode="&#xd7;" d="M96 399l279 279l-279 278l137 138l279 -279l279 279l137 -138l-279 -278l279 -279l-137 -137l-279 279l-279 -279z" />
<glyph unicode="&#xd8;" horiz-adv-x="1570" d="M74 692q0 219 87 381t247.5 249t377.5 87q199 0 355 -76l151 197l162 -125l-147 -191q92 -94 141 -226t49 -296q0 -219 -87 -380.5t-246.5 -249t-377.5 -87.5q-211 0 -368 82l-144 -184l-159 125l139 182q-88 94 -134 224.5t-46 287.5zM348 692q0 -172 76 -293l559 727 q-84 39 -197 39q-207 0 -322.5 -127t-115.5 -346zM575 264q94 -45 211 -45q205 0 321 127t116 346q0 182 -82 305z" />
<glyph unicode="&#xd9;" horiz-adv-x="1404" d="M150 528v856h251v-856q0 -154 83 -231.5t218 -77.5t217 78t82 231v856h254v-856q0 -174 -71.5 -299t-196.5 -189.5t-285 -64.5q-159 0 -285 64.5t-196.5 189.5t-70.5 299zM313 1718l262 62l250 -299h-237z" />
<glyph unicode="&#xda;" horiz-adv-x="1404" d="M150 528v856h251v-856q0 -154 83 -231.5t218 -77.5t217 78t82 231v856h254v-856q0 -174 -71.5 -299t-196.5 -189.5t-285 -64.5q-159 0 -285 64.5t-196.5 189.5t-70.5 299zM584 1481l248 299l264 -62l-276 -237h-236z" />
<glyph unicode="&#xdb;" horiz-adv-x="1404" d="M150 528v856h251v-856q0 -154 83 -231.5t218 -77.5t217 78t82 231v856h254v-856q0 -174 -71.5 -299t-196.5 -189.5t-285 -64.5q-159 0 -285 64.5t-196.5 189.5t-70.5 299zM370 1464l221 322h222l221 -322h-228l-104 172l-104 -172h-228z" />
<glyph unicode="&#xdc;" horiz-adv-x="1404" d="M150 528v856h251v-856q0 -154 83 -231.5t218 -77.5t217 78t82 231v856h254v-856q0 -174 -71.5 -299t-196.5 -189.5t-285 -64.5q-159 0 -285 64.5t-196.5 189.5t-70.5 299zM389 1653q0 53 36.5 91t90.5 38q53 0 91 -38t38 -91t-38 -90t-91 -37q-54 0 -90.5 36.5 t-36.5 90.5zM759 1653q0 53 38 91t91 38t90 -38t37 -91t-36.5 -90t-90.5 -37q-53 0 -91 36.5t-38 90.5z" />
<glyph unicode="&#xdd;" horiz-adv-x="1329" d="M45 1384h285l336 -591l335 591h283l-493 -835v-549h-252v549zM547 1481l248 299l264 -62l-276 -237h-236z" />
<glyph unicode="&#xde;" horiz-adv-x="1228" d="M170 0v1384h252v-241h135q264 0 411.5 -116t147.5 -335q0 -221 -148.5 -335.5t-410.5 -114.5h-135v-242h-252zM422 477h151q123 0 197 51.5t74 163.5q0 113 -74 164t-197 51h-151v-430z" />
<glyph unicode="&#xdf;" horiz-adv-x="1193" d="M133 0v981q0 137 57.5 233.5t155.5 145.5t219 49q139 0 238.5 -52t150 -136t50.5 -177q0 -88 -47.5 -166.5t-127.5 -121.5q129 -29 214 -123t85 -240q0 -113 -49 -208t-148.5 -151.5t-240.5 -56.5q-59 0 -105 10.5t-106 35.5v206q68 -39 106 -54t91 -15q96 0 154.5 64.5 t58.5 160.5q0 94 -64.5 155.5t-191.5 61.5h-84v191h53q72 0 116 59t44 139q0 82 -49 140.5t-144 58.5q-88 0 -144 -53.5t-56 -155.5v-981h-236z" />
<glyph unicode="&#xe0;" horiz-adv-x="1011" d="M72 250q0 152 105.5 240t307.5 98l158 8v41q0 72 -62.5 107.5t-162.5 35.5q-63 0 -129 -14t-119 -41l-2 219q59 25 137 39t156 14q174 0 296 -89t122 -271v-637h-222v98q-51 -57 -128.5 -90t-176.5 -33q-117 0 -198.5 76t-81.5 199zM127 1382l252 45l215 -342h-211z M322 281q0 -47 29.5 -75t80.5 -28q57 0 113.5 30t97.5 77v133l-147 -8q-88 -4 -131 -39t-43 -90z" />
<glyph unicode="&#xe1;" horiz-adv-x="1011" d="M72 250q0 152 105.5 240t307.5 98l158 8v41q0 72 -62.5 107.5t-162.5 35.5q-63 0 -129 -14t-119 -41l-2 219q59 25 137 39t156 14q174 0 296 -89t122 -271v-637h-222v98q-51 -57 -128.5 -90t-176.5 -33q-117 0 -198.5 76t-81.5 199zM322 281q0 -47 29.5 -75t80.5 -28 q57 0 113.5 30t97.5 77v133l-147 -8q-88 -4 -131 -39t-43 -90zM401 1085l216 342l251 -45l-256 -297h-211z" />
<glyph unicode="&#xe2;" horiz-adv-x="1011" d="M72 250q0 152 105.5 240t307.5 98l158 8v41q0 72 -62.5 107.5t-162.5 35.5q-63 0 -129 -14t-119 -41l-2 219q59 25 137 39t156 14q174 0 296 -89t122 -271v-637h-222v98q-51 -57 -128.5 -90t-176.5 -33q-117 0 -198.5 76t-81.5 199zM154 1085l243 322h238l243 -322h-241 l-121 179l-121 -179h-241zM322 281q0 -47 29.5 -75t80.5 -28q57 0 113.5 30t97.5 77v133l-147 -8q-88 -4 -131 -39t-43 -90z" />
<glyph unicode="&#xe3;" horiz-adv-x="1011" d="M72 250q0 152 105.5 240t307.5 98l158 8v41q0 72 -62.5 107.5t-162.5 35.5q-63 0 -129 -14t-119 -41l-2 219q59 25 137 39t156 14q174 0 296 -89t122 -271v-637h-222v98q-51 -57 -128.5 -90t-176.5 -33q-117 0 -198.5 76t-81.5 199zM151 1112q0 100 56.5 176t158.5 76 q61 0 160 -25q16 -2 55 -10t68 -8q74 0 74 86h165q0 -115 -55 -187.5t-164 -72.5q-61 0 -176 27q-82 16 -102 16q-37 0 -55.5 -21.5t-18.5 -56.5h-166zM322 281q0 -47 29.5 -75t80.5 -28q57 0 113.5 30t97.5 77v133l-147 -8q-88 -4 -131 -39t-43 -90z" />
<glyph unicode="&#xe4;" horiz-adv-x="1011" d="M72 250q0 152 105.5 240t307.5 98l158 8v41q0 72 -62.5 107.5t-162.5 35.5q-63 0 -129 -14t-119 -41l-2 219q59 25 137 39t156 14q174 0 296 -89t122 -271v-637h-222v98q-51 -57 -128.5 -90t-176.5 -33q-117 0 -198.5 76t-81.5 199zM203 1257q0 53 36.5 90t90.5 37 q53 0 91 -36.5t38 -90.5q0 -53 -38 -91t-91 -38q-54 0 -90.5 38t-36.5 91zM322 281q0 -47 29.5 -75t80.5 -28q57 0 113.5 30t97.5 77v133l-147 -8q-88 -4 -131 -39t-43 -90zM573 1257q0 53 38 90t91 37t90 -36.5t37 -90.5q0 -53 -36.5 -91t-90.5 -38q-53 0 -91 38t-38 91z " />
<glyph unicode="&#xe5;" horiz-adv-x="1011" d="M72 250q0 152 105.5 240t307.5 98l158 8v41q0 72 -62.5 107.5t-162.5 35.5q-63 0 -129 -14t-119 -41l-2 219q59 25 137 39t156 14q174 0 296 -89t122 -271v-637h-222v98q-51 -57 -128.5 -90t-176.5 -33q-117 0 -198.5 76t-81.5 199zM282 1290q0 100 65.5 165t168.5 65 q102 0 167.5 -64.5t65.5 -165.5q0 -104 -65.5 -169.5t-167.5 -65.5q-103 0 -168.5 65.5t-65.5 169.5zM322 281q0 -47 29.5 -75t80.5 -28q57 0 113.5 30t97.5 77v133l-147 -8q-88 -4 -131 -39t-43 -90zM444 1290q0 -33 19.5 -54.5t52.5 -21.5t52 21.5t19 54.5q0 31 -19 50.5 t-52 19.5t-52.5 -19.5t-19.5 -50.5z" />
<glyph unicode="&#xe6;" horiz-adv-x="1579" d="M72 248q0 156 112.5 253t329.5 97h109v35q0 74 -56.5 110.5t-154.5 36.5q-63 0 -129 -14t-119 -41v219q57 25 134 39t157 14q100 0 182 -37.5t123 -117.5q63 82 139 118.5t180 36.5q127 0 219.5 -58t140.5 -159.5t48 -226.5v-121h-615v-37q0 -49 33 -95t95.5 -75.5 t148.5 -29.5q76 0 158 20.5t151 54.5v-221q-63 -35 -148 -54.5t-180 -19.5q-145 0 -243.5 54.5t-145.5 142.5q-51 -88 -146 -142.5t-218 -54.5q-137 0 -221 74t-84 199zM311 297q0 -47 30 -74.5t81 -27.5q80 0 140.5 60t60.5 136v41h-109q-102 0 -152.5 -38t-50.5 -97z M874 598h375q2 84 -50 139.5t-134 55.5q-80 0 -135.5 -54.5t-55.5 -140.5z" />
<glyph unicode="&#xe7;" horiz-adv-x="937" d="M66 487q0 244 134 377t357 133q76 0 134.5 -12t115.5 -39v-229q-61 33 -115.5 47t-118.5 14q-117 0 -186.5 -80t-69.5 -213q0 -131 67 -210.5t187 -79.5q139 0 260 73v-229q-117 -63 -282 -64q-227 0 -355 138.5t-128 373.5zM342 -246q45 -23 94 -22q33 0 54.5 12 t21.5 33q0 23 -23 35t-53 12q-27 0 -35 -4l20 98q10 2 25.5 4t36.5 2q82 0 138 -38t56 -109q0 -76 -58 -118t-142 -42q-35 0 -73 7t-62 20v110z" />
<glyph unicode="&#xe8;" horiz-adv-x="1034" d="M66 487q0 238 122.5 374t329.5 136q129 0 224.5 -56t147.5 -154.5t52 -221.5v-131h-623q14 -121 89 -180t196 -59q76 0 158 20.5t153 54.5v-221q-63 -35 -148 -54.5t-179 -19.5q-240 0 -381 132.5t-141 379.5zM129 1382l252 45l215 -342h-211zM328 606h379 q0 74 -53.5 130.5t-135.5 56.5q-74 0 -123 -46.5t-67 -140.5z" />
<glyph unicode="&#xe9;" horiz-adv-x="1034" d="M66 487q0 238 122.5 374t329.5 136q129 0 224.5 -56t147.5 -154.5t52 -221.5v-131h-623q14 -121 89 -180t196 -59q76 0 158 20.5t153 54.5v-221q-63 -35 -148 -54.5t-179 -19.5q-240 0 -381 132.5t-141 379.5zM328 606h379q0 74 -53.5 130.5t-135.5 56.5 q-74 0 -123 -46.5t-67 -140.5zM403 1085l216 342l251 -45l-256 -297h-211z" />
<glyph unicode="&#xea;" horiz-adv-x="1034" d="M66 487q0 238 122.5 374t329.5 136q129 0 224.5 -56t147.5 -154.5t52 -221.5v-131h-623q14 -121 89 -180t196 -59q76 0 158 20.5t153 54.5v-221q-63 -35 -148 -54.5t-179 -19.5q-240 0 -381 132.5t-141 379.5zM156 1085l243 322h238l243 -322h-241l-121 179l-121 -179 h-241zM328 606h379q0 74 -53.5 130.5t-135.5 56.5q-74 0 -123 -46.5t-67 -140.5z" />
<glyph unicode="&#xeb;" horiz-adv-x="1034" d="M66 487q0 238 122.5 374t329.5 136q129 0 224.5 -56t147.5 -154.5t52 -221.5v-131h-623q14 -121 89 -180t196 -59q76 0 158 20.5t153 54.5v-221q-63 -35 -148 -54.5t-179 -19.5q-240 0 -381 132.5t-141 379.5zM205 1257q0 53 36.5 90t90.5 37q53 0 91 -36.5t38 -90.5 q0 -53 -38 -91t-91 -38q-54 0 -90.5 38t-36.5 91zM328 606h379q0 74 -53.5 130.5t-135.5 56.5q-74 0 -123 -46.5t-67 -140.5zM575 1257q0 53 38 90t91 37t90 -36.5t37 -90.5q0 -53 -36.5 -91t-90.5 -38q-53 0 -91 38t-38 91z" />
<glyph unicode="&#xec;" horiz-adv-x="501" d="M-137 1382l252 45l215 -342h-211zM133 0v973h236v-973h-236z" />
<glyph unicode="&#xed;" horiz-adv-x="501" d="M133 0v973h236v-973h-236zM137 1085l216 342l251 -45l-256 -297h-211z" />
<glyph unicode="&#xee;" horiz-adv-x="501" d="M-110 1085l243 322h238l243 -322h-241l-121 179l-121 -179h-241zM133 0v973h236v-973h-236z" />
<glyph unicode="&#xef;" horiz-adv-x="501" d="M-61 1257q0 53 36.5 90t90.5 37q53 0 91 -36.5t38 -90.5q0 -53 -38 -91t-91 -38q-54 0 -90.5 38t-36.5 91zM133 0v973h236v-973h-236zM309 1257q0 53 38 90t91 37t90 -36.5t37 -90.5q0 -53 -36.5 -91t-90.5 -38q-53 0 -91 38t-38 91z" />
<glyph unicode="&#xf0;" horiz-adv-x="1060" d="M66 453q0 154 56 259t149.5 156.5t205.5 51.5q72 0 134.5 -21.5t105.5 -60.5q-45 143 -168 233l-264 -139v139l133 70q-96 35 -201 41v223q262 -8 447 -135l219 114v-137l-121 -63q119 -121 176 -294t57 -378q0 -229 -115.5 -383t-361.5 -154q-209 0 -330.5 121 t-121.5 357zM291 449q0 -127 60.5 -194t166.5 -67q115 0 171 69t56 192t-56 191.5t-171 68.5q-106 0 -166.5 -67t-60.5 -193z" />
<glyph unicode="&#xf1;" horiz-adv-x="1140" d="M133 0v973h219v-117q51 68 130 104.5t167 36.5q94 0 176 -41t132.5 -124.5t50.5 -202.5v-629h-236v592q0 86 -56.5 136t-135.5 50q-66 0 -122.5 -32.5t-88.5 -96.5v-649h-236zM207 1112q0 100 56.5 176t158.5 76q61 0 160 -25q16 -2 55 -10t68 -8q74 0 74 86h165 q0 -115 -55 -187.5t-164 -72.5q-61 0 -176 27q-82 16 -102 16q-37 0 -55.5 -21.5t-18.5 -56.5h-166z" />
<glyph unicode="&#xf2;" horiz-adv-x="1198" d="M66 487q0 147 68.5 263t189 181.5t274.5 65.5t274.5 -65.5t189 -181t68.5 -263.5q0 -147 -68.5 -264t-189 -182.5t-274.5 -65.5t-274.5 65.5t-189 182.5t-68.5 264zM209 1382l252 45l215 -342h-211zM305 487q0 -129 82 -213t211 -84t212 84t83 213t-83 212t-212 83 t-211 -83t-82 -212z" />
<glyph unicode="&#xf3;" horiz-adv-x="1198" d="M66 487q0 147 68.5 263t189 181.5t274.5 65.5t274.5 -65.5t189 -181t68.5 -263.5q0 -147 -68.5 -264t-189 -182.5t-274.5 -65.5t-274.5 65.5t-189 182.5t-68.5 264zM305 487q0 -129 82 -213t211 -84t212 84t83 213t-83 212t-212 83t-211 -83t-82 -212zM485 1085l216 342 l251 -45l-256 -297h-211z" />
<glyph unicode="&#xf4;" horiz-adv-x="1198" d="M66 487q0 147 68.5 263t189 181.5t274.5 65.5t274.5 -65.5t189 -181t68.5 -263.5q0 -147 -68.5 -264t-189 -182.5t-274.5 -65.5t-274.5 65.5t-189 182.5t-68.5 264zM236 1085l243 322h238l243 -322h-241l-121 179l-121 -179h-241zM305 487q0 -129 82 -213t211 -84t212 84 t83 213t-83 212t-212 83t-211 -83t-82 -212z" />
<glyph unicode="&#xf5;" horiz-adv-x="1198" d="M66 487q0 147 68.5 263t189 181.5t274.5 65.5t274.5 -65.5t189 -181t68.5 -263.5q0 -147 -68.5 -264t-189 -182.5t-274.5 -65.5t-274.5 65.5t-189 182.5t-68.5 264zM233 1112q0 100 56.5 176t158.5 76q61 0 160 -25q16 -2 55 -10t68 -8q74 0 74 86h165q0 -115 -55 -187.5 t-164 -72.5q-61 0 -176 27q-82 16 -102 16q-37 0 -55.5 -21.5t-18.5 -56.5h-166zM305 487q0 -129 82 -213t211 -84t212 84t83 213t-83 212t-212 83t-211 -83t-82 -212z" />
<glyph unicode="&#xf6;" horiz-adv-x="1198" d="M66 487q0 147 68.5 263t189 181.5t274.5 65.5t274.5 -65.5t189 -181t68.5 -263.5q0 -147 -68.5 -264t-189 -182.5t-274.5 -65.5t-274.5 65.5t-189 182.5t-68.5 264zM285 1257q0 53 36.5 90t90.5 37q53 0 91 -36.5t38 -90.5q0 -53 -38 -91t-91 -38q-54 0 -90.5 38 t-36.5 91zM305 487q0 -129 82 -213t211 -84t212 84t83 213t-83 212t-212 83t-211 -83t-82 -212zM655 1257q0 53 38 90t91 37t90 -36.5t37 -90.5q0 -53 -36.5 -91t-90.5 -38q-53 0 -91 38t-38 91z" />
<glyph unicode="&#xf7;" d="M66 582v192h892v-192h-892zM375 305q0 59 41 99t98 40t97 -41t40 -98t-40 -98.5t-97 -41.5t-98 41t-41 99zM375 1051q0 59 41 99t98 40t97 -41t40 -98t-40 -98.5t-97 -41.5t-98 41t-41 99z" />
<glyph unicode="&#xf8;" horiz-adv-x="1198" d="M66 487q0 147 68.5 263t189 181.5t274.5 65.5q121 0 229 -43l117 162l139 -92l-114 -160q78 -67 119.5 -164.5t41.5 -212.5q0 -147 -68.5 -264t-189 -182.5t-274.5 -65.5q-127 0 -233 48l-125 -175l-140 91l123 172q-76 70 -116.5 167t-40.5 209zM305 487q0 -104 57 -184 l332 465q-41 14 -96 14q-129 0 -211 -83t-82 -212zM496 207q53 -16 102 -17q129 0 212 84t83 213q0 109 -62 187z" />
<glyph unicode="&#xf9;" horiz-adv-x="1120" d="M133 365v608h236v-594q0 -90 42 -137t121 -47q57 0 118 27.5t102 68.5v682h235v-973h-219v96q-70 -59 -139.5 -90t-159.5 -31q-164 0 -250 100.5t-86 289.5zM170 1382l252 45l215 -342h-211z" />
<glyph unicode="&#xfa;" horiz-adv-x="1120" d="M133 365v608h236v-594q0 -90 42 -137t121 -47q57 0 118 27.5t102 68.5v682h235v-973h-219v96q-70 -59 -139.5 -90t-159.5 -31q-164 0 -250 100.5t-86 289.5zM446 1085l216 342l251 -45l-256 -297h-211z" />
<glyph unicode="&#xfb;" horiz-adv-x="1120" d="M133 365v608h236v-594q0 -90 42 -137t121 -47q57 0 118 27.5t102 68.5v682h235v-973h-219v96q-70 -59 -139.5 -90t-159.5 -31q-164 0 -250 100.5t-86 289.5zM199 1085l243 322h238l243 -322h-241l-121 179l-121 -179h-241z" />
<glyph unicode="&#xfc;" horiz-adv-x="1120" d="M133 365v608h236v-594q0 -90 42 -137t121 -47q57 0 118 27.5t102 68.5v682h235v-973h-219v96q-70 -59 -139.5 -90t-159.5 -31q-164 0 -250 100.5t-86 289.5zM248 1257q0 53 36.5 90t90.5 37q53 0 91 -36.5t38 -90.5q0 -53 -38 -91t-91 -38q-54 0 -90.5 38t-36.5 91z M618 1257q0 53 38 90t91 37t90 -36.5t37 -90.5q0 -53 -36.5 -91t-90.5 -38q-53 0 -91 38t-38 91z" />
<glyph unicode="&#xfd;" horiz-adv-x="1011" d="M23 973h260l229 -627l217 627h252l-334 -918q-55 -152 -117.5 -240.5t-152.5 -130.5t-225 -42h-76v227h76q86 0 142 35t99 121zM393 1085l216 342l251 -45l-256 -297h-211z" />
<glyph unicode="&#xfe;" horiz-adv-x="1101" d="M133 -358v1742h219v-487q45 49 111.5 74.5t138.5 25.5q111 0 209 -55t160.5 -170t62.5 -285q0 -174 -58 -288.5t-151.5 -168t-201.5 -53.5q-74 0 -141.5 24t-112.5 60v-419h-236zM369 248q33 -31 82 -48.5t100 -17.5q233 0 233 305t-233 306q-51 0 -100.5 -17.5 t-81.5 -48.5v-479z" />
<glyph unicode="&#xff;" horiz-adv-x="1011" d="M23 973h260l229 -627l217 627h252l-334 -918q-55 -152 -117.5 -240.5t-152.5 -130.5t-225 -42h-76v227h76q86 0 142 35t99 121zM193 1257q0 53 36.5 90t90.5 37q53 0 91 -36.5t38 -90.5q0 -53 -38 -91t-91 -38q-54 0 -90.5 38t-36.5 91zM563 1257q0 53 38 90t91 37 t90 -36.5t37 -90.5q0 -53 -36.5 -91t-90.5 -38q-53 0 -91 38t-38 91z" />
<glyph unicode="&#x152;" horiz-adv-x="2224" d="M74 692q0 219 87 381t247.5 249t377.5 87q272 0 455 -137v112h817v-235h-565v-324h545v-235h-545v-354h569v-236h-821v113q-182 -137 -455 -138q-217 0 -377.5 87.5t-247.5 249t-87 380.5zM348 692q0 -219 116 -346t322 -127q205 0 321 127t116 346t-116 346t-321 127 q-207 0 -322.5 -127t-115.5 -346z" />
<glyph unicode="&#x153;" horiz-adv-x="1863" d="M66 487q0 147 68.5 263t189 181.5t274.5 65.5q121 0 223.5 -42t175.5 -117q59 78 148.5 118.5t202.5 40.5q127 0 223 -56t148.5 -154.5t52.5 -221.5v-131h-625q14 -121 89 -180t198 -59q76 0 157.5 20.5t151.5 54.5v-221q-63 -35 -148.5 -54.5t-179.5 -19.5 q-133 0 -237.5 43t-173.5 125q-74 -80 -178.5 -124t-227.5 -44q-154 0 -274.5 65.5t-189 182.5t-68.5 264zM305 487q0 -129 82 -213t211 -84t212 84t83 213t-83 212t-212 83t-211 -83t-82 -212zM1155 606h379q0 74 -52 130.5t-134 56.5q-76 0 -125 -46.5t-68 -140.5z" />
<glyph unicode="&#x178;" horiz-adv-x="1329" d="M45 1384h285l336 -591l335 591h283l-493 -835v-549h-252v549zM353 1653q0 53 36.5 91t90.5 38q53 0 91 -38t38 -91t-38 -90t-91 -37q-54 0 -90.5 36.5t-36.5 90.5zM723 1653q0 53 38 91t91 38t90 -38t37 -91t-36.5 -90t-90.5 -37q-53 0 -91 36.5t-38 90.5z" />
<glyph unicode="&#x2c6;" horiz-adv-x="1228" d="M252 1085l243 322h238l243 -322h-241l-121 179l-121 -179h-241z" />
<glyph unicode="&#x2dc;" horiz-adv-x="1228" d="M246 1112q0 100 56.5 176t158.5 76q61 0 160 -25q16 -2 55 -10t68 -8q74 0 74 86h165q0 -115 -55 -187.5t-164 -72.5q-61 0 -176 27q-82 16 -102 16q-37 0 -55.5 -21.5t-18.5 -56.5h-166z" />
<glyph unicode="&#x2000;" horiz-adv-x="964" />
<glyph unicode="&#x2001;" horiz-adv-x="1929" />
<glyph unicode="&#x2002;" horiz-adv-x="964" />
<glyph unicode="&#x2003;" horiz-adv-x="1929" />
<glyph unicode="&#x2004;" horiz-adv-x="643" />
<glyph unicode="&#x2005;" horiz-adv-x="482" />
<glyph unicode="&#x2006;" horiz-adv-x="321" />
<glyph unicode="&#x2007;" horiz-adv-x="321" />
<glyph unicode="&#x2008;" horiz-adv-x="241" />
<glyph unicode="&#x2009;" horiz-adv-x="385" />
<glyph unicode="&#x200a;" horiz-adv-x="107" />
<glyph unicode="&#x2010;" d="M205 547v227h614v-227h-614z" />
<glyph unicode="&#x2011;" d="M205 547v227h614v-227h-614z" />
<glyph unicode="&#x2012;" d="M205 547v227h614v-227h-614z" />
<glyph unicode="&#x2013;" horiz-adv-x="1638" d="M205 553v213h1229v-213h-1229z" />
<glyph unicode="&#x2014;" horiz-adv-x="2048" d="M125 553v213h1792v-213h-1792z" />
<glyph unicode="&#x2018;" horiz-adv-x="550" d="M129 1004q0 246 150 395l204 -41q-127 -164 -127 -354q0 -72 11 -125h-230q-8 57 -8 125z" />
<glyph unicode="&#x2019;" horiz-adv-x="550" d="M66 905q65 84 97 170t32 182q0 59 -13 127h232q8 -57 8 -122q0 -248 -150 -398z" />
<glyph unicode="&#x201a;" horiz-adv-x="550" d="M66 -252q65 84 97 170t32 182q0 59 -13 127h232q8 -57 8 -122q0 -248 -150 -398z" />
<glyph unicode="&#x201c;" horiz-adv-x="882" d="M129 1004q0 246 150 395l204 -41q-127 -164 -127 -354q0 -72 11 -125h-230q-8 57 -8 125zM461 1001q0 248 149 398l205 -41q-127 -164 -127 -354q0 -72 10 -125h-229q-8 57 -8 122z" />
<glyph unicode="&#x201d;" horiz-adv-x="882" d="M66 905q65 84 97 170t32 182q0 59 -13 127h232q8 -57 8 -122q0 -248 -150 -398zM398 905q65 84 97 170t32 182q0 59 -13 127h232q8 -57 8 -122q0 -248 -150 -398z" />
<glyph unicode="&#x201e;" horiz-adv-x="882" d="M66 -252q65 84 97 170t32 182q0 59 -13 127h232q8 -57 8 -122q0 -248 -150 -398zM398 -252q65 84 97 170t32 182q0 59 -13 127h232q8 -57 8 -122q0 -248 -150 -398z" />
<glyph unicode="&#x2022;" horiz-adv-x="1181" d="M72 625q0 141 69.5 262t188.5 190.5t262 69.5t261 -69.5t187.5 -189.5t69.5 -263q0 -141 -68.5 -261t-187.5 -190t-262 -70t-262 70t-188.5 189.5t-69.5 261.5zM403 625q0 -76 56.5 -132.5t132.5 -56.5q78 0 132 57.5t54 135.5q0 76 -55 131t-131 55t-132.5 -56.5 t-56.5 -133.5z" />
<glyph unicode="&#x2026;" horiz-adv-x="1384" d="M119 117q0 59 41 99t98 40t97 -41t40 -98t-40 -98.5t-97 -41.5t-98 41t-41 99zM555 117q0 59 41 99t98 40t97 -41t40 -98t-40 -98.5t-97 -41.5t-98 41t-41 99zM991 117q0 59 41 99t98 40t97 -41t40 -98t-40 -98.5t-97 -41.5t-98 41t-41 99z" />
<glyph unicode="&#x202f;" horiz-adv-x="385" />
<glyph unicode="&#x2039;" horiz-adv-x="598" d="M106 545q0 125 51.5 237.5t145.5 190.5h223q-92 -88 -142 -199.5t-50 -228.5q0 -115 50 -226.5t142 -199.5h-223q-94 78 -145.5 190.5t-51.5 235.5z" />
<glyph unicode="&#x203a;" horiz-adv-x="598" d="M72 119q92 88 142 199.5t50 226.5t-50 227.5t-142 200.5h223q94 -76 144 -189.5t50 -238.5t-50 -237.5t-144 -188.5h-223z" />
<glyph unicode="&#x205f;" horiz-adv-x="482" />
<glyph unicode="&#x20ac;" d="M70 459v166h116q-2 25 -2 73v50h-114v165h127q33 252 153.5 376t331.5 124q133 0 252 -49v-238q-113 51 -236 52q-184 -1 -231 -265h438v-165h-454v-50q0 -49 2 -73h452v-166h-434q49 -244 227 -244q123 0 236 51v-237q-119 -49 -252 -49q-205 0 -324.5 118.5 t-156.5 360.5h-131z" />
<glyph unicode="&#x2122;" horiz-adv-x="1390" d="M51 1219v165h531v-165h-174v-371h-183v371h-174zM645 848v536h223l125 -256l123 256h223v-536h-180v270l-90 -188h-151l-91 188v-270h-182z" />
<glyph unicode="&#x25fc;" horiz-adv-x="972" d="M0 0v973h973v-973h-973z" />
<glyph unicode="&#xfb03;" horiz-adv-x="1685" d="M23 754v219h190v57q0 176 92 265t264 89h121v-219h-112q-66 0 -97.5 -32.5t-31.5 -106.5v-53h327v135q0 176 92.5 265t264.5 89h249v-219h-241q-66 0 -97.5 -32.5t-31.5 -104.5v-133h561v-973h-236v754h-325v-754h-236v754h-327v-754h-236v754h-190z" />
<glyph unicode="&#xfb04;" horiz-adv-x="1722" d="M23 754v219h190v57q0 176 92 265t264 89h121v-219h-112q-66 0 -97.5 -32.5t-31.5 -106.5v-53h327v141q0 174 93.5 261t263.5 87h114v-219h-114q-121 0 -121 -129v-141h213v-219h-213v-754h-236v754h-327v-754h-236v754h-190zM1354 0v1384h235v-1384h-235z" />
</font>
</defs>
</svg>
