<svg xmlns="http://www.w3.org/2000/svg" xmlns:xlink="http://www.w3.org/1999/xlink" width="71.5" height="22" viewBox="0 0 71.5 22">
  <defs>
    <clipPath id="clip-path">
      <path id="Path_22434" data-name="Path 22434" d="M0,0H22.54l.835,6.6H48.049L48.7,0H71.5V22H0Z" fill="#fff" stroke="#707070" stroke-width="1"/>
    </clipPath>
  </defs>
  <g id="Mask_Group_45" data-name="Mask Group 45" clip-path="url(#clip-path)">
    <g id="Path_22433" data-name="Path 22433" transform="translate(3.3 3.3)" fill="none">
      <path d="M31.9,0C49.518,0,63.8,3.447,63.8,7.7s-14.282,7.7-31.9,7.7S0,11.953,0,7.7,14.282,0,31.9,0Z" stroke="none"/>
      <path d="M 31.90000152587891 1 C 23.4559326171875 1 15.52847290039062 1.791029930114746 9.57794189453125 3.227360725402832 C 3.246532440185547 4.755630493164062 1 6.591899871826172 1 7.700000286102295 C 1 8.808099746704102 3.246532440185547 10.64437007904053 9.57794189453125 12.17263984680176 C 15.52847290039062 13.60897064208984 23.4559326171875 14.40000057220459 31.90000152587891 14.40000057220459 C 40.34407043457031 14.40000057220459 48.27153015136719 13.60897064208984 54.22206115722656 12.17263984680176 C 60.55347061157227 10.64437007904053 62.80000305175781 8.808099746704102 62.80000305175781 7.700000286102295 C 62.80000305175781 6.591899871826172 60.55347061157227 4.755630493164062 54.22206115722656 3.227360725402832 C 48.27153015136719 1.791029930114746 40.34407043457031 1 31.90000152587891 1 M 31.90000152587891 0 C 49.51788330078125 0 63.80000305175781 3.447410583496094 63.80000305175781 7.700000286102295 C 63.80000305175781 11.9525899887085 49.51788330078125 15.40000057220459 31.90000152587891 15.40000057220459 C 14.28211975097656 15.40000057220459 0 11.9525899887085 0 7.700000286102295 C 0 3.447410583496094 14.28211975097656 0 31.90000152587891 0 Z" stroke="none" fill="#fff"/>
    </g>
  </g>
</svg>
