<svg id="Сгруппировать_9118" data-name="Сгруппировать 9118" xmlns="http://www.w3.org/2000/svg" xmlns:xlink="http://www.w3.org/1999/xlink" width="48.606" height="52.522" viewBox="0 0 48.606 52.522">
  <defs>
    <clipPath id="clip-path">
      <rect id="Прямоугольник_17008" data-name="Прямоугольник 17008" width="48.606" height="52.522" fill="#8996a4"/>
    </clipPath>
  </defs>
  <rect id="Прямоугольник_17006" data-name="Прямоугольник 17006" width="23.343" height="1.945" transform="translate(7.781 23.343)" fill="#8996a4"/>
  <path id="Контур_23474" data-name="Контур 23474" d="M34.7,130.123v1.945H53.63l1.946-1.945Z" transform="translate(-26.918 -100.944)" fill="#8996a4"/>
  <path id="Контур_23475" data-name="Контур 23475" d="M34.7,156.146v1.946h13.1l1.946-1.946Z" transform="translate(-26.918 -121.132)" fill="#8996a4"/>
  <rect id="Прямоугольник_17007" data-name="Прямоугольник 17007" width="9.726" height="1.945" transform="translate(7.781 40.851)" fill="#8996a4"/>
  <g id="Сгруппировать_9117" data-name="Сгруппировать 9117">
    <g id="Сгруппировать_9116" data-name="Сгруппировать 9116" clip-path="url(#clip-path)">
      <path id="Контур_23476" data-name="Контур 23476" d="M48.037,20.8l-2.751-2.751a1.946,1.946,0,0,0-2.751,0L21.4,39.189V44.74c4.683,0,3.5,0,5.46-.009l10.1-10.1v14a1.945,1.945,0,0,1-1.946,1.945H3.89a1.945,1.945,0,0,1-1.945-1.945V13.616A1.945,1.945,0,0,1,3.89,11.671H7.782v3.891H31.124v-3.89h3.89a1.945,1.945,0,0,1,1.946,1.946v7.225l1.945-1.959V13.616a3.89,3.89,0,0,0-3.891-3.89H30.788A5.848,5.848,0,0,0,26.9,6.062,2.677,2.677,0,0,1,25.062,4.22a5.838,5.838,0,0,0-11.219,0A2.68,2.68,0,0,1,12,6.063,5.849,5.849,0,0,0,8.114,9.726H3.89A3.89,3.89,0,0,0,0,13.616V48.632a3.89,3.89,0,0,0,3.89,3.89H35.014a3.89,3.89,0,0,0,3.891-3.89V32.686l9.132-9.132a1.946,1.946,0,0,0,0-2.751M9.726,11.64a3.913,3.913,0,0,1,2.81-3.708,4.615,4.615,0,0,0,3.177-3.175,3.893,3.893,0,0,1,7.479,0,4.612,4.612,0,0,0,3.174,3.174,3.908,3.908,0,0,1,2.812,3.74v1.945H9.726ZM26.048,42.791c-.5,0-.711,0-1.409,0l-1.3-1.3v-1.5l1.311-1.31L27.4,41.435ZM28.78,40.06l-2.751-2.751L38.408,24.93l2.751,2.751ZM42.535,26.3l-2.751-2.751,1.375-1.376,2.751,2.751Zm2.751-2.751L42.535,20.8l1.375-1.375,2.751,2.751Z" fill="#8996a4"/>
      <path id="Контур_23477" data-name="Контур 23477" d="M83.289,20.977a1.459,1.459,0,1,1-1.459-1.459,1.459,1.459,0,0,1,1.459,1.459" transform="translate(-62.348 -15.141)" fill="#8996a4"/>
    </g>
  </g>
</svg>
