<svg id="Group_8642" data-name="Group 8642" xmlns="http://www.w3.org/2000/svg" width="120.481" height="31.343" viewBox="0 0 120.481 31.343">
  <path id="Path_636" data-name="Path 636" d="M188.3,493.9v-.007a2.535,2.535,0,0,0-.654-1.749,2.461,2.461,0,0,0-1.823-.657h-2.408c-1.638,0-1.638-.37-1.638-1.363a2.937,2.937,0,0,1,1.662-2.606,5.047,5.047,0,0,1,1.69-.277h2.907a2.291,2.291,0,1,0,0-4.582c-.048,0-.1,0-.156.005l.01,0h-2.627c-.383,0-.792.03-1.223.075a11.484,11.484,0,0,0-3.458.877,7.1,7.1,0,0,0-4.443,5.762l-.011.06c-.206,1.331-.555,2.053-1.816,2.053a1.949,1.949,0,0,0-1.5.6,2.8,2.8,0,0,0-.628,1.781v-.01a2.622,2.622,0,0,0,2.094,2.588,1.84,1.84,0,0,1,1.706,1.828v.06m0-.061c0,.051-.013,4.962-.013,7.538a2.845,2.845,0,0,0,.727,2.1,2.217,2.217,0,0,0,1.465.63h1.107a2.352,2.352,0,0,0,1.239-.4,2.59,2.59,0,0,0,1.023-2.3v-7.388c0-.016,0-.15,0-.171v-.058l-.012.057.011-.025v-.029a1.843,1.843,0,0,1,1.87-1.778h.014l.011,0-.023,0H183.4c.008,0,.023,0,2.373,0a2.453,2.453,0,0,0,1.819-.668,2.793,2.793,0,0,0,.711-1.888v.005" transform="translate(-91.413 -482.66)" fill="#fcac22"/>
  <path id="Path_637" data-name="Path 637" d="M209.124,504.99h-.088v.676h.078c.263,0,.48-.107.48-.369,0-.241-.168-.307-.47-.307m.612,2.118c-.349-.618-.544-1.006-.642-1.006h-.058v1.006h-.57v-2.555h.854c.566,0,.869.3.869.7a.771.771,0,0,1-.578.7v.008c.125,0,.48.592.783,1.152Zm-.418-3.212a1.971,1.971,0,1,0,1.867,1.967,1.875,1.875,0,0,0-1.867-1.967m0,4.527a2.561,2.561,0,0,1,.009-5.121,2.561,2.561,0,1,1-.009,5.121" transform="translate(-91.413 -482.66)" fill="#fcac22"/>
  <path id="Path_638" data-name="Path 638" d="M95.925,500.48c.029.01,1.032.419,2.1.85l3.254,1.322a1.618,1.618,0,0,1,.956,1.94c-.271,1.033-1.505,2.01-4.158,1.656-1.057-.141-3.513-.666-3.538-.669l.02,0a3.662,3.662,0,0,0-2.451-.061,1.246,1.246,0,0,0-.638.833,1.6,1.6,0,0,0,1.086,1.868,13.508,13.508,0,0,0,1.513.407l.381.088a28.279,28.279,0,0,0,5.805.738c1.678-.026,5.757-.4,7.353-3.327a6.1,6.1,0,0,0,.4-2.885,4.573,4.573,0,0,0-2.44-3.455,22.726,22.726,0,0,0-3.334-1.254c-.71-.235-1.38-.457-1.731-.6-2.35-.949-2.771-1.8-2.811-2.232a1.859,1.859,0,0,1,.506-1.325,3.621,3.621,0,0,1,2.786-.932,10.179,10.179,0,0,1,3.484.462c.15.046.305.093.468.135a1.777,1.777,0,0,0,1.422-.069,1.218,1.218,0,0,0,.521-.829c.05-.262.112-1.157-1.292-1.718a15.833,15.833,0,0,0-7.532-.545,9.088,9.088,0,0,0-3.063.985,4.584,4.584,0,0,0-2.571,4.247A4.366,4.366,0,0,0,94.2,499.5a6.243,6.243,0,0,0,1.732.977" transform="translate(-91.413 -482.66)" fill="#fcac22"/>
  <path id="Path_639" data-name="Path 639" d="M124.888,504.63a4.805,4.805,0,1,1,4.806-4.8,4.811,4.811,0,0,1-4.806,4.8m0-18.265a13.46,13.46,0,1,0,13.461,13.46,13.459,13.459,0,0,0-13.461-13.46" transform="translate(-91.413 -482.66)" fill="#fcac22"/>
  <path id="Path_640" data-name="Path 640" d="M142.542,493.4v12.945h0a2.187,2.187,0,0,0,2.069,2.183c.039,0,.078,0,.12,0s.077,0,.117,0a2.189,2.189,0,0,0,2.068-2.162v-5.612c0-3.251.636-7.215,4.518-7.215,2.007,0,1.886,2.544,1.886,3.24v9.633h0a2.186,2.186,0,0,0,4.371-.067c0-.044,0-.088,0-.131v-5.325s-.6-7.453,4.556-7.347c1.87.038,1.852,2.174,1.852,3.24v9.563a2.187,2.187,0,1,0,4.373,0c0-.05,0-.1-.006-.148V494.679c0-2.341-2.056-3.426-3.916-3.426-3.509,0-3.869,1.185-5.866,1.185-1.881,0-2.053-1.188-5.108-1.188-2.666,0-3.2,1.188-5.166,1.188-1.54,0-2.375-1.184-3.678-1.184a2.026,2.026,0,0,0-2.188,2.143" transform="translate(-91.413 -482.66)" fill="#fcac22"/>
  <path id="Path_641" data-name="Path 641" d="M191.028,492.793a.2.2,0,0,0,.029.046l-.023-.036a1.644,1.644,0,0,0,.09.177l0-.011c.686,1.348,5.865,11.609,6.215,12.356a2.659,2.659,0,0,1,.253,1.148,4.17,4.17,0,0,1-1.77,3.543,5.822,5.822,0,0,1-3.544,1.122h-1.132a1.5,1.5,0,0,0-1.492,1.425c0,.9.6,1.431,1.6,1.431h1.014a8.5,8.5,0,0,0,3.055-.432,9,9,0,0,0,5.207-4.418c.356-.654,3.428-7.577,5.671-12.632l1.7-3.834.037-.082-.06-.069.024.15a.965.965,0,0,0,.048-.679.988.988,0,0,0-.512-.571,2.231,2.231,0,0,0-1.655-.051,2.2,2.2,0,0,0-1.35,1.072l.035-.05-.022.021-.014.029c-.027.055-2.557,5.535-2.742,5.908-.5.994-1.1,1.566-1.646,1.566-.639,0-1.046-.078-1.965-1.649-.069-.128-2.852-5.035-3.3-5.794l-.029-.051m.031.055a2.709,2.709,0,0,0-3.252-1.038,1.062,1.062,0,0,0-.555.619,1.038,1.038,0,0,0,.052.739" transform="translate(-91.413 -482.66)" fill="#fcac22"/>
</svg>
